<?xml version="1.0" encoding="iso-8859-1"?>
<!-- Generator: Adobe Illustrator 19.0.0, SVG Export Plug-In . SVG Version: 6.00 Build 0)  -->
<svg version="1.1" id="Capa_1" xmlns="http://www.w3.org/2000/svg" xmlns:xlink="http://www.w3.org/1999/xlink" x="0px" y="0px"
	 viewBox="0 0 511.998 511.998" style="enable-background:new 0 0 511.998 511.998;" xml:space="preserve">
<path style="fill:#5F9E5A;" d="M460.088,158.776c-14.53-9.127-28.271-19.635-43.787-27.106c-6.294-3.031-13.876-7.275-20.799-8.183
	c-8.871-1.163-18.124-1.351-27.051-0.973c-9.199,0.389-18.274,1.578-27.376,2.973c-15.01,2.3-29.691,6.844-43.763,12.577
	c-7.585,3.09-13.971,6.762-22.251,8.058c-8.168,1.277-15.264,3.954-22.753,7.441c-7.025,3.271-13.455,7.202-20.797,9.663
	c-0.127,0.042-0.255,0.085-0.383,0.126c-6.931,2.264-13.314,6.106-20.244,8.275c-11.703,3.663-23.138,7.725-35.089,11.102
	c-7.394,2.089-14.374,4.45-19.381,10.521c-3.31,4.012-7.346,5.332-12.463,5.593c-11.107,0.566-18.816,6.862-24.838,15.846
	c-3.382,5.045-7.349,9.702-11.106,14.491c-4.155,5.298-9.073,10.145-12.396,15.915c-4.995,8.672-11.7,14.737-20.704,18.965
	c-4.805,2.256-11.068,5.07-12.92,9.282c-6.022,13.696-16.731,22.858-27.148,32.603c-6.439,6.024-12.502,12.481-18.398,19.044
	c-3.146,3.502-5.84,7.485-8.289,11.524c-9.907,16.341-4.996,33.104-0.447,49.522c4.083,14.732,27.096,5.936,35.292,1.864
	c4.011-1.993,6.759-5.331,11.01-6.676c4.677-1.48,9.27-1.716,13.494-4.444c4.968-3.209,9.025-7.173,14.696-9.241
	c5.24-1.911,10.142-3.867,15.263-6.115c4.309-1.892,7.851-4.825,12.073-6.801c4.843-2.268,9.511-3.763,13.888-6.982
	c5.765-4.239,12.079-8.876,19.208-10.43c3.544-0.772,6.511-0.646,9.826,0.821c13.406,5.931,19.609,23.033,19.138,36.78
	c-0.28,8.184-0.844,16.066-4.016,23.73c-3.324,8.031-8.311,15.233-12.574,22.769c-4.848,8.569-9.192,17.599-13.36,26.501
	c-3.095,6.61-6.913,14.979-12.948,19.396c-5.159,3.775-16.455,10.123-15.426,18.092c0.626,4.847,4.845,6.847,9.093,4.927
	c1.95-0.881,1.131-2.089,4.222-1.792c2.396,0.23,4.203,1.215,6.59,1.203c2.064-0.01,4.309-0.283,6.316-0.792
	c4.12-1.045,7.698-3.384,10.833-6.192c6.303-5.647,10.688-13.047,16.359-19.269c6.651-7.296,14.715-12.878,21.06-20.62
	c7.066-8.622,12.867-18.225,17.59-28.31c8.744-18.67,22.276-32.408,40.068-42.356c4.756-2.659,9.391-5.561,13.936-8.571
	c11.353-7.519,20.319-17.846,31.572-25.302c3.888-2.577,7.046-5.604,10.205-9.021c12.444-13.465,25.562-24.243,43.703-28.749
	c19.41-4.822,38.792,0.05,54.601,12.047c3.254,2.469,6.589,4.916,10.163,6.865c11.264,6.146,18.842,15.41,24.129,26.923
	c2.841,6.188,5.939,12.307,9.495,18.105c6.579,10.727,15.387,12.738,26.044,6.077c10.909-6.818,17.347-17.007,21.311-29.058
	c9.41-28.609,14.613-57.712,17.247-87.931C510.659,220.72,484.521,174.125,460.088,158.776z M186.034,238.88
	c-4.323,4.184-10.4,6.211-16.31,4.902c-1.754-0.389-2.84-2.817-1.766-4.339c2.479-3.508,5.151-7.063,8.06-10.393
	c1.183-1.528,2.59-2.976,4.005-4.266c1.535-1.505,3.132-2.927,4.8-4.229c0.145-0.113,0.293-0.205,0.443-0.282
	c0.053-0.065,0.096-0.121,0.151-0.191c0.709-0.886,1.94-0.458,2.441,0.371c0.429,0.275,0.78,0.653,0.984,1.084
	c0.322,0.356,0.576,0.771,0.731,1.208C191.689,228.704,190.688,234.375,186.034,238.88z"/>
<g>
	<path style="fill:#367F53;" d="M250.877,152.576c-1.778,6.677-22.319,11.966-21.713,21.007c10.392,4.464,24.867-7.557,34.611,0.758
		c6.318,5.392,2.527,15.985,4.095,23.039c2.135,9.608,7.17,15.965,17.072,18.103c14.148,3.054,23.686-8.642,36.762-5.55
		c6.155,1.456,12.051,1.855,17.358-2.43c4.56-3.682,9.427-12.737,5.087-18.203c-8.158-10.274-33.298,6.909-38.484-11.659
		c-2.825-10.114,10.598-16.157-2.7-23.895c-9.176-5.34-16.98,0.905-25.788-1.442c-2.771-0.739-4.063-2.542-7.312-2.845
		C264.442,148.954,256.351,151.455,250.877,152.576z"/>
	<path style="fill:#367F53;" d="M326.141,130.048c-9.451-0.448-23.104,14.696-12.216,20.932c5.007,2.868,16.855,3.035,16.891,10.624
		c0.015,3.245-3.866,5.419-3.199,8.788c1.163,5.875,8.733,3.848,12.759,3.476c2.654-0.246,8.525-1.548,10.762-0.04
		c2.904,1.958,0.727,6.913,4.782,8.389c4.344,1.583,6.825-2.33,10.071,3.229c4.291,7.351-2.308,15.143-3.243,22.269
		c-1.248,9.513,8.522,11.26,16.102,9.422c8.336-2.02,8.174-13.029,8.967-20.66c0.452-4.34,0.267-7.855,2.731-11.52
		c1.683-2.503,5.14-4.099,6.333-7.012c2.755-6.729-3.997-9.246-9.19-11.885c-6.619-3.363-12.591-6.977-13.82-15.102
		c-0.998-6.598,5.039-11.424,3.061-17.503c-2.846-8.745-13.044-8.892-20.347-7.773C346.858,127.172,337.253,127.26,326.141,130.048z
		"/>
	<path style="fill:#367F53;" d="M412.669,129.536c-7.042-5.702-29.841,2.479-16.347,12.752c4.908,3.737,17.874,6.126,17.365,14.494
		c-0.39,6.414-10.151,6.447-6.712,14.102c2.765,6.154,11.485,8.18,12.59,15.837c1.307,9.063-10.356,15.81-12.633,24.208
		c-2.615,9.648,3.048,18.932,13.449,19.689c11.648,0.848,15.715-10.413,15.828-20.191c0.094-8.173-3.841-19.342,6.372-22.009
		c6.511-1.7,11.087,0.281,16.118-5.077c5.807-6.184,9.73-16.736,3.785-23.99c-5.239-6.392-17.169-9.726-24.239-13.827
		C429.955,140.715,423.956,134.963,412.669,129.536z"/>
	<path style="fill:#367F53;" d="M502.103,212.426c-0.933-1.526-1.694-3.099-2.121-4.596c-4.202-8.734-9.594-17.68-18.32-28.439
		c1.384,2.847,1.135,7.709,0.613,10.173c-1.664,7.873-8.333,8.428-14.218,12.875c-9.258,6.996-5.829,13.689-2.438,22.958
		c2.974,8.132-0.31,11.38-4.795,18.377c-10.789,16.83,11.589,20.063,20.525,8.585c5.685-7.302,4.04-5.652,11.56-2.941
		c4.067,1.466,6.507,1.315,9.374-1.863c8.956-9.925,4.586-24.295,0.005-34.719C502.227,212.7,502.164,212.563,502.103,212.426z"/>
	<path style="fill:#367F53;" d="M194.045,179.2c2.094-2.576,10.181-7.035,13.834-6.115c3.731,0.939,3.65,5.863,5.955,8.082
		c2.118,2.039,4.298,2.381,7.233,2.767c8.753,1.15,16.252,0.464,22.031,8.535c4.041,5.643,17.774,29.79,10.176,36.802
		c-3.695,3.41-11.326-0.499-13.867-3.587c-2.758-3.352-3.79-8.151-5.914-11.902c-2.335-4.124-4.76-4.822-7.7-7.534
		c-2.978-2.746-2.615-5.137-4.824-8.279c-4.294-6.112-14.333-2.867-20.778-5.732c-1.1-0.489-7.953-4.138-8.265-4.817
		C190.212,183.68,195.147,180.701,194.045,179.2z"/>
</g>
<g>
	<path style="fill:#4D8446;" d="M227.244,241.174c-0.505-18.706-11.391-26.401-29.103-28.182
		c-10.702-0.934-23.963,11.111-28.653,19.974c-1.504,2.841-2.715,7.955-3.033,10.978c-0.44,4.173,1.171,6.904-0.246,10.757
		c-1.77,4.813-3.504,4.362-1.22,9.366c1.341,2.936,3.58,6.783,6.487,8.353c4.547,2.456,5.585-0.945,10.47-0.399
		c5.063,0.565,7.433,5.2,13.123,5.01C214.125,276.395,227.727,259.096,227.244,241.174z M186.034,238.88
		c-4.323,4.184-10.4,6.211-16.31,4.902c-1.754-0.389-2.84-2.817-1.766-4.339c2.479-3.508,5.151-7.063,8.06-10.393
		c1.183-1.528,2.59-2.976,4.005-4.266c1.535-1.505,3.132-2.927,4.8-4.229c0.145-0.113,0.293-0.205,0.443-0.282
		c0.053-0.065,0.096-0.121,0.151-0.191c0.709-0.886,1.94-0.458,2.441,0.371c0.429,0.275,0.78,0.653,0.984,1.084
		c0.322,0.356,0.576,0.771,0.731,1.208C191.689,228.704,190.688,234.375,186.034,238.88z"/>
	<path style="fill:#4D8446;" d="M143.357,302.08c0.038-12.155-1.784-26.92-16.396-30.094c-8.221-1.786-17.312,2.806-23.038,8.679
		c-2.503,2.568-3.467,6.713-6.148,9.037c-2.201,1.907-3.726,1.765-6.503,2.639c-7.741,2.436-11.876,8.868-17.932,13.337
		c-4.762,3.514-8.956,6.43-13.555,10.625c-5.05,4.606-13.119,8.01-14.131,15.601c-0.737,5.528,3.547,9.601,7.991,12.301
		c3.506,2.13,6.223,2.308,10.421,1.33c3.915-0.912,6.996-3.008,11.05-3.167c3.628-0.142,7.181,1.453,10.822,1.158
		c13.525-1.096,20.379-9.233,31.415-15.357C127.73,322.41,133.634,318.361,143.357,302.08z"/>
</g>
<path style="fill:#F26655;" d="M171.517,345.088c-4.941-5.914-21.126-8.938-13.616-17.446c8.35-9.458,21.724-9.624,32.38-14.62
	c12.207-5.723,22.341-15.203,35.228-19.326c9.887-3.163,20.514-5.028,30.43-7.394c-5.708,6.402-14.542,10.933-21.419,16.304
	c-9.497,7.418-15.203,16.876-21.289,27.379c-7.175,12.382-13.267,24.771-19.429,37.604c-2.864,5.966-8.164,11.336-12.709,3.906
	C177.637,365.846,179.246,349.734,171.517,345.088z"/>
<path style="fill:#FFFFFF;" d="M193.439,228.367c-0.159-2.781-3.064-11.074-7.586-9.231c-3.722,1.147-11.31,8.368-13.862,11.877
	c-1.65,2.268-2.447,4.875-3.302,7.415c2.274-3.177,4.701-6.368,7.329-9.377c1.183-1.528,2.59-2.976,4.005-4.266
	c1.535-1.505,3.132-2.927,4.8-4.229c0.145-0.113,0.293-0.205,0.443-0.282c0.053-0.065,0.096-0.121,0.151-0.191
	c0.709-0.886,1.94-0.458,2.441,0.371c0.429,0.275,0.78,0.653,0.984,1.084c0.322,0.356,0.576,0.771,0.731,1.208
	c2.115,5.958,1.114,11.629-3.541,16.134c-4.323,4.184-10.4,6.211-16.31,4.902c-1.093-0.242-1.925-1.275-2.138-2.388
	c-0.328,0.76-0.697,1.498-1.136,2.199c5.781,2.438,16.104,0.571,21.08-2.93C191.427,237.92,193.712,233.138,193.439,228.367z"/>
<g>
	<path style="fill:#C2E0B3;" d="M292.861,335.872c2.863-7.624,4.988-15.473,9.112-22.439c3.141-5.307,5.324-10.649,5.247-16.937
		c-0.127-10.422-11.473-39.518,6.827-36.893c6.508,0.934,12.311,3.572,19.064,3.961c9.108,0.524,18.289-0.381,27.42-0.158
		c8.397,0.205,16.67,0.41,25.055-0.221c9.054-0.681,17.535-2.737,25.292,2.797c8.893,6.344,16.295,13.006,27.494,15.046
		c10.247,1.867,20.917-1.014,30.676,3.708c9.105,4.405,25.769,11.049,31.308,20.053c3.235,5.259-0.692,8.831-2.092,14.84
		c-0.892,3.828-0.511,7.788-1.594,11.621c-1.306,4.621-3.955,8.94-5.915,13.319c-6.099,13.623-13.737,28.783-30.481,28.577
		c-5.646-0.07-10.243,0.228-14.298-3.958c-4.377-4.519-5.648-10.025-8.207-15.524c-5.527-11.879-10.944-22.158-21.304-30.535
		c-11.38-9.202-25.395-19.317-39.403-23.607C343.268,289.173,317.468,315.21,292.861,335.872z"/>
	<path style="fill:#C2E0B3;" d="M374.269,244.736c-6.136-1.127-12.079-2.403-18.473-2.068c-5.8,0.304-21.725,1.848-24.448,7.629
		c5.337,3.411,13.77-0.369,19.825-0.053c7.118,0.372,13.574,3.622,20.603,4.556c3.269,0.435,11.683,1.642,14.194-1.889
		c1.805-2.538,0.407-4.399-3.51-5.103"/>
	<path style="fill:#C2E0B3;" d="M448.375,265.097c-4.95-2.879-11.35-4.847-16.964-5.288c-3.052-0.239-15.197,0.06-11.486,5.939
		c1.455,2.305,7.347,3.378,9.772,4.543c5.477,2.632,8.813,4.672,14.814,5.718c4.582,0.798,11.451,2.895,15.427,0.554
		c0.765-0.451-9.457-10.177-10.817-11.02C448.876,265.392,448.627,265.243,448.375,265.097z"/>
	<path style="fill:#C2E0B3;" d="M506.365,280.576c-6.167-2.455-14.599-5.234-21.245-3.782c-12.95,2.829,4.83,9.386,8.534,13.657
		c2.266,2.612,5.396,8.334,10.196,6.032C507.108,294.92,508.909,286.997,506.365,280.576z"/>
	<path style="fill:#C2E0B3;" d="M284.762,282.083c-4.565,0.877-9.264,3.141-11.99,5.773c-2.072,2.001-8.465,8.187-6.419,11.654
		c4.653-0.177,7.861-1.571,12.273,0.933c4.673,2.651,4.15,5.534,9.829,2.862c3.824-1.799,7.74-6.571,8.561-10.568
		C299.048,282.833,292.076,280.678,284.762,282.083z"/>
	<path style="fill:#C2E0B3;" d="M266.596,322.558c8.874,1.354,18.047-11.307,8.243-16.461
		C266.921,301.933,250.515,320.103,266.596,322.558z"/>
	<path style="fill:#C2E0B3;" d="M287.736,323.599c6.617-0.506,10.288-14.515,2.473-12.521
		C285.202,312.354,278.039,324.34,287.736,323.599z"/>
</g>
<g>
	<path style="fill:#245937;" d="M218.229,105.168c-2.09,5.757-2.228,13.554-2.435,19.658c-0.262,7.703,0.514,15.483,2.293,22.965
		c1.207,5.072,3.2,9.072,5.792,13.401c0.774,1.294,0.77,2.852,1.45,4.154c1.428,2.735,3.839,0.649,6.335-0.391
		c2.106-0.878,6.088-1.44,6.664-4.164c0.562-2.659-2.998-6.108-4.146-8.228c-2.027-3.743-3.393-8.145-4.877-12.134
		c-2.06-5.538-4.031-11.236-5.652-16.92c-0.89-3.121-1.585-6.331-2.184-9.521C221.068,111.834,221.123,108.658,218.229,105.168z"/>
	<path style="fill:#245937;" d="M240.96,54.024c-3.08,3.701-3.887,11.558-4.562,16.135c-1.135,7.69-1.518,15.44-1.531,23.219
		c-0.014,8.005,0.07,16.082,1.984,23.901c1.349,5.512,2.025,11.007,2.887,16.605c0.909,5.904,3.333,10.995,4.887,16.626
		c0.606,2.198,0.218,4.026,2.864,3.942c3.172-0.101,6.449-3.132,9.296-4.254c-0.326-2.11-1.784-4.076-2.86-5.878
		c-1.561-2.615-2.459-5.116-3.212-8.076c-2.338-9.191-3.43-18.594-5.99-27.702c-1.123-3.994-1.26-8.443-1.678-12.558
		c-0.468-4.604-1.075-9.029-1.07-13.687c0.006-5.677,0.55-11.306,0.613-16.972C242.624,62.059,241.699,59.38,240.96,54.024z"/>
	<path style="fill:#245937;" d="M266.735,38.396c-4.488,6.3-7.027,15.301-8.246,22.815c-1.147,7.071-2.388,14.091-3.069,21.231
		c-1.201,12.583-0.802,25.305,0.102,37.897c0.361,5.033,1.394,9.959,1.82,14.983c0.25,2.935,0.302,5.891,0.66,8.806
		c0.179,1.458-0.004,3.926,1.23,4.892c1.175,0.919,4.322,0.525,5.82,0.614c2.382,0.141,3.895-0.955,6.147-1.452
		c0-3.756-1.561-8.083-2.442-11.73c-1.057-4.373-1.819-8.871-2.43-13.324c-1.426-10.402-1.701-20.768-1.218-31.264
		c0.437-9.481,0.899-19.01,1.827-28.471c0.587-5.993,0.667-11.97,1.578-17.933c0.422-2.763,1.114-4.925-0.331-7.435
		C267.85,37.973,267.569,38.097,266.735,38.396z"/>
	<path style="fill:#245937;" d="M298.599,25.61c-0.128,0.279-1.358,1.786-1.71,2.226c-2.537,3.168-4.639,6.674-6.259,10.397
		c-2.538,5.833-4.023,11.992-5.634,18.123c-2.89,11.001-4.712,22.157-5.622,33.485c-0.827,10.289-2.728,20.555-1.064,30.867
		c1.045,6.474,1.229,12.941,1.795,19.446c0.159,1.83-0.309,3.797,1.669,4.157c3.084,0.561,7.28-2.894,9.859-4.049
		c0.907-0.406,2.964-0.931,3.489-1.856c0.684-1.206-0.27-4.523-0.424-5.821c-0.935-7.848-1.322-15.863-1.934-23.752
		c-0.675-8.705-0.976-17.45-0.05-26.143c1.049-9.846,2.149-19.752,3.866-29.504c0.848-4.817,1.011-9.734,1.826-14.567
		c0.383-2.265,0.826-4.492,1.233-6.741C299.988,29.949,299.468,27.889,298.599,25.61z"/>
	<path style="fill:#245937;" d="M330.057,37.179c-3.922,4.602-8.008,9.541-10.959,14.836c-3.173,5.692-5.597,11.968-8.208,17.933
		c-5.32,12.152-8.431,24.749-8.85,38.077c-0.239,7.618,0.458,15.38,0.822,22.987c0.088,1.837,0.175,3.213,2.297,3.563
		c3.399,0.56,10.459-1.882,13.109-3.988c-2.287-4.756-2.146-12.183-1.976-17.415c0.307-9.41,1.632-18.966,3.202-28.239
		c1.409-8.321,4.103-16.386,6.7-24.396c1.554-4.791,3.248-9.568,4.599-14.423C331.348,44.117,333.43,39.429,330.057,37.179z"/>
	<path style="fill:#245937;" d="M360.703,46.514c-2.042,3.366-5.182,6.124-7.737,9.149c-3.347,3.962-6.435,8.191-8.673,12.883
		c-4.394,9.212-8.981,18.26-12.229,27.961c-2.308,6.891-3.881,14.075-5.208,21.218c-0.614,3.304-1.334,6.993-1.029,10.359
		c2.347,0.048,4.276,0.083,6.739-0.176c3.564-0.375,7.473-1.933,11.04-1.249c0.585-4.957-0.275-10.297,0.247-15.369
		c0.923-8.968,3.192-17.461,5.198-26.205c1.403-6.116,3.125-12.263,5.493-18.08C357.093,60.742,360.161,54.387,360.703,46.514z"/>
	<path style="fill:#245937;" d="M380.389,69.042c-6.486,6.287-12.318,11.282-15.794,19.916c-3.117,7.74-6.128,15.519-9.203,23.271
		c-0.639,1.61-4.528,10.875-3.2,12.333c0.895,0.983,6.894,0.382,8.136,0.306c2.338-0.144,6.085,0.265,8.229-0.872
		c0.32-1.978-0.415-4.378-0.202-6.567c0.594-6.094,1.746-12.441,3.28-18.344c1.653-6.356,3.396-12.375,5.963-18.432
		C378.273,79.059,383.237,70.96,380.389,69.042z"/>
	<path style="fill:#245937;" d="M400.278,86.902c-5.367,4.977-11.509,10.387-15.122,16.949c-2.112,3.835-4.134,7.725-6.182,11.581
		c-0.921,1.734-4.023,5.692-2.818,7.595c1.272,2.008,5.385,0.79,7.184,0.792c2.205,0.002,4.998-0.299,7.132,0.205
		c0.588-1.348,0.608-2.872,0.865-4.319c0.63-3.543,1.472-6.993,2.319-10.493C395.36,102.178,398.114,94.216,400.278,86.902z"/>
</g>
<g>
	<path style="fill:#4D8446;" d="M251.223,245.299c-0.151-1.256-0.315-2.465-0.969-3.581c-0.78-1.334-1.985-2.309-3.392-2.902
		c-2.579-1.088-5.747-0.58-7.749,1.467c-1.591,1.626-2.536,3.819-2.546,6.113c-0.002,0.384,0.033,0.766,0.067,1.147
		c-0.113,0.152-0.214,0.292-0.307,0.423c-0.201,0.256-0.411,0.505-0.589,0.778c0.029-0.017,0.059-0.034,0.087-0.05
		c-1.092,1.896-1.04,4.495,0.687,6.048c2.806,2.524,6.774,2.313,9.815,0.294c1.539-1.021,2.813-2.267,3.656-3.928
		C250.821,249.456,251.445,247.15,251.223,245.299z"/>
	<path style="fill:#4D8446;" d="M264.035,246.902c-0.179-1.118-0.832-1.805-1.492-2.658c-0.475-0.511-1.037-0.872-1.687-1.083
		c-0.625-0.328-1.297-0.479-2.019-0.452c-1.284,0.058-2.878,0.466-3.705,1.535c-0.66,0.854-1.313,1.541-1.492,2.658
		c-0.064,0.478-0.128,0.956-0.192,1.433c-0.028,0.742,0.127,1.434,0.464,2.077c0.128,0.456,0.359,0.853,0.693,1.189
		c0.38,0.587,0.884,1.049,1.512,1.388c0.105,0.077,0.211,0.154,0.316,0.231c1.239,0.904,3.57,0.904,4.808,0
		c0.105-0.077,0.211-0.154,0.316-0.231c0.363-0.281,0.727-0.562,1.091-0.843c0.525-0.488,0.897-1.066,1.114-1.734
		c0.244-0.42,0.367-0.874,0.368-1.36C264.292,248.335,264.26,247.619,264.035,246.902z"/>
	<path style="fill:#4D8446;" d="M259.514,259.514c-7.722,0-7.734,12,0,12C267.235,271.514,267.248,259.514,259.514,259.514z"/>
	<path style="fill:#4D8446;" d="M344.759,219.053c-1.157-1.062-2.578-1.731-4.179-1.731c-1.516,0-3.108,0.659-4.18,1.731
		c-1.025,1.025-1.797,2.707-1.731,4.18c0.068,1.528,0.57,3.114,1.731,4.179c1.156,1.062,2.578,1.731,4.18,1.731
		c1.516,0,3.107-0.659,4.179-1.731c1.025-1.025,1.797-2.707,1.731-4.179C346.422,221.704,345.92,220.119,344.759,219.053z"/>
	<path style="fill:#4D8446;" d="M134.741,253.382c-0.102-0.758-0.204-1.517-0.306-2.275c-0.229-0.741-0.528-1.457-0.896-2.147
		c-1.562-2.669-4.546-4.388-7.641-4.379c-3.755,0.011-7.226,2.55-8.231,6.2c-0.419,1.521-0.339,3.029-0.001,4.543
		c0.327,1.464,1.126,2.608,2.083,3.698c0.55,0.692,1.223,1.263,2.03,1.698c0.073,0.046,0.149,0.087,0.221,0.136
		c-0.083-0.064-0.166-0.128-0.249-0.192c1.995,1.272,4.397,1.738,6.768,1.085c1.423-0.399,2.658-1.119,3.706-2.16
		c1.042-1.048,1.762-2.284,2.161-3.707C134.679,255.097,134.779,254.212,134.741,253.382z"/>
	<path style="fill:#4D8446;" d="M94.733,268.924c-0.35-1.468-1.253-2.819-2.568-3.588c-1.629-0.953-3.917-1.075-5.512,0.021
		c-0.914,0.627-1.599,1.343-2.036,2.379c-0.447,1.058-0.507,2.105-0.251,3.24c0.209,0.925,0.798,1.898,1.48,2.548
		c0.64,0.61,1.454,1.086,2.301,1.341c0.127,0.038,0.245,0.058,0.371,0.105l-0.253-0.106c0.54,0.198,1.098,0.338,1.686,0.338
		c1.104,0,2.143-0.398,3.006-1.064C94.556,272.901,95.203,270.893,94.733,268.924z"/>
	<path style="fill:#4D8446;" d="M77.79,277.847c-2.102,0.094-3.88,1.705-3.88,3.88v0.676c0,2.029,1.785,3.974,3.88,3.88
		c2.102-0.094,3.88-1.705,3.88-3.88v-0.676C81.67,279.697,79.886,277.753,77.79,277.847z"/>
	<path style="fill:#4D8446;" d="M436.554,238.935c-0.783-0.717-1.702-1.2-2.757-1.451c-1.437-0.386-2.873-0.386-4.31,0
		c-0.711,0.119-1.752,0.576-2.371,0.948c-1.235,0.743-2.323,1.861-3.031,3.102c-0.748,1.309-1.167,3.006-1.109,4.651
		c-0.485,2.31,0.203,4.83,1.918,6.701c3.095,3.376,8.381,3.579,11.7,0.38c2.143-2.065,3.226-5.001,3.156-7.965
		C439.687,242.709,438.59,240.508,436.554,238.935z"/>
	<path style="fill:#4D8446;" d="M451.481,227.572c-1.526-1.401-3.402-2.285-5.516-2.285c-2,0-4.101,0.87-5.516,2.285
		c-0.761,0.707-1.298,1.543-1.613,2.51c-0.488,0.93-0.712,1.931-0.672,3.005c0.091,2.018,0.753,4.11,2.285,5.516
		c1.526,1.401,3.402,2.285,5.516,2.285c2,0,4.101-0.87,5.516-2.285c0.76-0.707,1.298-1.543,1.612-2.51
		c0.488-0.93,0.712-1.931,0.672-3.005C453.676,231.07,453.013,228.978,451.481,227.572z"/>
	<path style="fill:#4D8446;" d="M411.448,237.734c-0.053-0.082-0.106-0.163-0.159-0.245c-1.171-1.796-2.985-2.972-5.181-2.972
		s-4.01,1.175-5.181,2.972c-0.053,0.082-0.106,0.163-0.16,0.245c-0.451,0.71-0.696,1.477-0.733,2.299
		c-0.185,0.822-0.147,1.645,0.11,2.466c0.477,1.475,1.407,2.982,2.842,3.696c0.97,0.482,2.008,0.912,3.122,0.862
		c1.147-0.051,2.08-0.343,3.121-0.862c0.721-0.389,1.299-0.92,1.735-1.593c0.547-0.598,0.916-1.299,1.107-2.104
		C412.432,240.921,412.36,239.133,411.448,237.734z"/>
	<path style="fill:#4D8446;" d="M236.676,343.369c-0.282-0.668-0.564-1.336-0.846-2.004c-0.438-0.566-0.875-1.132-1.312-1.698
		c-0.566-0.438-1.132-0.875-1.698-1.312l-2.004-0.846c-0.744-0.1-1.487-0.2-2.23-0.3c-1.155-0.044-2.233,0.197-3.233,0.723
		c-0.71,0.199-1.328,0.559-1.851,1.079c-0.631,0.373-1.132,0.875-1.505,1.505c-0.52,0.523-0.879,1.141-1.079,1.851
		c-0.379,0.654-0.57,1.36-0.573,2.118c-0.2,0.744-0.2,1.487,0,2.23c0.002,0.757,0.193,1.463,0.573,2.118
		c0.187,0.667,0.52,1.247,0.989,1.749c0.126,0.182,0.261,0.358,0.403,0.526c0.111,0.144,0.227,0.282,0.349,0.415
		c0.177,0.229,0.353,0.457,0.529,0.686c0.695,0.748,1.518,1.276,2.469,1.585c0.598,0.347,1.243,0.521,1.936,0.524
		c1.019,0.228,2.039,0.183,3.058-0.137c0.276-0.08,1.626-0.643,1.886-0.79c0.334-0.189,0.436-0.319,0.879-0.662
		c0.461-0.356,0.652-0.462,0.959-0.781c0.275-0.285,1.101-1.332,1.286-1.672c0.024-0.044,0.047-0.089,0.072-0.133
		c0.397-0.712,0.731-1.51,0.945-2.312c0.1-0.744,0.2-1.487,0.299-2.231C236.876,344.856,236.776,344.113,236.676,343.369z"/>
	<path style="fill:#4D8446;" d="M250.751,338.454c-0.999-0.999-2.638-1.751-4.073-1.687c-1.49,0.066-3.035,0.556-4.073,1.687
		c-1.035,1.127-1.688,2.512-1.688,4.073v1.351c0,1.477,0.643,3.028,1.688,4.073c0.999,0.999,2.638,1.751,4.073,1.688
		c1.49-0.067,3.035-0.556,4.073-1.688c1.034-1.127,1.688-2.512,1.688-4.073v-1.351C252.438,341.049,251.796,339.498,250.751,338.454
		z"/>
	<path style="fill:#4D8446;" d="M285.999,326.279c-3.784,3.812-7.565,7.636-11.27,11.523c-1.742,1.827-3.473,3.684-5.149,5.571
		c-0.408,0.459-0.812,0.965-1.221,1.482c-2.797,2.388-5.506,4.576-8.762,6.441c-3.146,1.802-6.438,3.213-9.755,4.564
		c-0.21-0.319-0.458-0.615-0.75-0.886c-0.802-0.736-1.735-1.28-2.771-1.615c-0.835-0.262-1.67-0.299-2.504-0.112
		c-0.835,0.038-1.614,0.287-2.335,0.746l-1.067,0.738c-0.979,0.58-1.76,1.359-2.339,2.339c-0.589,1.017-0.886,2.114-0.89,3.291
		c0.016,0.355,0.059,0.704,0.119,1.048c-0.259,0.14-0.522,0.264-0.779,0.408c-7.243,4.069-14.322,9.348-20.396,15.018
		c-1.676,1.564-3.311,3.216-4.61,5.116c-1.287,1.881-1.934,4.1-3.497,5.773c-2.644,2.83-6.329,4.584-9.004,7.459
		c-5.684,6.107-9.119,13.946-13.26,21.026c-0.86,1.471-1.147,3.22-2.051,4.683c-0.953,1.542-2.309,2.877-3.428,4.3
		c-2.824,3.59-5.664,7.324-8.047,11.23c-2.258,3.703-3.588,6.642-6.858,9.331c1.553-2.632,2.995-5.351,4.451-8.109
		c3.31-6.274,6.697-12.679,9.354-19.258c0.741-1.834-0.365-3.325-1.895-3.977c4.704-6.421,9.341-12.871,13.785-19.5
		c1.677-2.501-2.221-5.57-4.209-3.248c-7.196,8.408-13.788,17.049-19.948,26.242c-0.722,1.078-0.685,2.108-0.222,2.917
		c-2.36,2.961-4.367,6.304-6.275,9.216c-4.375,6.677-7.488,13.45-12.812,19.496c-9.161,10.403-18.917,21.592-24.841,34.153
		c-0.596,1.263,1.011,2.804,2.073,1.6c2.215-2.513,5.726-3.486,8.687-5.002c-0.602,0.404-1.182,0.838-1.697,1.36
		c-1.659,1.683-0.377,4.358,1.856,4.481c0.153,0.008,0.307,0.017,0.46,0.025c0.424,0.023,0.782-0.048,1.09-0.177
		c3.849-0.263,7.052,0.297,10.954-1.788c4.29-2.292,8.054-5.678,11.483-9.152c3.641-3.205,6.992-6.941,10.202-10.127
		c5.493-5.451,12.148-8.762,15.908-15.879c2.335-4.421,4.956-8.5,8.071-12.437c2.254-2.849,5.061-5.472,6.752-8.713
		c3.748-7.179,5.936-15.137,9.979-22.195c2.104-3.672,4.5-6.908,7.505-9.894c2.748-2.729,5.182-5.824,8.132-8.321
		c6.688-5.662,14.035-10.85,21.57-15.308c6.988-4.134,14.467-6.444,20.66-11.983c2.804-2.508,5.075-5.523,7.188-8.613
		c0.357-0.522,0.708-1.12,1.061-1.758c1.276-0.945,2.504-1.964,3.74-2.933c5.233-4.102,10.1-8.68,15.144-13.011
		C298.774,329.398,290.911,321.33,285.999,326.279z M145.493,471.969c-1.039,1.129-2.108,2.227-3.238,3.256
		c-1.954,1.782-4.43,2.714-6.708,3.871c2.268-1.511,4.122-3.337,5.922-5.443c2.346-2.745,4.751-5.392,7.193-8.001
		C147.401,467.734,146.466,469.823,145.493,471.969z"/>
	<path style="fill:#4D8446;" d="M203.443,372.366c-8.545,0-8.559,13.28,0,13.28C211.988,385.646,212.002,372.366,203.443,372.366z"
		/>
	<path style="fill:#4D8446;" d="M226.984,287.797c-6.823,0.353-12.639,3.729-18.618,6.728c-2.233,1.121-4.482,2.248-6.625,3.543
		c-0.427,0.032-0.853,0.061-1.279,0.081c-0.546-1.796-1.57-3.5-2.678-4.812c-1.063-1.258-2.413-2.427-4.012-2.897
		c-0.646-0.19-1.365-0.263-2.033-0.245c-0.356,0.009-0.716,0.121-1.072,0.165c0.005-0.027-0.271-0.067-0.547-0.031
		c-1.907,0.245-3.561,1.46-3.561,3.56c0,1.375,1.038,2.945,2.423,3.42c0.032,0.066,0.068,0.143,0.104,0.217
		c0.058,0.172,0.127,0.369,0.133,0.39c0.07,0.261,0.146,0.527,0.221,0.792c-2.021,0.381-4.001,1.07-5.926,2.331
		c-0.022,0.015-0.042,0.03-0.064,0.044c-2.935-3.292-6.342-3.874-10.604-4.572c-2.321-0.38-4.692,0.605-5.363,3.045
		c-0.6,2.184,0.735,4.854,3.045,5.363c2.109,0.465,3.314,1.713,4.185,3.254c-1.985,1.415-4.187,2.515-7.023,2.885
		c-6.727,0.878-11.305,5.226-16.538,9.137c-3.08,2.302-6.194,4.606-9.998,5.463c-3.144,0.708-5.764,0.925-8.27,3.168
		c-2.047,1.833-3.721,4.862-6.183,6.156c-2.51,1.319-6.009,0.256-8.797,0.675c-4.03,0.605-6.629,2.811-10.037,4.762
		c-3.131,1.792-6.533,3.081-9.462,5.214c-2.656,1.935-4.712,3.897-7.969,4.735c-3.542,0.912-6.732,2.065-9.768,4.173
		c-2.225,1.545-4.37,4.789-6.795,5.832c-1.414,0.608-3.429,0.051-5.017,0.178c-1.708,0.136-3.34,0.649-4.856,1.453
		c-3.792,2.009-7.157,4.57-10.604,7.027c-0.265-1.058-0.459-2.15-0.514-3.332c-0.183-3.956,0.347-7.669,1.406-11.473
		c1.249-4.488-5.286-6.114-6.866-1.893c-2.425,6.479-4.72,14.968-2.71,22.018c-0.273,0.13-0.533,0.279-0.812,0.403
		c-1.166,0.519-2.443,1.15-3.729,1.88c-0.349-2.086-0.176-4.089-0.579-6.264c-0.139-0.749-0.959-1.624-1.732-1.732
		c-5.529-0.774-6.207,7.441-6.002,11.233c0.062,1.151,0.275,2.309,0.619,3.419c-0.936,1.457-1.544,3.057-1.614,4.806
		c-0.032,0.8,0.742,1.618,1.56,1.56c1.192-0.084,2.291-0.464,3.357-0.957c2.203,1.985,5.206,2.77,8.7,1.14
		c1.106-0.516,1.801-1.937,1.783-3.108c-0.012-0.772-0.153-1.488-0.409-2.146c2.874-0.731,5.753-1.421,8.462-2.689
		c4.165-1.949,7.928-4.729,11.727-7.291c2.041-1.376,3.081-2.149,5.402-2.479c2.301-0.326,4.209-0.003,6.471-0.947
		c3.456-1.442,5.467-4.413,8.308-6.667c3.598-2.855,8.255-3.143,12.445-4.687c4.048-1.492,7.81-3.477,11.708-5.293
		c3.682-1.716,7.301-4.32,11.158-5.416c3.385-0.961,6.795-1.925,9.759-3.907c3.344-2.236,5.399-5.468,7.933-8.482
		c2.648-3.151,7.288-3.371,10.898-5.443c3.59-2.061,6.816-4.813,10.05-7.379c1.936-1.536,3.969-3.235,6.344-4.06
		c1.94-0.674,3.994-0.433,5.962-0.923c2.2-0.548,4.345-1.638,6.325-2.922c0.638,0.594,1.404,1.079,2.4,1.367
		c2.67,0.771,5.43-0.938,6.213-3.528c0.503-1.665,0.505-3.345,0.168-4.972c0.985-0.728,2.048-1.328,3.226-1.755
		c0.225,1.105,1.282,2.111,2.589,1.754c12.57-3.434,25.815-6.801,35.956-15.331C231.575,291.67,229.786,287.652,226.984,287.797z"/>
	<path style="fill:#4D8446;" d="M324.604,230.511c-0.021-0.09-0.042-0.181-0.065-0.27c-0.127-0.494-0.52-1.445-0.775-1.891
		c-0.184-0.32-0.912-1.274-1.178-1.541c-0.157-0.157-0.516-0.418-0.667-0.525c-0.109-0.094-0.627-0.509-0.807-0.615
		c-0.134-0.078-1.646-0.711-1.789-0.75c-0.337-0.066-0.679-0.112-1.022-0.139c-0.994-0.223-1.988-0.178-2.982,0.133
		c-0.083,0.015-0.165,0.029-0.247,0.045c-0.08,0.016-0.16,0.031-0.239,0.051c-0.633,0.268-1.267,0.535-1.9,0.802
		c-0.537,0.415-1.073,0.83-1.61,1.244c-0.384,0.324-0.474,0.509-0.874,1.026c-0.258,0.334-0.609,0.693-0.793,1.1
		c-0.009,0.015-0.015,0.03-0.024,0.044c-1.031-2.824-2.351-5.572-3.521-8.293c-1.717-3.99-8.77-1.084-7.092,2.99
		c1.411,3.425,2.773,6.806,3.264,10.464c-3.456-3.871-7.77-6.854-11.737-10.204c-2.91-2.457-7.006,1.459-4.243,4.243
		c1.235,1.244,2.509,2.448,3.758,3.671c-0.173,0.563-0.07,1.177,0.504,1.625c2.46,1.918,3.609,4.574,4.284,7.498
		c-1.467-1.852-3.105-3.419-4.873-4.851c-2.308-5.142-4.769-10.339-8.289-14.738c-3.646-4.555-7.756-8.582-12.415-12.099
		c-2.082-1.572-4.279-2.998-6.688-4.019c-3.373-1.431-7.232-1.689-10.5-3.317c-0.983-0.49-2.25,0.867-1.26,1.633
		c2.153,1.668,3.472,3.945,5.722,5.532c2.67,1.883,5.406,3.511,7.736,5.842c4.14,4.142,7.682,9.767,10.398,14.947
		c5.386,10.268,4.759,23.986,14.311,31.768c2.504,2.041,5.412,2.056,7.746,0.965c0.529,0.311,1.105,0.556,1.737,0.718
		c1.574,0.403,3.75-0.511,4.035-2.291c0.465-2.907-0.038-5.711-1.025-8.399c-0.065-0.725-0.122-1.45-0.17-2.176
		c0.562,1.348,1.143,2.685,1.785,3.991c1.52,3.094,6.947,1.696,6.634-1.796c-0.104-1.151-0.254-2.265-0.432-3.362
		c0.548-0.435,0.96-1.03,1.103-1.804c0.536-2.906,0.985-5.633,1.041-8.413c0.095,0.069,0.183,0.145,0.282,0.209
		c0.335,0.333,0.725,0.572,1.14,0.767c-0.792,3.311,1.011,7.344,5.419,7.344c5.365,0,6.88-5.994,4.531-9.365
		c0.308-0.371,0.615-0.762,0.838-1.129c0.194-0.354,0.355-0.723,0.483-1.107c0.197-0.328,0.339-0.675,0.425-1.04
		C324.952,233.549,324.945,231.997,324.604,230.511z"/>
	<path style="fill:#4D8446;" d="M196.264,203.432c-2.067-0.181-4.003,0.35-6.073,0.223c-1.387-0.085-2.466-0.53-3.913-0.261
		c-2.198,0.409-3.417,1.728-4.602,3.199c-0.344-0.073-0.612-0.122-0.69-0.123c-1.525-0.028-2.963,0.654-4.181,1.486
		c-2.683,1.833-3.597,4.757-5.693,7.006c-1.135,1.217-2.574,1.877-3.539,3.347c-0.669,1.021-1.047,3.794-1.917,4.462
		c-1.005,0.771-3.462,0.094-4.697,0.421c-1.213,0.322-2.279,1.019-3.101,1.931c-1.835,2.039-1.806,4.702-1.451,7.258
		c0.137,0.984,0.751,2.656,0.667,3.806c-0.101-0.537-2.041,2.224-2.186,2.566c-0.998,2.359-0.316,4.597-0.4,7.02
		c-0.038,1.081-0.341,2.16-0.37,3.268c-0.032,1.255,0.039,2.51-0.002,3.765c-0.035,1.086-0.113,2.169-0.234,3.25
		c-0.102,0.257-0.157,0.469-0.189,0.659c-0.514,0.163-0.96,0.513-1.216,1.104c-1.237,2.86-0.132,5.446,3.254,5.71
		c4.807,0.375,6.713-3.818,7.326-7.86c0.392-2.587-0.071-5.201,0.11-7.798c0.067-0.958-0.122-1.94,0.036-2.872
		c0.2-1.18,0.79-2.321,1.312-3.385c0.559-1.141,1.509-1.896,1.82-3.225c0.509-2.169,0.014-4.14-0.659-6.205
		c-0.09-0.277-0.211-0.856-0.355-1.398c0.085-0.003,0.171-0.006,0.257-0.01c1.678,0.359,4.525-0.944,5.771-2.015
		c1.66-1.427,1.625-3.554,2.931-5.042c1.37-1.562,3.658-1.897,5.108-3.77c0.534-0.69,1.107-1.565,1.447-2.35
		c0.246-0.569,0.482-0.879,0.588-1.046c1.68,0.317,2.826,0.96,4.874-0.439c0.644-0.44,1.789-1.361,2.048-2.155
		c0.119-0.365,0.131-0.624,0.093-0.805c0.14,0.039,0.308,0.075,0.532,0.104c2.813,0.366,5.752-0.41,8.473-1.108
		C202.548,210.843,201.045,203.85,196.264,203.432z"/>
	<path style="fill:#4D8446;" d="M146.993,200.14c-2.347-2.069-5.422,0.302-7.161,2.016c-3.84,3.784-6.201,8.411-10.535,11.757
		c-8.996,6.945-14.909,16.935-15.761,28.434c-0.277,3.748,5.615,5.417,7.23,1.958c2.333-4.998,3.472-10.304,6.554-14.951
		c1.766-2.664,3.535-4.624,6.205-6.445c2.005-1.367,4.225-2.634,5.88-4.438c2.977-3.246,3.954-7.144,5.586-11.063
		C145.575,206.003,148.922,201.841,146.993,200.14z"/>
</g>
<path style="fill:#DB4D42;" d="M247.88,290.741c-2.18-1.826-4.42-1.21-6.977-0.535c-4.599,1.215-9.155,2.912-13.528,4.774
	c-4.017,1.709-7.857,3.796-11.296,6.493c-4.413,3.461-8.89,5.002-13.969,7.17c-4.522,1.93-9.58,2.301-14.246,3.986
	c-4.492,1.623-9.146,2.889-13.515,4.823c-4.803,2.126-15.56,7.886-14.07,14.494c0.021,0.095,0.067,0.175,0.104,0.262
	c-0.845,2.204-0.332,4.315,1.718,5.734c3.172,2.196,6.476,0.795,9.599-0.73c4.692-2.292,8.922-4.574,13.836-6.379
	c4.173-1.533,7.898-4.021,11.935-5.872c3.623-1.662,8.08-4.153,10.103-7.688c0.642-1.122,0.747-2.243,0.478-3.233
	c0.084-0.029,0.168-0.06,0.252-0.089c7.766-2.723,13.567-7.744,20.89-11.358c3.639-1.796,7.276-3.578,11.053-5.078
	c2.542-1.009,5.487-1.454,7.635-3.208C248.873,293.494,248.849,291.552,247.88,290.741z"/>
<g>
	<path style="fill:#2D6D44;" d="M295.632,198.235c0.347-0.719,0.609-1.605,0.782-2.288c0.659-2.606,0.451-5.26-0.553-7.721
		c-0.937-2.298-2.813-4.353-5.81-5.204c-0.96-0.272-4.136-0.811-4.727-0.596c0.528-0.78,3.279-5.536,3.582-6.803
		c0.711-2.973,0.147-6.112-2.019-8.368c-1.185-1.234-2.519-1.969-3.938-2.403c1.419-3.934-0.43-8.377-4.024-10.61
		c-1.898-1.179-3.923-1.691-6.002-1.841c-0.809-1.366-2.35-2.25-4.414-1.685c-5.416,1.482-13.99,2.203-18.542,5.983
		c-0.583,0.23-1.164,0.463-1.739,0.719c-5.543,2.463-2.787,11.895,3.1,11.446c3.191-0.244,6.206-1.179,9.246-2.074
		c0.785-0.181,1.577-0.341,2.37-0.493c-0.488,0.625-0.944,1.285-1.355,1.996c-2.788,4.818,0.917,9.481,5.79,10.088
		c1.682,0.21,3.289,0.146,4.911-0.01c-0.777,2.6-0.768,5.497,0,7.903c1.957,6.138,6.487,8.367,11.649,9.397
		c-0.868,1.888-1.594,3.635-1.338,5.808c0.613,5.19,5.465,6.848,9.97,5.992C297.168,206.596,297.811,201.404,295.632,198.235z"/>
	<path style="fill:#2D6D44;" d="M370.615,172.364c-0.321-0.223-3.107-2.529-3.681-2.421c0.422-1.076,2.331-4.652,2.321-5.697
		c-0.033-3.478-1.99-6.069-4.78-7.398c0.202-0.258,0.405-0.517,0.606-0.788c1.978-2.658,1.006-7.011-1.187-9.201
		c-0.906-0.905-1.913-1.613-2.987-2.17c1.183-0.98,2.309-2.033,3.354-3.176c3.642-3.984,2.412-11.137-3.3-12.498
		c-2.876-0.685-5.801-0.875-8.748-0.774c-1.166-1.357-2.844-2.25-4.792-2.153c-5.639,0.28-11.23,1.325-16.766,2.396
		c-1.679,0.325-3.347,0.707-5.035,0.98c-0.577,0.093-1.258,0.121-1.865,0.221c-0.801-0.038-1.607-0.063-2.42-0.072
		c-4.21-0.043-7.11,4.844-4.868,8.483c1.025,1.663,2.488,2.532,4.144,2.944c0.585,3.294,3.015,6.152,7.031,5.779
		c1.47-0.137,2.932-0.318,4.391-0.519c-0.843,1.832-1.104,3.912-0.432,6.195c1.178,4.002,4.326,5.762,7.868,6.262
		c-0.185,0.646-0.328,1.341-0.379,2.148c-0.423,6.624,5.408,9.945,11.278,10.137c1.572,0.052,3.126-0.147,4.68-0.341
		c1.775,4.624,7.109,9.15,10.236,10.782C371.371,184.659,376.167,176.217,370.615,172.364z"/>
	<path style="fill:#2D6D44;" d="M454.421,163.033c-0.297-0.72-0.644-1.36-1.011-1.967c0.064-0.084,0.133-0.161,0.194-0.248
		c1.411-1.977,1.23-5.157,0-7.154c-4.238-6.88-11.457-9.521-18.553-12.516c-5.947-2.51-14.72-6.205-20.074-0.653
		c-1.926,1.997-2.457,6.096,0,8.006c1.583,1.231,3.243,2.165,4.937,3.009c-0.358,2.596,0.572,5.379,3.432,7.25
		c0.572,0.374,1.193,0.756,1.847,1.138c-2.004,3.161-1.25,6.879,0.14,10.129c-1.004,0.426-2.042,1.227-2.646,1.746
		c-6.776,5.837-1.632,16.542,4.213,20.757c2.979,2.148,6.549-0.285,7.639-3.107c0.733-1.9,0.584-3.462,0.037-5.394
		c-0.04-0.141-0.177-0.717-0.343-1.403c1.404-0.681,2.742-1.59,3.857-2.681c1.997-1.953,3.054-4.345,3.255-6.939
		c2.521,0.165,5.082,0.02,7.781-0.647C452.753,171.462,455.96,166.763,454.421,163.033z"/>
	<path style="fill:#2D6D44;" d="M505.735,217.298c-3.604-4.071-7.415-10.19-5.706-14.008c-4.058-4.127-8.491-8.018-11.871-12.399
		c-3.503-4.542-11.36-0.045-7.806,4.563c2.26,2.929,4.502,5.84,6.639,8.836c-1.502,0.563-2.97,1.684-4.38,3.581
		c-0.026,0.035-0.045,0.071-0.07,0.106c-2.569-0.138-5.867,1.752-6.921,4.082c-0.527,1.166-0.989,2.334-1.411,3.507
		c-1.741,0.799-3.29,2.091-4.313,3.523c-3.312,4.637-4.491,11.977-1.421,17.003c1.732,2.836,5.651,3.531,8.17,1.37
		c3.788,1.351,8.305,0.389,10.015-3.735c2.865,0.946,6.204,0.519,8.186-1.919c2.118-2.606,2.598-5.022,2.454-7.819
		c1.019,0.414,2.07,0.735,3.161,0.915c3.71,0.61,6.855-1.144,8.205-3.894C507.556,219.863,506.579,218.621,505.735,217.298z"/>
</g>
<g>
	<path style="fill:#B2CCA2;" d="M460.072,354.443C460.159,354.379,460.06,354.356,460.072,354.443L460.072,354.443z"/>
	<path style="fill:#B2CCA2;" d="M476.051,341.09c-3.649-4.189-8.228-6.833-12.963-9.647c-5.04-2.997-9.994-5.89-15.535-7.875
		c-2.673-0.958-5.883,1.091-6.551,3.72c-0.256,1.007-0.354,1.931-0.318,2.791c-1.854-2.267-3.745-4.511-5.702-6.701
		c-0.2-0.368-0.387-0.747-0.576-1.123c0.198-0.543,0.294-1.107,0.238-1.661c-0.685-6.796-6.899-11.65-11.814-15.881
		c-5.302-4.563-10.916-8.784-17.282-11.748c-7.642-3.558-15.63-5.438-23.8-6.342c0.543-0.922,0.379-2.133-0.549-2.84
		c1.868,0.019,3.728,0.059,5.567,0.137c3.306,0.142,5.049-5.163,1.776-6.559c-19.635-8.382-43.502,2.914-62.49,8.505
		c-3.952,1.164-2.309,7.141,1.701,6.171c1.631-0.395,3.259-0.803,4.886-1.214c-8.782,4.3-16.457,9.959-23.563,17.075
		c-2.659,2.664,0.993,7.854,4.169,5.403c9.133-7.046,20.548-11.992,31.424-15.65c5.779-1.944,11.695-3.335,17.599-4.762
		c0.711,1.333,2.036,2.373,3.974,2.533c6.686,0.551,13.559,1.592,20.136,3.493c11.642,5.729,22.293,13.962,31.018,23.542
		c7.375,8.099,13.845,16.885,20.574,25.475c-0.027,0.073-0.058,0.143-0.083,0.218c-1.375,4.162,0.931,7.79,3.083,11.157
		c2.61,4.084,4.682,9.764,8.933,12.35c0.013-0.03,0.025-0.06,0.038-0.09c2.682,1.546,6.085,0.262,7.149-2.85
		c1.369,0.311,2.797,0.356,4.267,0.012c3.901-0.913,7.105-4.078,7.062-8.271c-0.036-3.491-2.738-5.669-6.003-6.003
		c-0.73-0.075-1.48,0.041-2.209,0.103c-0.028,0.002-0.063,0.007-0.095,0.011c0.007,0.059-0.042,0.056-0.122,0.016
		c-0.371,0.055-0.788,0.144-0.122-0.054c0.007-0.002,0.011-0.004,0.018-0.006c-0.448-0.292-1.358-1.169-0.855-0.766
		c-0.895-0.715-1.722-1.531-2.545-2.326c-1.529-1.478-3.055-3.125-4.73-4.552c-0.996-1.664-2.083-3.251-3.147-4.723
		c-0.502-1.547-1.279-3.042-2.186-4.487c1.166,0.333,2.317,0.083,3.296-0.531c2.604,1.829,5.098,3.814,7.646,5.77
		c3.673,2.819,8.372,7.069,13.018,7.919C476.145,351.884,479.998,345.621,476.051,341.09z"/>
	<path style="fill:#B2CCA2;" d="M460.11,354.57c-0.002-0.02-0.008-0.045-0.024-0.08c-0.008-0.019-0.011-0.033-0.013-0.047
		c-0.032,0.023-0.092,0.052-0.188,0.083c0.039,0.025,0.073,0.045,0.104,0.061C460.03,354.58,460.07,354.575,460.11,354.57z"/>
	<path style="fill:#B2CCA2;" d="M426.423,288.633c-5.405-4.427-13.28-4.95-19.989-5.726c-3.921-0.454-4.683,5.927-0.925,6.836
		c2.901,0.702,5.806,1.432,8.62,2.436c2.817,1.005,5.404,2.567,8.324,3.274C426.109,296.338,429.763,291.37,426.423,288.633z"/>
	<path style="fill:#B2CCA2;" d="M470.833,321.746c-3.311-1.973-6.819-3.574-10.372-5.07c-0.048-2.292-1.522-4.699-4.427-4.997
		c-3.049-0.313-6.026-0.619-9.007-0.762c-0.455-0.231-0.92-0.434-1.408-0.564c-0.747-0.2-1.723-0.021-2.387,0.491
		c-1.703,0.014-3.417,0.093-5.157,0.285c-3.585,0.395-5.088,5.945-0.925,6.835c2.94,0.629,5.864,1.162,8.797,1.632
		c0.808,0.668,1.644,1.277,2.398,1.822c5.291,3.823,11.092,6.92,16.835,9.999C471.527,334.818,477.047,325.448,470.833,321.746z"/>
</g>
<g>
	<path style="fill:#44723E;" d="M200.516,239.808c0.283-1.118,0.582-2.232,0.93-3.334c0.699-2.212-2.595-3.577-3.729-1.572
		c-0.515,0.912-1.047,1.818-1.582,2.723c-1.478-0.104-3.018,0.372-4.376,1.704c-4.805,4.712-9.913,7.625-16.523,8.927
		c-2.046-0.589-4.028-1.136-6.34-0.885c-3.363,0.364-4.647,5.381-0.854,6.314c1.483,0.365,2.854,0.999,4.206,1.691
		c0.781,1.462,2.199,2.572,4.142,2.579c0.428,0.001,0.85-0.016,1.272-0.033c0.563,0.189,1.137,0.354,1.735,0.468
		c4.385,0.828,8.054,0.747,12.102-0.747c1.901,0.454,4.171-0.298,5.074-2.668c0.674-1.769,1.198-3.577,1.665-5.402
		c0.714-0.538,1.427-1.079,2.121-1.646C203.3,245.523,202.63,242.048,200.516,239.808z"/>
	<path style="fill:#44723E;" d="M119.315,276.395c-11.667,6.3-22.978,13.763-32.782,22.801c-3.508,2.212-6.994,4.461-10.541,6.561
		c-7.344,4.344-15.324,8.132-21.27,14.417c-5.562,5.879-9.392,16.02-1.094,21.655c5.306,3.604,11.866,1.348,16.921-0.608
		c3.377-1.307,5.668-4.119,5.157-7.9c-0.428-3.166-3.517-6.71-7.071-6.243c-0.051,0.007-0.101,0.016-0.151,0.022
		c0.186-0.226,0.362-0.421,0.521-0.568c1.995-1.836,4.215-3.358,6.46-4.867c0.411-0.277,0.819-0.563,1.23-0.843
		c0.411,0.304,0.857,0.561,1.329,0.768c-2.31,2.674-1.168,8.041,3.438,8.041c4.912,0,5.882-6.113,2.913-8.538
		c0.368-0.219,0.734-0.471,1.097-0.764c5.366-4.353,9.429-10.102,13.899-15.406c1.792-1.189,3.595-2.358,5.421-3.472
		c2.038-1.242,2.803-3.064,2.692-4.832c5.13-4.544,10.713-8.486,16.513-12.211C129.016,281.185,124.594,273.543,119.315,276.395z"/>
</g>
<g>
	<path style="fill:#FFFFFF;" d="M46.849,404.663c-0.704-4.041-2.846-7.526-4.252-11.318c-0.611-1.647-2.392-2.086-3.588-1.266
		c-0.52-0.136-1.074-0.094-1.522,0.244c-0.237,0.178-0.444,0.379-0.649,0.583c-0.626,0.199-1.252,0.402-1.876,0.61
		c-1.107,0.328-2.271,0.893-3.15,0.671c-2.848-0.718-3.787,3.254-1.184,4.297c1.786,0.716,3.741,2.935,5.353,4.058
		c0.824,0.574,1.5,1.084,2.204,1.444c1.636,1.246,3.394,2.43,5.151,3.292c0.358,0.176,0.711,0.247,1.047,0.244
		C45.84,407.666,47.16,406.454,46.849,404.663z"/>
	<path style="fill:#FFFFFF;" d="M64.643,398.815c-1.346-2.482-2.53-4.928-3.604-7.539c-1.547-3.761-2.72-8.585-7.632-8.06
		c-2.455,0.263-6.193,1.181-7.059,3.566c-1.351,0.167-2.539,1.531-1.586,2.926c4.179,6.116,11.389,10.88,17.141,15.443
		c1.297,1.028,4.004,1.009,4.295-1.134C66.486,401.894,65.633,400.641,64.643,398.815z"/>
	<path style="fill:#FFFFFF;" d="M83.445,389.563c-0.804-2.25-2.455-4.153-3.636-6.229c-1.269-2.231-1.679-5.251-3.267-7.222
		c-2.895-3.594-8.236,0.433-10.889,2.51c-0.265,0.208-0.462,0.46-0.606,0.736c-0.57,0.35-1.112,0.751-1.726,1.111
		c0.004,0,0.009,0.001,0.013,0.001c-0.158,0.095-0.316,0.207-0.479,0.358c-1.263,1.173-0.629,3.432,1.016,3.848
		c0.585,0.148,1.07,0.089,1.528-0.033c1.459,1.5,3.388,2.189,5.324,3.192c2.871,1.488,5.798,3.108,8.366,5.075
		C81.129,394.473,84.273,391.876,83.445,389.563z"/>
	<path style="fill:#FFFFFF;" d="M95.092,375.343c-0.344-1.463-0.476-3.284-1.061-4.64c-0.742-1.723-2.277-2.274-3.995-2.34
		c-0.296-0.09-0.601-0.143-0.913-0.108c-1.522,0.168-2.992,0.494-4.497,0.756c-1.323,0.199-2.158,1.573-2.235,2.869
		c-0.743,1.035-0.756,2.488,0.269,3.76c1.212,1.506,2.702,2.639,4.56,3.213c0.045,0.014,0.086,0.016,0.131,0.028
		c1.022,0.898,2.071,1.84,3.187,2.596c1.276,0.865,3.532,0.336,4.191-1.099C95.511,378.678,95.516,377.151,95.092,375.343z"/>
	<path style="fill:#FFFFFF;" d="M112.737,367.585c-0.166-0.776-0.34-1.552-0.501-2.33c-0.019-0.092-0.157-0.802-0.208-1.041
		c-0.019-0.142-0.047-0.344-0.051-0.377c-0.17-1.37-0.32-2.771-1.053-3.98c-0.812-1.339-2.292-2.092-3.84-2.057
		c-0.012,0-0.022,0.003-0.034,0.003c-2.069-0.39-3.971,0.56-5.324,2.078c-2.784,0.056-4.359,4.02-1.542,5.594
		c0.992,0.555,2.286,1.552,3.615,2.166c1.718,1.889,3.457,4.229,5.801,4.062C111.786,371.547,113.2,369.757,112.737,367.585z"/>
	<path style="fill:#FFFFFF;" d="M125.914,353.178c-0.695-1.452-2.402-1.762-3.806-1.549c-0.301,0.046-0.591,0.126-0.875,0.221
		c-0.904-0.346-1.936-0.271-2.906,0.205c-0.55,0.269-1.003,0.665-1.38,1.129c-2.318-0.308-3.739,2.732-2.121,4.362
		c-0.011,0.009-0.022,0.018-0.034,0.026c0.689,0.775,1.59,1.292,2.409,1.915c0.593,0.449,1.002,1,1.514,1.533
		c0.658,0.686,1.51,1.095,2.214,1.709c0.217,0.19,0.876,1.007,1.462,1.256c2.253,0.958,4.862-0.125,4.934-2.832
		C127.395,358.553,127.039,355.527,125.914,353.178z"/>
	<path style="fill:#FFFFFF;" d="M144.131,345.93c-0.11-0.672-0.267-1.38-0.313-2.063c0.016,0.003,0.036-0.237,0.046-0.327
		c0.084-0.737,0.06-1.244-0.042-1.962c-0.147-1.031-1.237-1.934-2.185-2.185c-1.716-0.453-3.024,0.255-4.162,1.471
		c-0.967,1.035-2.045,1.793-2.887,2.968c-0.028,0.041-0.046,0.081-0.072,0.121c-1.793,0.958-2.56,3.755-0.256,4.818
		c2.149,1.573,3.928,4.096,6.552,4.915c1.576,0.492,3.563-0.582,3.917-2.225C145.133,349.591,144.436,347.777,144.131,345.93z"/>
	<path style="fill:#FFFFFF;" d="M189.111,220.478c-1.312-1.119-3.311-1.355-4.602,0c-2.863,3.007-5.524,6.107-7.984,9.452
		c-0.903,1.229-2.268,2.49-3.512,3.824c-1.096-0.993-2.87-1.138-3.748,0.583c-1.356,2.658-4.033,7.909,0.155,9.446
		c1.86,0.683,4.74,0.503,7.412-0.094c0.523,0.287,1.1,0.473,1.667,0.517c3.21,0.253,6.769-2.968,8.572-5.365
		c1.353-1.797,2.218-3.648,2.766-5.598c0.271-0.672,0.514-1.365,0.696-2.104C191.223,228.346,191.592,222.592,189.111,220.478z"/>
	<path style="fill:#FFFFFF;" d="M111.57,458.453C111.403,458.025,111.022,458.004,111.57,458.453L111.57,458.453z"/>
	<path style="fill:#FFFFFF;" d="M125.138,462.289c-1.034-2.889-4.498-4.224-7.261-5.089c-0.511-0.16-0.998-0.171-1.451-0.087
		c-0.282-0.114-0.564-0.225-0.851-0.328c-0.514-0.186-0.969-0.214-1.372-0.146c-1.006-0.874-2.269-1.223-2.911,0.531
		c-0.216,0.591,0.154,1.219,0.627,1.541c-0.146-0.099-0.26-0.185-0.35-0.258c0.023,0.061,0.045,0.126,0.057,0.204
		c0.047,0.315,0.152,0.688,0.235,0.999c0.322,1.214,0.728,2.395,1,3.625c0.353,1.597,0.74,3.246,0.962,4.867
		c0.16,1.16,0.097,2.207,0.788,3.205c0.728,1.053,2.168,1.639,3.352,0.879c0.467-0.3,0.823-0.693,1.123-1.128
		c0.12-0.012,0.239-0.023,0.359-0.049c2.543-0.545,5.021-3.835,5.593-6.237c0.06-0.252,0.081-0.497,0.08-0.735
		C125.313,463.507,125.353,462.89,125.138,462.289z"/>
	<path style="fill:#FFFFFF;" d="M135.36,441.194c-2.683-2.034-5.228-4.524-8.113-6.23c-0.458-0.271-0.982-0.367-1.504-0.333
		c-0.698-1.326-1.579-2.483-2.752-3.257c-0.056-0.046-0.111-0.092-0.18-0.131c-0.052-0.029-0.105-0.059-0.157-0.088
		c-0.79-0.442-1.718-0.028-1.99,0.81c-0.408,1.257,0.122,2.422,0.455,3.674c0.858,3.23,1.746,6.466,2.555,9.71
		c1.13,4.533,0.922,9.677,2.963,13.934c0.768,1.6,3.376,1.922,4.524,0.583c2.039-2.378,3.699-4.949,5.804-7.339
		c1.336-1.518,3.471-3.406,3.244-5.667C139.947,444.259,137.264,442.638,135.36,441.194z"/>
	<path style="fill:#FFFFFF;" d="M146.969,432.98c0.693-1.781,1.76-3.603,1.466-5.524c-0.257-1.683-1.331-2.562-2.817-3.25
		c-1.846-0.854-4.197-1.862-6.151-2.357c-0.733-0.186-1.469-0.065-2.093,0.258c-0.352-0.319-0.712-0.542-1.075-0.607
		c-0.002,0.016-0.004,0.031-0.006,0.046c-0.143-0.042-0.304-0.055-0.545-0.015c-0.532,0.088-1.065,0.773-1.004,1.319
		c0.195,1.732,1.062,3.096,1.611,4.741c0.77,2.305,1.167,4.742,1.696,7.108c0.54,2.411,0.826,6.066,2.44,8.039
		c1.256,1.534,4.24,0.736,4.582-1.21c0.351-2,0.661-4.038,1.144-6.021C146.81,434.849,147.132,433.945,146.969,432.98z"/>
	<path style="fill:#FFFFFF;" d="M155.539,409.496c-1.5-2.344-5.794-3-8.187-3.029c-0.234-0.253-0.479-0.498-0.742-0.727
		c-0.879-0.764-2.686-0.052-2.173,1.265c0.125,0.321,0.24,0.646,0.349,0.971c-0.235,0.411-0.375,0.871-0.343,1.357
		c0.083,1.271,0.725,2.661,1.552,4.015c0.531,3.598,0.722,7.285,1.616,10.77c0.7,2.731,4.564,2.548,5.354,0
		c0.649-2.092,1.105-4.342,1.648-6.476c0.124-0.485,0.285-1.007,0.456-1.546c0.434-0.233,0.83-0.545,1.202-0.895
		c0.064-0.059,0.133-0.104,0.195-0.17c0.094-0.1,0.188-0.2,0.283-0.301C158.536,412.827,157.355,410.307,155.539,409.496z"/>
	<path style="fill:#FFFFFF;" d="M162.864,393.833c-0.702-0.037-1.248,0.12-1.905-0.063c-1.033-0.288-1.815-0.73-2.931-0.767
		c-1.719-0.057-2.827,1.417-2.977,2.977c-0.152,1.582,0.974,3.504,1.503,4.986c0.062,0.174,0.141,0.328,0.222,0.479
		c-0.507,2.005-0.894,4.336-0.001,6.225c1.094,2.313,4.278,1.81,5.496,0c1.154-1.715,2.033-3.694,2.92-5.56
		c0.688-1.448,1.675-2.965,1.564-4.636C166.62,395.399,164.892,393.94,162.864,393.833z"/>
</g>
<path d="M202.396,246.898c2.689-4.133,4.151-9.284,3.972-14.243c-0.187-5.193-2.867-8.058-4.965-12.354
	c-0.252-0.516-0.995-0.139-0.886,0.374c0.876,4.14,2.81,7.549,2.709,11.98c-0.101,4.449-1.275,9.265-2.602,13.496
	C200.284,247.235,201.814,247.793,202.396,246.898z"/>
<path d="M226.715,212.588c0.001-0.019,0.004-0.036,0.005-0.055c0.104-2.759-1.164-5.832-3.415-7.492
	c-1.439-1.062-3.467-1.216-4.902-0.333c-0.252-2.958-1.497-5.795-3.976-7.593c-3.916-2.84-8.145-2.02-11.959,0.211
	c-0.634-0.699-1.349-1.305-2.161-1.752c-6.882-3.792-19.524-2.18-21.922,6.618c-1.586-0.505-3.339-0.746-5.232-0.731
	c-6,0.046-11.37,3.373-14.425,8.482c-2.127,3.56-4.082,10.457-1.965,14.675c-4.166,0.837-8.179,3.886-10.462,7.218
	c-2.662,3.884-2.751,8.94-0.533,12.952c-3.186,2.264-4.138,8.402-3.704,11.576c0.622,4.545,3.737,7.979,7.8,9.602
	c-0.815,1.57-1.195,3.72-1.15,4.753c0.221,5.006,5.057,7.998,9.682,8.106c6.366,0.149,9.686-4.263,10.835-10.021
	c0.165-0.826,0.099-1.815-0.139-2.816c3.982,2.983,7.033,5.219,12.718,5.071c6.801-0.177,12.786-3.131,18.583-6.455
	c1.072-0.614,0.362-2.392-0.851-2.019c-5.622,1.728-10.944,4.479-16.854,5.143c-3.329,0.374-6.446-0.281-9.403-1.822
	c-0.692-0.36-7.971-4.886-7.779-5.199c0.229-0.374,0.487-0.729,0.714-1.106c0.908-1.506,1.358-3.113,1.448-4.731
	c4.914,5.278,14.583,6.839,21.544,5.836c1.071-0.154,1.064-1.994,0-2.156c-4.396-0.669-9.071-0.633-13.303-2.07
	c-2.02-0.686-3.88-1.797-5.404-3.295c-0.835-0.82-1.929-1.854-2.222-2.983c2.177,0.692,3.879,2.628,6.226,3.319
	c2.73,0.804,5.634,0.984,8.466,0.897c5.248-0.161,11.004-1.129,15.706-3.583c1.154-0.603,0.351-2.389-0.872-2.068
	c-5.359,1.407-10.784,2.53-16.348,2.162c-3.525-0.233-7.632-0.578-10.299-3.144c-0.584-0.562-1.017-1.162-1.412-1.768
	c2.269,1.037,4.755,1.43,7.561,1.292c4.216-0.207,10.866-2.082,13.624-5.506c3.602-4.471,4.406-10.675,3.574-16.2
	c-0.286-1.903-0.716-4.169-1.761-5.905c1.746,2.73,2.545,6.009,3.004,9.366c0.489,3.577-0.596,7.271,0.311,10.697
	c0.251,0.949,1.484,0.812,1.792,0c2.978-7.847,0.469-16.78-5.462-22.214c2.492-1.188,5.089-1.925,7.985-1.962
	c4.367-0.056,8.287,1.168,12.495,1.694c0.4,0.26,0.824,0.527,1.28,0.85c1.682,1.191,3.451,2.042,5.522,1.726
	c-0.332,1.807-0.144,3.775,0.48,4.994c1.665,3.252,6.051,3.863,8.936,1.961C234.801,223.047,232.281,213.173,226.715,212.588z
	 M145.873,256.792c-0.857-2.767-0.395-5.771,0.72-8.359c0.15-0.349,0.358-0.977,0.59-1.602c0.352,0.413,0.724,0.813,1.136,1.183
	c1.298,1.165,4.408,2.834,6.844,2.791c1.389,0.34,3.187-0.249,4.567-0.889c0.701-0.325,1.37-0.722,2.021-1.152
	c0.604,1.927,1.865,3.77,1.644,6.007c-0.342,3.47-4.099,7.247-7.541,8.02C151.85,263.69,147.034,260.536,145.873,256.792z
	 M164.106,272.297c-1.492,2.606-5.138,3.148-7.811,2.44c-3.878-1.029-5.123-4.783-3.812-8.002c0.287,0.055,0.574,0.107,0.866,0.145
	c1.826,0.237,3.577-0.218,5.276-0.849c1.348-0.5,3.566-2.034,5.047-1.629C166.804,265.258,165.136,270.496,164.106,272.297z
	 M163.658,241.835c-0.466,0.721-4.326,5.16-7.074,6.476c-8.775-1.126-12.092-12.071-4.417-17.656
	c3.325-2.42,7.141-3.593,10.922-1.375c2.089,1.225,2.364,3.386,3.128,5.47C165.546,237.188,165.047,239.687,163.658,241.835z
	 M161.243,224.659c-0.705-0.175-1.422-0.26-2.144-0.271c-0.186-2.776,0.927-6.436,1.785-8.761c1.612-4.37,4.801-7.563,9.074-9.346
	c4.892-2.042,11.171-1.61,12.699,4.388c0.571,2.241,0.286,4.417-0.431,6.494c-0.943,0.836-1.83,1.73-2.61,2.704
	c-3.15,3.934-7.599,5.259-10.588,8.92c-0.149-0.236-0.314-0.471-0.513-0.7C166.664,225.953,163.841,225.304,161.243,224.659z
	 M182.934,241.182c-4.263,2.131-8.567,2.553-13.113,1.488c-0.771-0.18-1.344-0.398-1.878-0.509c1.157-2.199,1.762-4.61,2.804-6.886
	c0.287,0.979,0.957,1.964,1.564,2.478c1.809,1.53,4.584,1.042,6.094-0.664c2.056-2.324,2.871-6.194,1.278-8.851
	c0.329-0.188,0.656-0.388,0.981-0.615c2.832-1.971,4.308-5.124,7.027-7.253c0.152,0.341,0.384,0.65,0.712,0.887
	c1.575,1.137,1.56,6.219,1.587,7.655C190.105,234.977,188.441,238.429,182.934,241.182z M198.269,210.99
	c-1.225-0.101-2.443-0.07-3.647,0.154c-2.645,0.491-5.252,1.433-7.663,2.73c-0.018-1.394-0.262-2.776-0.749-4.05
	c-1.233-3.225-3.239-5.466-5.838-6.812c0.884-0.622,1.637-1.593,2.482-2.179c3.01-2.084,6.722-3.964,10.496-3.344
	c3.582,0.588,7.389,2.803,8.022,6.677C201.853,207.113,199.788,208.91,198.269,210.99z M210.833,212.308
	c-1.428,0.2-2.976,0.034-4.424,0.128c-1.451,0.095-2.354-0.156-3.378-0.542c2.873-2.661,3.083-7.735,1.298-11.695
	c2.191-0.424,4.44-1.14,6.407-0.297c3.214,1.376,4.265,5.268,3.78,8.494C214.191,210.547,213.072,211.994,210.833,212.308z
	 M216.322,216.049c-0.786-0.267-1.799-0.758-2.823-1.121c2.948-0.892,4.362-3.812,4.824-7.164c0.017-0.122,0.017-0.246,0.031-0.369
	c1.458-0.24,2.563-0.34,3.668,1.074C225.035,212.32,220.956,217.622,216.322,216.049z M228.535,222.768
	c-1.015,1.709-3.268,2.604-5.081,1.535c-1.132-0.668-1.51-2.099-1.459-3.344c0.018-0.42,0.119-1.227,0.315-1.99
	c1.303-0.676,2.436-1.649,3.228-2.841c1.034-0.017,2.013,0.11,2.701,1.106C229.247,218.694,229.434,221.254,228.535,222.768z"/>
<path d="M211.725,229.167c1.114,10.47-2.291,21.394-10.372,28.53c-1,0.883,0.272,2.234,1.338,1.735
	c11.547-5.402,12.123-19.59,10.515-30.466C213.083,228.134,211.635,228.32,211.725,229.167z"/>
<path d="M172.594,277.205c-7.935-2.418-12.59,8.873-7.829,14.37c3.311,3.822,10.241,1.351,12.415-2.442
	C179.698,284.74,177.421,278.676,172.594,277.205z M174.036,287.641c-1.393,2.144-5.883,3.739-7.72,1.405
	c-0.632-0.804-0.966-1.777-1.068-2.802c0.92-2.91,2.627-6.616,6.41-5.638C174.457,281.33,175.541,285.324,174.036,287.641z"/>
<path d="M194.029,276.248c-6.783-3.706-12.011,5.593-8.972,11.033c2.212,3.959,7.921,2.675,10.575-0.073
	C198.695,284.035,197.935,278.381,194.029,276.248z M192.917,285.544c-4.391,3.597-8.96-2.328-5.221-5.934
	C191.554,275.89,197.197,282.037,192.917,285.544z"/>
<path d="M119.296,270.202c-6.419,1.344-12.883,4.95-17.255,9.837c-2.28,2.548-3.432,6.184-6.296,8.144
	c-3.098,2.12-7.397,2.882-10.833,4.484c-7.319,3.413-10.69,8.553-15.789,14.393c-5.106,5.848-13.614,8.338-19.514,13.447
	c-4.717,4.083-6.541,9.442-5.557,15.624c0.648,4.077,3.064,7.837,7.257,8.864c2.003,0.49,3.855,0.758,5.84,1.338
	c2.893,0.846,6.056,0.602,8.797-0.621c1.041-0.464,0.553-2.361-0.599-2.209c-3.757,0.497-7.327-0.044-10.938-1.137
	c-1.537-0.464-2.932-1.487-4.413-2.095c-3.25-3.786-3.108-10.116,0.197-14.185c3.521-4.335,9.859-6.987,14.675-9.548
	c4.468-2.376,7.907-5.001,11.165-8.856c4.398-5.205,9.156-8.44,15.458-11.003c3.715-1.51,7.771-2.69,10.298-6.019
	c1.402-1.846,1.967-4.159,3.213-6.099c1.8-2.799,4.551-5.151,7.343-6.877c5.77-3.567,11.805-5.203,18.179-2.303
	c5.939,2.702,9.975,9.125,11.111,15.483c0.159,0.888,1.417,0.593,1.481-0.201C144.116,278.227,131.185,267.713,119.296,270.202z"/>
<path d="M511.14,228.914c-1.238-8.683-4.79-16.608-8.413-24.488c-2.589-5.632-6.033-10.655-9.438-15.737
	c-0.026-0.195-0.073-0.395-0.146-0.599c-2.937-8.088-9.652-15.095-16.354-20.801c-0.615-0.726-1.249-1.429-1.932-2.073
	c-4.972-4.687-10.834-9.267-17.172-12.175c-3.992-3.074-7.699-6.48-12.046-9.081c-9.019-5.396-17.47-12.263-27.266-16.179
	c-8.611-3.442-16.917-5.976-25.791-6.96c0.731-5.936,2.652-11.809,4.716-17.353c2.35-6.308,5.574-14.78,10.104-19.889
	c1.385-1.562-0.448-4.416-2.367-3.069c-7.377,5.179-13.429,11.144-18.471,18.645c-2.347,3.49-4.743,6.951-6.827,10.607
	c-1.074,1.884-2.072,3.816-2.908,5.818c-0.584,1.397-0.947,2.908-1.74,4.211c-0.962,1.581-4.321,2.301-4.645,0.034
	c-0.262-1.832,0.48-3.754,0.718-5.553c2.18-16.568,7.305-32.916,14.843-47.825c0.801-1.583-0.532-3.7-2.407-3.131
	c-4.459,1.354-8.307,6.793-11.208,10.193c-3.73,4.369-7.316,9.777-9.685,14.993c-2.901,6.39-5.968,12.638-7.955,19.389
	c-0.719,2.445-1.548,4.856-2.216,7.317c-0.474,1.747-0.373,3.623-0.985,5.339c-0.634,1.776-4.313,2.802-5.756,1.641
	c-1.534-1.234-0.338-4.48-0.238-6.066c0.18-2.847,0.437-5.693,0.977-8.498c1.528-7.918,3.195-15.803,5.159-23.626
	c1.933-7.702,4.322-15.195,7.235-22.582c1.281-3.249,2.541-6.506,3.825-9.754c1.189-3.008,3.338-6.009,3.967-9.181
	c0.417-2.104-1.829-3.275-3.429-1.996c-5.116,4.091-9.547,9.905-13.419,15.154c-5.346,7.248-9.805,14.766-13.365,23.063
	c-6.255,14.577-11.896,30.608-11.536,46.708c-2.006,0.378-4.008,0.776-5.99,1.22c-0.339-2.629-0.864-5.195-0.862-7.931
	c0.003-3.541,0.705-6.967,0.706-10.511c0.005-9.125,2.13-18.867,4.035-27.8c1.969-9.237,4.735-18.204,7.762-27.141
	c1.599-4.721,3.061-9.494,4.696-14.202c1.042-3.002,2.583-5.845,2.939-9.021c0.21-1.874-2.038-2.601-3.41-1.957
	c-6.423,3.014-10.604,13.099-14.356,18.616c-5.26,7.733-9.158,16.161-12.5,24.892c-3.508,9.167-5.113,19.004-6.362,28.717
	c-1.294,10.058-1.753,21.572,0.022,31.727c-1.492,0.62-2.977,1.257-4.452,1.918c-0.967-4.329-0.973-8.953-1.352-13.319
	c-0.378-4.363-1.143-8.626-1.195-13.017c-0.116-9.712,0.411-19.751,1.16-29.441c0.766-9.913,2.539-19.76,3.577-29.651
	c0.582-5.537,1.154-11.075,2.181-16.551c0.717-3.823,2.623-7.991,2.142-11.892c-0.273-2.216-2.837-3.055-4.188-1.134
	c-5.666,8.053-8.87,17.343-12.78,26.301c-4.523,10.362-6.671,21.82-8.16,32.989c-2.817,21.132-3.777,42.775,0.113,63.833
	c-2.289,0.816-4.554,1.371-6.843,1.762c-0.575-2.787-1.46-5.495-1.939-8.324c-0.886-5.234-1.541-10.449-1.794-15.754
	c-0.5-10.509,0.032-20.789-0.082-31.277c-0.111-10.308,0.434-20.197,1.364-30.452c0.461-5.089,1.007-10.113,1.809-15.162
	c0.69-4.344,2.146-9.07,1.863-13.429c-0.137-2.11-2.67-2.743-3.861-1.046c-5.922,8.444-8.397,18.223-10.738,28.09
	c-2.725,11.485-5.447,23.05-6.056,34.879c-0.609,11.817-0.384,23.813,1.215,35.546c0.729,5.351,1.858,10.627,2.782,15.944
	c0.15,0.863,0.564,2.049,0.402,2.899c-0.865-0.259-1.835-1.607-2.206-2.44c-0.771-1.735-1.319-3.583-1.799-5.416
	c-0.944-3.605-1.517-7.291-2.182-10.954c-1.675-9.231-3.515-18.493-4.681-27.804c-1.092-8.727-1.41-17.423-1.379-26.211
	c0.016-4.385-0.202-8.834,0.004-13.212c0.148-3.148,0.964-6.042,0.437-9.166c-0.275-1.632-2.738-2.236-3.785-0.999
	c-4.544,5.371-5.71,13.331-7.28,19.948c-2.289,9.649-2.387,18.841-1.643,28.704c0.696,9.221,1.413,18.255,2.901,27.387
	c1.583,9.712,5.416,18.066,8.534,27.235c-1.629,1.034-3.237,2.105-4.814,3.215c-2.325-3.323-4.17-7.901-5.484-11.271
	c-1.837-4.711-3.361-9.573-4.965-14.367c-1.587-4.742-3.209-9.54-4.615-14.336c-1.624-5.54-1.44-11.114-2.053-16.734
	c-0.168-1.54-1.529-2.378-2.962-1.7c-3.461,1.638-3.955,7.875-4.36,11.127c-1.035,8.303-1.012,16.456-0.281,24.786
	c0.579,6.603,1.608,12.836,4.215,18.98c1.073,2.531,2.396,4.943,3.711,7.354c0.539,0.988,1.192,2.164,1.195,3.322
	c0.004,1.746-1.207,1.965-2.603,2.409c-7.013,2.23-18.955,3.532-24.171,10.025c-0.072-0.012-0.142-0.03-0.213-0.042
	c-7.716-1.251-13.51,3.799-20.798,4.523c-7.1,0.705-12.742,2.649-18.027,7.605c-2.759,2.587-5.156,5.623-7.354,8.813
	c-3.021-1.949-10.079-0.802-12.126-0.209c-7.263,2.102-14.133,6.5-18.497,12.636c-2.727,3.833-4.856,7.813-7.145,11.905
	c-2.328,4.163-5.55,5.338-9.136,8.082c-7.006,5.359-9.144,13.984-13.81,21.054c-5.064,7.676-14.413,10.038-22.101,14.068
	c-6.257,3.28-9.969,8.904-12.329,15.399c-1.831,5.036-3.951,8.59-8.086,12.088c-3.793,3.209-8.1,4.951-11.399,8.78
	c-6.057,7.03-9.976,15.057-18.133,19.964c-7.971,4.795-11.314,13.507-14.547,21.736c-2.835,7.219-3.303,13.822-2.496,20.849
	c0.048,1.582,0.188,3.151,0.441,4.668c0.89,5.35,2.473,10.427,3.131,15.864c0.559,4.618,1.346,8.709,5.486,11.354
	c4.579,2.923,9.833,3.958,15.131,3.356c1.021-0.116,2.029-0.33,3.028-0.608c2.196,2.102,3.853,5.082,6.301,6.903
	c4.261,3.171,9.165,4.867,13.596,7.647c1.898,1.191,3.672-0.77,3.406-2.618c-0.384-2.669-1.643-5.677-2.655-8.154
	c-0.7-1.712-1.372-3.435-2.037-5.159c1.583,1.885,3.186,3.749,5.038,5.246c4.562,3.689,9.782,6.356,15.189,8.56
	c1.365,0.557,2.923-0.846,2.877-2.191c-0.098-2.844-0.975-5.741-2.009-8.537c0.908,0.771,1.809,1.548,2.624,2.434
	c1.306,1.421,1.899,2.827,3.719,3.556c0.634,0.254,1.394-0.174,1.727-0.703c0.983-1.562,0.044-3.544-0.614-5.052
	c-0.99-2.269-1.97-4.458-2.697-6.786c0.122,0.056,0.247,0.115,0.367,0.171c2.931,1.367,9.758,5.093,12.994,3.554
	c2.888-1.374,1.642-4.506,0.76-6.765c-0.557-1.427-1.474-2.759-2.021-4.128c-0.129-0.324-0.004-0.773,0.332-0.862
	c0.272-0.072,0.541,0.109,0.764,0.28c1.316,1.008,2.632,2.016,3.947,3.023c0.465,0.356,1.091,0.727,1.594,0.424
	c0.593-0.357,0.407-1.251,0.147-1.894l-1.23-3.036c-0.147-0.362-0.253-0.864,0.079-1.069c0.345-0.213,0.75,0.135,1.034,0.423
	c1.348,1.371,6.161,3.339,6.945,0.38c0.766-2.891,0.266-5.903-0.42-8.92c2.956,3.076,4.758,9.636,9.34,10.041
	c0.919,0.081,1.666-0.837,1.683-1.683c0.044-2.211-1.362-4.222-2.084-6.281c-0.788-2.242-1.393-4.531-2.178-6.771
	c2.646,2.578,5.566,4.483,8.844,6.409c1.642,0.964,3.224-0.325,3.436-1.972c0.624-4.838-1.583-9.509-3.249-14.149
	c2.52,1.914,4.984,3.898,7.774,5.455c2.571,1.435,5.193,3.378,8.219,2.837c0.818-0.146,1.359-0.898,1.618-1.619
	c1.035-2.882-0.74-7.52-1.332-10.357c-0.018-0.083-0.041-0.162-0.059-0.244c1.089,0.944,2.53,2.105,2.728,2.259
	c1.476,1.154,2.995,2.196,4.71,2.962c0.964,0.431,2.315,0.161,2.576-1.048c0.446-2.069-0.526-3.428-1.179-5.352
	c-0.284-0.835-0.548-1.652-0.828-2.462c2.465,1.953,4.679,4.037,7.758,4.984c1.214,0.374,2.531-0.444,2.87-1.629
	c0.934-3.264-0.725-6.75-1.231-9.982c-0.072-0.456-0.118-0.917-0.164-1.378c0.26,0.463,0.546,0.917,0.892,1.348
	c1.554,1.935,4.25,4.626,6.889,4.7c0.893,0.025,1.614-0.767,1.63-1.63c0.021-1.18-0.451-2.199-0.873-3.272
	c-0.281-0.714-0.515-1.399-0.773-2.074c0.022-0.199,0.031-0.398,0.021-0.597c4.033,2.612,7.727,5.857,9.876,9.453
	c4.534,7.583,5.402,17.152,3.958,25.697c-0.564,3.341-3.267,9.969-1.95,14.022c-1.705-0.247-3.397-0.532-5.141-0.912
	c-2.076-0.451-4.845-0.915-6.555,0.733c-2.08,2.003-0.809,5.099-0.147,7.426c0.118,0.414,0.226,0.872,0.333,1.348
	c-1.356-0.878-2.855-1.628-3.909-2.624c-0.843-0.797-2.685-0.305-2.531,1.048c0.261,2.287,1.829,3.699,2.764,5.599
	c-3.819-2.066-7.796-4.015-9.688-0.976c-1.696,2.728,0.913,7.317,1.559,9.996c0.158,0.656,0.327,1.314,0.495,1.973
	c-2.471-2.195-5.909-4.82-6.189-1.298c-0.121,1.522,1.248,3.616,1.836,4.95c0.048,0.109,0.112,0.3,0.189,0.538
	c-1.545-1.137-3.037-2.179-4.891-2.946c-1.159-0.479-2.061,0.697-2.185,1.664c-0.343,2.681,0.605,6.127,1.485,9.095
	c-1.8-1.651-3.322-3.566-5.482-4.833c-0.638-0.374-1.524-0.271-2.043,0.264c-1.417,1.457-0.78,3.355-0.103,5.039
	c0.631,1.569,1.289,3.15,1.969,4.72c-0.643-0.632-1.276-1.275-1.895-1.95c-1.658-1.808-4.767-5.192-7.298-2.551
	c-0.837,0.874-0.784,1.735-0.752,2.933c0.088,3.328,1.233,7.021,1.794,10.371c0.359,2.142,0.811,4.268,1.301,6.384
	c-2.481-2.552-4.082-6.193-8.037-6.514c-0.969-0.079-1.555,0.829-1.657,1.657c-0.232,1.896,0.998,3.87,1.619,5.597
	c0.599,1.663,1.185,3.364,1.909,4.992c-0.038-0.024-0.078-0.052-0.115-0.076c-1.811-1.194-4.385-3.236-6.361-1.106
	c-1.942,2.094,0.512,7.08,1.1,9.071c1.269,4.305,2.422,8.715,4.982,12.415c-4.291,4.965-8.116,12.633-2.479,17.772
	c2.405,2.192,6.597,3.076,9.677,1.963c2.239-0.809,3.673-2.574,4.915-4.546c16.896,10.097,31.3-9.244,41.373-20.534
	c7.014-7.862,16.209-13.364,22.797-21.706c6.379-8.079,12.261-17.141,16.924-26.316c4.729-9.304,9.877-19.899,17.223-27.439
	c7.847-8.055,17.697-14.098,27.339-19.729c8.868-5.18,17.471-10.759,25.424-17.278c6.804-5.578,13.378-11.59,17.164-19.606
	c3.588-2.54,7.059-6.049,9.945-8.429c6.904-5.695,13.697-11.724,21.578-16.056c16.477-9.057,35.188-12.504,53.332-6.724
	c8.93,2.845,14.991,8.316,22.411,13.689c6.316,4.574,14.208,7.729,19.429,13.611c5.804,6.538,9.12,15.158,13.267,22.756
	c1.756,3.219,3.487,6.188,4.891,9.583c1.117,2.702,2.429,5.328,4.584,7.364c10.321,9.753,24.071,6.473,33.472-2.086
	c5.602-5.1,10.403-10.888,13.672-17.79c3.433-7.247,5.248-15.11,7.584-22.741c4.866-15.892,9.343-31.793,11.064-48.428
	c0.893-8.628,0.982-17.304,1.406-25.96C512.025,246.49,512.388,237.663,511.14,228.914z M388.143,103.541
	c2.872-4.435,6.077-8.365,9.678-11.934c-1.419,2.981-2.661,6.027-3.771,8.829c-2.525,6.375-4.832,13.167-5.827,20.031
	c-1.414-0.072-2.843-0.107-4.294-0.097c-2.106,0.015-4.206,0.122-6.303,0.267C381.788,115.557,384.647,108.938,388.143,103.541z
	 M357.603,111.664c1.906-6.357,4.684-12.133,7.437-18.146c2.188-4.776,4.697-8.848,7.638-13.2c1.547-2.29,3.216-4.329,5.119-6.328
	c0.047-0.05,0.099-0.107,0.147-0.16c-6.322,15.069-10.585,31.821-11.706,47.766c-0.213,0.017-0.427,0.036-0.641,0.051
	c-3.758,0.278-7.525,0.315-11.29,0.412C355.547,118.642,356.567,115.118,357.603,111.664z M340.373,79.782
	c3.216-7.218,7.122-14.117,11.831-20.46c1.984-2.672,4.122-5.55,6.416-8.292c-1.336,3.426-2.68,6.85-4.023,10.274
	c-3.035,7.74-5.387,15.64-7.354,23.714c-2.943,12.076-7.07,25.395-6.474,38.037c-4.62,0.527-9.257,1.185-13.864,2.005
	C330.263,109.57,333.842,94.442,340.373,79.782z M305.263,104.587c1-9.287,2.5-19.336,5.591-28.177
	c2.936-8.396,6.62-17.169,11.567-24.589c2.448-3.67,4.962-7.289,7.357-10.995c0.167-0.258,0.338-0.533,0.513-0.814
	c-0.202,0.521-0.393,1.038-0.558,1.545c-1.597,4.906-3.28,9.78-4.916,14.673c-3.093,9.25-5.63,18.656-7.393,28.253
	c-1.544,8.401-2.904,16.775-3.139,25.292c-0.174,6.335-0.755,11.79,0.322,17.901c-0.67,0.17-1.344,0.332-2.01,0.51
	c-2.959,0.797-5.833,1.801-8.662,2.911C305.206,122.394,304.322,113.323,305.263,104.587z M282.994,79.121
	c1.533-11.379,3.803-22.882,8.5-33.399c1.905-4.264,3.654-8.598,5.587-12.835c-0.273,1.117-0.51,2.201-0.657,3.224
	c-0.644,4.478-1.11,8.977-1.599,13.474c-1.113,10.236-3.024,20.419-3.68,30.698c-0.615,9.626-1.415,19.581-1.083,29.226
	c0.15,4.373,0.869,8.737,1.198,13.097c0.332,4.398,0.545,9.005,1.619,13.3c-3.722,1.718-7.44,3.453-11.238,5.013
	c0.219-9.688-0.985-19.602-1.125-29.272C280.356,100.716,281.537,89.933,282.994,79.121z M256.784,118.731
	c-0.696-10.13-0.771-20.433,0.091-30.558c0.881-10.357,3.322-20.486,5.719-30.574c1.411-5.934,2.838-11.832,5.078-17.419
	c-0.318,1.544-0.633,3.053-0.863,4.461c-0.667,4.101-1.019,8.235-1.405,12.37c-0.991,10.583-1.622,20.807-1.533,31.451
	c0.084,10.112-0.469,20.061-0.13,30.194c0.151,4.53,0.464,9.016,1.154,13.498c0.629,4.085,1.885,8.187,2.536,12.264
	c-1.415,0.149-2.852,0.272-4.322,0.394c-1.291,0.107-2.538,0.315-3.756,0.596c-0.699-2.56-0.391-7.667-0.62-9.331
	C257.94,130.303,257.185,124.549,256.784,118.731z M243.207,140.249c-1.289-3.935-2.339-7.76-3.012-11.852
	c-1.482-9.015-2.34-17.955-2.909-27.063c-0.559-8.953-1.347-17.694,0.405-26.582c0.726-3.686,1.418-7.955,2.519-12.046
	c-0.03,0.49-0.048,0.957-0.045,1.393c0.023,4.404-0.009,8.808,0.019,13.212c0.056,8.953,0.77,17.867,2.05,26.728
	c1.308,9.053,2.911,18.15,4.681,27.125c1.019,5.166,2.292,12.061,5.037,16.948c-0.785,0.384-1.567,0.784-2.347,1.212
	c-1.256,0.689-2.494,1.416-3.724,2.158C245.203,148.426,243.379,140.774,243.207,140.249z M223.158,151.574
	c-2.302-5.818-3.308-11.834-3.803-18.049c-0.47-5.891-0.692-11.808-0.358-17.713c0.081-1.417,0.179-2.843,0.302-4.267
	c0.223,2.151,0.544,4.29,1.171,6.384c1.724,5.754,3.417,11.519,5.211,17.252c1.555,4.971,2.918,10.035,5.011,14.817
	c1.022,2.338,2.43,6.149,4.314,8.839c-2.383,1.681-4.986,3.089-7.692,4.278c-0.267-1.295-0.363-2.79-0.622-3.556
	C225.767,156.811,224.226,154.271,223.158,151.574z M35.744,401.196c-1.913-1.25-3.625-3.086-5.49-4.606
	c3.373-1.335,6.624-3.264,9.778-4.906c1.662,4.679,3.611,9.395,5.073,14.137C41.918,404.432,38.692,403.122,35.744,401.196z
	 M51.56,396.115c-2.302-2.244-4.381-4.934-6.655-7.284c2.389-1.699,4.552-3.444,7.8-3.929c1.328-0.198,2.566-0.405,3.757-0.639
	c1.428,6.814,6.087,13.052,7.724,19.865C59.602,402.119,55.104,399.568,51.56,396.115z M67.071,384.768
	c-1.174-0.716-2.317-1.735-3.508-2.672c1.427-0.639,2.855-1.41,4.347-2.413c2.247-1.509,4.463-3.269,6.775-4.694
	c0.807,2.626,2.068,5.21,3.069,7.624c0.79,1.904,1.783,3.694,2.657,5.557c0.486,1.042,0.934,2.099,1.368,3.162
	C76.992,388.901,71.74,387.613,67.071,384.768z M91.171,378.414c-1.572-0.868-3.078-1.857-4.677-2.675
	c-1.026-0.525-1.991-1.104-3.018-1.616c-0.432-0.215-0.857-0.55-0.955-1.022c-0.262-1.265,2.009-1.407,2.72-1.597
	c2.207-0.588,4.332-1.326,6.37-2.232c0.254,1.455,0.61,2.906,0.866,4.305c0.382,2.085,1.234,4.242,1.359,6.393
	C92.854,379.489,91.867,378.798,91.171,378.414z M104.4,365.149c-1.055-0.827-2.274-1.388-3.465-1.948
	c2.449-1.877,4.842-3.075,7.407-4.115c1.034,3.646,2.608,7.3,3.225,10.983C109.084,368.636,106.838,367.061,104.4,365.149z
	 M125.711,362.718c-1.773-0.725-3.492-1.656-5.125-2.649c-1.81-1.1-3.495-2.37-5.177-3.646c2.715-1.058,5.31-2.347,7.841-3.758
	c1.023,2.985,1.795,5.946,2.412,9.18c0.094,0.493,0.234,0.817,0.367,1.029C125.938,362.825,125.845,362.773,125.711,362.718z
	 M137.632,348.376c-0.845-0.451-1.708-0.858-2.576-1.252c-0.283-0.404-0.63-0.757-1.109-1.007c2.482-1.631,4.73-3.7,7.083-5.551
	c0.041,0.642,0.118,1.298,0.218,1.972c0.27,1.829,0.521,3.674,0.9,5.483c0.225,1.076,0.708,2.355,1.035,3.616
	C141.27,350.68,139.475,349.357,137.632,348.376z M164.725,331.849c-1.508-0.266-3.144-0.354-4.809-0.371
	c0.792-0.697,1.601-1.504,2.46-2.46c4.743-5.279,9.253-8.387,16.108-10.504c6.331-1.955,12.456-2.464,18.612-5.13
	c6.456-2.796,12.766-6.154,18.685-9.955c7.224-4.638,14.858-10.431,23.62-11.517c3.439-0.427,6.966-0.979,10.476-1.725
	c-14.359,9.219-27.427,19.96-37.587,34.165c-7.018,9.812-13.017,20.089-17.087,31.444c-1.534,4.278-3.144,8.83-5.229,12.992
	c0.391-9.191-2.497-18.838-9.601-24.357C175.116,340.344,171.924,333.119,164.725,331.849z M157.637,395.114
	c0.393-0.74,4.064,0.663,4.972,0.916c1.312,0.365,2.69,0.663,4.079,0.829c-2.477,3.14-4.818,6.393-6.96,9.746
	c-0.006-0.951-0.161-1.933-0.297-2.856c-0.229-1.557-0.472-3.116-0.802-4.655C158.497,398.488,157.402,395.557,157.637,395.114z
	 M145.488,406.389c0.353-0.36,6.146,3.588,6.602,3.836c1.579,0.859,2.988,1.414,4.521,1.598c-0.352,0.63-0.718,1.256-1.054,1.893
	c-1.861,3.526-3.516,7.146-5.123,10.788c-0.505-2.602-1.223-5.294-1.892-7.758C148.332,415.972,144.83,407.062,145.488,406.389z
	 M148.197,429.615c-1.733,3.981-3.485,7.953-5.448,11.829c-1.343-3.756-2.46-7.687-3.73-11.42c-0.763-2.244-2.204-5.409-2.933-8.286
	C139.982,424.622,143.479,428.901,148.197,429.615z M122.731,432.369c2.337,3.087,5.368,5.828,8.26,8.36
	c2.39,2.092,5.327,5.305,8.579,6.489c-2.888,4.679-6.417,8.758-10.221,12.604c-1.239-4.844-2.928-9.617-4.123-14.499
	c-0.736-3.01-1.305-6.043-1.918-9.079c-0.302-1.496-0.749-2.993-1.035-4.479C122.409,431.943,122.559,432.143,122.731,432.369z
	 M114.456,463.271c-0.419-1.604-0.807-3.216-1.25-4.813c-0.152-0.572-0.335-1.136-0.508-1.703c0.088,0.026,0.155,0.063,0.258,0.082
	c0.282,0.182,0.563,0.363,0.845,0.545c1.421,1.092,3.418,1.869,4.989,2.718c2.19,1.185,4.302,2.457,6.407,3.758
	c-2.809,2.643-5.692,5.231-8.522,7.894c-0.038,0.036-0.077,0.074-0.115,0.111C115.954,468.977,115.202,466.127,114.456,463.271z
	 M505.04,252.186c-0.213,8.129-0.522,16.242-0.984,24.357c-0.892,15.684-4.34,31.643-9.275,46.507
	c-2.382,7.174-4.193,14.549-6.915,21.61c-3.175,8.239-8.162,14.988-14.769,20.781c-5.706,5.002-11.369,7.623-18.907,4.743
	c-7.369-2.815-9.25-11.042-12.878-17.429c-0.461-0.812-0.912-1.621-1.355-2.428c6.934,4.551,15.322,7.031,24.256,8.043
	c1.161,0.132,1.41-1.792,0.275-2.037c-9.811-2.126-19.606-5.014-27.174-10.887c-5.592-10.388-10.886-19.885-22.124-26.11
	c-6.785-3.758-12.507-8.783-18.689-13.406c-3.451-2.58-7.332-4.45-11.381-5.89c9.97-0.152,19.612,0.825,29.665,2.127
	c1.292,0.167,1.576-2.007,0.308-2.275c-11.393-2.418-21.907-2.291-33.182-0.903c-1.648-0.49-3.313-0.925-4.978-1.314
	c-13.683-3.195-26.704-1.298-39.367,3.3c3.279-2.25,6.667-4.331,10.226-5.971c15.405-7.103,33.38-4.938,49.751-6.603
	c1.532-0.155,1.515-2.194,0-2.371c-14.888-1.734-31.391-1.553-45.833,3.134c-6.455,2.095-12.214,5.664-17.691,9.617
	c-1.547,1.117-12.334,9.242-16.469,12.556c-2.91,2.333-6.075,4.806-8.842,7.367c-3.353,3.104-6.633,6.309-9.849,9.556
	c1.664-3.107,3.444-6.139,5.076-9.351c2.478-4.878,2.886-9.793,3.605-15.142c0.916-6.806,1.496-13.611,0.3-20.117
	c0.412-4.755-0.256-9.261-3.11-14.195c-4.361-7.54-13.142-11.311-18.146-18.532c-5.081-7.332-6.757-16.574-12.23-23.717
	c-5.87-7.662-12.967-13.17-20.79-18.634c-0.508-0.355-1.165,0.481-0.669,0.868c7.324,5.707,15.317,12.687,19.751,21.028
	c3.68,6.922,5.032,14.75,8.655,21.678c3.662,7,9.807,11.375,15.382,16.674c8.651,8.223,6.83,24.261,5.141,34.807
	c-0.838,5.229-1.487,9.067-4.188,13.658c-2.202,3.741-5.008,7.309-6.693,11.303c-3.846,9.118-8.797,15.144-16.339,21.512
	c-7.667,6.473-16.081,11.969-24.731,17.026c-16.41,9.593-31.054,19.916-40.415,36.839c-9.001,16.274-17.405,34.512-31.387,47.206
	c-4.226,3.837-8.865,7.496-12.577,11.839c-3.45,4.036-6.576,8.34-10.226,12.212c-3.111,3.301-6.169,6.483-9.863,9.149
	c-5.53,3.991-10.964,3.562-17.061,1.998c0.712-1.201,1.452-2.357,2.353-3.303c4.232-4.447,9.569-7.366,13.401-12.276
	c2.926-3.75,6.918-9.126,7.176-14.029c0.074-1.412-2.038-1.985-2.686-0.727c-2.084,4.047-6.166,8.73-9.146,12.046
	c-3.229,3.59-7.136,6.33-10.687,9.572c-2.983,2.722-4.054,6.064-6.564,8.998c-3.155,3.688-7.666,2.488-6.511-3.01
	c0.479-2.279,2.287-4.213,3.884-5.828c6.602-6.672,14.529-12.539,20.142-20.149c5.355-7.261,9.129-15.837,12.428-24.18
	c3.97-10.04,8.33-20.176,15.191-28.619c6.113-7.522,12.789-14.354,19.659-21.16c6.664-6.6,9.798-14.698,13.033-23.296
	c3.898-10.363,8.063-19.956,13.992-29.371c6.591-10.465,13.917-19.343,23.044-27.668c6.242-5.693,13.593-10.698,20.99-15.35
	c4.911-1.598,9.612-3.745,13.792-6.678c-0.085,0.183-0.159,0.372-0.265,0.541c-0.884,1.415,1.12,2.917,2.285,1.763
	c1.4-1.387,1.562-3.004,2.06-4.805c0.111-0.402,0.279-0.824,0.428-1.247c1.77-5.042-7.059,1.128-8.491,1.748
	c-3.172,1.374-6.479,2.401-9.716,3.606c-6.753,2.516-12.64,3.594-19.783,4.278c-11.332,1.085-21.127,9.039-30.83,14.252
	c-5.264,2.828-10.83,5.497-16.437,7.561c-2.639,0.971-5.447,1.446-8.271,1.903c-0.283-1.314-0.841-2.654-1.589-3.757
	c-1.69-2.49-4.428-2.934-7.157-3.654c-0.331-0.087-0.643,0.364-0.354,0.608c1.178,0.994,2.71,1.442,3.806,2.535
	c1.263,1.259,2.036,3.02,2.193,4.792c-1.583,0.286-3.155,0.616-4.685,1.087c-4.519,1.39-8.846,3.191-12.462,6.309
	c-1.857,1.601-3.389,3.508-5.019,5.326c-3.034,3.384-5.056,4.73-9.613,5.505c-4.625,0.786-7.784,2.759-11.26,5.819
	c-0.892,0.785-1.816,1.54-2.759,2.278c-1.063-1.846-2.824-3.479-4.018-5.039c-0.67-0.876-2.183-0.037-1.512,0.884
	c1.38,1.896,2.534,3.687,3.454,5.715c-1.94,1.414-3.946,2.757-5.98,4.047c-0.635-1.01-1.493-1.875-2.455-2.572
	c-1.11-0.804-3.2-2.478-4.626-2.5c-1.026-0.017-1.968,1.101-1.401,2.076c0.307,0.528,0.823,0.245,1.237,0.535
	c0.656,0.458,1.183,1.008,1.796,1.527c0.971,0.821,1.76,1.593,2.348,2.669c-0.05,0.097-0.104,0.199-0.151,0.294
	c-0.904,0.55-1.809,1.096-2.708,1.633c-5.023,3.003-10.441,4.313-15.829,6.382c-4.698,1.804-7.592,5.805-11.76,8.401
	c-4.984,3.104-10.558,3.505-15.954,5.404c-0.547,0.192-1.078,0.415-1.598,0.657c-1.851-0.143-3.357-1.175-4.087-2.93
	c-0.357-0.856-0.549-1.764-0.847-2.64c-0.332-0.978-0.865-1.843-1.24-2.804c-0.143-0.367-0.764-0.358-0.741,0.1
	c0.176,3.438,0.697,8.279,3.392,10.321c-2.362,1.605-4.568,3.489-6.909,5.085c-2.609,1.78-5.231,2.864-7.978,3.729
	c-0.474-0.489-1.011-0.772-1.761-1.175c-3.302-1.771-4.536-3.384-3.743-7.378c0.389-1.959,1.106-3.645,0.944-5.683
	c-0.187-2.34-1.256-4.559-1.847-6.813c-0.212-0.81-1.349-0.591-1.402,0.189c-0.142,2.086,0.394,3.797,0.446,5.875
	c0.061,2.409-0.923,3.988-1.666,6.149c-0.763,2.221-0.892,4.664-0.071,6.894c0.529,1.436,1.737,2.736,3.184,3.57
	c-0.163,0.042-0.32,0.083-0.484,0.125c-3.914,1.018-5.81,3.401-8.828,5.365c-0.808-0.567-1.664-1.038-2.313-1.802
	c-1.356-1.599-2.247-3.728-3.163-5.595c-0.101-0.205-0.39-0.088-0.401,0.109c-0.136,2.388,0.59,5.344,2.037,7.294
	c0.344,0.463,0.792,0.957,1.296,1.425c-6.793,3.557-14.143,6.847-21.748,3.919c-6.646-2.559-6.897-7.779-8.14-14.118
	c-1.086-5.534-3.557-10.411-4.08-16.049c-0.014-0.153-0.03-0.319-0.045-0.479c-0.095-5.558,0.296-10.856,2.944-16.606
	c3.632-7.889,6.865-14.106,14.457-18.734c5.718-3.486,9.93-8.811,13.644-14.303c2.799-4.141,5.177-8.114,9.324-11.021
	c3.147-2.206,5.834-4.589,8.358-7.524c4.616-5.368,5.016-12.903,9.817-18.034c5.157-5.512,12.915-7.174,19.366-10.702
	c6.086-3.329,10.695-7.556,14.03-13.655c4.099-7.497,7.033-13.656,14.365-18.408c7.05-4.569,8.034-12.646,12.517-19.293
	c3.163-4.69,7.419-7.49,12.405-9.989c2.192-1.099,4.506-1.918,6.921-2.371c0.528-0.099,3.598-0.411,5.405-0.356
	c-1.516,2.372-2.953,4.778-4.363,7.109c-4.378,7.235-10.832,12.116-16.285,18.434c-4.279,4.957-5.459,11.426-5.701,17.825
	c-0.044,1.182,1.781,1.431,2.064,0.279c1.654-6.716,4.384-12.271,9.622-16.812c4.775-4.14,9.794-8.282,13.443-13.492
	c3.775-5.389,7.1-11.051,11.098-16.3c5.256-6.901,11.058-9.644,19.608-10.308c6.271-0.487,11.289-5.52,17.84-4.156
	c5.793,1.207,9.83,5.896,15.297,7.859c2.35,0.844,4.055,1.036,6.468,0.608c3.955-0.702,6.916-1.383,10.919-0.028
	c3.061,1.036,5.755,3.271,8.156,5.408c1.917,1.707,2.941,4.003,4.916,5.576c0.635,0.506,1.595,0.053,1.396-0.813
	c-1.32-5.727-4.351-9.713-9.242-13.095c-2.638-1.823-5.544-2.733-8.672-3.394c-3.107-0.658-5.322,0.28-8.322,0.415
	c-3.847,0.173-7.105-3.105-10.068-5.037c-1.896-1.236-3.938-2.31-6.079-3.08c7.077-4.781,18.298-4.353,25.722-7.018
	c3.541-1.271,7.483-2.2,10.701-4.218c3.942-2.473,7.626-5.35,11.644-7.737c4.596-2.731,9.408-5.607,14.831-6.137
	c4.673-0.456,9.272-0.502,13.842-1.753c9.888-2.708,18.646-8.3,28.035-12.197c10.022-4.16,20.711-6.381,31.36-8.245
	c11.578-2.025,22.966-1.836,34.639-2.533c11.512-0.687,23.015-0.864,34.013,3.051c5.167,1.839,10.498,3.563,15.385,6.064
	c4.697,2.404,8.61,5.774,12.992,8.646c5.077,3.327,10.456,5.887,15.138,9.806c4.189,3.506,8.593,6.588,13.032,9.767
	c3.494,2.502,7.29,5.274,10.926,8.33c1.158,1.506,2.252,3.115,3.332,4.543c2.354,3.114,5.5,5.765,7.596,9.03
	c1.668,2.6,2.867,5.15,4.772,7.62c2.32,3.006,4.677,5.975,6.428,9.358c3.768,7.28,7.043,14.949,9.021,22.922
	C505.752,234.479,505.27,243.415,505.04,252.186z"/>
<path d="M17.193,340.66c-2.308,0.554-6.441,3.998-5.364,6.809c0.794,2.072,2.639-0.183,3.592-0.868
	c1.38-0.992,2.935-2.094,4.604-0.996c0.135,0.088,0.257,0.183,0.374,0.278c1.192,1.513,1.259,3.626,1.026,5.614
	c-3.17-0.373-4.608,2.392-5.448,5.243c-1.126,3.821-1.235,7.786,1.808,10.792c0.841,0.831,2.295,0.866,3.133,0
	c2.86-2.956,3.106-7.016,3.856-10.87c0.772-3.971,1.7-8.366-0.208-12.195C23.175,341.675,20.337,339.905,17.193,340.66z"/>
<path d="M18.14,334.633c-0.284,0.061-0.281,0.509,0,0.571c6.038,1.344,9.418,6.301,10.618,12.1
	c0.649,3.135,2.262,8.425,1.001,11.449c-0.476,1.14,1.153,1.801,1.914,1.114c3.783-3.419,0.833-12.514-0.662-16.372
	C29.018,338.353,23.984,333.374,18.14,334.633z"/>
<path d="M31.268,335.354c4.342,6.055,3.118,13.813,3.879,20.83c0.124,1.146,1.642,1.137,1.778,0
	c0.926-7.727,0.776-15.287-4.168-21.7C32.096,333.626,30.611,334.438,31.268,335.354z"/>
<path d="M164.415,422.595c-1.194,4.468-3.26,9.354-5.057,13.593c-0.612,1.445-1.128,2.894-1.67,4.367
	c-0.622,1.693-0.963,4.119-1.836,5.685c-0.125,0.224,0.03,0.537,0.303,0.527c3.073-0.115,4.633-6.248,5.632-8.364
	c2.223-4.71,4.531-10.269,4.533-15.55C166.321,421.765,164.701,421.529,164.415,422.595z"/>
<path d="M294.932,244.231c-0.482-0.352-1.074,0.426-0.637,0.825c10.443,9.503,19.102,23.881,19.405,38.136
	c0.039,1.818,2.818,2.313,3.254,0.441C320.539,268.237,306.31,252.521,294.932,244.231z"/>
<path d="M309.319,248.303c7.176,9.973,11.206,20.68,14.795,32.294c0.407,1.317,2.24,0.754,2.026-0.559
	c-2.051-12.596-8.352-22.313-16.293-32.144C309.61,247.601,309.095,247.992,309.319,248.303z"/>
<path d="M76.583,339.73c-6.856,1.608-12.391,0.632-18.389-3.06c-0.697-0.429-1.323,0.655-0.639,1.094
	c6.555,4.197,11.934,6.844,19.544,3.836C78.238,341.151,77.827,339.439,76.583,339.73z"/>
<path d="M145.982,283.878c1.284,5.023,0.448,10.288,0.757,15.407c0.062,1.024,1.518,1.021,1.59,0
	c0.406-5.777,0.241-10.117-1.542-15.629C146.622,283.146,145.848,283.354,145.982,283.878z"/>
<path d="M258.861,297.389c-4.265,3.566-9.621,5.914-14.034,9.367c-3.244,2.539-6.508,5.297-9.319,8.308
	c-5.869,6.286-10.902,13.735-13.684,21.878c-0.402,1.177,1.26,1.708,1.896,0.799c5.374-7.687,9.464-15.937,16.257-22.599
	c6.206-6.086,13.166-11.192,19.227-17.41C259.426,297.505,259.098,297.192,258.861,297.389z"/>
<path d="M248.672,312.488c-6.696,8.231-12.52,16.905-16.775,26.621c-0.41,0.936,0.816,1.708,1.396,0.816
	c2.683-4.127,4.52-8.661,7.253-12.77c3.032-4.559,5.945-9.154,9.307-13.486C250.499,312.836,249.356,311.646,248.672,312.488z"/>
<path d="M114.186,255.017c2.446-2.149,2.409-6.173,3.31-9.116c1.027-3.354,3.155-6.916,2.135-10.484
	c-0.073-0.254-0.449-0.259-0.52,0c-0.892,3.245-2.48,6.135-3.649,9.271c-1.104,2.963-1.192,6.562-2.525,9.366
	C112.552,254.867,113.49,255.629,114.186,255.017z"/>
<path d="M102.06,268.179c7.331-7.262,10.108-15.608,11.704-25.596c0.147-0.92-1.205-1.341-1.429-0.394
	c-2.181,9.234-5.559,17.555-11.397,25.125C100.435,267.968,101.5,268.734,102.06,268.179z"/>
<path d="M408.927,284.125c-9.656-4.206-20.533-6.417-31.077-5.965c-11.186,0.479-21.896,3.83-32.771,6.159
	c-0.786,0.168-0.446,1.335,0.33,1.195c10.371-1.871,20.804-4.429,31.37-4.821c10.917-0.406,20.895,2.996,31.443,5.107
	C409.166,285.989,409.938,284.566,408.927,284.125z"/>
<path d="M439.649,285.917c-17.061-14.841-37.858-19.1-59.643-22.129c-1.315-0.183-1.901,1.818-0.559,2.026
	c10.533,1.634,20.743,3.174,30.784,6.893c10.186,3.772,18.842,9.438,28.177,14.818C439.387,288.088,440.549,286.7,439.649,285.917z"
	/>
<path d="M431.524,318.556c-4.18-4.021-9.025-7.335-13.493-11.022c-0.513-0.423-1.25,0.279-0.743,0.743
	c4.073,3.731,8.305,7.276,12.068,11.333c3.74,4.03,6.331,9.041,10.36,12.793c1.043,0.972,2.985-0.328,2.073-1.6
	C438.713,326.515,435.332,322.219,431.524,318.556z"/>
<path d="M455.529,329.809c0.857,0.787,2.066-0.42,1.276-1.276c-3.731-4.047-8.024-7.448-11.92-11.322
	c-3.724-3.702-6.893-7.877-10.33-11.833c-0.277-0.319-0.712,0.139-0.458,0.457c3.292,4.106,6.112,8.617,9.61,12.554
	C447.344,322.48,451.503,326.116,455.529,329.809z"/>
<path d="M243.719,187.437c-0.38-0.244-0.846,0.337-0.49,0.635c9.133,7.623,15.369,17.393,23.605,25.822
	c1.071,1.096,2.536-0.499,1.639-1.639C261.088,202.871,253.832,193.935,243.719,187.437z"/>
<path d="M254.625,190.909c-0.416-0.255-0.79,0.392-0.38,0.651c10.953,6.942,17.575,18.397,25.952,27.938
	c0.707,0.804,2.144-0.274,1.502-1.159C274.014,207.741,265.903,197.813,254.625,190.909z"/>
<path d="M305.841,160.546c1.004-0.353,0.857-1.839-0.254-1.878c-4.879-0.171-9.636,0.581-14.547,0.262
	c-5.167-0.335-10.208-1.313-15.34-1.919c-0.993-0.118-1.211,1.542-0.236,1.746C285.813,160.924,295.381,164.219,305.841,160.546z"/>
<path d="M296.715,155.36c8.242,1.24,16.396,2.426,24.619,0.497c0.966-0.226,0.726-1.671-0.229-1.693
	c-8.09-0.188-16.054,0.046-24.139-0.655C295.919,153.417,295.661,155.202,296.715,155.36z"/>
<path d="M347.902,147.35c-6.163,1.217-12.434,0.53-18.669,0.645c-5.967,0.109-11.934,0.26-17.899,0.408
	c-1.126,0.028-1.128,1.723,0,1.751c7.019,0.175,14.039,0.297,21.058,0.457c5.614,0.127,10.932,0.653,16.133-1.784
	C349.399,148.417,348.748,147.183,347.902,147.35z"/>
<path d="M344.015,142.093c13.454,2.859,26.698,5.616,39.485,10.969c1.001,0.419,1.626-1.2,0.727-1.724
	c-11.291-6.564-26.973-11.395-40.133-9.827C343.791,141.546,343.658,142.017,344.015,142.093z"/>
<path d="M443.587,174.716c0.652,2.283,1.05,4.624,1.563,6.94c0.354,1.593,0.35,3.413,1.043,4.911
	c0.579,1.251,2.324,2.215,2.529,0.314c0.008-0.076-0.004-0.185-0.031-0.316c-0.152-0.731-0.766-2.175-0.854-2.753
	c-0.167-1.097-0.207-2.26-0.487-3.335c-0.572-2.202-1.271-4.344-2.183-6.427c-1.682-3.845-4.009-7.33-6.617-10.603
	c-0.198-0.248-0.637,0.085-0.444,0.343C440.618,167.139,442.432,170.675,443.587,174.716z"/>
<path d="M454.338,183.027c0.659,3.25,0.898,6.425,2.856,9.19c0.411,0.58,1.237,0.486,1.477-0.193
	c0.972-2.752-1.028-6.222-1.783-8.949c-1.093-3.947-2.521-7.778-4.068-11.568c-0.332-0.813-1.655-0.495-1.351,0.373
	C452.745,175.525,453.57,179.246,454.338,183.027z"/>
<path d="M460.937,179.851c0.854,3.899,1.784,7.778,2.734,11.655c0.754,3.077,1.042,6.041,2.567,8.846
	c0.441,0.812,1.945,0.496,1.832-0.496c-0.794-6.99-4.681-13.414-6.328-20.227C461.616,179.105,460.822,179.327,460.937,179.851z"/>
<path d="M469.649,190.171c1.434,7.749,1.68,15.557,3.922,23.176c0.339,1.154,1.911,0.849,2.011-0.272
	c0.696-7.803-3.54-15.646-5.31-23.075C470.176,189.59,469.575,189.767,469.649,190.171z"/>
<path d="M434.61,297.109c-6.709-2.792-13.681-4.481-20.698-6.296c-1.293-0.334-1.838,1.64-0.551,2
	c6.942,1.942,13.947,3.755,20.684,6.348C435.336,299.659,435.848,297.624,434.61,297.109z"/>
<path d="M467.087,346.7c-7.544-0.601-14.506-2.655-21.607-5.154c-1.072-0.377-1.506,1.295-0.466,1.688
	c7.176,2.71,14.311,5.268,22.073,5.191C468.21,348.414,468.182,346.788,467.087,346.7z"/>
<g>
</g>
<g>
</g>
<g>
</g>
<g>
</g>
<g>
</g>
<g>
</g>
<g>
</g>
<g>
</g>
<g>
</g>
<g>
</g>
<g>
</g>
<g>
</g>
<g>
</g>
<g>
</g>
<g>
</g>
</svg>
