<?xml version="1.0" encoding="iso-8859-1"?>
<!-- Generator: Adobe Illustrator 19.0.0, SVG Export Plug-In . SVG Version: 6.00 Build 0)  -->
<svg version="1.1" id="Capa_1" xmlns="http://www.w3.org/2000/svg" xmlns:xlink="http://www.w3.org/1999/xlink" x="0px" y="0px"
	 viewBox="0 0 512.001 512.001" style="enable-background:new 0 0 512.001 512.001;" xml:space="preserve">
<path style="fill:#9E4A4A;" d="M497.023,351.64c-3.546-2.031-7.33-3.677-10.744-5.899c-3.391-2.207-7.29-4.339-9.498-7.522
	c-6.014-8.668-14.092-14.513-22.835-20.039c-7.921-5.008-15.034-11.236-17.967-21.638c4.567-1.947,8.133-3.466,11.685-4.979
	c-2.47-8.872-15.287-6.403-17.157-15.686c3.125-9.999,14.768-13.808,17.974-25.87c-8.441,2.361-15.463,4.498-22.577,6.269
	c-5.128,1.276-10.071,4.423-15.999,4.12c-1.052,0.295-1.986,0.098-2.734-0.396c-1.295-0.303-2.635-0.766-4.042-1.481
	c5.014-24.239,20.194-45.784,20.379-74.362c-15.742,18.566-29.644,34.962-43.409,51.197c-2.347,0-4.566,0.572-6.323-0.087
	c-21.772-8.171-44.062-13.825-67.178-17.069c-18.379-2.58-35.034-11.096-50.782-20.719c-13.809-8.437-21.61-22.423-30.43-35.395
	c-4.896-7.201-6.026-14.772-4.99-23.325c0.943-7.784,2.512-14.704,9.517-19.352c1.651-1.095,2.96-2.816,4.175-4.438
	c3.727-4.975,2.364-11.188-3.057-13.75c-6.281-2.967-12.785-4.377-19.843-3.203c-17.107,2.846-33.091,7.98-45.995,20.362
	c-14.141,13.569-31.181,20.955-50.13,26.017c-8.469,2.262-16.882,4.755-25.256,7.393c-0.539,0.903-1.35,1.633-2.338,1.926
	c-8.298,2.465-16.41,5.268-24.862,7.234c-0.216,0.05-0.433,0.1-0.648,0.149c-6.884,2.418-13.748,4.89-20.591,7.395
	c-9.416,3.446-17.754,9.906-26.419,15.26c-1.45,0.896-2.058,3.155-4.009,6.343c5.282-0.487,9.043-0.796,12.795-1.189
	c10.14-1.064,20.291-3.149,30.409-2.988c11.152,0.178,21.49-1.871,32.033-5.129c13.643-4.216,27.644-7.306,41.566-10.555
	c1.761-0.41,3.824-0.929,5.913,0.17c1.563-0.32,3.124-0.66,4.685-1.104c2.642-0.75,4.917,2.826,2.763,4.747
	c-1.411,1.259-3.021,1.849-4.725,2.194c-9.654,6.389-20.37,11.918-30.464,18.212c-10.398,6.484-21.361,12.058-32.048,18.083
	c-11.217,6.323-22.894,11.955-32.753,20.856c5.485,3.732,9.503,0.221,13.62-1.615c8.702-3.88,17.3-7.992,25.931-12.03
	c11.08-5.184,22.515-9.742,33.138-15.735c16.525-9.323,33.125-15.46,52.348-9.142c3.675,1.208,8.174,0.753,12.132,0.096
	c9.126-1.517,16.621,0.935,23.281,5.322c-0.483,0.68-0.826,1.439-1.024,2.218c3.682,2.054,6.967,4.698,8.919,7.862
	c0.964-0.04,1.939,0.391,2.426,1.284c0.796,1.459,1.09,3.522,2.188,4.751c0.116,0.13,0.254,0.252,0.402,0.37
	c1.173-0.571,2.142-1.618,2.522-2.858c15.55,15.222,30.923,30.627,46.494,45.828c5.417,5.288,10.488,10.607,11.892,19.787
	c-4.293,3.585-8.975,7.402-13.553,11.34c-5.159,4.438-11.445,8.167-15.109,13.633c-2.539,3.787-5.1,7.571-7.65,11.365
	c-1.516-0.607-3.571-0.15-3.831,1.725c-0.149,1.078-1.054,2.365-1.585,3.151c-0.79,1.168-1.409,2.163-1.026,3.653
	c0.064,0.25,0.164,0.486,0.289,0.707c-7.44,11.316-14.551,22.826-20.46,34.898c-6.326,12.926-12.983,25.356-21.016,37.203
	c-2.854,4.208-4.983,8.907-7.631,13.724c9.456,3.573,15.973-1.001,22.459-4.229c11.124-5.536,22.764-9.389,34.978-10.883
	c20.317-2.484,40.415-5.31,58.62-18.393c0.706,1.493,1.361,2.818,1.966,4.048c0.051,0.094,0.101,0.188,0.142,0.289
	c0.99,2.014,1.843,3.777,2.554,5.592c4.634,11.838,4.59,11.855,20.858,10.853c-0.282-12.798,8.953-19.891,18.008-27.191
	c6.896-5.561,13.532-11.442,20.421-17.015c2.514-2.035,5.42-3.586,7.885-5.188c6.678,8.135,12.685,15.477,18.721,22.794
	c4.568,5.539,7.554,11.358,3.465,19.019c-7.609,4.301-15.878,4.959-24.55,3.496c-0.25,0.365-0.564,0.693-0.963,0.95
	c-1.117,0.72-1.272,3.748-1.575,4.951c-0.145,0.574-0.327,1.196-0.556,1.817c14.25-1.69,29.042,0.924,43.842-3.219
	c-2.744-11.019-6.626-21.284-7.547-31.81c-0.924-10.56,0.654-21.479,5.039-30.466c7.908-3.117,13.682-0.636,19.115,2.074
	c15.385,7.672,31.771,12.068,48.416,15.837c20.657,4.677,22.22,7.028,19.433,27.746c-0.454,3.373-0.794,6.813-1.746,10.059
	c-2.309,7.872-6.861,10.345-15.252,9.05c-3.956-0.611-8.172-1.711-11.915-0.916c-2.258,0.48-4.722,1.556-5.428,3.701
	c0.663,0.125,1.315,0.275,1.942,0.427c1.208,0.292,2.412,0.622,3.642,0.813c0.594,0.092,1.237,0.074,1.824,0.216
	c0.069-0.048,0.158-0.107,0.275-0.183c3.478-2.284,6.412,2.262,4.574,5.195c8.088,0.503,16.277,0.477,24.388-1.494
	c3.182-12.867,6.021-24.764,9.085-36.603C508.33,362.981,505.115,356.275,497.023,351.64z M181.426,139.8
	c-0.671,0.393-1.438,0.455-2.183,0.286c-1.033-0.235-1.61-1.065-1.978-1.979c0.321,0.766,0.304,0.725-0.054-0.122
	c-0.011-0.085-0.021-0.154-0.03-0.225c0.006,0.035,0.005,0.067,0.013,0.103c-0.105-0.789-0.108-0.817-0.013-0.103
	c-0.257-1.484,0.491-2.634,1.872-3.171c1.083-0.42,2.13,0.087,2.945,0.762C183.426,136.534,182.895,138.941,181.426,139.8z"/>
<g>
	<path style="fill:#844040;" d="M399.346,256.545c-0.772-3.68-3.232-7.179-5.101-10.417c-2.406-4.169-5.938-6.148-10.684-6.431
		c-0.695-0.041-1.396,0.052-2.081,0.238c-0.349-0.324-0.697-0.651-1.045-0.979c-0.14-1.576-0.831-3.07-2.063-4.015
		c-1.278,0.276-2.646-0.254-3.522-1.187l-0.053-0.01c-0.668-0.586-1.346-1.158-2.033-1.715c-3.631,0.171-7.762-2.037-10.808-3.268
		c-1.323-0.535-2.644-1.035-3.966-1.514c-0.391,0.195-0.771,0.411-1.121,0.666c-0.747-0.414-1.5-0.817-2.261-1.212
		c-1.126-0.583-2.269-1.134-3.411-1.685c-2.671-0.788-5.375-1.493-8.151-2.123c-6.565-1.487-12.943-4.016-19.634-4.885
		c-3.035-0.394-6.146-0.684-9.124-1.39c-0.784,0.43-1.699,0.622-2.562,0.443c-0.455-0.095-0.883-0.221-1.301-0.361
		c-0.677,0.197-1.446,0.259-2.321,0.097c-3.718-0.689-7.175-2.229-10.609-3.806c-1.182-0.071-2.349-0.169-3.468-0.371
		c-4.783-0.861-10.334-2.809-14.323-6.059c-1.9-0.712-3.789-1.452-5.665-2.218c-1.412-0.248-2.843-0.432-4.3-0.536
		c-2.047-1.186-3.964-2.511-5.703-4c-0.429-0.217-0.864-0.419-1.29-0.642c-6.106-3.193-11.228-8.018-16.091-12.841
		c-2.868-2.845-7.15-7.733-8.326-12.466c-3.148-3.883-6.021-8.286-8.724-12.216c-3.635-5.284-6.108-10.72-7.075-16.973
		c-0.967-1.871-0.27-3.565,1.068-4.688c-1.076-0.962-2.403-1.437-3.757-1.493c-0.437-0.76-0.93-1.484-1.465-2.18
		c0.417-2.022-1.256-3.344-3.003-3.313c-0.366-0.388-0.687-0.794-0.858-1.231c-1.469-4.829-6.998-5.115-9.974-2.687
		c-0.986-1.56-2.647-2.762-4.862-2.983c-0.264-0.025-0.527-0.053-0.791-0.078c-5.125-0.512-7.019,5.488-5.314,9.259
		c0.289,0.639,0.643,1.241,1.024,1.825c-2.239,1.81-3.949,4.423-5.416,6.962c-2.992,5.178-6.078,10.264-8.897,15.522
		c-7.166,4.527-14.44,8.869-21.551,13.487c-4.733,3.073-9.299,6.245-14.351,8.794c-5.665,2.858-11.332,5.28-16.396,9.17
		c-4.062,3.12-0.671,9.559,4.119,7.046c10.881-5.708,22.088-10.079,32.271-17.099c5.165-3.561,10.213-7.287,15.111-11.199
		c1.979,1.757,5.238,2.12,7.671-0.023c1.211,2.759,4.025,4.508,6.915,4.81c-1.115,2.727-1.497,5.789,0.16,8.423
		c2.667,4.239,8.221,4.701,12.165,2.072c1.628-1.087,3.002-2.377,4.177-3.817c0.104,0.432,0.216,0.859,0.348,1.279
		c1.983,6.34,12.06,7.279,13.862,0.32c0.406,0.847,0.809,1.694,1.218,2.538c2.546,5.265,5.566,12.567,11.305,15.049
		c1.649,0.713,3.35,0.745,4.832,0.289c4.968,6.011,10.711,11.271,17.674,14.684c0.492,0.344,0.992,0.676,1.494,1.003
		c0.661,1.163,1.668,2.166,3.068,2.864c3.771,1.88,7.739,3.301,11.722,4.695c1.461,0.621,2.931,1.229,4.406,1.834
		c3.243,1.328,6.511,2.597,9.78,3.861c6.569,3.338,12.616,7.487,19.657,9.943c3.014,1.052,5.518,0.346,7.289-1.242
		c0.389-0.033,0.771-0.061,1.184-0.119c1.505-0.214,2.7-0.85,3.625-1.732c2.335,0.959,4.681,1.889,7.038,2.761
		c3.053,1.129,6.133,2.166,9.236,3.087c-1.754,4.549,0.267,9.32,1.82,14.261c1.467,4.665,7.037,5.487,10.11,2.979
		c2.328,3.314,4.502,6.398,7.942,8.832c4.608,3.26,9.683-0.297,10.896-4.836c4.955,3.667,10.485,6.585,16.714,5.443
		c1.331-0.244,2.449-0.863,3.359-1.707C394.989,269.02,400.575,262.413,399.346,256.545z"/>
	<path style="fill:#844040;" d="M182.619,133.269c-0.375-0.073-0.726-0.138-1.068-0.191c-4.142-3.776-11.825-3.156-16.657-0.546
		c-0.494,0.267-0.989,0.568-1.48,0.893c-0.984-0.025-1.992,0.073-3.004,0.35c-2.578,0.705-4.625,2.355-6.033,4.586
		c-0.575,0.91-0.847,1.937-1.594,2.77c-0.907,1.01-2.095,1.4-3.041,2.473c-0.948,1.076-0.979,2.541,0,3.621
		c1.792,1.974,3.87,2.177,6.484,1.738c0.227-0.039,0.569-0.09,0.948-0.157c0.742,0.995,1.799,1.936,3.242,2.783
		c5.089,2.987,10.175,0.06,12.016-4.642c0.002-0.002,0.006-0.005,0.008-0.007c1.353,0.839,2.949,1.151,4.592,0.618
		c3.429,0.209,5.789-2.008,6.791-4.811C187.438,140.74,187.155,134.153,182.619,133.269z M181.426,139.8
		c-0.671,0.393-1.438,0.455-2.183,0.286c-1.033-0.235-1.61-1.065-1.978-1.979c0.321,0.766,0.304,0.725-0.054-0.122
		c-0.011-0.085-0.021-0.154-0.03-0.225c0.006,0.035,0.005,0.067,0.013,0.103c-0.105-0.789-0.108-0.817-0.013-0.103
		c-0.257-1.484,0.491-2.634,1.872-3.171c1.083-0.42,2.13,0.087,2.945,0.762C183.426,136.534,182.895,138.941,181.426,139.8z"/>
	<path style="fill:#844040;" d="M351.436,269.747c-1.186-3.979-4.462-5.679-7.834-5.367c-0.612-1.181-1.138-2.298-1.534-3.024
		c-1.895-3.476-3.253-7.224-4.803-10.861c-1.287-3.021-5.801-0.796-5.117,2.158c0.83,3.594,1.476,7.299,2.192,10.989
		c-1.482-3.125-3.765-5.692-7.553-5.628c-2.441,0.043-5.028,2.658-3.998,5.249c0.342,0.859,0.643,1.563,0.997,2.271
		c-0.318,0.534-0.571,1.117-0.736,1.748c-0.906,3.473,1.156,5.834,2.123,8.878c0.175,0.552,0.314,1.119,0.428,1.694
		c0.159,2.955,0.311,5.878,0.334,8.828c-0.069,1.7-0.143,3.378-0.102,4.973c-0.49,8.954,13.469,8.939,13.932,0
		c0.076-1.479,0.181-2.945,0.279-4.407c0.486,0.014,0.974-0.014,1.455-0.089c2.712-0.427,5.219-2.581,6.664-4.879
		c0.646-1.026,0.97-2.22,1.289-3.397C351.766,276.442,352.565,273.537,351.436,269.747z"/>
	<path style="fill:#844040;" d="M300.823,265.452c-0.829-0.938-2.526,0.33-1.759,1.357c4.134,5.531-12.537,16.261-16.232,18.632
		c-4.544,2.917-9.347,5.41-13.514,8.883c-4.072,3.393-7.813,7.215-11.813,10.702c-3.8,3.312-7.556,6.519-11.432,9.728
		c-1.727,1.43-3.205,2.883-3.81,5.092c-0.615,2.244-0.388,3.773-1.706,5.853c-2.687,4.235-5.538,8.136-7.363,12.862
		c-1.969,5.098-3.056,10.4-6.259,14.92c-1.111,1.567,1.266,3.216,2.576,1.986c3.781-3.549,6.669-7.886,8.715-12.629
		c2.199-5.102,3.91-11.766,7.811-15.921c1.749-1.862,4.196-2.599,6.452-3.849c2.663-1.477,5.2-3.188,7.579-5.085
		c4.512-3.599,9.401-6.881,13.611-10.827c8.11-7.603,18.751-12.166,26.064-20.696c2.862-3.338,5.44-7.01,5.841-11.519
		C305.974,270.555,303.5,268.483,300.823,265.452z"/>
	<path style="fill:#844040;" d="M265.215,386.884c-11.236-1.296-22.157,1.009-33.01,3.736c-11.811,2.968-23.605,6.026-35.647,7.92
		c-1.559,0.245-2.435,1.369-2.739,2.695c-1.276,0.313-2.468,1.047-3.229,2.161c-1.797,2.633-5.182,3.587-7.996,4.686
		c-0.62,0.242-1.061,0.635-1.355,1.096c-2.075,1.578-2.464,4.519-1.293,6.787c1.994-0.387,4.079-0.254,6.139-0.47
		c4.164-0.437,8.466-1.137,12.581-1.93c5.442-1.05,10.499-4.405,15.817-6.205c0.282-1.267-0.271-2.569-1.285-3.436
		c6.192-1.192,12.352-2.548,18.519-3.931c11.18-2.508,22.083-7.42,33.5-8.631C268.102,391.059,268.084,387.215,265.215,386.884z"/>
	<path style="fill:#844040;" d="M342.015,342.893c-5.094-0.021-10.897,3.541-15.332,5.815c-6.002,3.078-11.202,6.821-16.376,11.111
		c-5.475,4.54-11.638,8.326-17.84,11.78c-6.387,3.557-12.643,7.344-19.39,10.185c-1.439,0.606-0.834,2.991,0.659,2.392
		c12.276-4.927,25.103-7.445,36.381-14.775c5.524-3.59,10.48-7.773,16.238-11.034c2.96-1.677,5.813-3.338,8.562-5.346
		c2.247-1.642,5.156-4.925,7.683-5.808C344.874,346.42,344.6,342.902,342.015,342.893z"/>
	<path style="fill:#844040;" d="M353.279,337.748c-3.571,0.141-6.014,2.268-8.758,4.329c-1.123,0.843-0.161,2.66,1.131,1.934
		c2.54-1.428,5.171-2.991,7.946-3.905C354.832,339.698,354.691,337.692,353.279,337.748z"/>
	<path style="fill:#844040;" d="M509.64,360.512c0.202-3.031-2.208-6.556-4.258-8.313c-2.291-1.963-7.303-4.998-10.064-2.171
		c-1.006,1.03-0.961,3.134,0.491,3.811c0.833,0.389,1.706,0.473,2.545,0.814c1.131,0.46,2.249,1.512,3.12,2.365
		c0.507,0.495,0.863,1.092,1.16,1.726c-1.055,1.129-1.375,3.072-0.615,4.448c-0.005-0.002-0.011-0.005-0.017-0.007
		c-0.931-1.835-0.428-0.226-0.768,1.174c-0.1,0.41-0.212,0.813-0.32,1.219c-0.346-1.361-0.747-2.709-1.412-3.995
		c-1.432-2.771-3.52-5.118-5.937-7.056c-6.08-4.874-13.785-7.001-20.225-11.325c-2.22-1.49-4.342-0.702-5.565,0.913
		c-3.426-2.24-6.809-4.546-10.163-6.905c-5.308-3.732-10.732-7.354-15.773-11.446c-1.336-1.085-2.784-2.213-4.235-3.395
		c-1.164-1.369-2.308-2.723-3.352-4.007c-3.077-3.787-5.31-7.226-10.124-8.941c-0.492-0.175-0.974-0.28-1.447-0.342
		c1.836-2.288,3.578-4.584,4.659-7.474c0.355-0.95,0.366-1.924,0.141-2.847c1.068-1.005,2.14-2.006,3.203-3.016
		c0.487-0.462,0.941-0.925,1.394-1.388c2.438,1.015,5.125,1.642,7.748,1.693c0.096,0.068,0.191,0.138,0.287,0.207
		c0.28,0.203,0.564,0.412,0.847,0.619c0.177-0.073,0.362-0.124,0.555-0.131c2.623-0.1,7.6,1.729,11.805,2.08
		c0.167-0.451,0.423-0.859,0.813-1.163c0.884-0.687,2.656-1.241,3.224-2.106c0.193-0.295,0.285-0.857,0.346-1.477
		c-3.498-2.254-5.892-6.435-9.203-8.96c-4.621-3.524-10.584-3.506-15.341-6.603c-0.867-0.564-1.142-1.41-1.046-2.216
		c-2.348,0.022-4.537,0.767-6.37,2.604c-2.083,2.087-2.798,4.253-2.546,6.316c-8.065,8.119-16.908,15.467-25.333,23.233
		c-2.586,0.096-5.21,1.119-7.312,2.83c-1.572,1.28-3.104,3.027-4.38,4.983c-0.273,0.207-0.546,0.414-0.823,0.618
		c-3.014,2.219-6.278,4.082-9.327,6.256c-1.82,1.297-2.761,3.059-2.987,4.84c-1.417,1.461-2.691,3.049-3.69,4.839
		c-0.51,0.912-0.838,1.863-1.014,2.817c-0.88-0.334-1.887-0.211-2.671,0.705c-3.712,4.34-7.038,8.954-10.356,13.571
		c-9.736,3.153-18.519,12.374-25.366,19.4c-1.031,1.059-2.022,2.163-2.976,3.303c-1.909,0.32-3.632,1.462-4.623,3.679
		c-0.56,1.252-1.186,2.457-1.84,3.646c-1.972-0.433-4.265,0.394-5.216,2.904c-0.132,0.351-0.285,0.729-0.447,1.127
		c-1.6-1.644-3.4-3.073-5.316-3.915c-2.747-2.021-6.557-2.046-9.309-0.041c1.152,0.526,2.029,1.537,1.978,2.965
		c-0.034,0.936-0.241,1.808-0.559,2.639c1.173,0.829,1.918,2.237,1.476,4.028c-0.055,0.22-0.191,0.665-0.357,1.221
		c0.048,0.095,0.085,0.193,0.127,0.291c0.06-0.017,0.12-0.033,0.181-0.05c0.231,1.396,0.593,2.726,0.857,4.006
		c2.379,6.072,9.516,5.943,15.482,6.725c2.249,0.295,6.539,0.314,9.976,1.246c0.006-0.019,0.014-0.033,0.02-0.052
		c0.392-1.286,0.723-2.539,1.056-3.783c-4.453-4.679,2.501-12.743,5.836-16.03c3.819-3.762,7.989-7.178,11.927-10.814
		c3.617-3.342,7.079-7.155,11.402-9.575c0.386-0.216,0.779-0.339,1.172-0.422c3.978-6.45,7.091-13.362,8.834-20.582
		c0.77,1.113,1.835,2.065,3.186,2.744c3.206,1.612,6.629,1.073,9.817-0.147c2.58,0.279,5.115,0.738,7.67,1.088
		c-0.262,0.832-0.444,1.703-0.514,2.598c-0.237,3.045,1.78,5.008,4.253,5.659c0.042,0.753,0.075,1.508,0.131,2.26
		c0.27,3.625,0.763,7.272,1.317,10.863c1.217,7.878,3.461,16.499,8.329,22.971c0.429,0.569,0.948,1.04,1.514,1.426
		c0.039,0.307,0.076,0.612,0.114,0.918c-2.744,0.147-5.454,0.349-8.327,1.506c-4.676,1.883-8.472,4.407-12.509,7.357
		c-1.286,0.815-2.152,1.836-2.682,2.944c0.002-0.002,0.004-0.003,0.006-0.004c3.766-1.381,8.471,0.106,12.327,0.229
		c5.718,0.182,11.622-2.021,17.145-0.48c0.737-1.568,1.852-2.919,2.949-4.252c0.413-0.502,0.808-1.04,1.196-1.594
		c-2.669-2.436-2.588-5.846-3.822-9.139c-1.385-3.696-3.632-7.021-4.89-10.781c-2.75-8.219-0.257-16.34-0.673-24.708
		c-0.084-1.39,0.339-2.46,1.043-3.222c-0.251-1.172-0.561-2.346-0.979-3.469c0.805,0.189,1.667,0.273,2.578,0.25
		c0.201-2.344,0.314-4.662-0.41-6.874c-0.844-2.579,1.714-4.246,3.938-3.938c2.978,0.413,5.76,1.625,8.461,2.962
		c0.137-0.235,0.28-0.468,0.411-0.708c0.258,0.438,0.521,0.875,0.789,1.31c0.601,0.305,1.198,0.61,1.793,0.91
		c4.038,2.036,7.537,2.639,11.884,3.689c5.393,1.305,14.573,3.162,17.804,8.415c5.53-0.225,11.751,2.792,16.917,3.8
		c4.375,0.853,8.875,1.331,13.201,2.411c6.317,1.577,13.756,7.465,11.089,14.009c0.675,0.723,1.41,1.397,2.254,1.986
		c-0.926,2.813-1.581,5.692-2.232,8.571c-0.814,2.044-1.683,4.082-2.254,6.211c-0.413,1.539-0.41,3.433-0.925,4.992
		c-0.106,0.263-0.206,0.526-0.318,0.787c-1.542,3.018-0.918,5.904,0.721,7.98c-0.339,0.048-0.708,0.045-1.153-0.018
		c-1.917-0.268-3.363-1.62-5.432-1.755c-1.913-0.125-3.478,0.181-5.094,1.272c-3.448,2.328-4.123,6.982-1.966,9.978
		c4.142,0.021,8.224,0.586,12.336,0.107c2.675-0.312,5.751-0.068,8.482,0.841c0.606-0.551,1.168-1.158,1.683-1.815
		c0.046,0.004,0.096,0.001,0.144,0.003c0.374-2.791,1.029-5.551,1.725-8.307c-1.252-4.447,0.547-8.575,1.303-13.182
		c0.743-4.53,0.517-8.913,4.47-11.778c0.508-2.711,0.92-5.46,1.821-8.021c0.198-0.565,0.524-1.029,0.924-1.393
		C511.397,366.106,511.196,362.771,509.64,360.512z M395.872,336.384c0.468-0.39,0.927-0.79,1.379-1.198
		c0.042,0.203,0.088,0.403,0.135,0.604C396.88,335.951,396.377,336.152,395.872,336.384z"/>
	<path style="fill:#844040;" d="M407.169,253.405c1.698-0.935,1.901-3.88,2.511-5.595c0.705-1.985,1.724-3.803,2.659-5.687
		c2.956-5.956,5.311-12.018,7.201-18.388c2.93-9.874,3.187-21.936,8.526-31.068c0.245-4.531,0.433-9.12,0.013-13.635
		c-0.097-1.041,0.342-1.861,1.021-2.452c-0.434-1.114-0.835-2.241-1.086-3.409c-0.067-0.311-0.127-0.621-0.185-0.932
		c-0.691,0.342-1.215,1.008-1.196,1.905c0.148,5.358-3.115,11.901-4.662,16.995c-1.931,6.363-4.408,12.559-6.952,18.697
		c-2.482,5.987-4.953,12.004-7.012,18.154c-1.367,4.081-3.263,8.389-3.166,12.723c-1.31,2.229-2.792,4.387-4.447,5.771
		c-4.51,3.768,0.304,10.231,5.016,9.474C405.554,254.946,406.094,253.997,407.169,253.405z"/>
</g>
<path style="fill:#773737;" d="M393.025,250.897c-5.5-4.631-11.091-8.91-15.984-14.224c-0.363-0.394-0.746-0.713-1.136-0.998
	c0.098-0.329,0.166-0.67,0.213-1.017c-1.143-0.526-2.042-1.577-2.171-2.778c-3.887,0.824-8.608-1.75-11.991-3.116
	c-6.221-2.513-12.371-4.385-18.91-5.867c-6.565-1.487-12.943-4.016-19.634-4.885c-3.035-0.394-6.146-0.684-9.124-1.39
	c-0.784,0.43-1.699,0.622-2.562,0.443c-0.455-0.095-0.883-0.221-1.301-0.361c-0.677,0.197-1.446,0.259-2.321,0.097
	c-3.718-0.689-7.175-2.229-10.609-3.806c-1.182-0.071-2.349-0.169-3.468-0.371c-4.786-0.862-10.343-2.81-14.333-6.063
	c-5.78-2.165-11.474-4.53-16.948-7.392c-6.106-3.193-11.228-8.018-16.091-12.841c-2.864-2.841-7.13-7.719-8.309-12.444
	c-3.155-3.889-6.033-8.301-8.741-12.237c-3.349-4.868-5.695-9.872-6.803-15.519c-0.314-0.229-0.642-0.447-0.997-0.646
	c-1.922-1.07-4.309-1.213-6.353-0.473c-1.629-0.807-3.532-0.997-5.533-0.497c-2.986-2.848-7.654-1.89-10.57,0.472
	c-5.429,4.397-9.311,12.942-9.279,19.883c0.033,7.15,10.219,9.938,13.764,4.816c1.563,0.521,3.299,0.54,4.964-0.046
	c1.3,2.106,3.427,3.548,6.292,3.548c2.365,0,4.748-1.269,6.228-3.176c2.618,4.044,6.409,6.187,10.571,8.528
	c1.569,0.883,3.249,0.765,4.658,0.073c1.073,1.881,2.203,3.724,3.45,5.49c5.017,7.104,11.771,12.542,18.634,17.768
	c6.199,4.72,13.935,4.593,21.08,7.118c9.109,3.221,17.892,7.104,27.415,9.004c0.317,0.064,0.624,0.094,0.917,0.096
	c2.775,1.694,5.826,3.064,8.59,4.329c5.602,2.563,11.386,4.869,17.295,6.623c3.985,1.183,7.979,2.297,11.973,3.4
	c0.033,0.041,0.061,0.084,0.095,0.124c4.499,5.303,9.645,9.412,14.753,14.065c3.397,3.095,6.858,7.074,11.921,6.734
	c0.13-0.009,0.253-0.03,0.381-0.044c3.603,3.17,7.431,6.113,11.429,8.646C391.125,266.178,399.221,256.116,393.025,250.897z"/>
<g>
	<path style="fill:#D19050;" d="M151.681,150.172c-4.473-1.488-8.58-0.705-12.398-3.501c-0.441-1.95-1.78-3.952-3.476-4.721
		c-3.968-1.801-8.385-1.405-12.651-0.632c-8.161-1.077-15.103,3.244-22.541,5.822c-1.421,0.492-2.515,1.271-3.318,2.215
		c-2.006,0.242-4.012,0.554-6.026,0.93c-0.306,0.057-0.612,0.127-0.918,0.187c-0.389,1.469-1.448,2.813-2.884,3.239
		c-8.298,2.465-16.41,5.268-24.862,7.234c-8.295,1.93-16.573,3.656-24.491,6.863c-3.462,1.402-6.893,2.919-10.446,4.085
		c-2.184,3.558-7.251,5.612-10.918,7.492c-2.392,2.333-5.452,4.622-8.682,6.089c-0.51,2.9-3.093,5.366-5.398,7.578
		c2.942,0.3,5.948,0.825,8.777,0.463c6.356-0.814,12.607-1.502,18.869-2.889c6.114-1.354,12.4-2.179,18.665-2.307
		c3.108-0.063,6.225,0.079,9.319-0.289c1.144-0.136,2.073-0.262,2.958-0.265c0.091-0.429,0.158-0.862,0.174-1.3
		c5.411-0.61,11.161-2.576,15.729-3.655c8.773-2.072,17.244-4.956,25.566-8.415c2.037-0.847,4.091-1.682,6.149-2.516
		c9.557-2.059,19.178-3.228,28.978-4.179c7.137-0.692,18.326-1.66,18.954-10.795C157.026,153.751,154.465,151.1,151.681,150.172z"/>
	<path style="fill:#D19050;" d="M160.094,162.571c-4.302-0.947-6.167,0.378-8.979,3.853c-0.419,0.519-0.83,1.049-1.237,1.584
		c-3.071,0.493-5.214,2.325-7.931,4.155c0.004,0.669-0.241,1.341-0.847,1.881c-2.072,1.849-4.573,2.258-7.17,2.564
		c-1.537,0.792-3.063,1.61-4.522,2.545c-4.305,2.754-8.478,5.729-12.9,8.295c-4.604,2.672-9.698,4.149-14.542,6.308
		c-0.237,0.106-0.473,0.221-0.711,0.327c-2.519,5.704-8.974,7.808-14.383,10.15c-4.175,1.808-8.521,3.227-12.407,5.642
		c-3.43,2.131-6.359,4.95-9.856,6.981c-7.869,4.57-16.048,8.004-23.7,13.036c-3.813,2.508-6.995,4.926-10.375,7.976
		c-0.864,0.78-1.763,1.545-2.702,2.208c0.178,0.498,0.427,0.971,0.715,1.422c2.187-0.158,4.381-0.313,6.557-0.744
		c5.01-0.99,10.043-2.111,15.027-3.231c8.871-1.993,14.179-9.699,23.019-12.304c4.266-1.256,8.769-1.52,13.022-2.722
		c0.796-0.226,1.607-0.579,2.432-0.925c7.949-4.308,15.866-8.678,23.914-12.805c5.953-3.053,11.971-5.969,17.945-8.979
		c5.871-2.958,12.316-5.587,17.457-9.747c3.585-2.901,6.11-6.556,8.12-10.574c0.301-0.338,0.603-0.675,0.892-1.028
		c1.266-1.547,1.758-3.293,1.617-4.914c0.38-1.143,0.717-2.293,1.056-3.485c0.306-1.076,0.954-2.31,1.168-3.393
		c0.11-0.561-0.127-1.81,0.111-2.138C161.373,163.835,160.87,162.742,160.094,162.571z"/>
	<path style="fill:#D19050;" d="M240.283,108.192c-1.575-5.084-6.45-8.581-11.706-11.241c-2.518-0.581-5.214-0.973-7.853-1.482
		c-17.67,3.334-36.406,6.694-50.766,17.748c-3.447,2.653-6.272,5.838-9.351,8.827c0.51,0.719,1.25,1.283,2.201,1.533
		c5.447,1.438,9.782-1.142,15.085-1.632c3.676-0.34,7.336-0.158,10.983,0.183c0.245,0.873,0.824,1.646,1.846,2.108
		c2.559,1.16,4.669,1.463,7.444,0.779c0.181-0.045,0.375-0.107,0.575-0.177c3.454,0.023,6.896,0.221,10.065,1.568
		c4.07,1.729,7.675,3.16,12.215,2.663c1.668-0.183,3.266-0.533,4.802-1.019c1.902-3.245,5.195-5.915,8.123-8.146
		c3.638-2.774,6.905-5.024,7.848-9.515C241.127,109.876,240.581,109.154,240.283,108.192z"/>
	<path style="fill:#D19050;" d="M424.425,182.844c-0.09-0.326-0.33-0.596-0.628-0.764c-0.063-0.111-0.136-0.217-0.239-0.338
		c-0.117-0.135-0.269-0.209-0.428-0.259c-0.072-0.268-0.154-0.531-0.261-0.784c-0.189-0.449-0.466-0.784-0.782-1.027
		c-1.07,2.545-3.217,4.276-5.018,6.264c-0.043,0.4-0.157,0.813-0.38,1.233c-2.241,4.633-6.214,8.306-9.108,12.534
		c-2.759,4.033-5.446,8.028-8.872,11.537c-3.795,3.887-8.111,7.281-11.622,11.443c0.067,0.9,0.298,1.821,0.735,2.768
		c-0.395,0.873-0.826,1.644-1.333,2.04c-0.54,0.42-1.571,0.515-2.646,0.543c-1.079,2.151-2.151,4.293-3.87,6.025
		c-0.511,0.515-1.102,0.804-1.71,0.913c2.658,3.631,7.484,8.352,12.47,7.896c0.957,2.791,5.19,3.287,7.423,1.451
		c3.463-2.848,4.431-8.608,5.851-13.209c0.018,0.019,0.03,0.039,0.048,0.058c0.318,0.325,0.916,0.43,1.309,0.168
		c0.994-0.658,1.1-1.178,1.542-2.233c0.744-1.775,1.682-3.416,2.477-5.164c1.488-3.276,2.436-6.735,2.618-10.314
		c0.709-1.598,1.397-3.208,2.063-4.834c2.115-3.788,3.725-7.849,5.229-11.963c1.202-3.287,3.75-8.223,4.063-12.423
		C424.079,184.281,424.655,183.682,424.425,182.844z"/>
	<path style="fill:#D19050;" d="M455.679,246.913c-0.384,0.011-0.767,0.038-1.148,0.077c-0.604-1.107-1.699-1.914-3.156-1.828
		c-0.528,0.031-1.049,0.104-1.565,0.193c-0.902,0.486-1.801,0.9-2.633,1.213c-0.947,0.354-1.884,0.57-2.809,0.667
		c-2.627,1.286-5.143,2.936-7.648,4.269c-2.546,1.354-5.05,2.781-7.554,4.209c-0.347-0.473-0.959-0.771-1.751-0.646
		c-9.129,1.441-18.711,6.051-26.925,10.241c-0.944,0.481-0.884,1.6-0.314,2.256c-3.365,1.184-6.728,2.373-10.065,3.635
		c-8.2,3.099-16.5,6.662-23.902,11.386c-2.656,1.694-5.39,3.503-7.849,5.566c-3.994,1.418-7.793,3.521-11.585,5.361
		c-4.252,2.064-8.57,4.194-12.45,6.909c-0.474,0.333-0.938,0.677-1.398,1.023c-0.298,0.009-0.602,0.037-0.912,0.096
		c-1.343,0.253-2.655,0.553-3.942,0.889c-0.342-1.216-1.148-2.392-2.569-3.354c-1.437-0.974-3.048-1.464-4.562-2.282
		c-1.491-0.808-2.632-2.073-4.036-3.022c-1.478-1-3.161-1.636-4.732-2.464c-0.067-0.036-0.132-0.076-0.198-0.113
		c-0.466-1.105-1.377-2.02-2.69-2.544c-1.759-2.075-5.461-2.381-7.387-0.308c-0.776,0.836-1.474,1.744-2.143,2.682
		c-1.166,0.85-2.261,1.778-3.256,2.622c-4.642,3.935-8.846,8.318-13.703,12.021c-4.827,3.678-9.429,7.61-14.286,11.245
		c-4.626,3.463-8.338,7.864-12.755,11.554c-0.238,0.199-0.466,0.4-0.699,0.6c-0.788,0.593-1.569,1.193-2.347,1.797
		c-0.351,0.156-0.701,0.319-1.043,0.504c-3.261,1.762-6.175,4.438-8.841,6.986c-3.037,2.902-5.658,6.217-8.678,9.113
		c-2.615,2.509-4.975,4.615-7.027,7.676c-2.097,3.129-3.615,6.59-5.674,9.725c-1.409,2.145-3.118,4.182-3.801,6.631
		c-2.336,3.166-4.725,6.276-7.174,9.387c-3.038,3.855-0.301,9.476,4.076,9.087c0.755,0.144,1.58,0.073,2.448-0.292
		c6.892-2.896,13.842-5.477,20.792-8.197c1.53,0.137,3.076,0.143,4.604,0.056c0.576,0.203,1.194,0.32,1.855,0.31
		c4.022-0.067,7.815,1.178,11.818,1.308c3.88,0.126,7.725-0.771,11.352-2.071c5.238-1.878,11.616-4.75,13.405-10.5
		c0.181-0.581,0.187-1.135,0.073-1.645c3.11-1.559,6.159-3.231,9.092-5.129c4.568-2.955,9.599-6.021,13.993-9.666
		c2.58-0.926,5.145-1.89,7.661-3.016c5.629-2.518,10.89-5.912,16.156-9.101c5.038-3.05,10.055-6.13,15.044-9.261
		c4.613-2.894,9.322-5.59,12.656-9.85c1.134-0.679,2.265-1.371,3.389-2.093c8.478-5.44,16.656-11.326,25.095-16.827
		c8.211-5.353,16.257-10.871,24.294-16.479c3.906-2.727,7.833-5.439,11.712-8.203c0.603-0.43,1.19-0.877,1.772-1.331
		c1.392-1.029,2.776-2.067,4.148-3.123c2.009-1.546,3.951-3.169,5.932-4.749c0.031-0.02,0.062-0.042,0.093-0.063
		c0.117-0.073,0.215-0.161,0.303-0.256c0.159-0.126,0.314-0.257,0.475-0.382c0.773-0.604,1.928-1.875,3.095-2.985
		c-0.085,0.799,0.669,1.343,1.416,0.988c2.512-1.191,4.767-2.595,6.97-4.306c2.324-1.805,3.942-4.136,5.527-6.6
		c0.329-0.512,0.062-1.089-0.383-1.354c1.025-0.801,2.031-1.625,3.02-2.466c0.305-0.182,0.604-0.371,0.911-0.55
		c0.665-0.351,1.123-0.866,1.414-1.456c0.63-0.552,1.255-1.104,1.878-1.652C457.365,248.317,456.719,246.886,455.679,246.913z
		 M311.661,302.533c-0.47-0.027-0.921-0.05-1.351-0.07c0.183-0.307,0.369-0.617,0.541-0.917c0.279,0.323,0.555,0.649,0.817,0.985
		C311.665,302.531,311.663,302.532,311.661,302.533z"/>
	<path style="fill:#D19050;" d="M357.698,339.271c-3.238,2.7-6.626,5.221-10.04,7.712c-2.926,1.54-5.962,2.931-8.656,4.924
		c-3.035,2.247-5.894,4.685-8.731,7.154c-1.171-0.742-2.672-0.811-3.91,0.415c-0.517,0.188-1.014,0.418-1.492,0.688
		c-0.663,0.416-1.251,0.967-1.743,1.565c-0.955,1.163-1.387,2.651-1.918,4.046c-0.791,2.074-1.071,4.544,0.159,6.164
		c-0.435,1.385-1.047,2.688-1.434,4.098c-0.361,1.316,0.009,2.396,0.74,3.124c-0.648,1.752-1.131,3.58-1.357,5.525
		c-0.241,2.068,2.313,3.002,3.852,2.21c3.394-1.745,4.251-5.324,5.221-8.747c1.014-3.582,2.804-6.796,4.417-10.112
		c2.642-2.564,5.725-4.887,8.632-6.984c7.269-5.243,13.982-11.441,19.71-18.332C363.162,340.299,360.121,337.249,357.698,339.271z"
		/>
</g>
<g>
	<path style="fill:#B57841;" d="M116.705,175.701c3.848-1.38,7.565-3.213,11.554-4.161c0.577-0.138,1.15-0.257,1.725-0.379
		c1.534-0.622,3.089-1.188,4.701-1.596c1.463-0.37,1.848-2.249,1.038-3.288c0.621-0.393,1.207-0.826,1.75-1.31
		c2.167-1.927,2.663-5.903,1.075-8.331c-6.294-9.627-23.902-5.163-32.805-3.013c-6.542,1.579-13.051,3.382-19.392,5.644
		c-1.828,0.652-3.637,1.265-5.403,1.917c-2.781,0.504-5.556,1.043-8.31,1.71c-4.665,1.131-9.81,2.139-12.728,6.24
		c-1.584,2.227-0.98,5.303,0.666,7.351c-7.314,1.298-14.596,2.897-21.852,4.28c-10.689,2.037-21.696,3.869-31.629,8.493
		c-0.222,0.017-0.456,0.088-0.698,0.238c-0.211,0.131-0.423,0.263-0.635,0.394c-0.028,0.018-0.046,0.042-0.073,0.061
		c-0.191,0.226-0.387,0.449-0.589,0.669c-0.448,0.916-0.013,2.122,1.083,2.488c0.981,0.328,2.02,0.483,3.088,0.528
		c0.732,0.004,1.459-0.029,2.173-0.121c1.346-0.172,2.686-0.34,4.023-0.508c1.649-0.314,3.265-0.67,4.759-0.896
		c3.183-0.479,6.371-0.933,9.561-1.376c0.176-0.037,0.351-0.07,0.526-0.109c5.185-1.148,10.494-1.91,15.809-2.195
		c9.571-1.435,19.099-3.05,28.647-4.697c5.045-0.871,9.715-1.291,14.743-0.891c5.266-2.013,11.218-4.778,16.684-4.104
		c3.082-1.014,6.367-1.686,9.564-2.427C115.993,176.063,116.297,175.848,116.705,175.701z M92.291,175.071
		c1.588-0.306,3.176-0.599,4.766-0.884C95.449,174.885,94.065,175.189,92.291,175.071z"/>
	<path style="fill:#B57841;" d="M149.014,184.237c-0.596-1.197-2.004-1.277-3.026-0.729c-0.108-0.01-0.247-0.028-0.455-0.076
		c-0.487-0.111-1.333,0.025-1.843,0.057c-2.087,0.129-4.118,0.598-6.1,1.272c-4.489,1.531-8.937,3.688-13.242,5.683
		c-9.923,4.595-20.236,9.506-29.698,14.988c-8.759,5.077-16.494,11.06-24.397,17.296c-3.867,3.051-8.486,5.553-12.987,7.538
		c-4.63,2.043-9.412,3.458-13.11,7.09c-0.443,0.436-0.667,1.031-0.711,1.65c2.234-0.488,4.467-0.984,6.687-1.483
		c8.871-1.993,14.179-9.699,23.019-12.304c4.266-1.256,8.769-1.52,13.022-2.722c1.05-0.297,2.129-0.819,3.225-1.247
		c4.599-2.902,9.301-5.643,14.273-8.007c10.631-5.056,20.957-10.622,31.378-16.096c3.964-2.082,8.22-4.134,11.912-6.673
		C149.171,188.955,150.27,186.766,149.014,184.237z"/>
	<path style="fill:#B57841;" d="M407.581,199.703c-2.759,4.033-5.446,8.028-8.872,11.537c-0.549,0.563-1.111,1.113-1.678,1.658
		c-3.262,5.431-8.216,12.264-7.36,18.871c0.306,2.358,3.271,3.58,4.696,1.271c1.983-3.215,4.896-5.602,6.78-8.963
		c2.286-4.075,4.215-8.363,6.204-12.586c2.505-5.32,6.802-12.393,5.497-18.501C411.075,195.228,409.168,197.383,407.581,199.703z"/>
	<path style="fill:#B57841;" d="M240.766,109.233c-0.192-0.314-0.363-0.651-0.483-1.04c-1.019-3.288-3.427-5.907-6.416-8.071
		c-3.087-0.273-5.92,0.734-9.032,2.49c-1.42,0.801-2.849,1.691-4.169,2.709c-2.155-0.212-4.341-0.345-6.605-0.357
		c-4.795-0.027-10.76-1.654-14.428,2.368c-1.477,1.619-2.186,3.794-1.966,5.872c-0.382,0.021-0.763,0.046-1.141,0.078
		c-2.461,0.209-4.755,1.004-7.177,0.946c-2.742-0.065-5.45-0.09-8.208-0.008c-5.188,0.153-10.071,1.78-15.125,2.448
		c-1.282,1.234-2.524,2.503-3.778,3.766c0.179,1.195,1.055,2.27,2.849,2.425c5.537,0.479,11.334-0.396,16.936-0.194
		c2.877,0.104,5.529,0.741,8.316,0.966c2.107,0.171,4.18-0.049,6.297-0.03c0.54,0.559,1.039,1.129,1.445,1.464
		c1.294,1.067,2.668,1.836,4.228,2.456c1.364,0.542,2.701,0.825,4.037,0.914c1.784,1.13,4.161,1.354,6.256,0.75
		c0.886-0.256,1.693-0.684,2.407-1.227c3.323,1.258,6.651,2.394,9.881,2.304c0.172-0.672,0.433-1.339,0.803-1.999
		c1.436-2.552,3.747-4.746,6.092-6.658c-0.071-0.076-0.129-0.169-0.208-0.237c-0.164-0.144-0.338-0.272-0.509-0.406
		c0.469-0.186,0.952-0.351,1.412-0.548c0.307,0.001,0.599-0.021,0.883-0.055c0.196-0.151,0.394-0.306,0.586-0.452
		c1.525-1.163,2.983-2.235,4.235-3.417c0.456-1.171,0.635-2.488,0.519-3.796C239.619,111.706,240.334,110.555,240.766,109.233z"/>
	<path style="fill:#B57841;" d="M445.597,250.668c-6.602,4.052-13.439,7.412-20.361,10.625c-5.885,1.981-11.809,3.788-17.547,6.229
		c-5.004,2.129-9.943,4.44-14.81,6.891c-0.45-0.176-0.918-0.263-1.371-0.222c-4.38,0.399-7.263,3.054-10.977,5.165
		c-4.23,2.404-8.306,4.893-12.298,7.688c-1.737,1.216-3.484,2.421-5.232,3.624c-0.437,0.256-0.881,0.499-1.316,0.758
		c-7.438,4.424-14.491,9.388-21.982,13.718c-0.836,0.483-0.699,1.417-0.149,1.901c-1.571,1.138-3.146,2.271-4.716,3.41
		c1.087-3.074-1.257-6.796-5.288-5.903c-6.557,1.453-12.677,4.411-18.482,7.843c0.218-0.159,0.433-0.322,0.651-0.48
		c1.549-1.124,4.791-4.539,6.517-5.021c4.751-1.323,3.63-8.181-1.138-8.407c-2.538-0.12-4.944,0.466-7.255,1.423
		c-1.442-2.355-4.744-3.491-7.751-2.923c-5.796,1.095-10.681,5.956-15.358,9.24c-5.633,3.955-11.097,8.013-16.375,12.434
		c-11.029,9.24-21.365,18.569-30.642,29.605c-2.802,3.334,0.446,8.662,4.53,6.867c-0.173,0.659-0.125,1.311,0.08,1.899
		c-1.723,0.755-3.392,1.688-4.99,2.565c0.41-2.79-1.2-5.933-4.842-5.933c-5.67,0-6.427,7.638-2.258,9.666
		c-1.808,1.085-3.475,2.351-4.801,4.106c-1.965,2.603-0.358,6.638,2.138,8.154c6.15,3.736,15.445-2.427,20.722-5.505
		c7.145-4.167,13.892-9.083,20.646-13.916c8.283-3.962,16.888-7.361,25.372-10.963c0.78,0.348,1.675,0.351,2.501-0.257
		c0.974-0.716,1.965-1.4,2.946-2.102c3.644-1.614,7.249-3.293,10.774-5.108c8.6-4.429,16.974-9.278,25.5-13.845
		c8.067-4.319,16.208-7.686,22.71-14.347c1.273-1.305,1.384-2.789,0.831-3.997c5.038-3.153,10.036-6.365,14.997-9.654
		c0.14-0.092,0.292-0.185,0.435-0.276c4.963-2.836,9.858-5.771,14.709-8.776c13.713-6.289,27.923-12.325,40.46-20.669
		c1.892-1.259,1.925-3.882,0.774-5.409c4.563-2.758,9.135-5.505,13.695-8.303C447.785,251.766,446.742,249.966,445.597,250.668z"/>
	<path style="fill:#B57841;" d="M444.756,254.66c-0.411,0-0.412,0.64,0,0.64S445.169,254.66,444.756,254.66z"/>
	<path style="fill:#B57841;" d="M355.299,342.026c-7.939,5.703-16.176,10.774-24.379,16.007c-1.421-0.628-3.328-0.396-4.332,1.125
		c-1.366,2.069-1.742,3.822-0.385,5.979c0.778,1.235,2.556,2.221,4.046,1.646c10.804-4.16,21.016-11.564,28.395-20.422
		C360.488,344.148,358.04,340.057,355.299,342.026z"/>
</g>
<path style="fill:#CE7A7A;" d="M277.808,241.558c-0.094,0.176-0.192,0.353-0.289,0.529c-0.043-0.016-0.083-0.038-0.127-0.052
	c-0.375-3.44-2.604-5.736-5.318-6.345c-0.034-0.128-0.063-0.256-0.102-0.384c-1.527-4.976-6.197-7.534-11.14-7.7
	c-3.76-0.126-7.96-0.103-11.683,0.294c-0.024,0.003-0.042,0.007-0.064,0.01c-0.183-0.623-0.267-1.408-0.416-1.886
	c-0.751-2.41-1.715-4.438-3.585-6.126c-0.914-2.106-2.213-4.024-3.872-5.654c-1.396-1.373-3.057-2.619-4.836-3.675
	c-1.74-3.049-3.84-5.718-7.057-7.539c-1.752-0.992-3.708-1.642-5.728-2.146c-0.692-1.049-1.481-2.006-2.424-2.798
	c-1.366-1.148-3.01-1.952-4.721-2.155c-1.195-2.42-3.082-4.357-5.752-5.342c-0.88-0.324-1.924-0.563-2.963-0.603
	c-1.52-3.07-2.617-6.378-3.717-9.592c-1.52-4.439-2.383-11.392-8.093-11.856c-1.449-0.118-2.83,0.879-3.561,2.042
	c-0.655,1.041-0.763,2.121-0.781,3.22c-2.457-0.936-5.466-0.413-7.409,2.519c-1.215,1.833-3.192,3.003-4.92,4.316
	c-2.309,1.755-4.561,3.575-7.157,4.809c-1.192,0.478-2.365,0.958-3.507,1.369c-3.253,1.172-9.212,1.7-10.933,5.153
	c-0.577,1.156-0.345,2.413,0.359,3.264c0.241,0.004,0.491,0.035,0.752,0.114c2.336,0.704,4.28,1.888,6.754,2.176
	c2.643,0.308,5.322,0.05,7.97-0.067c4.592-0.203,9.125-0.47,13.688,0.294c7.149,1.195,17.977,5.636,22.284,12.618
	c0.963-0.04,1.937,0.391,2.424,1.284c0.796,1.459,1.09,3.522,2.188,4.751c0.84,0.939,2.637,1.543,3.664,2.281
	c2.604,1.871,4.925,4.166,7.189,6.426c5.698,5.686,10.838,11.827,16.782,17.294c5.972,5.491,12.125,10.802,18.171,16.211
	c4.793,4.289,10.306,7.955,13.07,13.982c0.02,0.044,0.034,0.088,0.053,0.132c1.045-0.282,2.028-0.885,2.808-1.699
	c2.525-0.496,4.852-2.984,5.1-5.621c0.214-2.27-0.493-4.622-0.833-6.969c0.822-4.852,2.717-9.45,4.315-14.105
	C285.711,240.476,279.717,237.969,277.808,241.558z"/>
<path style="fill:#B26060;" d="M276.82,247.852c-4.296,0-5.773,4.388-4.423,7.396c-0.973,0.158-1.841,0.926-1.826,1.882
	c-0.029,0.097-0.055,0.192-0.083,0.288c-0.077,0.004-0.155,0.006-0.23,0.012c-2.108-4.291-6.228-8.02-10.233-11.339
	c-1.902-3.104-4.944-5.538-7.729-7.846c-2.457-2.037-5.032-3.924-7.6-5.819c-2.826-2.89-5.491-5.934-7.88-9.239
	c-1.249-1.729-3.281-1.844-4.763-1.075c-1.976-1.792-3.917-3.62-5.818-5.462c-2.512-2.433-6.016-4.427-7.894-7.375
	c-0.511-0.802-1.429-1.276-2.342-1.289c-5.613-7.89-14.474-13.822-22.6-18.601c-1.416-0.832-3.038,0.135-3.573,1.412
	c-8.915-4.266-19.051-3.324-28.865-2.803c-4.424,0.235-4.346,7.105-0.336,6.971c4.758,1.15,9.651,0.306,14.505,0.536
	c3.675,0.175,7.232,1.095,10.773,2.068c0.423,0.054,0.845,0.106,1.268,0.178c1.482,0.247,3.123,0.638,4.83,1.157
	c1.257-0.192,2.171-1.107,2.549-2.221c2.134,1.898,4.187,3.888,6.186,5.935c3.6,2.037,6.799,4.642,8.713,7.748
	c0.965-0.042,1.942,0.388,2.43,1.283c0.796,1.459,1.09,3.522,2.188,4.751c0.84,0.939,2.637,1.543,3.664,2.281
	c2.604,1.871,4.925,4.166,7.189,6.426c5.698,5.686,10.838,11.827,16.782,17.294c2.899,2.666,5.842,5.288,8.793,7.901
	c0.812,0.541,1.639,1.047,2.495,1.479c3.91,3.987,7.85,7.947,12.393,11.188c0.14,0.1,0.286,0.18,0.434,0.25
	c0.026,0.207,0.08,0.407,0.129,0.609c2.573,2.299,4.937,4.777,6.562,7.891c1.253,0.493,2.762,0.457,3.85-0.167
	c4.646-2.664,3.42-8.727,3.817-13.16c0.049-0.552-0.024-1.042-0.174-1.483C283.084,254.282,282.032,247.852,276.82,247.852z"/>
<g>
	<path style="fill:#773737;" d="M179.243,140.086c-1.033-0.235-1.61-1.065-1.978-1.979c0.321,0.766,0.304,0.725-0.054-0.122
		c-0.011-0.085-0.021-0.154-0.03-0.225c0.006,0.035,0.005,0.067,0.013,0.103c-0.105-0.789-0.108-0.817-0.013-0.103
		c-0.257-1.484,0.491-2.634,1.872-3.171c0.574-0.223,1.137-0.181,1.661,0.004c-0.174-0.787-0.459-1.555-0.891-2.268
		c-2.421-4.004-7.854-4.867-11.493-2.057c-2.624,2.027-3.333,4.982-2.912,8.119c0.176,1.31,0.726,2.473,1.525,3.383
		c0.088,0.224,0.195,0.434,0.326,0.623c3.25,4.721,9.752,2.673,12.379-1.639c0.117-0.19,0.209-0.393,0.311-0.592
		C179.721,140.16,179.481,140.141,179.243,140.086z"/>
	<path style="fill:#773737;" d="M406.157,353.284c-0.131-2.163,0.962-3.551,2.447-4.196c0.238-3.081,0.731-6.165-0.201-9.067
		c-1.232-0.996-2.862-1.549-4.794-1.242c-0.263,0.041-0.526,0.078-0.79,0.115c-0.378,0.047-1.354,0.173-1.613,0.204
		c-2.422,0.291-4.85,0.516-7.28,0.735c-2.372,0.214-4.75,0.44-7.134,0.421c-0.493-0.04-0.986-0.08-1.481-0.104
		c-0.098-0.006-0.195,0.001-0.292,0.003c-0.01,0-0.021-0.001-0.031-0.002c-0.013-0.012-0.022-0.024-0.036-0.037
		c-2.875-2.639-7.586-1.578-8.701,2.297c-1.479,5.145,2.073,7.538,7.268,8.506c1.616,1.104,3.65,1.785,5.675,2.256
		c5.617,1.305,11.291,2.215,17,2.951C406.21,355.18,406.204,354.233,406.157,353.284z"/>
</g>
<path style="fill:#9E4A4A;" d="M381.991,398.277c-1.379-0.322-2.587-0.087-3.965-0.204c-1.146-0.099-2.269-0.293-3.414-0.392
	c-2.574-0.223-5.036,1.135-7.284,2.228c-0.266,0.13-0.47,0.294-0.631,0.479c-0.118,0.436-0.258,0.89-0.422,1.346
	c0.104,1.335,1.422,2.691,2.839,2.103c2.38-0.312,4.349-0.682,6.828-0.244c2.437,0.431,4.334,0.663,6.698-0.344
	C384.827,402.318,384.119,398.774,381.991,398.277z"/>
<path style="fill:#844040;" d="M475.303,396.997l0.019-0.066c-0.173-0.025-0.337-0.032-0.507-0.053
	c-0.088-0.015-0.167-0.042-0.259-0.051c-1.427-0.137-2.756-0.442-4.203-0.287c-0.688,0.073-1.357,0.223-2.024,0.386
	c-0.416,0.052-0.839,0.155-1.285,0.311c-0.273,0.064-0.549,0.128-0.826,0.18c-0.549,0.104-0.952,0.342-1.23,0.655
	c-0.842,0.343-1.682,0.688-2.497,1.078c-1.541,0.739-1.916,2.909-1.126,4.296c0.912,1.604,2.758,1.816,4.296,1.127
	c1.281-0.547,2.78-0.882,4.078-1.496c1.512-0.395,3.055-0.583,4.816-0.486C478.02,402.779,478.177,397.991,475.303,396.997z"/>
<path style="fill:#D19050;" d="M428.014,173.172c-0.221-1.029-0.403-2.066-0.456-3.072c-0.048,0.117-0.103,0.237-0.133,0.357
	c-0.177,0.69-0.109,1.423,0.058,2.105c0.152,0.621,0.429,1.238,0.826,1.75C428.198,173.936,428.097,173.557,428.014,173.172z"/>
<path style="fill:#FFFFFF;" d="M183.082,137.166c0.034-0.651-0.148-1.299-0.575-1.851c-0.785-1.017-2.122-1.371-3.308-0.87
	c-1.028,0.434-1.737,1.443-1.737,2.582c0,0.491,0.159,0.995,0.386,1.426c0.36,0.682,1.011,1.026,1.688,1.299
	c-0.904-0.363-0.419-0.144-0.223-0.053c0.275,0.129,0.563,0.256,0.854,0.342c0.92,0.27,1.934-0.114,2.505-0.854
	C183.142,138.58,183.251,137.863,183.082,137.166z"/>
<g>
	<path style="fill:#E0CE99;" d="M368.03,391.527c-0.001,0-0.002,0-0.002,0c-0.204-0.076-0.417-0.131-0.64-0.163
		c-1.113-0.443-2.608-0.161-3.87,0.437c-0.808,0.244-1.951,0.588-2.531,1.16c-0.851,0.84-0.887,2.182-0.135,3.089
		c0.088,0.106,0.191,0.179,0.289,0.263c-1.101,0.472-1.908,1.266-2.776,2.074c-0.814,0.758-1.755,1.709-2.044,2.809
		c-0.446,1.701,1.001,3.06,2.638,2.996c0.841-0.033,1.65-0.365,2.392-0.803c0.854-0.096,1.701-0.5,2.311-1.038
		c1.025-0.903,1.857-1.987,1.799-3.429c-0.005-0.116-0.038-0.221-0.057-0.333c0.1-0.648-0.039-1.307-0.525-1.847
		c0.299-0.074,0.599-0.154,0.902-0.232c0.612-0.16,1.207-0.355,1.768-0.618c0.065-0.018,0.127-0.037,0.191-0.055
		c0.115-0.024,0.228-0.058,0.341-0.098c0.491-0.148,0.961-0.335,1.405-0.701C370.855,393.908,369.736,391.436,368.03,391.527z"/>
	<path style="fill:#E0CE99;" d="M473.388,407.76c-0.01-0.055-0.02-0.11-0.03-0.166c-0.004,0.006-0.007,0.013-0.011,0.019
		c-0.066-0.313-0.137-0.624-0.23-0.929c-0.355-1.288-1.889-1.873-3.055-1.534c-0.606-0.263-1.271-0.224-1.846,0.067
		c-1.046-0.427-2.272-0.285-2.889,0.803c-0.05,0.088-0.085,0.189-0.13,0.282c-0.218-0.05-0.451-0.071-0.707-0.059
		c-0.355,0.019-0.634,0.138-0.913,0.275c0.074-1.494-1.141-2.814-2.703-2.601c-0.494,0.066-0.938,0.306-1.342,0.627
		c-2.831-0.228-5.015,1.549-6.866,3.68c-1.003,1.154-0.379,3.156,1.298,3.135c0.349-0.004,0.686-0.045,1.016-0.109
		c1.272,0.557,2.928,0.41,4.454-0.191c0.609,0.437,1.339,0.465,2.137,0.37c0.4-0.048,0.795-0.156,1.18-0.285
		c0.151,0.211,0.331,0.411,0.572,0.596c0.95,0.726,2.137,0.62,3.233,0.066c0.041,0.016,0.068,0.043,0.111,0.058
		c0.993,0.347,1.778,0.175,2.413-0.271c0.901,1.081,2.863,0.682,3.48-0.474c0.262-0.491,0.394-0.948,0.465-1.402
		C473.491,409.189,473.587,408.447,473.388,407.76z"/>
</g>
<path d="M184.808,143.695c-2.36-0.176-4.232,1.383-6.609,0.464c-1.199-0.463-2.521-1.376-3.274-2.437
	c-0.221-0.312-0.997-0.606-0.837-1.082c0.143-0.426,4.335,1.497,5.379,1.546c3.526,0.165,6.444-3.835,5.529-7.243
	c-0.027-0.099-0.077-0.188-0.129-0.273c-0.04-0.42-0.27-0.824-0.756-1.1c-3.031-1.721-7.008-1.885-10.042,0.057
	c-1.631,1.044-2.332,2.618-3.153,4.299c-0.599,1.228-1.143,2.394-0.826,3.77c0.131,0.566,0.835,0.672,1.227,0.323
	c0.549-0.489,0.975-1.103,1.371-1.745c0.813,2.322,1.858,4.537,4.09,5.854c3.055,1.804,5.342,0.346,8.244-0.852
	C185.846,144.935,185.757,143.766,184.808,143.695z M182.077,136.21c-0.333,1.563-0.936,3.53-2.959,3.213
	c0.233-0.452-0.229-3.681-0.672-3.567C179.573,135.566,180.937,135.963,182.077,136.21z"/>
<path d="M186.717,136.379c0.15,2.458,0.03,4.922,0.052,7.382c0.006,0.68,1.087,0.876,1.223,0.166
	c0.493-2.577,0.423-4.948,0.074-7.548C187.955,135.547,186.662,135.49,186.717,136.379z"/>
<path d="M176.422,127.665c-5.207,1.72-9.568,5.113-11.282,10.429c-0.17,0.526,0.647,0.882,0.901,0.38
	c2.242-4.436,6.8-7.007,11.15-8.982C178.221,129.025,177.491,127.312,176.422,127.665z"/>
<path d="M206.364,153.603c0.306-1.069-1.094-1.506-1.684-0.71c-1.26,1.701-1.757,3.582-2.436,5.566
	c-0.677,1.977-1.535,3.927-2.299,5.871c-0.135,0.342,0.399,0.655,0.629,0.366c1.317-1.663,2.663-3.066,3.593-5.009
	C205.104,157.731,205.771,155.682,206.364,153.603z"/>
<path d="M129.739,153.184c-0.251-1.031-0.874-1.986-1.806-2.492c-1.239-0.672-2.587-0.368-3.812,0.158
	c-1.621,0.698-3.198,1.504-4.813,2.217c-0.311,0.137-0.148,0.641,0.17,0.628c1.051-0.041,2.064-0.22,3.106-0.352
	c0.717-0.091,2.449-0.473,3.133-0.095c0.123,0.068,0.2,0.151,0.255,0.242c-0.851,0.05-1.8,0.438-2.391,0.714
	c-1.481,0.692-3.104,1.875-3.486,3.558c-1.168,5.148,9.795,0.573,9.769-3.595c0-0.043-0.007-0.087-0.009-0.13
	C129.863,153.746,129.833,153.46,129.739,153.184z"/>
<path d="M105.606,155.522c-8.761,3.35-17.284,7.164-26.27,9.932c-9.263,2.854-18.764,4.785-27.952,7.91
	c-0.831,0.282-0.488,1.586,0.366,1.326c9.599-2.928,19.516-4.607,29.125-7.484c8.884-2.66,17.089-6.042,25.361-10.189
	C107.051,156.608,106.478,155.189,105.606,155.522z"/>
<path d="M155.102,138.313c-6.021,2.019-11.782,4.252-17.325,7.395c-0.354,0.201-0.043,0.701,0.314,0.537
	c5.643-2.588,11.635-4.256,17.369-6.631C156.238,139.291,155.945,138.029,155.102,138.313z"/>
<path d="M289.428,239.524c-5.57,4.673-9.03,12.492-12.439,18.755c-0.327,0.601,0.566,1.125,0.919,0.536
	c3.824-6.369,7.993-12.376,12.658-18.153C291.215,239.858,290.23,238.851,289.428,239.524z"/>
<path d="M286.876,234.006c-7.124,5.004-13.252,11.181-17.56,18.781c-0.283,0.499,0.449,0.916,0.762,0.446
	c4.708-7.082,10.908-12.593,17.872-17.39C289.073,235.07,287.998,233.219,286.876,234.006z"/>
<path d="M421.168,325.348c-7.242-0.063-14.291,0.443-21.553-0.05c-1.03-0.07-0.993,1.473,0,1.583
	c12.012,1.334,25.029-0.869,36.332,3.65c0.713,0.284,1.345-0.82,0.758-1.302C432.084,325.442,426.991,325.398,421.168,325.348z"/>
<path d="M416.679,316.918c-0.403-0.055-0.589,0.553-0.172,0.626c9.474,1.651,19.097,3.79,26.959,9.665
	c0.798,0.596,1.753-0.693,1.054-1.365C437.308,318.91,426.087,318.207,416.679,316.918z"/>
<path d="M256.621,342.54c10.421-8.118,21.863-14.676,33.109-21.55c1.024-0.626,0.104-2.213-0.943-1.613
	c-11.543,6.601-22.638,13.891-32.588,22.741C255.905,342.379,256.327,342.77,256.621,342.54z"/>
<path d="M334.139,304.904c-13.328,7.525-25.296,16.197-36.939,26.109c-11.633,9.904-22.747,20.592-34.875,29.892
	c-0.714,0.548-0.025,1.782,0.721,1.232c11.299-8.331,21.979-17.601,32.737-26.612c12.62-10.57,25.72-19.738,39.391-28.851
	C336.263,305.948,335.299,304.249,334.139,304.904z"/>
<path d="M314.697,338.113c13.4-9.393,25.784-20.368,38.171-31.041c6.85-5.902,13.698-11.781,21.266-16.76
	c7.231-4.758,14.948-8.627,22.49-12.852c1.332-0.745,0.414-3.152-1.07-2.537c-32.506,13.463-53.884,41.58-81.54,62.024
	C313.33,337.455,313.978,338.617,314.697,338.113z"/>
<path d="M316.145,247.464c6.284,3.68,12.827,8.687,16.937,14.815c4.865,7.253,3.316,15.717,3.638,23.949
	c0.052,1.34,2.255,1.803,2.472,0.334c1.261-8.544,2.035-17.619-2.993-25.112c-4.596-6.849-11.893-11.884-19.202-15.442
	C316.03,245.537,315.197,246.908,316.145,247.464z"/>
<path d="M341.813,265.967c0.928,2.85,1.374,5.842,2.114,8.744c0.352,1.38,2.432,0.795,2.126-0.587
	c-0.667-3.022-1.249-6.039-2.624-8.839c-1.606-3.268-3.678-6.361-5.574-9.467c-0.192-0.314-0.662-0.037-0.493,0.289
	C339.019,259.311,340.694,262.525,341.813,265.967z"/>
<path d="M352.047,275.192c0.56,0.866,1.953,0.062,1.389-0.813c-1.799-2.783-3.55-5.595-5.223-8.456
	c-0.48-0.822-1.746-0.085-1.277,0.746C348.561,269.559,350.248,272.409,352.047,275.192z"/>
<path d="M498.342,347.533c-4.045-2.347-8.455-4.031-12.513-6.325c-5.488-3.104-7.831-8.729-11.66-13.449
	c-7.124-8.786-19.095-10.521-25.917-19.576c-1.315-1.745-9.07-9.232-8.599-10.966c-0.019,0.068,12.666,1.666,14.549,1.607
	c6.622-0.206,4.907-4.152,1.421-8.175c-2.986-3.448-6.352-6.06-10.357-8.236c-3.922-2.131-8.063-3.403-12.029-5.18
	c2.353-2.446,4.687-4.901,7.005-7.341c5.093-5.357,10.063-10.83,15.007-16.324c1.819-2.021,13.921-13.683,8.913-15.074
	c-3.272-0.908-8.764,4.42-11.611,5.683c-5.168,2.291-10.621,3.843-15.965,5.655c-9.003,3.055-18.549,5.322-27.289,9.039
	c-0.189,0.08-0.38,0.157-0.57,0.238c-0.063-0.086-0.116-0.174-0.191-0.257c-0.89-0.979-1.662-2.038-2.406-3.118
	c4.192-4.475,5.688-10.876,7.937-16.44c3.031-7.496,5.895-14.916,8.436-22.608c3.139-9.504,5.216-19.381,6.272-29.331
	c0.46-4.333,1.845-10.645,0.558-14.884c-1.446-4.763-3.737-0.5-4.725,2.154c-0.883,2.373-3.411,4.447-4.433,6.857
	c-1.788,2.098-3.503,4.256-5.058,6.397c-4.117,5.675-7.352,12.245-12.268,17.317c-8.437,8.703-18.945,17.537-23.37,29.23
	c-10.975-7.097-23.51-8.506-35.67-12.599c-12.668-4.263-26.299-4.743-39.434-7.314c-5.822-1.14-10.689-3.456-16.214-5.459
	c-1.445-0.523-2.885-0.97-4.319-1.43c-5.851-3.093-11.792-6.233-17.868-8.477c-4.835-1.785-8.046-5.308-12.135-8.329
	c-4.103-3.031-7.148-6.115-10.217-10.181c-5.662-7.505-11.007-15.676-16.111-23.562c-1.994-3.081-3.669-6.467-3.383-10.136
	c0.32-4.106,1.822-8.011,1.276-12.196c-0.456-3.494,0.02-5.631,2.986-8.029c3.526-2.854,7.699-5.513,10.336-9.283
	c4.573-6.54,4.88-13.555-2.213-18.155c-8.442-5.477-19.162-5.208-28.744-3.782c-10.388,1.546-22.312,5.213-31.45,10.496
	c-9.089,5.254-15.72,13.682-24.352,19.571c-8.086,5.517-18.125,10.872-27.623,13.358c-4.781,1.251-9.773,1.557-14.512,2.971
	c-4.834,1.441-9.521,3.36-14.095,5.471c-10.901,5.029-21.941,8.396-33.54,11.4c-11.405,2.953-22.863,5.639-33.105,11.659
	c-7.04,4.138-14.104,8.568-20.111,14.134c-0.695,0.382-1.379,0.822-2.048,1.37c-2.351,1.926-4.278,3.846-6.381,5.972
	c-0.413,0.417-0.705,1.184-0.466,1.764c1.55,3.768,6.615,2.521,9.902,2.023c7.456-1.128,14.748-3.106,22.161-4.467
	c8.53-1.564,16.999-3.097,25.703-2.252c7.589,0.735,13.68,0.886,21.126-1.344c7.429-2.224,14.287-5.498,21.899-7.221
	c7.44-1.684,14.74-3.829,22.24-5.221c5.973-1.107,11.779-2.433,17.625-3.932c-4.125,2.031-8.198,4.157-12.24,6.279
	c-11.891,6.241-22.771,13.923-34.372,20.636c-11.811,6.835-24.244,12.573-35.944,19.603c-10.323,6.202-20.664,13.035-30.571,19.854
	c-1.26,0.867-3.038,2.107-2.169,3.857c1.13,2.275,5.849,1.002,7.693,0.746c6.292-0.871,12.693-2.192,18.727-4.159
	c5.276-1.72,9.292-4.337,14.094-7.058c10.776-6.105,22.589-8.716,33.776-13.701c10.649-4.746,19.896-12.021,30.457-16.925
	c2.279-1.059,4.741-2.024,7.3-2.95c4.659,0.264,9.072-0.847,13.846-1.641c2.184-0.363,4.937-0.875,7.14-0.121
	c1.756,0.602,2.712,1.936,4.264,2.713c2.45,1.229,5.075,1.887,7.813,1.809c3.86-0.111,7.558-1.48,11.454-1.577
	c3.743-0.093,8.073-0.014,11.679,1.019c4.273,1.224,6.696,4.399,9.934,7.149c2.308,1.961,4.767,3.54,7.417,4.901
	c0.66,2.634,1.728,5.107,4.038,7.362c2.417,2.358,5.342,4.175,7.761,6.588c3.28,3.271,6.547,6.562,9.803,9.856
	c5.171,5.235,10.386,10.062,15.876,14.834c2.748,2.959,5.663,5.796,8.593,8.532c3.314,3.096,7.457,5.558,10.166,9.138
	c2.473,3.269,3.735,6.975,6.402,9.896c-0.233,0.203-0.476,0.41-0.73,0.623c-4.225,3.537-8.714,6.732-13.101,10.061
	c-6.376,4.837-13.014,9.814-17.658,16.43c-3.069,4.374-5.46,9.281-9.073,13.264c-2.376,2.618-3.175,4.183-4.201,7.605
	c-2.365,7.891-8.297,13.613-12.597,20.491c-2.253,3.604-4.767,7.271-6.569,11.123c-1.785,3.816-2.121,8.08-3.879,11.856
	c-4.168,8.955-10.758,17.202-16.3,25.343c-2.611,3.835-5.022,7.818-7.734,11.583c-1.31,1.818-4.338,4.436-3.901,7.051
	c0.898,5.381,12,4.157,15.516,3.342c9.501-2.205,17.95-7.956,26.997-11.466c18.059-7.007,37.783-6.513,56.366-11.338
	c8.361-2.171,14.509-4.849,20.97-10.698c1.006-0.91,2.013-1.817,3.021-2.72c-0.13,2.478,0.235,4.866,0.902,7.573
	c0.968,3.925,1.913,8.777,4.497,12.031c2.105,2.649,4.696,3.411,7.974,3.262c5.646-0.258,11.116,0.619,16.854,0.197
	c1.166-0.086,1.869-1.019,1.648-2.164c-0.397-2.059-1.806-3.84-2.216-5.911c-0.706-3.569,1.688-6.925,3.762-9.645
	c3.942-5.171,9.51-9.254,14.692-13.11c4.873-3.625,9.526-7.371,14.056-11.428c3.709-3.322,6.791-6.934,10.028-10.564
	c0.16,2.938,0.942,5.898,2.695,8.961c4.665,8.152,13.925,13.297,17.654,21.885c1.379,3.175,1.589,6.506-2.147,8.168
	c-1.754,0.779-4.604,0.898-6.472,1.135c-3.356,0.424-6.83,0.789-10.222,1.306c-3.308-1.718-5.739-3.904-9.939-2.945
	c-2.779,0.634-5.452,3.608-5.529,6.492c-0.005,0.188,0.08,0.399,0.22,0.541c-1.813,0.992-3.331,2.456-4.259,4.345
	c-0.915,1.859-1.564,4.111,0.927,4.981c1.324,0.462,2.773,0.083,4.128,0.105c1.764,0.029,3.459,0.188,5.235,0.114
	c0.089-0.004,0.167-0.021,0.249-0.034c0.205,0.021,0.411,0.019,0.603-0.028c4.224-1.026,9.752-0.728,14.114-0.817
	c5.501-0.113,11.021-0.385,16.518-0.31c5.601,0.078,19.778,2.336,19.199-6.816c-0.291-4.591-2.849-8.272-4.578-12.381
	c-2.346-5.577-4.931-10.654-5.371-16.777c-0.462-6.411,1.293-12.403,2.672-18.6c0.843-3.794,1.605-7.645,0.342-11.32
	c1.814-0.233,3.63-0.368,5.426-0.322c4.709,0.122,8.747,2.096,12.775,4.338c6.421,3.574,12.778,6.144,19.996,7.373
	c5.665,3.353,12.494,4.625,18.98,5.971c5.521,1.145,11.131,2.219,16.539,3.833c2.492,0.743,5.938,1.545,8.095,3.105
	c3.408,2.466,2.834,6.093,2.45,9.712c-0.79,7.463-1.037,24.526-10.144,27.203c-1.782-1.723-4.622-2.346-6.885-3.242
	c-2.63-1.041-5.175-1.43-8.006-1.014c-4.368,0.641-10.317,3.258-11.729,7.875c-0.018,0.058,0.002,0.121,0.023,0.181
	c-2.168,0.858-5.273,2.299-6.183,4.628c-0.839,2.148,0.659,3.721,2.65,4.271c1.515,0.418,3.162,0.508,4.724,0.592
	c1.498,0.08,3.019,0.428,4.485,0.055c4.132,1.399,9.625,0.403,13.879,0.317c5.728-0.116,11.382-0.01,17.08,0.615
	c2.822,0.31,5.503,1.239,7.646-1.149c2.559-2.853,2.555-8.154,2.786-11.728c0.789-12.196,6.554-22.784,8.231-34.712
	C513.148,357.408,505.363,351.607,498.342,347.533z M406.872,264.69c10.516-4.586,21.756-7.719,32.668-11.283
	c5.063-1.652,10.792-3.251,15.842-5.773c-6.49,6.477-12.589,13.411-19.664,19.229c-5.483,4.509-11.8,8.473-17.557,12.699
	c-6.25,4.589-13.393,7.919-19.482,12.716c-21.83,17.196-48.148,28.229-69.376,46.294c-11.836,10.073-25.972,15.723-38.909,24.15
	c-5.536,3.606-11.201,7.443-16.245,11.73c-3.414,2.9-6.15,4.728-10.543,5.804c-4.56,1.116-9.115,1.11-13.778,1.095
	c-7.122-0.022-13.496,0.884-20.366,2.91c-3.243,0.957-6.485,1.865-9.746,2.76c-2.344,0.643-7.968,2.839-9.765,1.723
	c11.611-14.527,26.614-24.516,42.541-34.117c8.141-4.906,16.469-9.461,24.008-15.294c7.625-5.899,15.484-11.596,23.408-17.101
	c17.087-11.87,36.406-19.717,54.01-30.737c8.151-5.103,16.156-10.47,24.773-14.778C387.827,272.149,397.521,268.768,406.872,264.69z
	 M272.073,324.365c-18.369,11.123-36.893,25.426-50.691,42.71c3.478-6.354,7.679-12.233,12.197-17.893
	c4.841-6.063,10.428-11.411,16.157-16.619c5.919-5.382,13.2-9.014,18.752-14.651c6.259-6.354,12.917-11.515,20.133-16.752
	c4.624-3.354,9.55-6.642,13.811-10.535c1.46-0.841,2.735-1.968,3.583-3.455c0.251-0.441,0.467-0.906,0.671-1.377
	c1.32,3.91,4.821,7.479,7.952,9.421c3.008,1.865,7.051,4.288,11.117,5.493c-8.89,4.722-17.663,9.628-25.877,15.41
	c-16.308,11.482-30.882,25.07-47.881,35.525c-12.045,7.408-23.845,14.91-33.706,24.611c0.979-1.348,1.961-2.664,2.982-3.884
	c4.968-5.929,10.046-11.771,15.575-17.188c11.159-10.931,23.819-19.662,36.378-28.845
	C274.386,325.489,273.359,323.586,272.073,324.365z M427.711,178.559c-1.793,12.333-4.799,24.766-9.015,36.286
	c-2.604,7.118-4.981,14.256-8.071,21.18c-2.438,5.462-4.11,10.829-7.205,15.836c-0.462-0.605-0.942-1.198-1.471-1.759
	c-0.905-0.961-1.876-1.882-2.876-2.776c2.736-5.004,5.627-9.932,8.276-15.022c3.329-6.396,5.704-13.144,8.343-19.816
	c3.076-7.774,5.593-15.539,8.171-23.489C424.915,185.76,426.566,182.182,427.711,178.559z M393.978,219.733
	c4.277-4.842,9.98-8.784,13.681-14.083c3.761-5.386,6.673-11.487,10.692-16.68c1.951-2.52,3.981-4.641,5.712-7.011
	c-3.229,10.1-6.783,20.133-11,29.803c-2.888,6.62-5.674,13.324-9.343,19.588c-2.554,4.359-5.622,8.644-8.159,13.055
	c-0.204-0.159-0.407-0.325-0.612-0.481c-1.025-0.782-2.068-1.498-3.121-2.177c1.931-3.127,2.585-7.59,4.181-10.772
	c2.415-4.816,4.945-9.637,7.645-14.3c0.263-0.455-0.402-0.824-0.695-0.406c-3.1,4.436-5.693,9.188-8.541,13.775
	c-1.924,3.1-4.266,6.383-5.73,9.793c-2.387-1.385-4.803-2.684-7.196-4.144C385.426,230.208,389.506,224.797,393.978,219.733z
	 M181.381,109.099c8.775-5.189,20.774-9.417,30.987-10.003c6.632-0.381,13.449-0.304,19.45,2.937
	c3.597,1.942,5.919,3.928,4.646,8.321c-0.814,2.811-2.943,5.082-5.097,6.923c-3.398,2.905-7.979,5.187-10.63,8.884
	c-1.084,1.512-1.463,2.92-1.554,4.31c-1.114-1.164-2.535-2.1-3.818-2.666c-2.302-1.017-4.77-1.171-7.247-1.215
	c-4.182-0.074-7.725-0.849-11.711-2.073c-11.648-3.579-23.172-3.123-34.352,0.74C168.47,119.81,174.067,113.424,181.381,109.099z
	 M295.06,379.098c-13.9,11.503-33.396,12.029-50.589,14.588c-9.123,1.358-17.841,3.138-26.425,6.591
	c-8.117,3.264-15.642,8.353-23.977,10.934c-3.051,0.944-6.619,1.981-9.822,1.185c-2.313-0.575-1.838-0.419-0.435-2.228
	c2.679-3.452,4.919-7.236,7.371-10.85c5.419-7.986,11.162-15.752,16.596-23.729c4.43-6.504,5.471-14.15,9.587-20.854
	c2.392-3.896,4.75-7.706,7.438-11.405c1.989-2.735,4.372-5.6,5.833-8.654c1.24-2.591,2.045-5.447,2.619-8.213
	c1.255-6.045,4.857-8.979,8.683-13.646c6.467-7.891,13.33-13.94,21.532-20.046c3.714-2.764,7.468-5.504,11.01-8.486
	c2.769-2.331,6.604-5.074,8.07-8.566c1.452-3.459,0.112-8.094,0.521-11.808c0.679-6.169,2.891-11.758,6.231-16.931
	c0.292-0.451-0.399-1.002-0.754-0.582c-5.532,6.53-8.116,13.611-9.527,22.029c-0.372,2.216-0.858,3.82-1.62,5.203
	c-1.57-3.254-3.768-6.573-5.653-9.219c-2.575-3.613-6.768-5.869-10.137-8.688c-4.381-3.667-8.898-7.559-12.861-11.669
	c-2.438-2.53-5.181-5.287-8.084-7.673c-0.939-1.02-1.881-2.038-2.848-3.034c-5.717-5.891-11.405-11.741-17.797-16.878
	c-6.084-4.89-4.957-11.894-8.227-18.368c-3.305-6.544-9.426-11.268-15.005-15.757c-0.75-0.604-1.822,0.401-1.082,1.083
	c5.734,5.278,11.813,11.895,13.684,19.674c0.41,1.701,0.666,3.366,0.936,4.987c-2.666-1.954-5.102-4.093-7.476-6.563
	c-2.068-2.154-4.074-4.035-6.839-5.224c-5.831-2.505-13.004-3.234-19.222-2.112c-4.634,0.836-8.549,2.019-13.021-0.178
	c-2.916-1.433-4.605-2.327-8.016-2.126c-0.645,0.038-1.29,0.117-1.935,0.19c5.53-1.789,11.061-3.732,16.203-6.11
	c5.7,0.643,11.041,2.6,16.765,4.046c1.136,0.286,1.486-1.276,0.47-1.702c-4.517-1.893-9.352-3.366-14.238-3.804
	c3.193-1.652,6.197-3.503,8.875-5.662c7.678-4.037,13.89-10.696,17.522-18.653c0.583-1.276-1.117-2.323-1.904-1.113
	c-1.972,3.026-4.192,6.12-6.671,9.017c1.454-2.828,2.536-5.982,3.144-9.543c0.314-1.841-2.4-2.67-2.853-0.787
	c-5.953,24.757-36.718,28.184-56.498,35.629c-9.322,3.51-17.882,8.408-26.464,13.411c-9.521,5.55-19.433,8.616-29.532,12.825
	c-9.84,4.102-17.806,11.478-27.644,15.278c-5.289,2.043-10.996,3.589-16.579,4.615c-1.179,0.217-5.327,0.432-5.36,0.566
	c0.121-0.479,4.189-2.284,4.57-2.492c10.621-5.788,20.945-12.14,31.762-17.55c10.342-5.173,20.73-10.771,30.588-16.816
	c11.424-7.004,22.092-14.96,33.804-21.53c5.467-3.067,10.869-6.229,16.44-9.101c4.183-2.155,8.034-4.672,11.962-7.124
	c2.188-0.796,4.388-1.55,6.627-2.17c1.195-0.331,1.002-2.295-0.3-2.218c-6.448,0.385-12.38,3.305-18.554,4.918
	c-6.198,1.62-12.673,3.021-19.024,3.809c-13.415,1.66-27.698,3.797-40.273,8.926c-6.562,2.676-13.329,5.872-20.533,6.18
	c-6.961,0.298-13.808-0.459-20.784,0.297c-7.267,0.788-14.55,2.278-21.681,3.86c-1.925,0.427-14.948,4.195-19.063,3.729
	c2.078-2.322,4.235-4.701,6.504-6.91c4.727-3.563,9.495-6.97,14.811-9.964c9.275-5.225,18.492-8.199,28.86-10.435
	c9.995-2.155,20.239-3.86,29.893-7.308c9.042-3.229,17.554-7.821,26.692-10.76c8.334-2.68,16.704-3.466,24.78-7.135
	c7.534-3.423,14.69-6.729,21.392-11.516c0.174,0.076,0.37,0.105,0.587,0.026c11.166-4.063,22.274-6.128,33.892-2.419
	c4.165,1.33,8.034,3.891,12.462,4.282c4.906,0.434,12.724-0.934,14.96,5.005c0.019,1.045-0.062,2.131-0.393,3.291
	c-0.056,0.195-0.085,0.382-0.103,0.563c-0.425,1.196-0.759,2.387-0.909,3.527c-0.558,4.247,0.834,9.346,2.565,13.171
	c2.258,4.986,6.102,9.129,9.357,13.473c3.288,4.388,6.257,8.979,9.624,13.309c2.663,3.424,5.37,6.686,8.81,9.355
	c3.864,3,7.233,6.795,11.205,9.582c2.074,1.456,4.479,2.009,6.731,3.107c2.372,1.157,4.542,2.688,6.907,3.863
	c4.988,2.479,10.263,4.399,15.394,6.55c0.609,0.255,1.173,0.194,1.645-0.056c2.946,1.512,5.889,2.99,9.18,3.791
	c5.978,1.457,11.948,2.845,18.05,3.619c6.82,0.865,14.061,1.07,20.711,2.811c12.584,3.291,26.669,4.604,37.741,11.958
	c4.553,3.024,9.393,5.62,13.812,8.847c2.991,2.184,5.939,4.671,8.443,7.416c2.092,2.293,3.442,5.035,5.326,7.433
	c-7.828,3.243-15.704,6.396-23.444,9.829c-9.111,4.042-17.64,9.337-26.209,14.395c-6.922,4.086-14.068,7.822-21.214,11.564
	c-2.071-0.564-4.19-0.795-6.28-1.533c-2.775-0.979-5.341-2.438-7.887-3.887c-3.1-1.765-7.193-4.063-9.311-7.047
	c-2.329-3.28-0.748-8.07-1.82-11.808c-0.702-2.449-4.1-1.375-3.728,1.028c0.589,3.816,0.612,8.023-1.152,11.566
	c-0.938,1.884-2.747,3.251-4.533,4.577c-4.378,2.886-9.008,5.548-13.301,8.349c-6.66,4.343-13.089,8.769-18.503,14.67
	c-4.985,5.434-10.604,9.955-15.923,15.048c-5.727,5.483-10.765,11.57-16.105,17.409c-4.718,5.158-9.51,10.504-13.4,16.332
	c-4.383,6.566-8.199,13.377-12.713,19.886c-1.821,2.626-4.892,7.177-2.043,10.14c0.086,0.362,0.445,0.656,0.81,0.66
	c4.36,2.874,13.706-1.352,17.823-2.604c8.571-2.604,16.124-5.32,25.235-5.34c7.066-0.016,14.733,0.244,21.37-2.699
	c6.008-2.665,11.511-7.902,16.932-11.615c7.315-5.012,14.811-9.653,22.431-14.188c6.09-3.624,12.228-6.87,17.668-11.471
	c6.702-5.667,13.406-10.587,20.757-15.361c13.244-8.602,26.631-17.003,40.114-25.223c7.376-4.497,13.871-10.073,21.23-14.604
	c4.895-3.014,9.413-6.472,13.983-9.875c-1.118,1.095-2.24,2.188-3.344,3.29c-12.426,12.401-27.049,22.551-40.24,34.117
	c-13.703,12.016-27.797,23.237-43.645,32.332C321.839,357.973,308.564,367.923,295.06,379.098z M372.454,344.821
	c-0.114,0.181-0.202,0.312-0.251,0.379c-1.727,2.347-3.896,4.366-6.057,6.306c-2.782,2.497-5.331,5.226-8.086,7.767
	c-5.737,5.289-11.936,10.056-17.547,15.468c-4.375,4.219-8.829,8.688-11.653,14.127c-0.966,1.861-2.01,3.752-1.833,5.923
	c0.143,1.741,0.973,3.365,1.625,5.007c-3.084-0.357-6.1-0.658-9.201-1.274c-3.436-0.683-7.702,0.878-10.309-2.096
	c-1.87-2.132-2.677-5.365-3.756-7.937c-1.295-3.085-2.781-6.082-3.124-9.349c5.392-4.788,10.888-9.393,16.769-13.612
	c-0.815,4.523-1.872,8.902-1.515,13.568c0.186,2.436,0.045,14.103,3.7,13.641c2.942-0.371,5.333-9.342,6.628-11.544
	c2.475-4.209,5.015-8.245,7.957-12.15c5.108-5.668,10.847-10.87,16.162-16.053c0.096-0.093,0.153-0.192,0.202-0.292
	c1.703-1.371,3.295-2.849,4.471-4.653c0.714-1.096-0.817-2.079-1.712-1.32c-7.401,6.271-14.771,11.276-20.732,19.155
	c-2.925,3.866-5.419,7.689-7.828,11.884c-0.329,0.572-0.638,1.161-0.935,1.759c-1.602,2.832-2.959,5.8-4.019,8.918
	c-0.108,0.217-0.217,0.435-0.329,0.649c-0.088-0.314-0.171-0.633-0.247-0.956c0.166-3.252-0.476-6.674-0.509-9.863
	c-0.049-4.689,1.272-9.167,1.708-13.798c0.033-0.357-0.084-0.649-0.283-0.874c15.044-10.246,31.832-17.529,46.178-28.897
	c0.898-0.712,1.793-1.434,2.69-2.149c0.603,2.065,2.507,3.942,4.625,5.42C376.124,338.586,373.385,343.35,372.454,344.821z
	 M363.35,402.103c-0.853-0.027-1.706-0.056-2.558-0.079c-0.644-0.018-2,0.3-3.002,0.278c0.386-0.837,1.27-1.927,1.593-2.278
	c0.887-0.965,1.979-1.662,3.195-2.135c0.664-0.259,1.472-0.396,2.257-0.58C363.865,398.811,363.278,400.497,363.35,402.103z
	 M361.424,395.304c1.691-1.778,2.77-3.041,5.448-2.993c1.153,0.021,1.981,0.371,2.74,0.832c-1.021,0.418-2.036,1.102-2.944,1.959
	C365.246,394.313,362.916,394.823,361.424,395.304z M409.31,390.881c0.855,1.709,3.017,5.372,1.846,7.143
	c-1.291,1.951-5.844,2.109-7.778,2.203c-5.073,0.244-10.112,0.514-15.174,0.813c-7.037,0.416-14.535,0.485-21.536,1.433
	c-0.994-4.104,11.483-5.744,13.532-6.383c3.93-1.224,8.02-1.708,11.984-2.828c6.229-1.76,7.216-5.62,5.667-11.509
	c-2.063-7.844-7.037-12.52-12.615-18.269c-4.399-4.534-8.074-9.126-8.671-15.691c-0.263-2.882,0.376-5.71,0.699-8.559
	c1.063,0.597,2.097,1.081,2.967,1.42c6.546,2.552,13.728,0.963,20.354-0.413c1.404-0.291,2.833-0.592,4.273-0.868
	c2.191,4.448-0.579,10.868-1.593,15.316c-1.061,4.656-1.801,9.134-1.495,13.917C402.27,376.457,405.819,383.904,409.31,390.881z
	 M467.192,399.424c2.785-0.685,5.497-0.176,8.159,0.697c-3.724,0.101-7.541,0.774-10.577,2.65c-1.264-0.307-2.57-0.342-3.867-0.197
	C462.932,401.467,464.746,400.025,467.192,399.424z M460.254,407.749c-0.218,0.45-0.25,0.912-0.162,1.338
	c-0.082,0.181-0.146,0.36-0.2,0.54c-0.666-0.092-1.347-0.134-2.142-0.121c-1.15,0.02-2.278-0.025-3.425-0.134
	c-1.746-0.165-0.675-0.503,0.192-1.165c2.451-1.87,5.25-2.804,8.083-3.732C461.676,405.385,460.876,406.461,460.254,407.749z
	 M472.046,409.35c-0.006,0.044-0.054,0.28-0.098,0.502c-0.854,0.05-1.708,0.098-2.561,0.172c-1.196,0.103-2.47,0.381-3.671,0.402
	c-0.564,0.01-1.544,0.006-2.405-0.15c0.034-0.031,0.069-0.055,0.102-0.089c2.461-2.562,5.313-3.511,8.276-3.905
	c0.119,0.287,0.217,0.582,0.29,0.885c0.122,0.514,0.158,1.045,0.133,1.572C472.101,408.965,472.075,409.131,472.046,409.35z
	 M502.061,387.513c-1.604,5.023-2.315,9.929-3.271,15.071c-0.286,1.54-0.908,6.146-2.424,7.011c-0.858,0.49-4.181-0.181-5.234-0.2
	c-5.044-0.088-9.974-0.134-15.018,0.209c-0.098,0.007-0.196,0.011-0.295,0.018c0.108-1.199-0.261-2.573-0.817-3.591
	c-0.002-0.005-0.005-0.01-0.008-0.014c5.326-0.226,10.681,0.079,14.524-4.925c6.696-8.72,8.455-21.176,9.757-31.8
	c1.366-11.154-11.598-14.062-19.954-15.729c-6.9-1.377-13.872-2.282-20.788-3.554c-4.116-0.757-7.999-2.268-11.961-3.487
	c-5.874-2.241-11.573-4.456-16.935-7.925c-5.421-3.509-10.653-6.041-17.266-5.652c-13.08,0.77-29.271,9.764-40.315-1.543
	c15.411-12.344,30.623-25.258,45.229-38.483c4.22-3.821,8.316-7.856,12.34-11.964c6.031,3.261,12.984,4.396,18.836,8.368
	c0.368,0.249,6.524,4.769,6.604,6.007c0.13,2.021-8.725-0.024-10.271-0.393c-3.018-0.721-9.551-3.463-9.396,1.788
	c0.062,2.09,1.285,4.06,2.48,5.68c2.75,3.729,5.544,7.562,8.463,11.156c5.173,6.37,13.297,8.583,19.621,13.519
	c6.618,5.164,8.848,14.134,16.472,18.256c7.999,4.323,19.004,5.717,23.914,14.157C511.135,367.721,504.702,379.238,502.061,387.513z
	"/>
<path d="M214.149,191.834c-2.326-5.206-6.392-9.187-10.844-12.685c-0.575-0.452-1.396,0.309-0.826,0.825
	c4.821,4.381,8.476,9.295,10.747,15.427c2.074,5.599,3.543,11.359,6.319,16.678c0.43,0.822,1.693,0.248,1.471-0.62
	C219.32,204.855,216.937,198.067,214.149,191.834z"/>
<path d="M224.401,203.706c-2.61-3.96-4.214-8.44-5.988-12.81c-0.189-0.467-0.946-0.286-0.775,0.215
	c1.544,4.553,2.736,9.352,5.033,13.605c2.464,4.567,6.188,8.114,10.241,11.262c0.863,0.67,2.006-0.381,1.229-1.229
	C230.843,211.145,227.103,207.805,224.401,203.706z"/>
<path d="M190.037,183.492c-1.659-1.293-3.481-2.304-5.376-3.203c-0.506-0.241-0.94,0.467-0.445,0.762
	c1.909,1.137,3.734,2.395,5.313,3.971c1.389,1.387,2.477,2.958,4.086,4.116c0.758,0.545,1.745-0.717,1.007-1.305
	C192.969,186.518,191.714,184.797,190.037,183.492z"/>
<g>
</g>
<g>
</g>
<g>
</g>
<g>
</g>
<g>
</g>
<g>
</g>
<g>
</g>
<g>
</g>
<g>
</g>
<g>
</g>
<g>
</g>
<g>
</g>
<g>
</g>
<g>
</g>
<g>
</g>
</svg>
