<?xml version="1.0" encoding="iso-8859-1"?>
<!-- Generator: Adobe Illustrator 19.0.0, SVG Export Plug-In . SVG Version: 6.00 Build 0)  -->
<svg version="1.1" id="Capa_1" xmlns="http://www.w3.org/2000/svg" xmlns:xlink="http://www.w3.org/1999/xlink" x="0px" y="0px"
	 viewBox="0 0 512.003 512.003" style="enable-background:new 0 0 512.003 512.003;" xml:space="preserve">
<path style="fill:#C7743E;" d="M503.242,167.052c1.426-1.828,2.413-4.967,3.313-6.941c1.501-3.295,2.507-7.366,2.782-10.966
	c0.225-2.951-0.181-6.149-1.728-8.729c-2.499-4.167-6.707-3.7-10.953-4.548c-1.473-0.294-2.391-1.229-2.837-2.377
	c-0.228,0.28-0.438,0.573-0.632,0.877c-3.766-3.85-2.437-6.165,2.794-14.205c1.113-1.713,2.499-3.262,3.498-5.033
	c3.59-6.363,2.43-11.662-4.063-15.67c-4.514-2.784-9.556-4.715-13.352-6.542c-4.605-8.429,0.078-17.112,0.38-25.192
	c0.101-0.094,0.199-0.195,0.289-0.316c2.549-3.409-0.182-9.196-3.656-10.962c-0.376-0.191-0.806-0.133-1.122,0.078
	c-0.591-0.247-1.089-0.486-1.604-0.541c-2.004-0.213-4.02-0.417-6.032-0.437c-1.043-0.01-1.999-0.027-2.886-0.057
	c-0.826,0.614-1.966,0.806-3.005,0.354c-0.004,0-0.002,0.002-0.007,0.002c-0.087,0.002-0.221-0.049-0.308-0.069
	c-0.169-0.039-0.343-0.073-0.513-0.113c-0.348-0.036-0.692-0.079-1.04-0.126c-2.498-0.335-4.604-1.703-5.285-4.277
	c-0.031-0.118-0.038-0.237-0.06-0.355c-0.622-1.664-0.978-3.92-1.333-6.993c-0.543-4.701-0.776-9.52-2.035-14.038
	c-1.678-6.024-6.351-9.192-12.516-7.687c-9.293,2.271-18.054,3.313-27.69,0.685c-7.081-1.932-12.793,3.449-14.217,11.269
	c-1.464,8.04-2.843,16.185-3.149,24.326c-0.419,11.12-2.216,21.515-8.355,31.124c-2.49,3.898-4.233,8.749-4.753,13.344
	c-1.661,14.691-7.622,27.381-15.877,39.383c-4.625,6.725-8.19,14.168-12.543,21.092c-10.198,16.225-22.293,30.867-36.17,44.159
	c-9.344,8.95-15.068,7.179-23.902,2.61c-9.333-4.828-15.91-12.79-21.665-21.326c-13.621-20.204-32.619-32.651-55.933-38.533
	c-18.51-4.671-35.93-11.575-52.297-20.813c-0.059-0.443-0.161-0.897-0.36-1.371c-0.651-1.545-1.472-2.953-2.415-4.264
	c-3.662-0.308-7.179-3.148-9.81-5.325c-5.041-4.171-10.662-7.604-15.376-12.176c-2.712-2.631-5.119-4.843-8.316-6.882
	c-1.135-0.725-2.228-1.423-3.255-2.172c0.139,2.553-0.043,5.014,0.675,7.611c1.409,5.099,4.216,9.606,5.909,14.6
	c0.961,0.923,1.994,1.782,3.134,2.555c0.443,0.299,0.881,0.536,1.313,0.721c5.467,7.541,11.068,14.986,16.64,22.45
	c0.584,0.781,1.238,1.54,1.789,2.343c2.564,1.41,5.028,3,7.076,4.994c2.751,2.678-0.811,7.232-4.071,5.276
	c-1.457-0.873-2.876-1.795-4.291-2.723c-1.769,0.056-3.984,0.21-6.152-0.062c-19.711-2.461-38.116-8.136-55.05-17.443
	c-0.123-0.487-0.292-0.982-0.524-1.482c-0.692-1.492-1.489-2.882-2.366-4.195c-5.328-1.978-10.026-5.615-14.496-9.123
	c-5.055-3.968-11.879-7.053-16.838-11.531c-0.502,0.268-1.008,0.609-1.515,0.986c0.214,0.392,0.393,0.812,0.484,1.289
	c0.957,4.993,2.85,9.397,5.298,13.484c1.522,1.495,3.034,2.988,4.596,4.447c1.255,1.171,2.533,2.307,3.8,3.459
	c3.709,5.232,7.469,10.506,11.35,15.702c12.25,16.401,27.618,28.452,46.665,35.983c3.61,2.03,7.305,3.903,11.254,5.391
	c3.63,1.367,7.211,2.522,10.825,3.47c8.197,3.58,16.341,7.308,24.65,10.604c4.917,1.95,9.301,4.489,13.205,7.541
	c0.798,0.52,1.593,1.044,2.375,1.595c8.876,6.245,13.904,14.781,16.196,25.362c0.864,3.991,1.729,8.876-1.004,12.363
	c-1.165,1.485-2.726,2.391-4.408,2.753c-0.594,0.41-1.227,0.793-1.904,1.139c-1.215,0.62-2.365,1.576-3.649,1.819
	c-13.185,2.492-22.261,9.563-26.45,22.664c-0.775,2.425-2.645,5.13-4.784,6.381c-10.423,6.1-19.405,15.21-32.858,15.166
	c-4.651-0.016-9.348,1.799-13.958,3.024c-19.567,5.2-38.94-0.683-58.384-1.307c-4.909-0.157-9.73-4.542-14.501-7.151
	c-6.741-3.686-13.402-7.521-20.136-11.218c-1.052-1.646-2.157-3.244-3.254-4.771c-0.378-0.527-0.743-1.059-1.101-1.591
	c-0.658-0.534-1.3-1.102-1.931-1.688c-3.589-0.89-7.067-2.181-10.597-3.312c-1.514-0.485-2.966-0.695-4.401-0.799
	c-0.023,0.178-0.054,0.357-0.107,0.545c-0.754,2.659-1.445,4.117-0.963,6.985c0.412,2.446,1.349,4.87,2.346,7.146
	c0.265,0.315,0.523,0.634,0.813,0.938c0.838,0.958,1.75,1.587,2.684,1.953c0.226,0.345,0.452,0.69,0.688,1.019
	c0.073,0.101,0.147,0.204,0.22,0.305c1.135,3.58,2.245,7.179,3.463,10.716c0.033,0.065,0.067,0.13,0.1,0.195
	c1.786,3.627,3.09,7.366,4.512,11.063c0.58,1.157,1.184,2.3,1.839,3.412c9.801,16.651,6.961,30.326-4.205,44.795
	c-4.784,6.199-8.345,14.514-9.311,22.261c-2.549,20.428-1.422,40.864,6.977,60.175c1.167,2.683,3.646,4.794,5.851,7.593
	c2.374-2.657,3.797-4.088,5.025-5.67c1.252-1.612,2.227-3.439,3.47-5.06c0.175-0.229,0.353-0.447,0.529-0.673
	c0.251,0.415,0.542,0.812,0.868,1.185c-0.412,0.772-0.823,1.546-1.243,2.312c-1.68,3.06-2.958,5.706-2.734,8.993
	c1.275-1.633,2.443-3.308,3.629-5.094c0.265-0.398,0.525-0.791,0.786-1.178c-0.533-1.498-0.466-3.198,0.582-4.826
	c0.644-1,1.354-1.906,2.152-2.787c0.452-0.499,0.94-0.867,1.443-1.162c11.028-10.993,24.029-19.452,40.501-17.702
	c3.021,0.321,5.974,0.931,8.903,1.637c0.104-0.479,0.174-0.962,0.177-1.448c1.096,0.336,2.2,0.695,3.322,1.103
	c6.016,2.185,14.347,3.093,19.848,0.636c15.875-7.089,33.29-6.969,49.378-12.486c2.207-0.757,6.282-0.853,7.25,0.34
	c2.015,0.822,3.587,2.638,3.531,5.283c-0.016,0.746-0.123,1.432-0.294,2.072c-0.371,2.178-0.978,4.104-2.312,5.543
	c-1.813,3.691-5.249,6.287-9.107,8.248c-12.796,6.503-25.793,12.493-40.389,13.645c-11.561,0.912-23.136,1.65-34.698,2.547
	c-3.227,0.25-6.508,0.33-9.652,0.904c-1.136,0.381-2.319,0.74-3.573,1.094c-2.581,0.727-5.181,1.313-7.794,1.9
	c-0.489,0.11-2.356,0.821-3.855,1.328c0.624,0.769,1.2,1.599,1.691,2.402c0.504,0.824,0.927,1.689,1.321,2.57
	c3.709,3.227,6.348,7.13,9.301,11.147c1.131,1.538,2.348,3.138,3.353,4.831c1.198-0.188,2.352-0.657,3.339-1.351
	c10.232,8.924,22.888,14.015,37.217,15.97c6.356,0.867,13.571-1.021,19.761-3.338c8.237-3.081,15.943-7.654,23.723-11.871
	c15.103-8.186,30.36-14.901,48.266-14.745c13.22,0.114,25.444-4.296,34.676-14.848c8.924-10.199,20.536-15.271,33.749-17.609
	c10.714-1.896,21.424-4.146,31.864-7.179c14.961-4.346,23.901-14.841,28.203-29.742c2.345-8.123,2.094-15.993,0.705-24.231
	c-1.235-7.324-1.673-14.903-1.385-22.329c0.267-6.857,5.073-11.439,11.468-12.799c10.351-2.201,20.518-1.238,28.723,6.495
	c3.441,3.243,6.169,7.231,9.39,10.726c4.634,5.027,10.45,7.144,16.548,3.602c7.588-4.406,15.415-8.927,21.724-14.894
	c11.993-11.345,24.235-21.671,40.022-27.667c6.725-2.555,10.092-5.689,10.661-10.841c1.64-0.611,3.106-1.606,4.126-2.934
	c-1.5-3.228-2.806-6.494-3.186-9.953c-0.2-1.821,0.08-3.264,0.672-4.36c-1.087,0.299-2.141,0.691-3.203,1.188
	c0.665-5.667,4.189-9.754,8.756-13.688c3.586-3.09,8.048-5.148,11.753-8.122c0.393-0.315,0.768-0.627,1.127-0.937
	c3.894,0.063,7.215-2.324,8.518-6.218c0.472-1.408,0.881-2.845,1.312-4.273c-1.164-1.237-2.202-2.603-3.168-4.03
	c-1.167-1.723-2.123-3.563-3.296-5.282c-1.061-1.553-2.069-2.831-2.405-4.725c-0.067-0.381-0.074-0.745-0.052-1.099
	c-0.53,0.11-1.05,0.26-1.55,0.459c0.223-4.857,3.125-9.141,6.537-13.554c1.863-2.408,4.164-4.497,6.436-6.569
	c0.075,0.008,0.145,0.023,0.223,0.024c4.944,0.069,6.596-6.382,6.718-10.379c0.146-4.75-2.481-8.439-4.879-12.25
	c-0.587-1.048-1.698-1.231-2.604-0.873c-1.665-4.727-1.917-9.696-2.498-14.853c-0.441-3.92,0.535-7.143,1.93-10.166
	C501.008,166.331,502.101,166.808,503.242,167.052z M131.236,369.679c-6.054,3.015-10.965,7.164-17.966,7.742
	c-5.932,0.49-11.963-1.348-16.785-4.801c-4.542-3.253-9.039-8.085-10.489-13.625c-1.845-7.046,1.805-13.018,4.222-19.333
	c0.607-1.586,2.058-2.587,3.789-2.151c0.522,0.093,1.02,0.26,1.492,0.5c0.205,0.086,0.409,0.199,0.608,0.326
	c1.277-1.199,2.999-1.807,4.879-1.02c3.975,1.662,6.438,2.721,10.88,2.588c3.158-0.094,6.312-0.411,9.471-0.461
	c5.591-0.088,12.212,0.62,15.799,5.452c1.61,2.169,2.235,4.825,3.048,7.362c0.811,2.526,2.71,5.807,2.56,8.508
	C142.401,366.916,135.584,367.515,131.236,369.679z M242.007,385.521c0,0.003,0,0.006,0,0.009
	c-4.746-0.358-10.258,4.169-14.537,5.972c-4.717,1.986-9.347,4.729-14.196,6.331c-4.631,1.53-9.082,0.551-13.479-1.249
	c-4.929-2.017-9.94-3.809-14.813-5.967c-1.902-0.843-2.659-3.946-1.472-5.614c8.645-12.154,21.667-21.754,36.049-26.259
	c5.066-1.588,11.497-1.766,14.239,3.693c1.603,3.189,0.949,6.682-0.294,9.847c-0.99,2.52-0.717,1.264,0.157,3.335
	c0.732,1.734,1.281,2.848,1.39,4.799c0.012,0.219-0.007,0.419-0.02,0.624c2.503-0.524,5.052-0.5,7.52,0.481
	C244.77,382.403,244.183,385.558,242.007,385.521z M288.92,340.105c-1.417,0.839-3.481,0.358-4.28-1.122
	c-0.319-0.591-0.426-1.149-0.417-1.745c-7.658-0.287-15.245-7.79-16.731-15.15c-1.668-8.266,7.076-11.879,13.865-10.604
	c7.083,1.33,10.269,7.916,10.704,14.573c0.21,3.211,0.061,7.286-1.716,9.808C290.92,337.409,290.401,339.228,288.92,340.105z"/>
<g>
	<path style="fill:#AD6034;" d="M282.588,260.147c-2.625-5.046-7.199-7.052-11.423-10.538c-4.327-3.573-7.86-8.055-11.476-12.313
		c-2.342-2.759-6.245,1.215-3.96,3.959c1.196,1.438,2.384,2.89,3.593,4.324c-4.988-2.657-9.599-6.015-13.731-9.906
		c-5.777-5.439-10.202-12.124-15.137-18.293c-1.368-1.71-3.3-1.059-4.274,0.363c-0.019-0.025-0.037-0.052-0.056-0.077
		c-0.556-0.947-1.104-1.885-1.626-2.807c-3.456-6.091-7.792-11.392-13.898-14.757c-1.2-0.998-2.555-1.586-3.941-1.813
		c-1.685-0.66-3.399-1.199-5.135-1.653c-2.277-1.24-4.702-2.493-7.212-3.635c-1.007-0.646-2.038-1.257-3.114-1.807
		c-6.881-3.516-15.133-3.901-21.733-6.733c-3.011-1.292-5.857-2.909-8.809-4.327c-0.95-1.148-1.94-2.256-3.032-3.252
		c-6.153-5.617-13.871-7.465-21.887-8.545c-12.625-1.703-25.33-7.973-35.98-15.558c-6.329-9.04-13.197-18.145-22.738-23.313
		c-0.649-0.712-1.317-1.412-1.989-2.109c-1.576-2.104-3.226-4.157-5.171-5.881c-0.991-0.878-2.051-1.612-3.14-2.288
		c-2.892-2.67-6.023-4.995-9.755-5.609c0,0.002,0.001,0.003,0.002,0.005c2.221,11.583,9.457,20.006,17.049,28.611
		c4.276,4.847,8.46,9.759,12.546,14.768c3.185,3.905,7.17,7.663,8.464,12.523c6.073,2.529,10.896,7.31,16.07,11.27
		c2.021,1.546,4.127,2.932,6.293,4.209c11.24,1.337,22.555,6.667,31.449,13.796c0.352,0.147,0.708,0.284,1.059,0.436
		c2.697,1.157,6.221,2.425,9.274,4.187c1.697-0.988,4.039-1.163,7.195-0.131c8.768,2.867,17.051,6.685,24.617,12.009
		c8.876,6.245,13.904,14.781,16.196,25.362c0.864,3.991,1.729,8.876-1.004,12.363c-0.434,0.553-0.926,1.017-1.454,1.411
		c2.159,1.699,4.728,3.024,7.414,3.816c4.392,1.295,8.916,1.329,13.403,1.98c2.352,0.341,4.508,1.299,6.802,1.812
		c3.226,0.721,6.502,0.431,9.712-0.131c0.199-0.035,0.379-0.092,0.566-0.14c3.094,4.816,6.218,9.626,8.425,14.922
		c2.422,5.81,4.333,11.577,10.658,13.951c1.984,0.744,4.501-1.616,3.651-3.651c-3.507-8.4-8.059-16.178-12.924-23.793
		c1.613-0.033,3.129-0.697,4.366-2.348c1.085-1.446-0.722-3.681-2.371-3.085c-2.283,0.825-5.399-3.069-7.219-5.684
		c-0.345-1.221-0.907-2.37-1.684-3.311c-0.46-0.558-0.947-1.072-1.452-1.559c-1.794-2.913-3.502-5.874-5.172-8.864
		c-0.431-0.771-0.863-1.545-1.295-2.319c2.22,2.54,4.582,4.957,7.232,7.139c6.385,5.257,13.726,10.938,22.341,10.588
		c3.894,3.262,8.462,5.546,12.382,8.767C281.215,263.852,283.646,262.178,282.588,260.147z"/>
	<path style="fill:#AD6034;" d="M238.541,173.372c-7.745-10.359-20.795-13.246-32.248-17.81c-3.326-1.325-6.292-3.413-9.571-4.849
		c-3.014-1.32-6.17-2.168-9.332-3.047c-3.823-1.062-7.556-2.442-11.374-2.789c-0.349-0.498-0.698-0.982-1.065-1.424
		c-1.887-2.265-4.201-4.076-6.379-6.053c-4.324-3.925-8.511-8.008-12.407-12.36c-2.994-3.345-5.803-6.861-8.786-10.217
		c-3.627-2.686-7.309-5.299-10.561-8.453c-2.435-2.361-4.628-4.385-7.363-6.249c-1.763,0.781-3.009,2.867-1.882,5.15
		c1.038,2.103,2.18,4.182,3.369,6.248c2.604,8.607,7.986,16.488,12.928,23.831c2.166,3.218,4.391,6.814,6.886,10.206
		c3.909,1.924,7.935,4.023,11.025,7.033c1.18,1.148,1.193,2.639,0.573,3.816c0.277,0.143,0.548,0.297,0.833,0.428
		c1.818,0.842,3.739,0.806,5.423,0.198c1.986,1.021,4.057,1.801,6.22,2.249c3.513,0.729,6.117-1.338,6.917-3.975
		c1.358,0.419,2.732,0.793,4.116,1.175c5.869,1.623,10.819,4.509,16.428,6.717c5.51,2.168,11.47,3.636,17.128,5.419
		c2.995,0.943,6.014,1.797,9.005,2.754c2.981,0.953,6.443,1.379,9.121,2.996C238.131,174.722,238.992,173.976,238.541,173.372z"/>
	<path style="fill:#AD6034;" d="M240.508,281.87c-1.044-1.609-2.31-3.093-3.74-4.436c1.656-2.146,2.014-5.313-0.371-7.288
		c-11.464-9.497-26.447-7.267-38.536,0.157c-8.469,5.201-14.588,11.813-18.128,20.031c-1.13-0.324-2.384-0.008-3.092,1.373
		c-3.793,7.391-7.172,15.009-11.083,22.334c-0.596,1.117-1.215,2.244-1.835,3.377c-0.863-0.574-2.042-0.541-2.669,0.697
		c-0.931,1.841-1.909,3.652-2.923,5.447c-0.549-0.029-1.127,0.132-1.612,0.527c-1.779,1.449-2.902,3.854-3.944,6.162
		c-0.457-0.282-0.917-0.561-1.379-0.838c-0.44-0.498-0.904-0.979-1.411-1.43c-2.648-2.352-5.473-4.765-8.459-6.67
		c-5.093-3.249-10.553-3.604-15.501-1.166c-4.971-0.332-9.985,0.424-14.955,2.666c-7.706,1.58-15.362,4.602-22.533,8.061
		c-1.749,0.057-3.493,0.123-5.237,0.217c-2.178-1.241-4.819-1.943-7.88-1.896c-0.818-1.39-2.104-2.518-3.617-2.98
		c-3.656-1.118-8.061-1.08-12.409-0.679c-0.936-0.481-1.934-0.936-3.058-1.375c-2.199-0.861-4.401-1.699-6.558-2.64
		c-0.631-0.427-1.336-0.76-2.109-0.965c-1.014-0.489-2.015-1.013-2.994-1.585c-8.014-4.693-13.759-11.568-18.34-19.483
		c-0.294-0.508-0.64-0.895-1.014-1.188c-0.006-0.014-0.011-0.026-0.017-0.039c-2.886-6.657-6.023-13.161-8.47-20.002
		c-0.092-0.258-0.199-0.5-0.317-0.728c-2.214-0.66-4.399-1.426-6.596-2.157c-0.675,0.295-1.282,0.719-1.746,1.271
		c-1.317-1.428-2.938-1.745-4.414-1.373c-0.674,2.27-1.219,3.725-0.778,6.353c0.443,2.637,1.493,5.254,2.576,7.681
		c2.247,5.037,5.303,9.65,7.737,14.592c3.155,6.407,4.792,13.167,8.263,19.419c1.614,2.907,2.941,6.382,2.701,9.515
		c0.269,0.064,0.541,0.118,0.817,0.156c-0.055,0.333-0.101,0.672-0.13,1.024c-0.411,4.919,3.099,8.93,7.647,10.368
		c2.827,0.894,6.068,0.926,8.956,0.328c0.859-0.178,1.678-0.41,2.479-0.726c0.501,0.173,1.008,0.332,1.521,0.478
		c0.045,0.038,0.09,0.076,0.136,0.114c-1.636,1.083-3.225,2.391-4.638,3.64c-3.664,3.238-6.411,7.555-8.683,11.834
		c-2.454,4.621-5.401,8.986-7.786,13.636c-5.165,10.072-5.403,20.486,2.676,29.113c2.823,3.014,6.169,5.026,10.005,5.943
		c0.354,0.222,0.718,0.435,1.107,0.628c6.209,3.083,15.365,2.191,18.864-4.443c2.171-4.119,0.828-9.023-3.028-11.554
		c0.457-0.6,0.843-1.218,1.18-1.865c0.288,0.169,0.598,0.329,0.95,0.471c1.791,0.721,3.959,0.425,6.2-0.348
		c2.44,4.438,7.81,3.829,12.814,2.155c0.151,1.716,0.932,3.462,2.541,5.029c4.276,4.166,9.427,9.994,16.131,8.386
		c2.672-0.641,4.689-2.346,6.018-4.712c0.898-0.299,1.786-0.637,2.654-1.009c3.306-1.415,11.853-5.146,17.572-9.733
		c5.765-3.104,10.818-7.113,16.292-10.812c3.094-2.09,5.599-4.515,7.689-7.252c2.228,2.392,5.945,3.131,9.188,0.051
		c6.064-5.762,8.887-13.214,11.402-21.03c1.707-5.302,3.376-10.624,4.738-16.021c2.243,6.728,12.021,8.948,16.026,2.564
		c8.357,6.072,20.476,7.691,29.972,4.317c11.519-4.094,19.289-15.337,21.881-27.094C244.9,306.509,247.736,293.013,240.508,281.87z
		 M131.236,369.679c-6.054,3.015-10.965,7.164-17.966,7.742c-5.932,0.49-11.963-1.348-16.785-4.801
		c-3.185-2.281-6.342-5.34-8.448-8.873c-1.943-0.447-4.02-0.13-6.085,0.654c1.299-2.114,2.599-4.534,3.716-7.066
		c-0.932-6.336,2.325-11.859,4.55-17.673c0.607-1.586,2.058-2.587,3.789-2.151c0.522,0.093,1.02,0.26,1.492,0.5
		c0.205,0.086,0.409,0.199,0.608,0.326c1.277-1.199,2.999-1.807,4.879-1.02c1.916,0.801,3.48,1.456,5.085,1.911
		c2.645,0.192,5.298,0.314,7.962,0.313c1.506,0,3.018-0.003,4.531,0.005c0.924-0.048,1.848-0.088,2.772-0.103
		c2.485-0.039,5.173,0.082,7.709,0.65c1.9,0.23,3.788,0.552,5.656,1.021c0.314,0.079,0.656,0.165,1.017,0.258
		c1.972,2.357,3.79,4.883,5.774,7.201c-0.553,0.854-1.1,1.714-1.656,2.568c0.114,0.373,0.229,0.745,0.348,1.116
		c0.811,2.526,2.71,5.807,2.56,8.508C142.401,366.916,135.584,367.515,131.236,369.679z M174.579,314.23
		c-1.4,3.225-2.604,6.524-3.597,9.866c-0.447-1.215-1.239-2.219-2.201-2.994c0.844-1.59,1.709-3.17,2.525-4.775
		c1.406-2.766,2.749-5.564,4.081-8.367C174.968,310.022,174.679,312.122,174.579,314.23z"/>
	<path style="fill:#AD6034;" d="M265.589,350.458c-0.001-0.007-0.001-0.013-0.002-0.02c-4.354,0.049-7.991,1.096-11.151,2.826
		c1.145-3.436,0.21-7.276-3.15-9.242c-3.304-1.933-8.57-0.984-10.344,2.712c-0.245,0.512-0.499,1.021-0.751,1.531
		c-3.483,1.141-6.478,3.361-8.684,6.416c-0.793-0.538-1.652-1.003-2.58-1.358c-9.148-3.496-21.974,1.487-29.785,6.496
		c-2.248,1.441-4.443,3.01-6.571,4.661c-0.52-0.968-1.649-1.548-2.85-0.773c-1.986,1.28-4.077,2.401-5.907,3.906
		c-1.62,1.331-2.813,3.241-4.467,4.522c-5.856,1.611-11.199,5.722-15.514,9.97c-3.446,3.394-5.959,7.314-8.458,11.416
		c-0.226,0.371-0.479,0.717-0.714,1.078c-2.299,1.606-4.62,3.145-6.959,4.631c-0.647-0.09-1.298-0.144-1.942-0.132
		c-3.717,0.066-7.138,1.764-10.258,3.61c-6.005,3.556-13.379,7.688-18.036,12.94c-0.239,0.269-0.445,0.54-0.634,0.811
		c-2.86,0.707-5.71,1.447-8.553,1.635c-5.763,0.379-11.551-2.778-17.174-3.659c-10.107-1.584-19.325,0.462-28.606,3.276
		c-1.146-0.954-2.617-1.577-4.126-1.722c-8.545-0.816-15.24,4.123-21.519,9.801c-3.352,3.03-6.466,6.405-9.487,9.871
		c-0.542-0.512-1.075-1.038-1.586-1.594c-4.192-4.556-5.868-11.421-6.79-17.374c-2.339-15.101,0.462-30.688,2.374-45.664
		c0.849-6.655-10.607-8.243-11.786-1.595c-2.913,16.435-7.81,33.596-6.709,50.444c0.14,0.138,0.281,0.27,0.414,0.437
		c4.051,5.063,4.412,11.055,5.97,17.149c0.759,2.971,1.926,6.056,2.781,9.174c2.723,3.342,6.729,7.477,11.029,9.603
		c1.956-2.252,3.577-4.546,5.242-7.052c0.265-0.398,0.526-0.791,0.787-1.178c-0.534-1.498-0.467-3.197,0.582-4.826
		c0.644-1,1.354-1.906,2.152-2.787c0.452-0.499,0.94-0.867,1.443-1.162c11.028-10.993,24.029-19.452,40.501-17.702
		c8.983,0.954,17.375,4.368,26.254,5.731c2.776,0.427,5.527,0.471,8.269,0.153c1.278-1.837,3.485-3.363,5.324-4.151
		c5.51-2.362,12.136-2.633,17.892-4.338c4.753-1.407,9.132-2.277,14-3.002c2.117-0.315,4.238-0.648,6.326-1.123
		c0.778-0.176,1.698-0.57,2.543-0.764c0.237-1.068,0.783-1.248,1.163-1.105c3.045-3.971,10.761-2.146,10.639,3.662
		c-0.016,0.746-0.123,1.432-0.294,2.072c-0.066,0.388-0.137,0.77-0.221,1.141c7.031-3.012,14.035-5.913,21.479-7.848
		c8.645-2.247,18.639-2.939,26.246-7.895c3.048-1.985,4.182-4.975,3.862-7.791c-1.313,0.576-2.635,1.111-3.976,1.554
		c-4.631,1.53-9.082,0.551-13.479-1.249c-4.929-2.017-9.94-3.809-14.813-5.967c-1.902-0.843-2.659-3.946-1.472-5.614
		c8.645-12.154,21.667-21.754,36.049-26.259c5.066-1.588,11.497-1.766,14.239,3.693c1.603,3.189,0.949,6.682-0.294,9.847
		c-0.99,2.52-0.717,1.264,0.157,3.335c0.732,1.734,1.281,2.848,1.39,4.799c0.012,0.219-0.007,0.419-0.02,0.624
		c1.993-0.418,4.013-0.478,6,0.007c1.574-0.493,2.905-1.304,3.994-2.327c4.286-1.602,7.155-7.431,9.249-10.886
		c0.867-1.43,0.212-3.23-0.99-4.178c0.013-0.035,0.028-0.07,0.041-0.106c0.967-0.765,1.939-1.523,2.884-2.314
		c1.941-1.625,3.855-3.658,6.056-5.098c1.306-0.579,2.609-1.127,3.869-1.656C268.348,353.552,267.804,350.457,265.589,350.458z"/>
	<path style="fill:#AD6034;" d="M502.695,106.761c-4.965,1.846-9.608,3.986-14.083,6.828c-1.487,0.945-3.102,1.876-4.515,2.997
		c-1.922-3.81-5.386-6.686-10.322-7.478c-4.916-0.789-9.69,1.016-14.065,3.907c0.361-0.639,0.719-1.277,1.082-1.915
		c3.461-6.084,7.775-11.684,11.137-17.781c3.15-5.715,1.087-13.889-4.264-17.307c1.321-2.64,2.693-5.263,4.088-7.924
		c1.452-2.77-0.088-5.274-2.268-6.16c0.051-0.468,0.091-0.939,0.117-1.419c0.104-1.852-0.485-3.87-1.524-5.682
		c-0.766,1.119-2.298,1.605-3.649,1.017c-0.004,0-0.002,0.002-0.007,0.002c-0.087,0.002-0.221-0.049-0.308-0.069
		c-0.169-0.039-0.343-0.073-0.513-0.113c-0.348-0.036-0.692-0.079-1.04-0.126c-2.498-0.335-4.604-1.703-5.285-4.277
		c-0.189-0.716-0.187-1.434-0.052-2.117c-5.882,0.26-9.907,3.729-14.318,8.27c-4.835,4.975-9.12,10.533-13.313,16.049
		c-8.576,11.279-15.878,23.436-23.293,35.489c-6.884,11.192-13.371,22.608-20.036,33.927c-1.48-0.324-3.154,0.063-4.28,1.576
		c-10.774,14.477-21.575,28.651-34.541,41.262c-6.326,6.151-12.776,12.226-19.578,17.853c-6.178,5.11-13.176,9.226-19.214,14.443
		c-2.276,1.968-0.27,5.273,2.265,5.469c5.517,0.425,11.146-2.895,16.063-5.075c6.734-2.987,13.314-6.305,19.904-9.593
		c4.884-2.438,9.622-5.079,14.276-7.85c1.374,1.457,3.188,2.436,5.102,2.461c-1.524,2.946-2.558,5.909-2.661,9.251
		c-3.716,1.596-7.481,3.087-10.973,5.134c-3.233,1.896-4.752,5.101-4.842,8.345c-14.6,2.617-29.473,2.645-43.883-2.348
		c-8.424-2.919-11.694,10.055-3.637,13.191c9.907,3.855,19.88,6.068,29.895,6.928c-5.982,2.701-12.136,5.033-18.29,7.357
		c-2.018,0.762-1.227,3.959,0.908,3.294c9.534-2.97,19.204-5.892,28.222-10.243c12.956-0.104,25.967-2.29,38.983-5.956
		c13.586-3.827,26.945-8.864,39.959-14.312c13.444-5.627,26.863-11.019,37.852-20.909c2.13-1.917,2.106-4.953,0.778-7.186
		c2.398-1.426,4.803-2.864,7.206-4.3c-2.269,8.97-4.517,17.945-6.91,26.883c-7.677,4.538-15.055,9.818-23.244,13.225
		c-12.687,5.279-26.175,8.657-39.401,12.279c-3.545,0.971-2.036,6.152,1.503,5.455c13.827-2.725,27.472-6.064,40.296-12.045
		c6.389-2.979,12.682-6.76,18.674-10.98c-0.969,3.459-1.965,6.91-3.005,10.349c-1.38,4.564-2.813,9.114-4.389,13.606
		c-0.749,0.77-1.187,1.888-1.098,3.059c-2.699,7.318-5.843,14.451-9.853,21.193c-2.785,0.113-5.76,1.197-8.503,1.417
		c-4.005,0.319-8.008,0.612-12.006,1.024c-1.183,0.122-2.365,0.254-3.548,0.38c8.629-3.288,16.736-7.651,25.137-11.981
		c4.656-2.4,1.186-8.65-3.329-7.896c-25.486,4.259-51.126,6.039-76.73,9.378c-6.757,0.882-13.469,1.799-20.116,3.321
		c-5.479,1.255-10.338,2.104-15.986,1.809c-5.459-0.286-10.879-1.044-16.05-2.902c-5.65-2.031-10.987-5.017-16.589-7.231
		c-6.712-2.653-13.156,6.435-9.351,12.163c3.828,5.763,8.018,11.016,14.141,14.533c6.625,3.806,14.118,5.236,21.611,5.996
		c5.247,0.531,10.421,0.625,15.605,0.104c-0.844,2.207-0.485,4.757,1.901,6.903c0.229,0.206,0.461,0.388,0.693,0.58
		c-0.244,0.1-0.49,0.192-0.731,0.298c-1.05,0.465-1.955,1.074-2.73,1.791c-1.542,0.512-3.063,1.063-4.537,1.705
		c-3.755,1.637-5.543,5.878-5.45,9.938c-0.391-0.226-0.79-0.434-1.197-0.626c0.275-3.808-1.055-7.82-4.075-10.794
		c-4.861-4.787-11.765-8.503-18.665-8.501c-4.668,0.001-9.823,0.897-14.332,2.904c-1.224-0.153-2.452-0.226-3.686-0.166
		c-12.419,0.598-20.565,14.596-12.943,25.013c0.61,0.833,1.256,1.512,1.922,2.064c-0.6-1.256-1.057-2.545-1.316-3.83
		c-1.668-8.266,7.076-11.879,13.865-10.604c7.083,1.33,10.269,7.916,10.704,14.573c0.21,3.211,0.061,7.286-1.716,9.808
		c0.575,1.546,0.057,3.364-1.424,4.241c-1.417,0.839-3.481,0.358-4.28-1.122c-0.318-0.591-0.425-1.148-0.417-1.745
		c-1.722-0.066-3.438-0.493-5.085-1.205c0.038,0.121,0.076,0.243,0.114,0.364c1.222,3.858,2.675,9.025,5.821,11.784
		c2.377,2.085,7.161,1.664,7.795-2.058c0.432-2.539,0.145-5.001-0.35-7.45c2.643,2.899,5.364,5.693,8.665,7.759
		c3.169,1.983,6.019-2.335,3.8-4.925c-2.426-2.833-5.799-5.094-8.871-7.371c0.022,0.002,0.044,0.005,0.066,0.008
		c1.79,0.208,3.571,0.406,5.348,0.646c1.192,1.17,2.351,2.314,3.4,3.447c2.218,2.391,4.526,4.902,6.974,7.287
		c1.472,3.679,2.771,7.404,3.752,11.203c-0.272,3.295-0.546,6.59-0.807,9.884c-0.334,4.226-0.766,10.239-0.135,15.945
		c-3.906,5.424-9.154,10.096-14.355,14.183c-1.41,1.109-2.854,2.168-4.319,3.196c-1.044-2.075-3.169-3.684-6.24-4.021
		c-6.428-0.704-13.175,0.188-19.875,1.694c-8.429,1.181-16.878,2.301-25.125,4.424c-6.312,1.625-12.482,3.605-18.547,5.894
		c8.321-4.484,17.455-7.228,26.38-10.261c1.726-0.587,1.007-3.313-0.759-2.754c-10.095,3.195-20.52,5.886-29.875,10.979
		c-9.037,4.919-17.862,11.125-25.933,17.496c-1.123,0.886,0.335,2.751,1.526,1.979c4.247-2.754,8.705-5.09,13.088-7.609
		c1.398-0.805,2.755-1.672,4.103-2.557c0.418,0.483,1.051,0.771,1.765,0.566c4.113-1.179,8.202-2.44,12.288-3.71
		c-2.007,2.012-3.189,4.47-2.86,7.508c0.159,1.466,0.613,3.056,1.379,4.453c-0.46,0.479-0.875,0.99-1.242,1.531
		c-0.038-0.001-0.078,0.003-0.116,0.003c-0.237-1.293-1.4-2.551-3.078-2.311c-10.894,1.556-21.749,3.029-32.341,6.014
		c-9.613,2.709-18.307,6.271-26.975,11.302c-8.439,4.898-15.834,10.697-23.518,16.663c-4.007,3.111-7.913,6.738-12.983,7.956
		c-5.157,1.239-11.84,0.677-16.877-0.921c-2.081-0.66-3.757,1.788-2.751,3.578c0.081,0.143,0.169,0.275,0.255,0.412
		c-5.056-0.602-10.093-1.729-14.687-3.688c-2.712-1.157-5.351-2.722-7.417-4.837c-0.337-0.405-0.463-0.549-0.378-0.434
		c-0.645-0.843-1.293-1.684-1.958-2.511c-1.15-1.245-2.284-2.399-3.825-3.216c-3.359-1.777-6.54-1.743-9.111-0.585
		c-0.307-0.207-0.614-0.399-0.922-0.61c-1.052-0.724-2.055-1.323-3.044-1.779c-0.077,0.021-0.148,0.044-0.226,0.066
		c-2.581,0.727-5.181,1.313-7.794,1.9c-0.475,0.106-2.245,0.778-3.719,1.281c-0.022,0.046-0.044,0.092-0.066,0.139
		c0.595,0.744,1.149,1.538,1.621,2.311c0.504,0.824,0.927,1.689,1.321,2.57c3.709,3.227,6.348,7.13,9.301,11.147
		c0.517,0.702,1.051,1.417,1.576,2.148c0.399,0.26,0.797,0.521,1.2,0.773c1.074,1.376,2.19,2.618,3.53,3.813
		c3.47,3.092,7.392,5.585,11.624,7.479c9.25,4.138,19.108,6.191,29.179,7.063c4.565,0.396,9.121,0.432,13.659,0.199
		c2.481-1.356,4.923-2.764,7.34-4.092c9.34-5.135,18.826-10.106,28.245-15.103c6.145-3.261,12.175-5.684,18.49-7.47
		c-0.085-0.148-0.154-0.31-0.247-0.454c2.03-0.42,4.06-0.844,6.088-1.274c0.047,0.086,0.105,0.169,0.155,0.254
		c2.195-0.47,4.425-0.89,6.729-1.232c6.308-0.938,12.6-1.987,18.935-2.733c4.254-0.5,8.362-1.051,12.396-0.518
		c4.068-2.485,7.927-5.236,11.682-8.463c1.234-1.062,2.082-2.435,2.582-3.94c0.708-0.274,1.414-0.546,2.121-0.82
		c4.524-5.999,10.168-10.839,17.992-14.047c6.66-2.731,13.644-4.169,20.8-4.802c2.918-0.258,6.497-0.643,10.021-0.58
		c9.675-3.511,18.591-9.917,25.811-16.595c1.031-0.954,2.038-1.951,3.029-2.968c1.188,0.582,2.551,0.896,4.097,0.82
		c0.735-0.035,1.423-0.132,2.089-0.257c1.644-2.585,3.442-5.034,4.725-7.938c0.981-2.224,1.915-4.173,1.975-6.63
		c0.056-2.32-0.309-4.599-0.086-6.926c0.261-2.732,1.27-5.199,1.716-7.882c0.453-2.729-0.228-5.375-0.498-8.095
		c-0.358-3.616-1.216-8.557-0.767-12.642c-0.953-1.398-1.637-2.822-0.973-5.074c0.507-1.722,1.548-2.955,1.737-4.824
		c0.187-1.853-0.162-3.824-0.193-5.686c-0.021-1.279,0.519-2.277,1.32-2.973c-0.106-0.188-0.208-0.379-0.32-0.564
		c0.382-0.103,0.768-0.206,1.153-0.31c0.172-0.682,0.551-1.343,1.203-1.922c6.283-5.587,16.067-5.194,24.017-2.129
		c0.812,0.05,1.615,0.119,2.398,0.232c4.171,0.604,6.754,2.023,9.742,3.585c-0.523,1.018-0.969,2.07-1.259,3.193
		c3.773,3.633,6.834,7.816,10.736,11.439c3.879,3.601,8.755,2.493,13.344,2.912c1.853-1.084,3.614-2.267,5.098-3.254
		c4.203-2.798,7.937-6.215,11.69-9.567c7.273-6.496,14.978-12.401,21.856-19.342c6.89-6.952,13.48-14.3,19.729-21.833
		c5.032-6.068,10.613-12.903,11.521-20.751c5.912-11.84,9.993-24.688,13.665-37.302c4.959-17.034,8.969-34.326,13.208-51.548
		c1.998-8.118,3.753-16.283,5.521-24.454c1.95-9.012,4.004-17.447,2.632-26.709c-0.224-1.511-0.771-2.81-1.532-3.928
		c-0.87-0.117-1.754-0.236-2.642-0.414c-2.063-0.412-3.047-2.071-3.144-3.834c-2.771-1.003-5.888-1.246-8.55-0.834
		c-0.054,0.009-0.105,0.026-0.159,0.035c0.299-1.169,0.56-2.345,0.768-3.526c0.123-0.701,0.194-1.401,0.241-2.099
		c3.634-0.564,6.905-1.945,10.093-3.758c2.313-1.314,2.277-4.232,0.93-5.995c2.367-1.35,4.858-2.454,7.409-3.48
		C507.651,111.007,506.251,105.44,502.695,106.761z M364.437,183.526c-0.342,1.335-0.291,2.566,0.028,3.663
		c-1.187,1.015-2.383,2.02-3.557,3.05c-1,0.877-1.626,1.9-1.95,2.982c-4.476,2.529-8.984,5.002-13.555,7.376
		c-3.368,1.749-6.721,3.527-10.087,5.28c6.701-5.387,13.143-11.125,19.452-16.961c4.217-3.9,8.172-7.975,11.941-12.189
		C365.806,178.96,365.028,181.224,364.437,183.526z M431.902,193.132c4.537-4,8.995-8.09,13.397-12.24
		c0.947,1.82,2.35,3.288,4.024,4.389C443.539,187.964,437.747,190.604,431.902,193.132z"/>
	<path style="fill:#AD6034;" d="M283.546,213.334c0.008-1.156-1.267-1.508-2.083-0.932c-0.196-0.485-0.421-0.956-0.684-1.409
		c-0.455-0.944-0.888-1.902-1.441-2.795c-1.109-1.792-2.451-3.26-4.41-4.104c-0.565-0.243-1.186-0.393-1.812-0.44
		c-2.16-2.857-4.469-5.601-6.914-8.208c-3.247-3.46-6.451-6.917-9.564-10.5c-2.793-3.215-6.432-5.692-8.945-9.121
		c-1.153-1.571-4.447-1.865-4.811,0.629c-0.481,3.296,0.657,6.266,2.731,8.851c3.254,4.057,6.365,8.274,9.679,12.293
		c6.679,8.099,13.469,15.388,18.324,24.836c2.276,4.429,8.746,2.071,8.922-2.417c0.036-0.912-0.149-1.759-0.468-2.563
		C283.142,216.554,283.534,214.971,283.546,213.334z"/>
	<path style="fill:#AD6034;" d="M439.401,220.786c-32.476,13.268-65.501,23.215-100.101,29.153
		c-4.848,0.832-2.754,8.086,2.024,7.344c17.444-2.708,34.653-6.82,51.492-12.115c16.83-5.292,32.405-12.786,48.268-20.391
		C443.284,223.723,441.704,219.845,439.401,220.786z"/>
	<path style="fill:#AD6034;" d="M411.26,76.541c-6.442,11.419-12.766,22.92-19.497,34.172c-6.64,11.102-13.214,22.767-20.725,33.276
		c-0.515,0.72,0.652,1.625,1.231,0.95c4.184-4.875,8.665-9.335,12.55-14.481c3.955-5.238,7.627-10.67,11.213-16.166
		c7.346-11.259,14.185-22.795,20.789-34.5C418.859,76.177,413.299,72.928,411.26,76.541z"/>
	<path style="fill:#AD6034;" d="M438.031,33.437c-2.345-0.901-4.84,0.368-7.14,2.352c0.967-1.64,1.95-3.271,2.978-4.875
		c1.443-2.258-2.076-5.096-3.782-2.919c-7.68,9.798-13.375,20.697-19.558,31.452c-0.852,1.48-0.421,2.896,0.521,3.824
		c-1.764,3.188-3.489,6.396-5.258,9.57c-1.528,2.743,2.586,5.147,4.207,2.459c2.98-4.943,5.82-10.004,8.92-14.887
		c1.07,1.041,2.801,1.387,4.006,0.016c6.043-6.881,12.229-14.368,17.083-22.131C441.236,36.334,439.942,34.171,438.031,33.437z"/>
</g>
<g>
	<path style="fill:#8C4928;" d="M199.795,396.583c-1.58-0.646-3.167-1.269-4.757-1.889c-0.253,0.044-0.511,0.082-0.762,0.129
		c-0.039-0.168-0.108-0.328-0.167-0.491c-2.181-0.85-4.356-1.71-6.518-2.609c-0.484,0.163-0.968,0.352-1.447,0.573
		c-0.617-1.156-1.985-1.873-3.478-0.986c-2.098,1.248-4.13,2.991-6.017,4.956c-2.556,1.144-4.584,2.918-6.517,4.826
		c-1.327,0.71-2.661,1.396-3.846,2.172c-2.949,1.933-5.727,3.991-7.511,7.094c-0.13,0.227-0.232,0.45-0.32,0.673
		c3.242-0.865,7.27,0.943,7.684,4.78c0.599-0.085,1.22-0.295,1.852-0.692c1.745-1.124,3.726-2.023,5.799-2.803
		c4.255,2.449,8.759,1.072,13.373-0.773c6.616-2.646,12.196-5.512,17.715-10.057c1.015-0.836,1.396-1.947,1.342-3.063
		C204.058,398.127,201.92,397.452,199.795,396.583z"/>
	<path style="fill:#8C4928;" d="M149.281,364.718c-0.827-1.578-2.72-2.383-4.44-1.911c-0.745,0.204-1.396,0.638-1.884,1.213
		c-0.189,0.001-0.388-0.004-0.582-0.024c-0.211-0.021-0.415-0.038-0.62-0.055c-2.099,3.282-7.077,4.025-10.519,5.738
		c-6.054,3.015-10.965,7.164-17.966,7.742c-5.932,0.49-11.963-1.348-16.785-4.801c-4.542-3.253-9.039-8.085-10.489-13.625
		c-0.547-2.09-0.603-4.084-0.358-6.021c-0.357,0.203-0.704,0.432-1.034,0.685c-0.653-0.333-1.371-0.539-2.148-0.606
		c0.69-0.41,1.383-0.771,2.073-1.067c0.436-0.052,0.867-0.117,1.295-0.189c0.645-3.409,2.142-6.662,3.521-9.963
		c-0.519-0.152-1.104-0.227-1.777-0.179c-1.796,0.128-3.562,0.543-5.289,1.152c-2.605,0.358-5.378,0.435-7.806,1.105
		c-1.328,0.367-3.675,1.716-5.734,2.495c-2.309-1.296-5.349-1.242-7.417,1.125c-1.781,2.04-1.78,3.911-0.852,5.355
		c-1.418-0.183-2.958,0.185-4.191,1.181c-2.585,2.091-4.865,5.006-7.032,7.799c-2.915,0.943-5.221,4.033-6.861,7.004
		c-0.055,0.049-0.115,0.093-0.169,0.143c-2.67,2.416-3.409,5.033-5.111,8.037c-0.792,1.396-0.673,2.982,0.01,4.25
		c-0.588,2.365-0.786,4.773-0.498,6.966c0.494,3.754,2.386,6.312,4.965,7.815c0.187,0.369,0.396,0.734,0.66,1.088
		c2.889,3.875,7.657,2.787,11.414,1.103c4.893-2.193,9.947-3.956,15.239-4.957c2.239-0.424,4.614-0.45,6.727-0.978
		c0.205,0.066,0.41,0.134,0.618,0.21c0.421,0.153,0.825,0.34,1.224,0.539c0.009,0.308,0.012,0.618,0.036,0.919
		c0.376,4.701,2.915,9.046,7.383,10.848c2.299,0.927,4.545,0.981,6.696,0.484c0.577,0.45,1.282,0.702,2.058,0.615
		c3.912,0.422,6.946-2.524,10.083-4.626c0.563-0.377,1.139-0.729,1.72-1.069c2.12-0.746,4.099-1.809,5.596-2.867
		c0.695-0.492,1.372-1.018,2.04-1.559c4.253-2.148,8.257-5.381,11.031-7.742c0.427-0.364,0.875-0.709,1.313-1.063
		c0.365,0.009,0.737-0.054,1.097-0.214c5.606-2.503,10.833-5.442,15.428-9.557c2.637-2.361,6.159-4.955,7.001-8.578
		c0.02-0.088,0.026-0.171,0.041-0.257C149.853,367.4,149.93,365.957,149.281,364.718z"/>
	<path style="fill:#8C4928;" d="M229.265,292.417c1.622-2.365,3.159-5.424,2.537-8.34c-0.727-3.412-3.409-5.185-6.5-6.256
		c-1.024-0.355-2.185-0.111-3.112,0.474c-0.305-0.238-0.629-0.47-0.975-0.691c-3.609-2.321-8.206-2.281-12.517-0.925
		c-5.003,0.362-9.144,4.216-12.202,8.002c-2.597,3.216-6.137,7.378-6.842,11.736c-1.609-0.189-3.292,0.755-3.29,2.934
		c0.005,7.695,2.626,15.588,8.908,20.009c-1.635,0.875-3.101,1.905-4.2,3.248c-2.659,3.253-1.634,7.366,1.591,9.784
		c4.35,3.263,10.091,2.811,15.213,2.646c5.507-0.178,5.512-8.815,0-8.567c-0.926,0.041-11.143,0.477-10.937-0.426
		c0.028-0.125,4.811-2.154,5.336-2.419c0.614-0.309,1.219-0.618,1.82-0.933c7.211,0.936,14.849-1.654,20.806-5.573
		c2.421-1.592,2.318-4.215,0.954-5.848c0.558-0.391,1.11-0.788,1.649-1.196c2.78-2.105,1.614-7.649-1.966-7.06
		c0.064-1.019-0.542-1.991-1.409-2.514c0.403-1.544,0.855-3.19,1.263-4.878C226.94,295.06,228.274,293.862,229.265,292.417z
		 M197.943,306.994c1.476,1.085,3.241,1.825,5.254,2.042c5.347,0.578,10.236-1.976,14.284-5.439
		c0.199,0.083,0.405,0.148,0.614,0.207c-1.368,1.375-2.741,2.746-4.148,4.079c-5.755,2.138-11.437,2.937-17.181-1.177
		C197.152,306.816,197.544,306.915,197.943,306.994z"/>
	<path style="fill:#8C4928;" d="M434.031,311.619c-2.843-0.781-5.651-0.637-8.562-0.913c-3.442-0.325-6.835-1.218-10.223-1.87
		c-6.391-1.23-12.799-2.423-19.215-3.525c1.891-0.224,3.788-0.49,5.701-0.826c2.844-0.5,2.055-4.833-0.662-4.896
		c-7.342-0.168-14.669,0.512-22.008,0.163c-3.83-0.182-7.724-0.401-11.525-0.936c-3.846-1.404-7.602-3.021-11.423-4.552
		c-3.476-1.393-5.279,3.301-3.234,5.653c-0.025,0.011-0.05,0.021-0.075,0.03c9.285,8.602,25.235,10.421,37.166,12.367
		c0.789,0.128,1.582,0.238,2.373,0.359c-2.851,0.149-5.704,0.312-8.563,0.465c-0.076-0.022-0.14-0.053-0.22-0.07
		c-14.552-3.32-28.626-3.484-43.45-3.838c-2.822-0.067-5.659-0.136-8.491-0.284c-1.298-0.531-2.587-1.101-3.863-1.721
		c-1.75-0.85-3.407-0.211-4.403,0.951c-1.222-0.175-2.439-0.37-3.648-0.618c-4.63-0.948-9.251-2.405-13.757-4.07
		c-3.333-4.732-9.645-6.536-15.31-5.872c-8.152,0.956-13.083,6.597-20.067,9.937c-1.845,0.883-0.231,3.488,1.583,2.708
		c2.495-1.074,5.539-2.315,8.661-3.303c-0.763,1.303-0.976,2.907-0.561,4.364c0.371,0.04,0.74,0.091,1.102,0.159
		c3.171,0.596,5.556,2.249,7.267,4.485c2.414,0.249,4.904,0.286,7.132,0.783c1.844,0.412,3.891,1,5.941,1.324
		c0.98,0.348,1.947,0.729,2.877,1.195c0.603,0.303,3.448,2.459,2.684,1.356c1.554,2.242,5.147,2.723,6.917,0.805
		c2.733,2.401,5.21,5.089,8.013,7.43c0.901,0.753,2.003,1.134,3.128,1.233c-1.204,4.235-2.413,8.469-3.657,12.692
		c-1.855,6.3-3.154,12.22-1.986,18.789c1.037,5.831,3.875,12.095,3.529,18.035c-0.286,4.892-2.056,9.54-2.812,14.337
		c-0.125,0.789-0.027,1.669,0.279,2.45c-1.251,2.117-2.759,4.126-4.609,5.993c-6.046,6.102-15.434,6.917-22.712,11.146
		c-4.74,2.754-9.093,5.478-13.81,7.552c-0.631-1.151-1.889-1.898-3.601-1.389c-5.663,1.688-11.25,3.643-16.738,5.844
		c-5.751,0.719-11.397,1.604-16.963,4.013c-2.111,0.913-2.72,3.063-2.301,5.062c-0.605,0.332-1.218,0.65-1.819,0.989
		c-1.118,0.63-2.214,1.292-3.303,1.965c-4.783,1.493-9.634,2.817-14.421,4.291c-8.868,2.729-18.061,5.091-26.872,8.242
		c-3.199,0.84-6.367,1.888-9.508,2.979c-10.271,3.569-20.239,7.857-30.248,12.086c-9.814,4.146-19.229,8.441-29.568,11.147
		c-5.304,1.388-10.765,3.267-16.29,3.414c-2.31,0.062-4.592-0.326-6.894-0.349c-1.898-0.019-3.795,0.479-5.62-0.13
		c-2.163-0.722-4.746,1.659-3.892,3.893c3.359,8.79,14.845,9.067,22.704,7.688c11.237-1.971,22.644-5.77,32.731-11.058
		c10.254-5.375,20.863-10.21,31.314-15.195c3.245-1.548,6.541-3.175,9.886-4.743c2.355,0.109,4.684-0.239,6.985-0.809
		c0.151,1.043,0.605,2.008,1.344,2.758c5.612-0.852,11.216-1.754,16.855-2.418c2.689-0.316,5.321-0.652,7.913-0.724
		c6.252-3.069,11.463-7.821,17.11-11.82c2.026-1.435,4.084-2.814,6.167-4.151c4.1-4.64,9.089-8.43,15.584-11.093
		c6.66-2.731,13.644-4.169,20.8-4.802c3.536-0.313,8.041-0.818,12.242-0.479c3.27-2.164,6.45-4.453,10.033-6.112
		c4.206-1.947,8.795-3.134,12.779-5.55c3.785-2.295,6.822-5.43,9.382-9.008c2.476-3.461,4.176-6.922,5.319-10.501
		c0.812-0.965,1.454-2.104,1.98-3.343c-0.027-2.03-0.271-4.037-0.076-6.081c0.261-2.732,1.27-5.199,1.716-7.882
		c0.002-0.015,0.002-0.028,0.005-0.043c-0.277-3.325-0.894-6.41-1.624-8.658c-2.121-6.533-4.734-12.634-4.073-19.644
		c0.412-4.373,1.015-8.748,1.666-13.118c0.129,0.121,0.253,0.247,0.389,0.361c1.364,1.148,3.273,1.48,5.04,1.179
		c0.136-0.768,0.531-1.518,1.261-2.166c8.357-7.433,22.913-4.283,31.099,1.661c5.745,4.172,9.411,9.902,14.534,14.66
		c1.708,1.584,3.609,2.251,5.593,2.543c0.097-0.109,0.197-0.216,0.286-0.333c0.303,0.172,0.617,0.323,0.932,0.47
		c2.213,0.175,4.497,0.032,6.713,0.254c0.888-0.536,1.526-1.34,1.89-2.279c1.416,0.341,2.891,0.477,4.654,0.236
		c3.56-0.486,4.969-4.55,4.233-7.652c0.769-0.035,1.555-0.107,2.38-0.229c2.354-0.347,3.666-2.147,4.016-4.205
		c2.702-1.772,5.342-3.645,7.901-5.609c3.191-2.45,6.119-5.566,9.531-7.682c3.433-2.281,2.847-6.164,0.333-8.032
		c0.38-2.789-1.578-5.844-4.642-5.924c2.493-0.631,5.045-1.199,7.259-0.591C434.549,313.272,434.935,311.867,434.031,311.619z
		 M418.779,315.271c-0.021-0.146-0.06-0.288-0.098-0.43c1.03-0.04,2.062-0.108,3.095-0.229
		C420.782,314.851,419.782,315.069,418.779,315.271z"/>
	<path style="fill:#8C4928;" d="M405.848,297.481c-0.648,0-0.649,1.008,0,1.008S406.498,297.481,405.848,297.481z"/>
	<path style="fill:#8C4928;" d="M418.451,286.857c-10.054-3.461-20.616-2.857-31.073-3.83c-4.966-0.463-9.894-0.801-14.878-0.99
		c-3.614-0.138-6.949-0.101-9.813,2.283c-1.169,0.973-0.946,2.892,0,3.897c2.421,2.573,6.604,3.279,9.873,4.147
		c1.829,0.486,2.787-1.325,2.232-2.661c0.591,0.105,1.175,0.207,1.743,0.291c4.55,0.67,9.087,1.453,13.651,2.028
		c9.053,1.142,18.191,1.346,27.268,2.204C421.878,294.647,422.232,288.159,418.451,286.857z"/>
	<path style="fill:#8C4928;" d="M479.418,128.363c-0.798,0.137-1.586,0.323-2.369,0.533c-0.046-1.726-1.279-3.337-2.863-4.184
		c1.915-1.131,3.933-1.969,6.073-2.121c2.744-0.195,2.652-3.886,0-4.2c-8.421-0.997-18.125,6.521-24.403,11.379
		c-8.683,6.721-14.945,15.911-20.835,25.051c-6.418,9.96-16.882,17.099-25.733,24.793c-5.02,4.365-10.13,8.64-15.084,13.077
		c-4.785,4.286-10.257,8.985-13.126,14.837c-1.173,2.394,0.823,6.09,3.827,4.977c10.589-3.924,19.505-13.658,27.821-21.002
		c8.647-7.637,18.57-15.208,25.771-24.257c1.12-1.407,2.145-2.878,3.117-4.382c0.152-0.01,0.303-0.01,0.456-0.032
		c2.772-0.403,4.968-2.638,7.074-4.297c3.417-2.693,7.078-5.071,10.609-7.612c7.515-5.406,14.655-11.299,22.105-16.776
		C484.772,132.003,483.041,127.741,479.418,128.363z"/>
	<path style="fill:#8C4928;" d="M462.754,67.859c-1.387,0.658-2.694,1.442-3.932,2.326c-0.452,0.028-0.919,0.133-1.393,0.349
		c-22.424,10.27-31.787,34.172-41.178,55.108c-0.868,1.936-1.802,3.829-2.765,5.706c-5.841,7.426-11.587,14.918-16.659,22.96
		c-0.648,1.027-0.536,2.222-0.001,3.198c-7.191,9.887-14.075,19.982-20.926,30.106c-1.435,2.121,1.852,4.676,3.563,2.749
		c8.275-9.322,17.384-17.679,25.236-27.422c6.264-7.772,12.222-15.732,17.089-24.419c5.493-6.896,10.513-14.193,15.279-21.078
		c5.321-7.687,9.515-15.902,13.692-24.246c2.017-4.027,4.342-7.918,6.625-11.826c1.798-1.897,3.431-3.924,4.565-6.315
		c0.408-0.861,0.465-1.699,0.281-2.436c0.597-1.18,1.175-2.367,1.711-3.573C464.298,68.247,463.572,67.472,462.754,67.859z"/>
	<path style="fill:#8C4928;" d="M494.607,200.34c-0.058-0.132-0.116-0.264-0.175-0.396c-0.303-0.687-0.942-1.008-1.621-1.049
		c-5.885-3.229-13.605,1.372-18.676,4.47c-3.577,2.185-7.665,4.771-10.686,7.692c-1.344,1.3-2.386,3.787-3.985,4.73
		c-1.41,0.832-3.204,0.68-4.897,0.878c-9.183,1.077-17.478,4.903-25.467,9.403c-4.178,2.354-8.096,5.043-12.081,7.701
		c-3.569,2.382-7.384,4.548-10.333,7.71c-2.562,2.747,0.008,6.795,3.542,6.084c8.776-1.767,16.088-7.001,23.889-11.073
		c8.237-4.3,15.888-7.027,25.04-8.321c7.781-1.1,10.382-7.966,15.905-12.607c3.083-2.593,6.238-4.829,9.604-7.029
		c1.964-1.284,3.616-2.327,5.847-3.083c1.738-0.588,2.44-0.641,3.699-2.055C495.037,202.47,495.088,201.43,494.607,200.34z"/>
	<path style="fill:#8C4928;" d="M474.992,157.907c-9.182,8.876-19.661,16.949-30.432,23.782c-5.514,3.497-11.157,6.88-16.438,10.729
		c-3.633,2.647-8.887,5.455-10.231,9.995c-0.422,1.427,0.066,2.915,1.002,4.021c-8.478,4.871-17.392,8.926-26.7,12.607
		c-3.021,1.195-1.795,6.1,1.37,4.969c16.748-5.988,33.15-11.036,47.707-21.675c14.775-10.798,28.144-24.171,41.166-36.985
		C487.274,160.589,479.866,153.196,474.992,157.907z"/>
	<path style="fill:#8C4928;" d="M91.654,477.394c-0.171-0.261-0.342-0.521-0.514-0.781c-1.111-1.691-3.48-2.129-4.969-0.641
		c-1.481,1.481-1.052,3.857,0.641,4.969c0.261,0.172,0.521,0.343,0.781,0.514c1.054,0.692,2.745,0.465,3.597-0.464
		C92.051,480.052,92.395,478.521,91.654,477.394z"/>
	<path style="fill:#8C4928;" d="M231.768,297.843c-4.576,0-4.583,7.111,0,7.111C236.345,304.954,236.352,297.843,231.768,297.843z"
		/>
</g>
<path d="M511.897,203.917c-0.463-3.697-4.642-13.56-9.391-16.218c1.073-4.812,1.435-9.727,0.203-14.922
	c-0.252-1.063-0.564-2.108-0.899-3.148c0.223-0.105,0.432-0.243,0.607-0.433c5.191-5.6,10.106-15.043,8.421-22.84
	c-1.827-8.451-7.649-10.636-14.913-11.573c-0.035-1.542-0.153-3.084-0.426-4.625c-0.125-0.707-0.284-1.381-0.468-2.031
	c0.658-1.713,4.191-4.184,5.105-5.239c1.639-1.89,3.201-3.985,4.381-6.191c1.917-3.583,3.209-8.12,1.66-12.062
	c-2.983-7.591-13.799-13.421-21.959-12.819c-0.144-2.164-0.391-4.452-0.937-6.639c2.458-9.648,8.409-22.805-0.182-31.385
	c-3.577-3.574-13.598-2.763-18.454,0.785c-0.31-0.441-0.624-0.883-0.977-1.326c-1.302-1.637-2.692-3.366-4.146-5.085
	c0.019-0.113,0.044-0.222,0.051-0.345c0.57-9.532,2.103-23.533-8.331-28.836c-4.292-2.182-9.591-0.711-14.057,0.328
	c-2.717,0.632-7.512,1.865-9.954,4.276c-1.904-1.524-3.924-2.878-6.226-3.806c-5.187-2.092-9.755-0.493-14.895,0.904
	c-4.392,1.195-7.046,2.596-8.159,7.229c-3.188,13.274-3.564,26.753-4.429,40.285c-0.506,7.927-4.014,12.798-7.968,19.33
	c-3.072,5.075-4.457,10.382-5.246,16.233c-1.229,9.111-2.564,16.887-7.655,24.762c-3.945,6.102-7.864,12.13-11.647,18.346
	c-4.074,6.693-7.627,13.674-11.558,20.447c-3.69,6.359-9.781,11.778-14.189,17.766c-4.482,6.087-8.42,11.221-14.199,16.135
	c-3.697,3.143-6.933,6.684-10.506,9.887c-2.898,0.109-5.658-0.162-8.642-1.499c-3.994-1.791-7.643-3.968-10.985-6.735
	c-7.484-6.195-12.65-14.151-18.1-22.219c-5.067-7.5-12.584-12.594-19.609-18.051c-7.535-5.854-15.042-9.773-24.169-12.607
	c-9.738-3.023-19.808-4.858-29.318-8.617c-9.188-3.633-18.794-7.496-27.517-12.133c-8.596-4.571-16.45-10.231-24.564-15.544
	c-5.146-3.368-10.045-6.903-14.78-10.848c-2.494-2.078-4.991-5.774-7.955-7.031c-1.034-0.438-2.009,0.078-2.127,1.221
	c-0.597,5.802,2.151,12.55,4.583,17.704c3.189,6.76,6.985,13.2,11.505,19.157c4.593,6.054,9.874,11.912,15.362,17.175
	c0.698,0.67,1.526,1.542,2.438,2.48c-16.417-2.565-32.819-5.521-48.012-12.299c-10.542-4.704-21.437-10.35-30.438-17.602
	c-6.957-5.605-13.619-11.213-21.602-15.178c-2.163-1.074-4.324,1.083-3.249,3.248c8.216,16.55,17.838,32.543,30.589,46.115
	c6.624,7.05,11.812,14.469,19.902,19.935c8.561,5.784,17.198,9.726,26.802,13.404c10.115,3.874,19.273,9.825,29.488,13.475
	c8.963,3.202,20.127,5.779,27.338,12.264c7.243,6.513,13.822,13.573,16.824,23.052c1.696,5.355,0.693,10.72-3.906,13.959
	c-2.217,0.583-4.33,1.431-6.186,2.564c-2.564,0.61-5.208,0.958-7.744,1.786c-8.694,2.837-14.006,9.299-17.324,17.581
	c-1.1,2.746-1.741,6.428-3.836,8.612c-1.675,1.745-4.471,2.667-6.581,3.743c-2.923,1.491-5.451,3.008-7.806,4.92
	c-2.251,1.346-4.176,3.321-6.423,4.639c-4.396,2.575-10.495,1.746-15.397,2.232c-9.582,0.949-19.296,7.904-28.749,5.256
	c-3.673-1.029-7.239-2.338-11.062-2.735c-5.418-0.563-10.211,1.13-15.53,1.585c-10.433,0.893-20.833-6.985-29.491-11.893
	c-9.024-5.115-17.785-10.672-27.343-14.777c-3.023-1.298-13.598-6.92-16.478-2.888c-1.018,1.425-0.115,3.321,0.432,4.69
	c1.94,4.865,4.546,9.521,6.345,14.432c1.374,3.754,2.963,7.283,4.711,10.888c2.229,4.599,2.797,9.039,4.118,13.892
	c1.305,4.795,3.652,8.102,6.081,12.313c1.292,2.239,0.885,2.321,0.696,4.219c-0.136,1.359-0.488,2.258,0.043,3.588
	c0.634,1.589,1.687,2.678,2.979,3.437c-3.579,3.901-6.47,8.449-9.245,12.927c-4.061,6.553-8.117,13.177-11.279,20.209
	c-2.469,5.489-3.23,9.802-2.407,15.843c1.099,8.063-1.552,16.264-0.805,24.504c0.627,6.91,2.961,13.494,4.805,20.146
	c1.763,6.361,2.86,12.873,6.431,18.545c1.841,2.924,4.845,7.456,8.833,5.006c1.452-0.893,2.136-2.564,2.959-3.964
	c2.333-3.961,4.37-8.038,7.204-11.684c4.741-6.1,10.929-11.058,17.298-15.377c3.446-2.337,7.168-4.829,11.367-5.288
	c4.36-0.478,9.248,0.163,13.604,0.595c6.704,0.666,11.575,4.513,18.333,5.498c7.152,1.043,13.455,0.047,20.134-2.631
	c7.107-2.849,13.177-6.245,20.958-7.04c6.808-0.695,13.894-0.971,20.386-3.296c2.641-0.946,5.091-2.273,7.401-3.855
	c1.229,1.871,2.301,3.359,1.352,6.118c-0.766,2.228-1.681,4.376-2.47,6.601c-7.592,6.02-16.644,9.656-25.705,12.892
	c-4.096,1.462-7.925,3.47-12.199,4.398c-4.342,0.943-8.973,1.368-13.418,1.505c-9.583,0.294-18.916,0.922-28.469,1.936
	c-4.423,0.469-8.86,0.728-13.268,1.352c-4.838,0.686-9.021,2.749-13.646,3.714c-1.513,0.315-2.133,2.546-0.942,3.566
	c4.075,3.488,5.713,8.641,9.213,12.705c4.446,5.163,9.368,9.983,15.064,13.751c11.027,7.292,22.012,11.729,35.205,13.258
	c12.647,1.466,25.812-5.611,36.489-11.486c12.595-6.929,25.996-14.967,40.088-18.297c6.869-1.623,13.876-0.654,20.836-1.389
	c5.952-0.629,11.903-1.882,17.35-4.425c5.266-2.459,9.341-6.099,13.169-10.401c4.859-5.461,9.922-9.571,16.68-12.556
	c23.064-10.186,53.556-4.161,70.394-26.762c8.33-11.182,10.771-24.395,9.25-38.071c-0.825-7.415-3.062-14.742-2.949-22.269
	c0.085-5.673,1.885-10.304,7.198-13.055c0.551-0.285,1.114-0.523,1.687-0.727c0.139,0.025,0.289,0.014,0.437-0.066
	c0.154-0.084,0.319-0.148,0.477-0.225c4.019-1.138,8.434-0.612,12.551-0.424c0.221,0.01,0.415-0.02,0.594-0.065
	c2.746,0.7,5.326,1.763,7.356,2.974c2.676,1.597,5.865,4.185,8.136,6.372c2.509,2.418,3.546,5.325,5.494,8.109
	c5.736,8.201,18.481,6.627,26.248,2.48c11.056-5.904,19.314-15.325,28.103-23.889c2.865-2.792,6.425-4.678,9.552-7.136
	c4.586-3.605,7.603-5.47,13.097-7.328c2.868-0.97,5.942-2.002,8.684-3.298c3.841-1.815,7.357-5.396,9.128-9.27
	c1.819-3.98,1.855-8.564,0.467-12.68c-0.739-2.189-1.505-5.652-3.011-8.072c1.17-0.92,2.281-1.906,3.266-3.038
	c1.643-1.888,2.668-4.21,3.386-6.679c3.299-0.053,6.73-3.039,9.303-4.763c4.337-2.904,9.257-5.895,11.734-10.753
	c1.895-3.718,1.493-8.737-0.309-12.4c-1.243-2.527-3.609-6.018-6.217-8.335c-0.568-0.524,2.592-5.712,5.212-9.644
	c1.442-2.165,2.721-3.948,3.124-4.363C504.838,216.6,513.029,212.957,511.897,203.917z M495.899,137.867
	c0.088,0.04,0.177,0.081,0.264,0.121c5.878,2.701,10.645,5.321,9.64,12.866c-0.438,3.287-2.096,5.623-3.579,8.497
	c-0.87,1.686-1.65,3.288-2.378,4.888c-1.492-3.8-3.045-7.592-3.819-11.63C495.09,147.711,495.726,142.789,495.899,137.867z
	 M500.551,112.917c-1.589,3.604-5.312,6.435-7.959,9.616c-1.157-2.017-2.504-3.959-3.866-6.12
	c-4.392-6.973-4.037-14.502-4.385-22.384C492.17,97.298,504.964,102.912,500.551,112.917z M480.434,58.856
	c2.357,3.853,2.248,10.164,1.274,14.543c-0.403,1.811-1.082,3.489-1.715,5.171c-1.438-1.517-3.321-2.269-5.062-3.385
	c-3.153-2.022-4.28-4.497-5.185-8.004c-0.913-3.542-1.772-6.591-3.259-9.526C471.542,56.764,477.448,53.978,480.434,58.856z
	 M438.045,23.593c3.107-0.559,8.587-1.988,11.453-0.119c6.284,4.098,5.241,12.175,4.875,19.088
	c-1.375-1.349-2.787-2.613-4.235-3.704c-2.058-1.549-4.19-2.37-6.589-3.253c-3.128-1.152-5.413-2.603-8.015-4.715
	c-2.033-1.65-3.942-3.5-5.914-5.266C432.41,24.89,435.21,24.103,438.045,23.593z M144.501,131.84
	c-4.044-5.173-7.66-10.599-11.028-16.231c-2.861-4.784-6.646-10.497-7.62-16.275c1.41,1.014,2.437,2.576,3.63,3.813
	c2.025,2.099,4.285,4.006,6.457,5.949c3.91,3.502,8.102,6.358,12.224,9.581c7.787,6.089,16.084,12.366,24.949,16.812
	c8.738,4.381,17.88,8.457,27.017,11.944c9.497,3.625,19.625,5.44,29.355,8.313c10.671,3.149,19.607,8.465,28.092,15.667
	c8.5,7.215,13.248,16.053,19.521,25.025c4.716,6.744,10.365,12.164,17.655,15.98c2.722,1.424,5.712,3.188,8.793,3.959
	c-5.771,3.518-11.773,6.425-18.694,6.305c-5-0.088-8.629-2.926-11.895-6.291c-1.574-1.883-3.009-3.869-4.395-5.477
	c-3.961-4.598-6.78-9.512-10.012-14.59c-5.057-7.943-11.234-16.428-19.017-21.881c-8.725-6.113-20.288-7.976-30.482-10.209
	c-10.724-2.349-21.208-5.547-32.036-7.437c-3.895-0.68-7.817-1.299-11.75-1.907c-0.729-0.889-1.417-1.809-1.893-2.28
	c-2.164-2.144-4.32-4.259-6.361-6.515C152.769,141.407,148.397,136.823,144.501,131.84z M460.288,307.131
	c-3.788,1.752-7.985,2.439-11.882,3.815c0.263-1.371,0.505-2.787,0.835-4.245c1.332-5.894,4.541-11.643,8.809-15.921
	c2.725-2.731,6.139-4.68,9.357-6.854c0.303,2.447,0.83,4.81,1.22,7.37C469.668,298.118,466.633,304.196,460.288,307.131z
	 M491.331,256.049c-3.054,3.864-8.44,7.661-13.342,10.262c0.236-1.428,0.449-2.833,0.694-4.163
	c1.312-7.121,3.869-13.954,7.898-20.027c0.813-1.225,1.712-2.372,2.617-3.506C492.129,244.429,496.018,250.12,491.331,256.049z
	 M490.269,205.198c-0.348,1.169-0.698,2.349-1.018,3.536c-7.822-0.531-15.789,2.761-22.396,6.654
	c-4.07,2.397-7.9,5.072-11.575,8.028c-4.953,3.984-9.265,5.917-15.444,7.132c-4.881,0.96-9.568,2.01-13.984,4.379
	c-4.964,2.661-9.166,6.514-13.986,9.408c-5.399,3.243-11.009,5.433-17.126,6.9c-7.211,1.731-14.491,1.114-21.805,1.871
	c-1.3,0.135-1.284,1.856,0,2.012c11.369,1.37,23.384,1.286,34.235-2.853c10.435-3.98,18.384-12.575,29.212-15.432
	c4.331-1.143,9.042-1.596,13.027-3.767c4.069-2.217,7.293-5.636,10.741-8.649c3.903-3.412,8.431-6.379,13.08-8.681
	c2.902-1.437,5.978-2.623,9.144-3.339c0.272-0.063,3.861-0.57,6.245-0.973c-0.165,0.854-0.301,1.713-0.37,2.579
	c-0.245,3.114,0.668,5.903,0.922,8.964c0.607,7.312-4.679,11.263-8.009,17.031c-2.918,5.055-5.618,10.753-6.874,16.463
	c-1.552,7.063-1.572,15.551-7.4,20.547c-3.395,2.91-7.452,4.957-11.002,7.646c-0.984-6.198-4.739-13.28-10.022-15.656
	c-5.017-2.257-10.883-1.853-16.207-1.372c-3.193,0.288-6.439,0.865-9.652,0.855c-3.646-0.012-7.113-0.602-10.778-0.299
	c-1.332,0.11-1.675,1.953-0.321,2.376c4.212,1.315,8.768,2.437,13.212,2.444c4.679,0.008,9.325-0.835,14.014-0.712
	c6.079,0.159,10.387,1.724,13.122,7.229c1.246,2.51,2.608,4.992,3.885,7.482c-0.527,0.523-1.037,1.068-1.513,1.658
	c-3.59,4.447-6.341,9.379-7.862,14.908c-0.744,2.705-0.995,5.627-1.5,8.384c-0.718,3.916-3.059,6.339-6.05,8.735
	c-4.625,3.707-9.049,7.309-13.176,11.647c-5.029,5.286-10.582,9.286-16.728,13.248c-5.829,3.757-16.977,8.825-23.194,3.162
	c-1.945-1.772-2.879-4.726-4.536-6.78c-1.702-2.11-3.878-3.554-6.031-5.154c-6.261-4.655-15.483-9.12-23.438-7.146
	c-8.682,0.011-17.077,2.423-20.188,12.054c-3.728,11.537,1.597,24.25,1.687,35.957c0.057,7.45-0.384,13.758-3.689,20.594
	c-3.163,6.543-7.408,12.032-13.482,16.122c-5.651,3.804-11.479,6.431-18.184,7.597c-6.903,1.199-13.857,2.043-20.764,3.215
	c-11.773,1.997-24.302,5.28-33.521,13.301c-4.468,3.889-7.893,8.84-12.922,12.088c-5.9,3.811-13.194,5.469-20.133,5.981
	c-6.14,0.453-12.291-0.147-18.375,1.038c-6.989,1.362-13.642,4.346-20.089,7.285c-12.283,5.6-23.465,13.573-35.832,18.953
	c-7.993,3.478-16.644,5.477-25.272,4.203c-8.033-1.187-14.808-3.264-21.97-7.15c-6.917-3.753-13.229-7.934-18.769-13.59
	c-3.255-3.324-5.264-6.487-7.357-10.594c-0.398-0.781-0.794-1.455-1.213-2.08c3.174-0.439,6.467-1.316,9.455-1.632
	c4.83-0.51,9.684-0.83,14.503-1.43c9.454-1.177,18.874-1.24,28.322-2.051c9.284-0.797,16.514-3.577,24.964-7.213
	c8.476-3.647,16.757-7.216,24.443-12.412c3.404-2.301,6.387-4.982,9.355-7.812c3.866-3.684,6.458-5.833,11.891-6.2
	c8.233-0.557,16.858-1.461,23.925-6.007c7.291-4.689,12.864-11.146,20.766-14.995c8.177-3.983,16.744-7.229,25.105-10.799
	c1.079,0.192,2.154,0.509,3.281,1.179c1.288,0.768,2.374,1.89,3.717,2.563c3.061,1.532,6.592,1.578,9.868,1.012
	c5.294-0.916,10.453-1.714,15.82-2.082c9.235-0.633,18.543-0.696,27.519-3.237c5.557-1.573,7.861-4.377,5.96-10.066
	c-2.348-7.031-8.142-14.196-13.355-19.411c-2.848-2.85-5.976-5.484-9.492-7.462c-2.857-1.607-4.55-3.105-6.143-5.036
	c9.716-6.992,11.81-19.2,3.257-28.438c-3.529-3.813-8.894-7.078-14.211-6.637c-2.136,0.177-4.804,0.453-6.753,1.52
	c0.047-0.098,0.084-0.21,0.133-0.308c3.543-7.022,15.194-7.686,21.857-7.218c8.807,0.619,16.075,5.314,24.357,7.758
	c1.742,0.514,2.994-2.218,1.267-3.006c-9.367-4.275-17.775-8.659-28.314-8.821c-5.708-0.088-10.889,0.93-15.405,3.464
	c-3.048,0.986-5.747,2.694-7.516,5.631c-3.456,5.735-4.745,15.19-2.754,21.546c0.863,2.757,2.771,5.532,5.083,7.272
	c2.81,2.115,6.643,2.184,9.218,4.693c1.468,1.431,2.502,3.226,3.584,4.987c-2.209,0.125-4.546,0.919-6.304,1.584
	c-6.237,2.362-11.556,6.265-15.86,11.313c-4.187,4.913-8.606,15.547-6.101,22.732c-2.364-0.475-4.763-0.129-7.187,0.073
	c-0.433-1.835-1.204-3.61-1.172-5.591c0.06-3.711,1.274-8.053,2.442-11.5c1.708-5.041,3.302-8.924,7.165-12.714
	c2.734-2.685,6.458-4.434,8.83-7.415c0.481-0.604-0.107-1.512-0.856-1.109c-4.627,2.484-9.682,5.061-13.414,8.828
	c-3.376,3.41-5.278,8.408-6.803,12.881c-1.308,3.834-2.452,9.045-1.772,13.129c0.107,0.641,0.301,1.478,0.589,2.336
	c-3.34-0.558-5.874-1.789-5.636-6.455c0.126-2.474,1.165-4.856,1.011-7.439c-0.209-3.52-1.885-6.855-5.206-8.352
	c-4.363-1.965-10.119-0.505-14.496,0.501c-5.889,1.354-11.819,3.82-16.962,6.993c-11.503,7.098-19.933,17.464-28.432,27.838
	c-4.45,5.432-8.931,11.836-14.787,15.85c-6.289,4.311-14.486,4.715-21.827,5.474c-6.183,0.64-11.508,1.617-17.202,4.208
	c-7.099,3.231-14.052,6.916-22.099,6.603c-4.26-0.166-8.215-0.898-12.049-2.687c-1.713-0.799-3.235-1.331-5.144-1.555
	c-5.932-0.695-13.12-0.631-19.036,0.328c-6.088,0.987-11.961,4.587-16.865,8.116c-5.503,3.96-11.027,7.986-15.458,13.175
	c-1.888,2.211-3.549,4.593-5.183,6.994c-0.623,0.916-1.863,3.749-2.802,4.158c-0.232,0.102-0.395,0.192-0.509,0.27
	c-0.023-0.18-0.15-0.444-0.497-0.81c-4.592-4.839-5.322-14.323-7.098-20.413c-2.262-7.755-4.363-15.307-4.377-23.46
	c-0.007-3.934,0.878-7.808,0.949-11.727c0.071-3.921-1.525-7.653-1.439-11.561c0.178-8.116,6.519-17.2,10.297-24.098
	c3.299-6.022,6.816-11.89,10.743-17.511c-0.067,0.096,5.873,0.321,6.597,0.23c2.72-0.342,5.354-1.243,8.091-1.477
	c6.1-0.52,10.016,3.415,15.702,4.519c-0.995,3.173-3.962,6.312-6.242,8.405c-3.217,2.953-6.572,5.725-9.749,8.771
	c-5.021,4.816-11.127,10.494-11.122,18.074c0.005,6.838,3.129,15.035,8.5,19.342c5.961,4.781,12.625,4.287,19.348,1.408
	c5.747-2.461,10.581-5.629,16.146-0.564c2.606,2.371,4.881,5.894,8.146,7.389c5.483,2.512,15.307,0.564,20.53-1.678
	c3.319-1.426,5.938-4.004,8.521-6.454c3.301-3.132,6.767-5.369,10.688-7.609c7.428-4.244,16.835-5.891,23.334-11.581
	c6.316-5.53,11.65-15.004,13.092-23.24c0.851-4.863,0.938-9.691,0.771-14.607c-0.083-2.402,0.257-4.906-1.498-6.759
	c-0.49-0.517-1.521,0.015-1.25,0.728c1.266,3.311-0.742,10.225-1.417,13.467c-0.681,3.268-1.464,6.616-2.747,9.727
	c-2.9-1.76-5.797-1.195-8.243-4.091c-1.635-1.937-3.066-4.34-3.917-6.737c-0.753-2.123-0.766-6.578-3.134-7.743
	c-2.166-2.438-5.536-3.946-9.083-4.509c-5.705-0.904-11.163,0.146-16.94-1.272c-5.446-1.337-11.099-3.17-16.647-3.921
	c-10.76-1.457-19.042,5.381-29.028,7.67c-4.265,0.979-7.856,0.917-11.959-0.692c-1.625-0.637-3.113-1.245-4.845-1.604
	c-5.689-1.18-12.392,3.762-17.417,1.367c-6.283-2.994-1.457-6.219,2.58-6.83c1.714-0.26,3.099-1.022,4.666-1.678
	c3.955-1.654,7.225-2.088,11.378-0.956c5.405,1.473,10.103,3.843,15.789,3.984c1.278,0.032,1.602-2.007,0.307-2.27
	c-8.369-1.697-16.698-8.269-25.455-5.775c-5.239,1.491-9,4.923-14.21,1.807c-0.782-1.171-1.661-2.293-2.453-3.457
	c-2.752-4.047-3.761-8.701-4.853-13.386c-1.652-7.088-6.391-13.988-9.457-20.56c-1.716-3.678-3.432-8.057-5.651-11.418
	c-0.012-0.019-0.902-1.427-0.902-1.662c0-0.049-0.018-0.063-0.025-0.097c1.206-0.555,5.24,1.34,6.286,1.766
	c18.175,7.391,32.835,20.997,50.66,28.939c8.5,3.787,15.084,1.444,23.86,0.882c7.686-0.492,14.828,4.858,22.42,3.374
	c4.84-0.947,9.353-3.321,14.003-4.896c4.671-1.581,9.278-1.992,14.125-2.549c7.906-0.907,14.148-5.368,21.09-8.638
	c5.699-2.685,12.592-4.704,15.517-10.855c2.069-4.352,2.648-9.268,4.717-13.658c2.839-6.023,7.866-9.086,14.285-10.375
	c3.024-0.607,6.171-1.153,9.043-2.16c5.812-0.646,11.605-0.463,17.458,1.044c9.168,2.36,18,4.775,27.01,7.644
	c1.46,0.465,2.104-1.541,0.985-2.335c-9.234-6.542-20.46-9.531-31.444-11.924c-1.762-0.384-3.741-0.578-5.798-0.579
	c0.274-0.449,0.534-0.919,0.769-1.426c3.489-7.554-0.547-15.577-3.734-22.412c-1.814-3.888-3.985-6.386-6.953-9.427
	c-3.551-3.639-6.207-8.125-10.561-10.92c-7.991-5.13-17.982-7.548-26.847-10.692c-10.917-3.873-20.903-9.885-31.873-13.726
	c-10.453-3.659-22.93-8.941-30.77-17.087c-14.051-14.6-31.293-31.098-38.646-50.817c4.24,3.272,8.092,6.941,12.248,10.548
	c6.421,5.572,13.479,9.848,20.938,13.894c15.74,8.539,32.283,14.302,50.015,16.95c18.364,2.742,36.604,5.727,54.571,10.475
	c8.925,2.359,18.052,3.808,26.926,6.377c9.884,2.861,16.402,7.881,23.107,15.512c6.139,6.988,10.245,15.415,16.488,22.289
	c0.681,0.749,1.37,1.555,2.071,2.38c2.807,3.71,5.21,7.964,8.968,10.648c3.585,2.562,8.089,3.093,12.356,2.958
	c7.888-0.248,14.646-3.582,20.936-7.844c1.247-0.081,2.455-0.149,3.555-0.248c4.574-0.408,7.828,0.696,12.095,1.862
	c6.455,1.765,12.78,1.704,19.094-0.577c6.726-2.43,11.37-8.301,18.381-10.199c7.623-2.063,14.381-3.978,21.525-7.507
	c1.088-0.538,0.323-2.258-0.817-1.938c-7.88,2.211-15.914,3.267-23.801,5.194c-7.708,1.884-12.944,8.492-20.677,10.447
	c-8.054,2.036-15.4-2.367-23.281-1.462c0.917-0.702,1.829-1.409,2.736-2.115c4.046-3.147,7.401-7.005,11.373-10.275
	c5.167-4.256,8.512-10.008,12.433-15.353c0.552-0.753,1.139-1.468,1.716-2.194c7.951-6.45,16.373-12.436,24.778-18.151
	c9.339-6.351,17.492-13.111,23.257-22.986c2.968-5.084,5.609-10.309,8.716-15.322c3.202-5.168,7.078-9.803,10.767-14.62
	c7.281-9.506,14.987-20.88,18.13-32.554c0.521-1.936-2.179-2.533-2.91-0.802c-4.978,11.8-12.102,23.388-20.463,33.065
	c-7.447,8.619-13.595,17.42-19.297,27.275c-6.186,10.691-14.729,17.747-24.392,25.172c-3.048,2.342-5.966,4.752-8.806,7.224
	c0.1-0.127,0.207-0.247,0.306-0.375c4.083-5.243,6.839-11.752,10.072-17.533c3.145-5.622,6.452-11.211,9.819-16.704
	c3.275-5.345,7.134-10.152,9.61-15.973c2.497-5.87,3.109-11.954,3.832-18.223c0.902-7.82,3.441-13.345,7.52-19.965
	c6.68-10.843,4.243-23.102,5.234-35.207c0.532-6.496,0.798-14.608,3.207-20.763c2.736-6.993,14.894-6.087,20.066-2.093
	c4.304,3.324,7.869,7.487,12.286,10.73c-1.574,0.786-3.045,2.003-4.2,3.002c-4.314,3.733-7.449,9.543-9.462,14.785
	c-2.68,6.977-5.244,13.851-8.382,20.657c-2.681,5.814-7.041,10.745-10.463,16.147c-0.778,1.228,0.973,2.528,1.985,1.531
	c7.529-7.418,13.341-16.584,17.563-26.236c2.433-5.563,3.391-11.544,6.164-16.994c2.363-4.645,5.379-8.211,9.362-11.266
	c1.526,0.766,3.059,1.234,4.805,1.863c3.375,1.219,5.789,3.119,8.226,5.754c4.496,4.865,10.382,9.956,12.441,16.39
	c0.86,2.688,1.353,5.584,2.304,8.267c-6.925,2.479-13.12,12.509-15.853,17.87c-2.953,5.794-4.593,12.024-7.772,17.756
	c-3.031,5.464-6.018,10.696-10.69,14.955c-4.84,4.412-9.904,8.636-14.069,13.732c-3.387,4.144-5.823,8.954-8.328,13.653
	c-6.51,12.211-12.245,23.822-21.881,33.972c-1.141,1.201,0.373,3.417,1.845,2.391c8.816-6.15,14.604-17.13,19.299-26.534
	c6.001-12.022,11.688-23.195,23.201-30.927c8.908-5.983,13.94-14.472,18.311-24.191c2.594-5.769,3.663-11.872,6.985-17.36
	c1.957-3.232,5.971-10.006,10.288-12.364c0.457,0.785,0.994,1.532,1.639,2.226c1.573,1.693,3.466,2.405,5.378,3.607
	c3.721,2.34,4.683,5.685,5.155,9.998c0.736,6.725-0.378,13.828,1.513,20.393c0.472,1.638,1.116,3.141,1.844,4.588
	c-11.746,2.568-19.187,18.218-24.135,27.507c-4.351,8.167-11.267,11.615-17.995,17.487c-6.408,5.594-9.97,13.063-14.009,20.379
	c-0.593,1.075,0.772,2.082,1.665,1.285c5.85-5.22,8.743-12.631,14.828-17.694c5.374-4.471,12.324-7.232,16.629-12.927
	c4.146-5.483,6.425-12.381,9.906-18.294c3.283-5.578,8.276-12.45,14.729-14.806c1.235,2.072,2.572,4.095,3.795,6.27
	c3.936,7.002,2.202,14.522,2.542,22.118c0.265,5.922,2.097,11.511,4.044,17.065c1.125,3.213,2.856,6.473,3.632,9.787
	c1.146,4.901,0.286,9.172-1.084,13.915C494.522,193.953,491.985,199.429,490.269,205.198z M230.708,376.264
	c0.687,5.422,7.147,7.183,12.166,7.79c-5.557,1.863-11.043,4.029-16.361,6.301c-3.84,1.64-7.187,3.728-10.429,5.946
	c-1.046,0.039-2.039,0.038-3.065,0.277c-0.12,0.028-0.251,0.052-0.382,0.075c-0.053,0-0.097-0.018-0.152-0.012
	c-2.872,0.311-5.102-0.701-7.796-1.348c-3.701-0.889-7.366-1.562-10.949-2.949c-3.211-1.243-6.787-3.27-10.269-3.62
	c0.535-0.661,1.068-1.313,1.603-1.95c5.421-6.46,10.161-12.58,16.85-17.765c6.913-5.358,14.234-8.789,23.056-9.821
	c6.757-0.791,10.106,3.729,7.875,10.223C232.041,371.782,230.374,373.629,230.708,376.264z M198.843,399.205
	c2.636,0.758,6.614,2.188,10.052,2.103c-1.433,0.979-2.89,1.943-4.421,2.859c-7.896,4.723-16.275,4.205-25.019,5.636
	c-4.747,0.777-8.056,4.075-11.196,7.576c0.049-0.502,0.051-0.985-0.004-1.438c-0.23-1.918-1.522-4.738-3.38-6.068
	c6.202-5.107,11.367-11.978,16.328-18.293C187.167,393.972,192.592,397.41,198.843,399.205z M284.365,346.409
	c0.42,0.557,0.861,1.096,1.364,1.585c2.882,2.802,7.07,3.691,10.351,5.937c4.146,2.835,7.469,6.354,10.602,10.233
	c1.713,2.122,3.563,4.195,5.045,6.488c0.705,1.141,1.357,2.31,1.958,3.509c1.796,1.85,1.576,2.965-0.662,3.347
	c-3.889,2.577-10.466,2.266-14.949,2.516c-4.89,0.273-9.785,0.463-14.67,0.825c-4.446,0.33-8.881,0.813-13.253,1.702
	c-3.412,0.692-7.519,2.167-10.113-0.691c-2.021-2.228-2.118-5.718-1.74-8.514c0.802-5.93,4.23-12.151,8.156-16.483
	c2.808-3.098,6.349-5.391,10.034-7.338C277.088,349.207,281.325,347.178,284.365,346.409z M278.816,331.507
	c-4.052-1.765-7.54-2.587-8.97-7.48c-1.599-5.466-1.72-11.314,4.992-12.048c6.182-0.675,12.608,2.651,15.446,8.274
	c2.055,4.072,2.454,8.197,0.702,12.5c-0.886,2.177-2.875,3.988-4.119,6.033c-0.255-0.359-0.516-0.73-0.791-1.123
	C284.145,334.907,281.937,332.865,278.816,331.507z M82.035,358.397c1.663,4.479,4.635,8.308,7.687,11.915
	c2.713,3.208,5.016,7.698,9.242,9.101c1.767,0.587,3.305,0.332,5.097,0.494c2.667,0.239,5.081,1.258,7.783,1.051
	c4.169-0.32,8.526-2.07,12.178-4.049c6.682-3.62,16.313-6.672,21.517-12.721c1.775,1.055,3.742,1.655,5.722,1.412
	c-2.671,4.289-5.648,9.28-9.649,12.276c-3.327,2.492-7.371,3.939-10.967,5.994c-7.109,4.063-14.267,7.917-20.354,13.436
	c-2.037,1.847-4.024,4.062-6.502,5.319c-2.965,1.504-6.371,1.562-9.603,1.929c-2.147,0.243-4.914,0.871-7.048,0.128
	c-2.125-0.739-3.254-2.92-4.662-4.484c-2.357-2.619-5.542-6.298-8.955-7.545c-3.57-1.305-7.514,0.121-10.806,1.506
	c-4.634,1.95-9.972,5.547-15.229,4.363c-6.147-1.385-9.324-6.965-10.846-12.535c-1.635-5.98-0.524-9.934,3.74-14.572
	c3.458-3.763,7.501-7.375,11.452-10.609c4.519-3.7,10.39-8.141,11.491-14.274c8.013-0.426,15.013-4.906,22.747-7.008
	c0.815-0.222,1.624-0.375,2.431-0.501C83.973,344.677,79.261,350.925,82.035,358.397z M90.317,342.161
	c0.457-1.051,1.032-2.253,1.163-3.431c7.745-0.256,15.229,2.854,23.215,2.941c9.128,0.101,22.933-4.563,22.63,8.834
	c-0.06,2.641,1.396,6.112,2.802,8.331c0.563,0.889,1.259,1.786,2.052,2.625c-4.774,3.914-9.97,6.669-15.6,9.305
	c-3.736,1.749-7.061,3.816-11.153,4.746c-4.216,0.957-7.905,0.129-12.052-0.849c-4.757-1.12-6.162-4.18-9.091-7.542
	c-2.783-3.193-5.851-6.74-7.36-10.779C84.765,350.566,88.148,347.156,90.317,342.161z M505.825,208.527
	c-2.185,4.403-6.802,7.378-10.719,10.543c-0.346-3.585-0.337-6.507,0.731-10.354c1.59-5.726,3.908-11.25,5.577-16.85
	c0.831,1.455,1.573,2.979,2.311,4.286C505.809,199.845,507.845,204.458,505.825,208.527z"/>
<path d="M256.097,272.726c0.565,0.762,2.099,0.354,1.689-0.712c-5.899-15.329-22.642-19.434-37.006-23.317
	c-0.83-0.225-1.177,1.045-0.354,1.284c7.02,2.037,13.608,4.209,19.999,7.859C247.327,261.782,251.422,266.427,256.097,272.726z"/>
<path d="M248.895,253.04c-0.818-0.69-1.999,0.446-1.192,1.191c3.865,3.571,7.402,7.362,10.186,11.857
	c2.766,4.466,3.409,9.009,4.257,14.074c0.158,0.943,1.763,0.952,1.914,0C265.941,268.317,257.309,260.141,248.895,253.04z"/>
<path d="M225.64,317.887c5.683-6.931,11.934-12.854,12.085-22.47c0.115-7.3-2.613-12.936-8.197-16.822
	c-7.416-10.381-26.848-8.047-36.065,0.759c-4.129,3.945-6.836,9.634-6.626,15.197c-1.196,5.373-1.606,10.159,1.026,16.112
	c3.123,7.063,8.075,9.364,15.548,9.332c1.025-0.005,1.315-1.635,0.25-1.842c-7.201-1.404-11.608-5.089-13.841-12.242
	c-0.426-1.367-0.633-2.686-0.707-3.978c4.823,7.697,13.427,9.868,21.938,9.397c1.121-0.062,1.118-1.668,0-1.739
	c-1.489-0.096-3.045-0.239-4.603-0.47c5.113-0.503,10.308-2.635,14.285-5.139c3.684-2.318,8.105-5.151,10.341-8.889
	c1.044-1.745,2.276-4.338,2.32-6.414c0.01-0.468-0.035-0.902-0.112-1.318c0.934,2.878,1.321,6.086,1.077,8.986
	c-0.692,8.251-6.987,13.275-10.364,20.271C223.518,317.61,224.836,318.868,225.64,317.887z M229.802,288.194
	c-0.343,1.596-1.144,3.283-1.989,4.673c-2.076,3.414-6.115,6.354-9.432,8.431c-6.647,4.165-14.797,6.446-22.3,3.84
	c-1.531-1.254-2.805-2.854-3.657-4.934c-2.366-5.782,0.903-13.765,5.243-17.797c4.307-4.002,10.177-5.687,15.853-6.438
	c5.836-0.773,12.882,2.477,16.355,7.702C229.98,285.69,229.837,288.031,229.802,288.194z"/>
<path d="M215.35,327.643c-12.903,1.366-24.148-2.383-30.257-14.494c-0.177-0.352-0.798-0.102-0.646,0.272
	c5.309,13.002,17.143,20.41,31.159,16.117C216.597,329.235,216.477,327.523,215.35,327.643z"/>
<path d="M234.874,313.272c-1.211,1.365,0.706,3.327,2.019,2.019c7.961-7.941,10.833-17.77,6.442-28.308
	c-0.143-0.344-0.688-0.223-0.577,0.159C245.629,296.974,241.347,305.983,234.874,313.272z"/>
<path d="M227.483,301.224c-1.909,2.934-3.758,5.915-6.192,8.458c-1.277,1.335-2.772,2.239-4.254,3.307
	c-1.231,0.887-2.175,2.015-3.306,3.019c-0.829,0.735,0.226,1.939,1.137,1.473c6.938-3.559,9.853-9.241,13.179-15.926
	C228.233,301.178,227.714,300.87,227.483,301.224z"/>
<path d="M243.578,315.35c0.77-1.067-0.991-2.441-1.836-1.417c-2.381,2.891-5.241,5.344-8.414,7.336
	c-2.767,1.736-5.794,2.538-8.756,3.756c0.092,4.166,7.126-0.169,8.851-1.039C237.521,321.921,240.897,319.062,243.578,315.35z"/>
<path d="M179.668,327.83c-3.057-14.501-0.843-27.847,6.337-40.813c0.534-0.965-0.938-1.826-1.479-0.864
	c-7.069,12.559-12.589,28.099-7.034,42.277C178.015,329.765,179.973,329.276,179.668,327.83z"/>
<path d="M77.695,366.888c-0.399-2.32-0.279-5.387-1.492-7.496c-1.855-3.229-5.175-2.801-7.342-0.071
	c-2.061,2.595-1.477,5.646-2.378,8.687c-0.008,2.468-1.108,3.379-3.301,2.732c-0.184,0.07-0.352,0.115-0.52,0.16
	c-0.037-0.191-0.125-0.383-0.307-0.561c-1.613-1.568-2.757-4.615-4.645-6.141c-0.004-0.006-0.007-0.011-0.01-0.016
	c-0.066-0.09-0.147-0.145-0.231-0.179c-0.944-0.671-2.073-0.958-3.528-0.514c-3.438,1.051-4.345,5.768-4.065,8.871
	c0.382,4.243,3.199,8.241,7.06,9.999c3.786,1.725,8.773,4.173,13.036,3.61c4.508-0.595,10.174-2.926,9.688-8.296
	C79.334,374.104,78.305,370.429,77.695,366.888z M71.344,381.078c-3.698,1.572-8.075,0.282-11.701-1.262
	c-3.27-1.393-5.915-3.732-6.394-7.455c-0.133-1.032-0.1-4.521,0.894-5.036c1.706-0.885,3.083,2.414,3.864,3.247
	c1.018,3.517,2.924,6.461,7.133,4.576c2.918-1.306,3.987-4.113,4.608-7.094c0.146-0.698,0.233-1.333,0.327-2.05
	c0.211-1.629,0.079-4.721,2.738-3.316c1.65,0.87,1.25,4.992,1.413,6.5C74.71,373.649,76.346,378.952,71.344,381.078z"/>
<path d="M258.562,332.628c-7.24,5.321-17.228,10.08-19.147,19.776c-0.074,0.376,0.502,0.537,0.577,0.159
	c0.719-3.634,6.436-7.457,9.08-9.595c3.611-2.92,8.031-4.684,11.219-8.1C261.341,333.744,259.925,331.626,258.562,332.628z"/>
<path d="M336.386,299.236c-7.802-3.765-16.567-6.549-24.961-8.627c-9.623-2.382-18.384-2.795-28.267-2.468
	c-0.453,0.016-0.456,0.699,0,0.707c18.358,0.311,35.178,6.401,52.16,12.922C336.775,302.33,337.798,299.918,336.386,299.236z"/>
<path d="M430.154,200.548c-9.616,7.633-16.952,17.75-27.412,24.438c-10.846,6.937-24.13,4.477-35.881,8.699
	c-5.262,1.891-10.277,4.525-15.782,5.687c-6.313,1.331-13.611,1.231-20.001,0.514c-6.104-0.686-12.556-1.851-18.577-3.112
	c-3.114-0.653-6.03-1.795-9.077-2.666c-3.239-0.927-6.437-1.255-9.287-3.247c-0.864-0.604-1.96,0.793-1.136,1.473
	c3.781,3.115,9.111,4.219,13.619,5.938c6.617,2.525,13.825,3.897,20.701,5.588c12.639,3.108,25.196,1.813,37.05-3.179
	c6.919-2.913,13.301-4.237,20.655-5.527c5.869-1.029,11.873-2.123,17.154-5.02c12.049-6.608,20.454-18.054,30.05-27.511
	C433.61,201.263,431.596,199.403,430.154,200.548z"/>
<path d="M357.372,276.957c-4.515,0.861-8.862,2.263-13.341,3.227c-6.736,1.451-11.789-0.362-17.662-3.548
	c-0.524-0.285-0.967,0.477-0.466,0.798c6.666,4.278,11.829,6.665,19.853,5.414c9.531-1.484,20.173-4.715,29.699-1.491
	c4.162,1.408,6.674,4.912,10.655,6.539c3.151,1.288,6.27,1.17,9.532,0.515c8.438-1.695,18.475-4.449,26.036,1.181
	c1.494,1.111,3.413-1.027,2.492-2.492c-3.233-5.145-9.186-6.516-14.961-6.398c-4.396,0.089-8.765,0.918-13.076,1.688
	c-4.289,0.766-7.314,1.181-11.071-1.625c-1.319-0.984-2.473-2.006-3.945-2.771C373.972,274.28,364.923,275.517,357.372,276.957z"/>
<path d="M401.032,335.495c-7.213,1.61-13.708-8.191-18.747-12.043c-3.987-3.047-8.354-4.553-13.391-4.259
	c-6.707,0.391-11.735,3.499-18.682,1.81c-6.356-1.546-10.506-1.34-16.736,0.787c-1.392,0.475-0.821,2.415,0.6,2.175
	c4.197-0.709,7.994-1.457,12.234-0.421c2.801,0.685,5.463,1.9,8.362,2.184c6.687,0.654,13.076-3.234,19.787-1.063
	c9.041,2.925,16.388,16.301,26.793,11.353C401.555,335.872,401.334,335.428,401.032,335.495z"/>
<path d="M364.373,312.624c12.049-2.537,20.186,0.895,30.632,6.455c1.945,1.036,3.444-1.662,1.701-2.91
	c-7.433-5.32-15.973-8.617-25.194-7.845c-4.32,0.362-8.391,1.43-12.534,2.654c-5.521,1.633-11.733,4.463-17.466,3.44
	c-0.443-0.08-0.626,0.538-0.188,0.682C348.777,317.534,356.988,314.18,364.373,312.624z"/>
<path d="M158.716,320.639c-0.448-0.209-0.777,0.366-0.384,0.657c4.903,3.634,7.434,11.144,8.767,16.896
	c1.498,6.459,0.504,13.048-0.261,19.545c-0.162,1.376,2.169,1.693,2.429,0.328c1.523-7.99,2.359-15.627-0.513-23.437
	C166.684,329.004,164.368,323.267,158.716,320.639z"/>
<path d="M180.82,337.681c-0.45,9.933-2.347,18.712-6.075,27.906c-0.431,1.063,1.302,1.763,1.838,0.775
	c4.743-8.736,5.455-18.92,5.487-28.682C182.073,336.872,180.857,336.88,180.82,337.681z"/>
<path d="M88.534,324.282c-10.169,2.241-20.653,1.413-30.581-1.609c-0.877-0.267-1.229,1.071-0.375,1.363
	c10.274,3.519,20.907,5.772,31.498,2.212C90.318,325.83,89.821,323.998,88.534,324.282z"/>
<path d="M241.429,423.796c-6.095,4.626-12.546,8.906-19.046,12.943c-4.42,2.744-9.273,5.159-14.573,5.471
	c-4.216,0.247-7.615-1.392-11.584-2.244c-6.248-1.341-10.099,2.53-14.962,5.922c-6.667,4.648-12.276,10.559-19.296,14.827
	c-0.842,0.512-0.107,1.669,0.755,1.291c7.656-3.362,13.277-8.89,20.166-13.34c3.941-2.546,7.209-6.032,12.313-4.985
	c3.275,0.671,6.156,2.205,9.571,2.531c6.846,0.651,13.577-2.076,18.944-6.184c3.009-2.303,5.759-4.964,8.537-7.533
	c3.092-2.859,6.567-5.239,9.62-8.123C242.169,424.094,241.766,423.54,241.429,423.796z"/>
<path d="M286.389,408.941c-20.832-5.499-47.501-0.405-62.248,16.323c-0.908,1.028,0.565,2.533,1.518,1.518
	c7.271-7.75,19.221-12.067,29.369-14.413c5.031-1.163,10.083-1.553,15.225-1.644c5.332-0.095,10.484,0.867,15.77,0.912
	C287.566,411.65,287.896,409.339,286.389,408.941z"/>
<path d="M206.183,217.347c-4.967-6.176-11.675-9.74-17.315-15.065c-0.343-0.324-0.854,0.184-0.519,0.519
	c5.31,5.307,11.255,10.088,15.763,16.145c4.52,6.075,7.885,12.986,11.614,19.551c0.799,1.406,2.716,0.171,2.112-1.235
	C214.818,230.224,210.997,223.331,206.183,217.347z"/>
<path d="M225.171,239.097c5.208,5.357,11.864,7.342,18.976,9.06c1.566,0.378,2.205-1.939,0.665-2.411
	c-7.113-2.18-13.755-4.168-19.103-9.606c-5.49-5.582-8.844-11.658-12.395-18.523c-0.244-0.471-0.924-0.058-0.704,0.412
	C216.236,225.746,219.118,232.87,225.171,239.097z"/>
<g>
</g>
<g>
</g>
<g>
</g>
<g>
</g>
<g>
</g>
<g>
</g>
<g>
</g>
<g>
</g>
<g>
</g>
<g>
</g>
<g>
</g>
<g>
</g>
<g>
</g>
<g>
</g>
<g>
</g>
</svg>
