<svg height="512pt" viewBox="-10 0 512 512.19954" width="512pt" xmlns="http://www.w3.org/2000/svg"><path d="m483.644531 512.199219h-474.859375c-3.027344 0-5.839844-1.582031-7.414062-4.167969-1.578125-2.585938-1.695313-5.808594-.308594-8.5l110.472656-213.566406 4.511719-8.679688h260.339844l4.511719 8.679688 110.46875 213.566406c1.386718 2.691406 1.273437 5.914062-.304688 8.5s-4.386719 4.167969-7.417969 4.167969zm0 0" fill="#af8066"/><path d="m380.898438 285.964844c-1.464844.425781-2.988282.632812-4.511719.609375v43.386719c.007812 6.910156-2.730469 13.535156-7.617188 18.421874-4.882812 4.882813-11.511719 7.621094-18.417969 7.613282-14.367187.023437-26.011718 11.664062-26.035156 26.035156v43.386719c0 14.378906-11.65625 26.035156-26.03125 26.035156-14.378906 0-26.035156-11.65625-26.035156-26.035156v-13.015625c-.003906-11.980469-9.714844-21.691406-21.695312-21.695313h-8.675782c-11.980468-.003906-21.691406-9.714843-21.695312-21.695312v-4.335938c0-14.378906-11.65625-26.035156-26.035156-26.035156-14.378907 0-26.035157 11.65625-26.035157 26.035156v26.03125c0 14.378907-11.65625 26.035157-26.03125 26.035157-14.378906 0-26.035156-11.65625-26.035156-26.035157v-104.132812c-1.527344.023437-3.046875-.183594-4.511719-.609375l4.511719-8.679688h260.339844zm0 0" fill="#7f5b53"/><path d="m55.902344 486.164062c-3.035156-.003906-5.84375-1.589843-7.414063-4.1875-1.570312-2.59375-1.675781-5.820312-.273437-8.511718l86.171875-164.878906c1.4375-2.75 4.234375-4.523438 7.332031-4.652344 3.097656-.132813 6.03125 1.402344 7.695312 4.019531 1.660157 2.617187 1.800782 5.925781.363282 8.675781l-86.171875 164.878906c-1.5 2.867188-4.46875 4.660157-7.703125 4.65625zm0 0" fill="#7f5b53"/><path d="m436.53125 486.164062c-3.25.007813-6.230469-1.800781-7.726562-4.6875l-73.5-142.144531c-1.425782-2.757812-1.273438-6.0625.402343-8.675781 1.671875-2.609375 4.613281-4.128906 7.710938-3.984375 3.097656.140625 5.886719 1.929687 7.308593 4.683594l73.503907 142.144531c1.054687 2.046875 1.257812 4.425781.558593 6.621094-.703124 2.191406-2.246093 4.019531-4.289062 5.074218-1.226562.636719-2.589844.972657-3.96875.96875zm0 0" fill="#7f5b53"/><path d="m315.640625 156.402344h104.132813c22.523437.015625 41.308593-17.214844 43.230468-39.652344 1.925782-22.441406-13.65625-42.617188-35.851562-46.433594.875-3.046875 1.3125-6.203125 1.300781-9.371094 0-17.273437-12.703125-31.921874-29.800781-34.363281-17.101563-2.441406-33.398438 8.0625-38.234375 24.644531-6.652344-5.003906-14.761719-7.6875-23.082031-7.636718-4.621094 0-9.207032.824218-13.539063 2.429687-2.503906-17.339843-15.207031-31.46875-32.183594-35.796875-16.976562-4.332031-34.894531 1.988282-45.398437 16.011719-10.503906-14.023437-28.417969-20.34375-45.394532-16.011719-16.980468 4.328125-29.679687 18.457032-32.183593 35.796875-4.335938-1.605469-8.917969-2.429687-13.539063-2.429687-8.324218-.050782-16.433594 2.632812-23.082031 7.636718-4.839844-16.582031-21.132813-27.085937-38.234375-24.644531-17.101562 2.441407-29.800781 17.089844-29.800781 34.363281-.011719 3.167969.425781 6.324219 1.300781 9.371094-22.199219 3.816406-37.777344 23.992188-35.855469 46.433594 1.925781 22.4375 20.707031 39.667969 43.230469 39.652344zm0 0" fill="#bdc3c7"/><path d="m350.351562 121.691406c-19.171874 0-34.710937 15.539063-34.710937 34.710938v43.390625h-138.847656v-43.390625c0-19.171875-15.542969-34.710938-34.710938-34.710938zm0 0" fill="#bdc3c7"/><g fill="#95a5a5"><path d="m176.792969 208.472656c-4.792969 0-8.679688-3.886718-8.679688-8.679687v-43.390625c-.015625-14.371094-11.660156-26.015625-26.03125-26.035156-4.792969 0-8.679687-3.882813-8.679687-8.675782 0-4.792968 3.886718-8.679687 8.679687-8.679687 23.949219.03125 43.359375 19.4375 43.386719 43.390625v43.390625c0 4.792969-3.882812 8.679687-8.675781 8.679687zm0 0"/><path d="m315.640625 208.472656c-4.792969 0-8.679687-3.886718-8.679687-8.679687v-43.390625c.027343-23.953125 19.4375-43.359375 43.390624-43.390625 4.792969 0 8.679688 3.886719 8.679688 8.679687 0 4.792969-3.886719 8.675782-8.679688 8.675782-14.371093.019531-26.019531 11.664062-26.035156 26.035156v43.390625c0 4.792969-3.882812 8.679687-8.675781 8.679687zm0 0"/><path d="m211.503906 208.472656c-4.792968 0-8.675781-3.886718-8.675781-8.679687v-43.390625c0-4.792969 3.882813-8.675782 8.675781-8.675782 4.792969 0 8.679688 3.882813 8.679688 8.675782v43.390625c0 4.792969-3.886719 8.679687-8.679688 8.679687zm0 0"/><path d="m246.214844 208.472656c-4.792969 0-8.675782-3.886718-8.675782-8.679687v-78.101563c0-4.792968 3.882813-8.679687 8.675782-8.679687 4.792968 0 8.679687 3.886719 8.679687 8.679687v78.101563c0 4.792969-3.886719 8.679687-8.679687 8.679687zm0 0"/><path d="m280.929688 208.472656c-4.792969 0-8.679688-3.886718-8.679688-8.679687v-43.390625c0-4.792969 3.886719-8.675782 8.679688-8.675782 4.789062 0 8.675781 3.882813 8.675781 8.675782v43.390625c0 4.792969-3.886719 8.679687-8.675781 8.679687zm0 0"/><path d="m74.148438 94.167969c-2.300782.003906-4.507813-.910157-6.136719-2.535157-13.886719-13.886718-16.71875-35.367187-6.898438-52.378906 9.816407-17.007812 29.835938-25.300781 48.804688-20.21875 18.96875 5.082032 32.160156 22.269532 32.164062 41.910156 0 4.792969-3.886719 8.679688-8.679687 8.679688-4.792969 0-8.679688-3.886719-8.679688-8.679688.019532-6.910156-2.726562-13.535156-7.625-18.40625-10.300781-9.835937-26.511718-9.835937-36.8125 0-4.882812 4.882813-7.625 11.503907-7.625 18.410157 0 6.902343 2.742188 13.523437 7.625 18.40625 2.484375 2.484375 3.226563 6.214843 1.882813 9.460937-1.34375 3.242188-4.507813 5.359375-8.019531 5.359375zm0 0"/><path d="m418.285156 94.167969c-3.511718.003906-6.679687-2.113281-8.023437-5.355469-1.339844-3.246094-.597657-6.980469 1.886719-9.460938 4.882812-4.878906 7.628906-11.5 7.628906-18.40625s-2.746094-13.527343-7.628906-18.40625c-10.300782-9.835937-26.511719-9.835937-36.8125 0-4.898438 4.871094-7.644532 11.5-7.628907 18.40625 0 4.792969-3.882812 8.679688-8.675781 8.679688s-8.679688-3.886719-8.679688-8.679688c0-19.640624 13.191407-36.828124 32.164063-41.910156 18.96875-5.082031 38.984375 3.210938 48.804687 20.21875 9.816407 17.011719 6.988282 38.492188-6.902343 52.378906-1.625 1.625-3.832031 2.539063-6.132813 2.535157zm0 0"/><path d="m180.824219 91.628906c-2.300781 0-4.507813-.914062-6.132813-2.539062-16.667968-16.664063-20.0625-42.441406-8.28125-62.851563 11.78125-20.410156 35.804688-30.363281 58.566406-24.265625 22.765626 6.101563 38.59375 26.726563 38.59375 50.292969 0 4.792969-3.882812 8.679687-8.675781 8.679687s-8.679687-3.886718-8.679687-8.679687c.027344-9.210937-3.632813-18.046875-10.167969-24.539063-13.734375-13.117187-35.351563-13.117187-49.085937 0-6.511719 6.507813-10.167969 15.335938-10.167969 24.542969s3.65625 18.035157 10.167969 24.542969c2.484374 2.484375 3.230468 6.21875 1.886718 9.460938-1.34375 3.246093-4.511718 5.359374-8.023437 5.359374zm0 0"/><path d="m311.605469 91.628906c-3.511719 0-6.675781-2.117187-8.019531-5.359375-1.34375-3.246093-.601563-6.976562 1.882812-9.460937 6.511719-6.507813 10.171875-15.335938 10.171875-24.542969 0-9.203125-3.660156-18.03125-10.171875-24.539063-13.730469-13.117187-35.347656-13.117187-49.082031 0-2.183594 2.238282-5.402344 3.128907-8.425781 2.332032-3.023438-.796875-5.382813-3.15625-6.179688-6.179688-.796875-3.023437.09375-6.242187 2.332031-8.425781 13.132813-13.273437 32.363281-18.503906 50.40625-13.703125s32.136719 18.894531 36.933594 36.941406c4.796875 18.042969-.433594 37.273438-13.710937 50.402344-1.628907 1.625-3.835938 2.535156-6.136719 2.535156zm0 0"/></g><path d="m116.046875 486.171875c-2.847656-.007813-5.507813-1.40625-7.128906-3.746094-1.621094-2.339843-1.992188-5.324219-1-7.988281l29.421875-78.363281c1.683594-4.488281 6.6875-6.761719 11.175781-5.078125 4.488281 1.6875 6.761719 6.691406 5.078125 11.179687l-29.417969 78.363281c-1.273437 3.382813-4.511719 5.628907-8.128906 5.632813zm0 0" fill="#7f5b53"/><path d="m376.386719 486.171875c-3.734375-.003906-7.050781-2.394531-8.230469-5.9375l-43.910156-131.734375c-1.078125-2.964844-.460938-6.28125 1.609375-8.660156 2.074219-2.382813 5.273437-3.449219 8.359375-2.789063 3.085937.660157 5.570312 2.941407 6.488281 5.960938l43.910156 131.730469c.882813 2.644531.4375 5.554687-1.191406 7.816406-1.628906 2.265625-4.246094 3.609375-7.035156 3.613281zm0 0" fill="#7f5b53"/><path d="m176.800781 486.171875c-2.722656-.007813-5.285156-1.285156-6.925781-3.460937-1.640625-2.171876-2.171875-4.988282-1.429688-7.609376l17.355469-60.746093c.851563-2.980469 3.230469-5.28125 6.242188-6.035157 3.007812-.753906 6.1875.15625 8.34375 2.386719 2.160156 2.230469 2.960937 5.441407 2.109375 8.421875l-17.355469 60.746094c-1.070313 3.722656-4.46875 6.289062-8.339844 6.296875zm0 0" fill="#7f5b53"/><path d="m315.632812 486.171875c-3.875-.007813-7.273437-2.578125-8.339843-6.304687l-12.496094-43.820313c-1.316406-4.613281 1.355469-9.414063 5.964844-10.730469s9.414062 1.355469 10.730469 5.964844l12.496093 43.824219c.738281 2.621093.210938 5.4375-1.429687 7.609375s-4.207032 3.449218-6.925782 3.457031zm0 0" fill="#7f5b53"/><path d="m72.65625 199.792969c0 9.585937-7.769531 17.355469-17.355469 17.355469-9.585937 0-17.355469-7.769532-17.355469-17.355469 0-9.585938 7.769532-17.355469 17.355469-17.355469 9.585938 0 17.355469 7.769531 17.355469 17.355469zm0 0" fill="#e57e25"/><path d="m480.519531 243.183594c0 9.585937-7.769531 17.355468-17.355469 17.355468-9.585937 0-17.355468-7.769531-17.355468-17.355468 0-9.585938 7.769531-17.355469 17.355468-17.355469 9.585938 0 17.355469 7.769531 17.355469 17.355469zm0 0" fill="#e57e25"/><path d="m419.773438 199.792969c0 4.792969-3.882813 8.679687-8.675782 8.679687-4.792968 0-8.679687-3.886718-8.679687-8.679687s3.886719-8.679688 8.679687-8.679688c4.792969 0 8.675782 3.886719 8.675782 8.679688zm0 0" fill="#d25627"/><path d="m63.980469 269.214844c0 4.792968-3.886719 8.679687-8.679688 8.679687s-8.679687-3.886719-8.679687-8.679687c0-4.792969 3.886718-8.675782 8.679687-8.675782s8.679688 3.882813 8.679688 8.675782zm0 0" fill="#d25627"/><path d="m393.742188 251.859375c-.070313 9.558594-7.800782 17.289063-17.355469 17.355469v43.390625c.007812 6.910156-2.730469 13.535156-7.617188 18.417969-4.882812 4.886718-11.511719 7.625-18.417969 7.617187-14.367187.019531-26.011718 11.664063-26.035156 26.035156v43.386719c0 14.378906-11.65625 26.035156-26.03125 26.035156-14.378906 0-26.035156-11.65625-26.035156-26.035156v-13.015625c-.003906-11.980469-9.714844-21.691406-21.695312-21.695313h-8.675782c-11.980468-.003906-21.691406-9.714843-21.695312-21.695312v-4.339844c0-14.375-11.65625-26.03125-26.035156-26.03125-14.378907 0-26.035157 11.65625-26.035157 26.03125v26.035156c0 14.378907-11.65625 26.035157-26.03125 26.035157-14.378906 0-26.035156-11.65625-26.035156-26.035157v-104.136718c-9.574219-.027344-17.328125-7.78125-17.355469-17.355469.066406-9.554687 7.796875-17.285156 17.355469-17.355469h260.339844c9.574219.027344 17.328125 7.78125 17.355469 17.355469zm0 0" fill="#f29c1f"/><path d="m159.4375 277.894531h-8.679688c-4.792968 0-8.675781-3.886719-8.675781-8.679687 0-4.792969 3.882813-8.675782 8.675781-8.675782h8.679688c4.792969 0 8.675781 3.882813 8.675781 8.675782 0 4.792968-3.882812 8.679687-8.675781 8.679687zm0 0" fill="#e57e25"/><path d="m315.640625 277.894531h-121.492187c-4.792969 0-8.679688-3.886719-8.679688-8.679687 0-4.792969 3.886719-8.675782 8.679688-8.675782h121.492187c4.792969 0 8.675781 3.882813 8.675781 8.675782 0 4.792968-3.882812 8.679687-8.675781 8.679687zm0 0" fill="#e57e25"/></svg>