<?xml version="1.0" encoding="iso-8859-1"?>
<!-- Generator: Adobe Illustrator 19.0.0, SVG Export Plug-In . SVG Version: 6.00 Build 0)  -->
<svg version="1.1" id="Layer_1" xmlns="http://www.w3.org/2000/svg" xmlns:xlink="http://www.w3.org/1999/xlink" x="0px" y="0px"
	 viewBox="0 0 512 512" style="enable-background:new 0 0 512 512;" xml:space="preserve">
<path style="fill:#00A35C;" d="M506.55,234.108c-12.175-37.228-45.009-71.879-92.453-97.569
	c-42.186-22.843-92.864-36.483-135.558-36.483c-39.21,0-71.522,5.155-96.033,15.321c-4.57,1.896-8.465,3.81-11.759,5.64V83.298
	c0-4.832-3.916-8.75-8.75-8.75c-68.98,0-109.365,35.486-131.098,65.255C7.568,171.76,0.49,203.434,0.2,204.766
	c-0.301,1.384-0.261,2.821,0.115,4.186l4.082,14.801c4.548,16.497,19.676,28.017,36.788,28.017h301.894
	c23.044,0,43.9,13.246,53.133,33.747c13.434,29.827,3.95,54.207-6.371,69.406c-13.98,20.585-34.497,31.405-43.339,30.989
	c-27.016-1.228-45.969-20.328-46.139-20.502c-2.671-2.771-6.835-3.47-10.265-1.725c-3.429,1.744-5.316,5.523-4.65,9.312
	c0.332,1.892,8.538,46.497,43.184,60.431c6.674,2.684,13.778,4.024,21.303,4.023c19.836-0.001,42.571-9.313,67.883-27.852
	C515.253,338.242,519.85,274.78,506.55,234.108z"/>
<g>
	<path style="fill:#00723E;" d="M506.55,234.108c-12.175-37.228-45.009-71.879-92.453-97.569
		c-42.186-22.843-92.864-36.483-135.558-36.483c-6.559,0-12.907,0.158-19.075,0.446c39.586,2.497,84.203,15.567,122.006,36.037
		c47.445,25.69,80.279,60.341,92.453,97.569c13.3,40.671,8.703,104.133-88.732,175.494c-18.382,13.462-35.397,22.034-50.936,25.732
		c5.005,1.407,10.229,2.12,15.679,2.119c19.836-0.001,42.572-9.313,67.883-27.852C515.253,338.242,519.85,274.78,506.55,234.108z"/>
	<polygon style="fill:#00723E;" points="159.726,251.771 159.726,208.43 67.92,251.771 	"/>
	<path style="fill:#00723E;" d="M303.065,252.091l-35.44-0.318c0,0,18.193-58.723,43.499-62.812L303.065,252.091z"/>
</g>
<path style="fill:#D9D9DB;" d="M73.079,119.778c-23.858,0-43.268,19.41-43.268,43.268s19.41,43.268,43.268,43.268
	s43.269-19.41,43.269-43.268C116.348,139.188,96.937,119.778,73.079,119.778z"/>
<path style="fill:#2B2B2B;" d="M73.079,173.337c-5.685,0-10.311-4.616-10.311-10.291c0-5.675,4.626-10.291,10.311-10.291
	c5.686,0,10.312,4.616,10.312,10.291C83.391,168.721,78.765,173.337,73.079,173.337z"/>
<path style="fill:#00A35C;" d="M227.735,229.865l-7.167-42.364c-0.804-4.765-5.32-7.968-10.087-7.168
	c-4.765,0.806-7.974,5.322-7.167,10.087l0.286,1.693l-66.684,25.202l-5.22-3.477c-4.023-2.679-9.455-1.59-12.133,2.432
	c-2.679,4.021-1.59,9.455,2.431,12.133l24.711,16.46l-22.904,27.074c-14.108,0.79-59.086,6.02-70.75,40.479
	c-0.904,2.67-0.465,5.614,1.177,7.905c1.644,2.291,4.291,3.65,7.111,3.65h78.884c2.414,0,4.721-0.998,6.375-2.756l78.884-83.897
	C227.359,235.322,228.192,232.564,227.735,229.865z"/>
<path style="fill:#00723E;" d="M224.669,211.739l-4.101-24.239c-0.195-1.151-0.609-2.208-1.189-3.143
	c-10.94,26.972-34.54,58.597-54.105,79.405l-56.895,60.208h31.845c2.414,0,4.721-0.997,6.375-2.756l78.884-83.897
	c0.096-0.103,0.177-0.215,0.268-0.321l1.48-2.449c0.236-0.595,0.408-1.212,0.51-1.844L224.669,211.739z"/>
<path style="fill:#00A35C;" d="M393.068,232.905c-2.204-1.613-4.91-2.042-7.364-1.406l-6.634-25.569
	c2.309-0.6,4.368-2.126,5.559-4.406c2.239-4.283,0.581-9.57-3.702-11.808c-4.773-2.495-47.404-23.918-74.206-8.318
	c-29.504,17.174-13.854,68.747-4.895,91.98c-10.601,2.631-21.709,8.54-33.168,17.661c-11.462,9.123-19.061,18.206-19.378,18.588
	c-2.17,2.609-2.637,6.238-1.195,9.31c1.44,3.073,4.528,5.035,7.922,5.035h76.829c2.791,0,5.414-1.331,7.062-3.583l55.066-75.253
	C397.818,241.235,396.969,235.76,393.068,232.905z"/>
<path style="fill:#00723E;" d="M339.897,320.388l42.694-58.346l0,0c7.903-10.801,3.36-29.589-0.001-42.544l0,0
	c-3.999-15.414-15.883-27.635-31.26-31.779c-10.261-2.766-22.009-4.434-32.032-1.973c3.011,0.54,5.976,1.228,8.825,2.001
	c15.325,4.154,27.145,16.378,31.132,31.747l0,0c3.362,12.957,0.727,26.74-7.178,37.543l-49.158,66.934h29.917
	C335.626,323.971,338.249,322.64,339.897,320.388z"/>
<g>
</g>
<g>
</g>
<g>
</g>
<g>
</g>
<g>
</g>
<g>
</g>
<g>
</g>
<g>
</g>
<g>
</g>
<g>
</g>
<g>
</g>
<g>
</g>
<g>
</g>
<g>
</g>
<g>
</g>
</svg>
