<?xml version="1.0" encoding="iso-8859-1"?>
<!-- Generator: Adobe Illustrator 19.0.0, SVG Export Plug-In . SVG Version: 6.00 Build 0)  -->
<svg version="1.1" id="Layer_1" xmlns="http://www.w3.org/2000/svg" xmlns:xlink="http://www.w3.org/1999/xlink" x="0px" y="0px"
	 viewBox="0 0 512.001 512.001" style="enable-background:new 0 0 512.001 512.001;" xml:space="preserve">
<path style="fill:#C66D1C;" d="M387.217,429.344c-9.233-4.273-17.953-6.932-23.724-8.426v-47.783c0-4.66-3.776-8.436-8.436-8.436
	h-32.595c-4.659,0-8.436,3.776-8.436,8.436v47.774c-12.983,3.347-40.822,12.594-56.274,33.09c-1.926,2.554-2.241,5.978-0.813,8.841
	c1.426,2.864,4.351,4.672,7.549,4.672h89.826c2.648,0,5.141-1.243,6.735-3.357c5.679-7.531,14.482-14.091,26.166-19.499
	c2.983-1.38,4.893-4.369,4.893-7.656C392.11,433.713,390.201,430.725,387.217,429.344z"/>
<path style="fill:#512807;" d="M376.023,335.453c-4.25-1.908-9.243-0.015-11.153,4.236l-0.007,0.015l-67.011-29.971
	c-1.035-2.566-2.079-5.208-3.134-7.949c-1.671-4.347-6.548-6.526-10.9-4.847c-4.348,1.67-6.519,6.551-4.849,10.899
	c3.761,9.786,23.304,59.247,38.714,71.833c1.506,1.23,3.391,1.902,5.336,1.902h36.064c3.32,0,6.332-1.948,7.694-4.977l13.479-29.988
	C382.169,342.356,380.272,337.363,376.023,335.453z"/>
<g>
	<path style="fill:#FF9F34;" d="M131.05,234.563c-0.586-2.777-2.53-5.073-5.172-6.11c-10.142-3.98-18.673-10.917-24.67-20.057
		c-1.45-2.21-3.851-3.61-6.489-3.788c-2.63-0.17-5.204,0.893-6.936,2.887c-3.345,3.853-81.98,95.865-87.775,226.896
		c-0.182,4.118,2.639,7.763,6.67,8.622c0.589,0.126,1.179,0.187,1.761,0.187c3.402,0,6.553-2.068,7.844-5.341
		c0.135-0.342,13.694-34.595,34.377-75.823c27.203-54.223,54.22-95.648,78.13-119.796
		C130.788,240.226,131.637,237.34,131.05,234.563z"/>
	<path style="fill:#FF9F34;" d="M509.594,453.999c-15.451-20.496-43.291-29.743-56.274-33.09v-47.774
		c0-4.66-3.776-8.436-8.436-8.436H412.29c-4.66,0-8.436,3.776-8.436,8.436v47.774c-12.983,3.347-40.822,12.594-56.274,33.09
		c-1.926,2.554-2.241,5.978-0.813,8.841c1.427,2.864,4.351,4.672,7.549,4.672h148.541c3.199,0,6.122-1.809,7.549-4.672
		C511.834,459.978,511.519,456.554,509.594,453.999z"/>
</g>
<path style="fill:#A86B38;" d="M500.477,179.305c-13.203-34.828-37.949-67.603-69.68-92.29c-30.63-23.831-65.5-38.657-98.185-41.749
	c-76.412-7.232-138.576,37.58-170.804,67.358c-5.499-1.381-11.14-2.079-16.829-2.079c-38.155,0-69.196,31.042-69.196,69.196
	c0,38.155,31.041,69.196,69.196,69.196c19.456,0,37.702-8.095,50.687-22.096c9.355,11.973,27.917,34.318,52.568,57.047
	c46.664,43.029,91.447,66.096,133.197,68.625c13.606,19.586,26.699,27.524,27.283,27.87c1.305,0.776,2.796,1.188,4.316,1.188h32.017
	c2.336,0,4.568-0.968,6.163-2.675c30.335-32.448,49.553-67.17,57.123-103.204C515.12,243.387,512.477,210.957,500.477,179.305z"/>
<path style="fill:#8C4A14;" d="M445.047,381.571c2.336,0,4.568-0.968,6.163-2.675c30.335-32.448,49.553-67.17,57.123-103.204
	c6.788-32.306,4.146-64.736-7.854-96.388c-13.203-34.828-37.949-67.603-69.68-92.29c-30.63-23.831-65.5-38.657-98.185-41.749
	c-20.111-1.903-39.233-0.198-57.083,3.886c9.197,1.349,18.901,2.73,29.148,4.146c1.543,0.102,3.092,0.219,4.647,0.367
	C421.732,64.298,552.94,231.916,413.032,381.571L445.047,381.571L445.047,381.571z"/>
<path d="M142.389,197.012c-5.462,0-9.905-4.435-9.905-9.887c0-5.452,4.443-9.887,9.905-9.887c5.462,0,9.906,4.435,9.906,9.887
	C152.293,192.576,147.85,197.012,142.389,197.012z"/>
<g>
</g>
<g>
</g>
<g>
</g>
<g>
</g>
<g>
</g>
<g>
</g>
<g>
</g>
<g>
</g>
<g>
</g>
<g>
</g>
<g>
</g>
<g>
</g>
<g>
</g>
<g>
</g>
<g>
</g>
</svg>
