<?xml version="1.0" encoding="iso-8859-1"?>
<!-- Generator: Adobe Illustrator 19.0.0, SVG Export Plug-In . SVG Version: 6.00 Build 0)  -->
<svg version="1.1" id="Layer_1" xmlns="http://www.w3.org/2000/svg" xmlns:xlink="http://www.w3.org/1999/xlink" x="0px" y="0px"
	 viewBox="0 0 512 512" style="enable-background:new 0 0 512 512;" xml:space="preserve">
<path style="fill:#BC9268;" d="M132.987,305.071c-1.352-3.037-4.365-4.993-7.69-4.993c-18.363,0-38.367-7.035-59.455-20.909
	c-3.49-2.296-8.137-1.686-10.915,1.438c-35.675,40.11-46.898,67.48-50.031,83.377c-0.416,2.113-0.007,4.305,1.144,6.125
	c0.716,1.132,16.562,25.678,43.035,25.678c2.235,0,4.551-0.175,6.935-0.554c1.902-0.304,3.644-1.249,4.933-2.681l70.609-78.425
	C133.777,311.656,134.339,308.108,132.987,305.071z"/>
<path style="fill:#EFBE89;" d="M160.628,233.917l-42.914-37.247c-0.038-0.033-0.075-0.065-0.114-0.098
	c-0.511-0.428-12.687-10.571-28.942-19.803c-22.918-13.016-42.153-17.616-57.176-13.677c-37.468,9.832-31.205,74.143-30.92,76.876
	c0.167,1.603,0.791,3.123,1.798,4.382c0.589,0.737,14.695,18.269,36.636,35.991c30.043,24.265,59.08,36.568,86.303,36.568
	c3.345,0,6.373-1.982,7.712-5.047l29.813-68.221C164.297,240.27,163.408,236.33,160.628,233.917z"/>
<path d="M52.236,228.657c-5.24,0-9.503-4.257-9.503-9.49c0-5.233,4.263-9.49,9.503-9.49s9.503,4.257,9.503,9.49
	C61.739,224.401,57.476,228.657,52.236,228.657z"/>
<path style="fill:#FFDCAF;" d="M265.314,337.515c-49.431-20.447-56.524-65.039-56.813-67.012c-0.361-2.55-1.872-4.795-4.098-6.093
	c-13.197-7.685-28.023-18.024-44.066-30.735c-2.241-1.775-5.231-2.293-7.938-1.371c-2.211,0.752-3.986,2.379-4.94,4.462
	c-2.397,5.151-54.033,116.4-61.373,156.136c-0.535,2.9,0.486,5.868,2.692,7.826c0.846,0.751,17.886,15.525,45.848,15.524
	c5.563,0,11.561-0.585,17.948-1.982c2.817-0.617,5.122-2.632,6.109-5.342l22.396-61.465l80.367,6.218
	c4.132,0.342,7.872-2.408,8.835-6.434C271.245,343.224,269.139,339.097,265.314,337.515z"/>
<path style="fill:#EFBE89;" d="M261.448,353.684c4.132,0.342,7.872-2.408,8.835-6.434c0.962-4.025-1.145-8.153-4.969-9.735
	c-49.431-20.447-56.524-65.039-56.813-67.012c-0.361-2.55-1.872-4.795-4.098-6.093c-11.837-6.893-24.992-15.937-39.151-26.895
	c0.244,3.577,0.54,7.327,0.899,11.274c3.786,24.838,14.179,61.867,42.717,78.015l-46.771-5.28l-34.886,84.524
	c-1.216,2.664-2.605,5.911-4.043,9.352c3.582,0.534,7.402,0.852,11.46,0.852c5.563,0,11.561-0.585,17.948-1.982
	c2.817-0.617,5.122-2.632,6.109-5.342l22.396-61.465L261.448,353.684z"/>
<path style="fill:#FF9F34;" d="M439.352,332.867l-35.531-38.429c-1.865-2.017-4.597-2.995-7.317-2.626
	c-62.972,8.59-132.757-6.311-159.836-13.116v0.001c-9.021-2.268-19.875-7.075-32.265-14.288c-2.783-1.622-6.247-1.511-8.922,0.283
	c-2.675,1.794-4.092,4.957-3.651,8.146c0.125,0.894,3.225,22.152,19.651,44.021c15.047,20.031,44.57,44.492,99.773,47.281
	c10.385,0.525,19.958,0.762,28.782,0.762c77.442-0.001,97.096-18.25,99.265-20.551C442.332,341.13,442.353,336.113,439.352,332.867z
	"/>
<path style="fill:#C66D1C;" d="M439.301,344.349c3.031-3.22,3.052-8.236,0.052-11.483l-35.531-38.429
	c-1.865-2.017-4.597-2.995-7.317-2.626c-8.381,1.144-16.883,1.86-25.388,2.244c1.735,2.574,3.616,5.271,5.683,8.122l41.39,53.213
	C432.829,350.57,438.224,345.493,439.301,344.349z"/>
<path style="fill:#FFDCAF;" d="M511.36,370.181L472.2,275.53c-0.931-2.251-2.791-3.987-5.101-4.762s-4.84-0.509-6.941,0.723
	c-17.028,10.004-38.295,16.822-63.213,20.266c-3.274,0.452-5.978,2.779-6.917,5.946c-0.938,3.168,0.063,6.593,2.561,8.756
	c0.131,0.114,13.355,11.62,27.124,28.509c17.806,21.838,28.235,42.465,30.162,59.651c0.419,3.735,3.262,6.74,6.968,7.363
	c3.378,0.568,7.421,0.938,11.767,0.938c17.153,0,39.016-5.773,43.241-27.945C512.158,373.363,511.988,371.696,511.36,370.181z"/>
<path style="fill:#EFBE89;" d="M472.2,275.53c-0.931-2.251-2.791-3.987-5.101-4.762c-2.31-0.774-4.84-0.509-6.941,0.723
	c-5.511,3.238-11.473,6.136-17.852,8.701l38.832,93.208c-2.443,12.82-12.76,18.038-22.936,19.986
	c0.006,0.049-4.135,0.611-8.334,1.178c0.002,0.018,0.006,0.037,0.008,0.055c0.419,3.735,3.262,6.74,6.968,7.363
	c3.378,0.568,7.421,0.938,11.767,0.938c17.153,0,39.016-5.773,43.241-27.945c0.306-1.612,0.137-3.278-0.492-4.793L472.2,275.53z"/>
<path style="fill:#33251B;" d="M472.247,275.646c-1.351-3.41-33.33-83.825-52.982-110.111
	c-40.096-53.633-85.723-67.379-116.939-69.466c-60.43-4.034-126.43,29.961-196.139,101.066c-1.569,1.601-2.435,3.761-2.406,6.002
	c0.029,2.241,0.951,4.378,2.56,5.937c3.087,2.991,76.179,73.377,126.225,85.952c20.94,5.261,62.935,14.332,108.926,15.968
	c4.856,0.173,9.622,0.258,14.306,0.258c46.412,0,84.343-8.474,112.889-25.245C472.265,283.901,473.777,279.504,472.247,275.646z"/>
<g>
	<path style="fill:#614B35;" d="M382.902,127.822c-29.363-22.986-58.555-30.282-80.575-31.755
		c-33.749-2.253-69.237,7.369-106.137,28.679l58.908,27.282l38.628-19.957l47.134,16.741l0,0l33.766-16.74L382.902,127.822z"/>
	<path style="fill:#614B35;" d="M472.247,275.646c-0.107-0.269-10.803-27.202-23.401-54.818c-1.36-2.983-4.331-4.904-7.61-4.923
		c-0.016,0-0.031,0-0.047,0c-3.26,0-6.229,1.884-7.618,4.838l-8.765,18.653l-31.732,7.128l-19.428-13.211
		c-3.013-2.049-7.007-1.925-9.89,0.309l-14.058,10.899l6.668,66.713c46.163-0.08,83.937-8.556,112.319-25.23
		C472.265,283.901,473.777,279.504,472.247,275.646z"/>
</g>
<path style="fill:#33251B;" d="M448.846,220.828c-1.36-2.983-4.331-4.904-7.61-4.923c-0.016,0-0.031,0-0.047,0
	c-3.26,0-6.229,1.884-7.618,4.838l-8.651,18.412l3.634,8.025c5.483,12.536,13.892,35.193,19.212,48.939
	c7.447-2.95,14.441-6.308,20.922-10.115c3.579-2.103,5.09-6.5,3.561-10.358C472.141,275.376,461.445,248.443,448.846,220.828z"/>
<path style="fill:#B79274;" d="M376.962,237.806l-28.056-91.462c-0.781-2.546-2.72-4.572-5.23-5.463l-47.134-16.741
	c-2.193-0.778-4.611-0.616-6.681,0.453l-38.628,19.957c-3.343,1.727-5.134,5.463-4.386,9.151l17.662,87.068
	c0.511,2.517,2.143,4.664,4.434,5.829l32.329,16.44c1.182,0.6,2.489,0.913,3.814,0.913h44.141c1.867,0,3.681-0.621,5.157-1.764
	l19.686-15.262C376.837,244.781,377.987,241.15,376.962,237.806z"/>
<path style="fill:#A86B38;" d="M369.24,250.673l17.387,11.824c1.407,0.956,3.059,1.457,4.732,1.457c0.616,0,1.234-0.068,1.845-0.205
	l39.313-8.832c2.536-0.57,4.667-2.279,5.773-4.633l10.518-22.383c1.052-2.237,1.066-4.823,0.04-7.072
	c-12.211-26.768-22.163-45.371-29.582-55.295c-4.484-5.997-18.13-24.247-39.615-40.219c-2.562-1.904-5.969-2.187-8.798-0.766
	l-30.208,14.976L369.24,250.673z"/>
<path style="fill:#614B35;" d="M201.314,218.453l-33.172-34.269c-1.725-1.783-4.151-2.711-6.626-2.544
	c-0.212,0.015-0.42,0.048-0.628,0.079l-29.194,50.075c0.239,0.261,0.489,0.514,0.762,0.746
	c28.362,24.156,68.754,54.605,100.109,62.484c0.206,0.052,0.416,0.081,0.624,0.116l7.702-57.278L201.314,218.453z"/>
<path style="fill:#A86B38;" d="M239.808,255.122c0.633,0,1.268-0.071,1.894-0.215l29.969-6.921l-16.877-105.283l-47.008-20.64
	c-0.085-0.038-0.175-0.061-0.261-0.095l-3.537-1.548c-14.655,7.85-29.539,17.562-44.632,29.137l-0.265,1.73
	c-0.246,0.624-0.426,1.278-0.518,1.955l-4.818,35.669c-0.346,2.555,0.501,5.127,2.294,6.98l34.194,35.325
	c0.677,0.699,1.469,1.276,2.341,1.704l43.519,21.343C237.263,254.831,238.531,255.122,239.808,255.122z"/>
<path style="fill:#33251B;" d="M277.033,96.59c24.246,2.669,55.652,12.613,86.241,41.109l11.349-5.627l8.278-4.25
	c-11.912-9.326-23.797-16.067-35.185-20.887c-0.025-0.011-0.051-0.021-0.075-0.033c-2.611-1.103-5.196-2.105-7.75-3.014
	c-0.013-0.004-0.026-0.009-0.039-0.015c-0.783-0.278-1.563-0.547-2.342-0.808c-0.194-0.065-0.387-0.128-0.581-0.193
	c-2.241-0.743-4.455-1.414-6.639-2.021c-0.338-0.094-0.676-0.187-1.011-0.277c-0.618-0.167-1.236-0.331-1.849-0.488
	c-0.405-0.103-0.806-0.2-1.209-0.299c-0.93-0.229-1.854-0.446-2.772-0.652c-0.48-0.108-0.961-0.215-1.438-0.316
	c-0.489-0.104-0.976-0.205-1.461-0.304c-0.571-0.116-1.138-0.226-1.704-0.332c-0.438-0.083-0.876-0.167-1.311-0.246
	c-0.821-0.147-1.636-0.285-2.444-0.415c-0.367-0.059-0.731-0.114-1.094-0.169c-0.64-0.098-1.276-0.191-1.907-0.278
	c-0.304-0.043-0.611-0.086-0.914-0.127c-0.893-0.118-1.78-0.227-2.655-0.325c-0.226-0.025-0.448-0.047-0.672-0.071
	c-0.715-0.077-1.425-0.148-2.128-0.212c-0.256-0.024-0.512-0.047-0.765-0.07c-0.887-0.076-1.765-0.147-2.631-0.204
	C294.001,95.512,285.566,95.705,277.033,96.59z"/>
<path style="fill:#8C4A14;" d="M438.557,199.13c-0.468-0.943-0.936-1.879-1.404-2.808c-0.159-0.315-0.319-0.634-0.477-0.946
	c-3.525-6.962-7.027-13.472-10.357-19.075c-0.148-0.249-0.296-0.498-0.443-0.743c-0.329-0.547-0.654-1.084-0.98-1.613
	c-0.313-0.508-0.624-1.01-0.929-1.496c-0.195-0.309-0.388-0.611-0.581-0.912c-0.322-0.503-0.642-0.995-0.957-1.472
	c-0.113-0.172-0.228-0.35-0.341-0.518c-0.415-0.621-0.821-1.213-1.222-1.789c-0.119-0.171-0.238-0.339-0.356-0.506
	c-0.413-0.585-0.823-1.153-1.221-1.687c-0.008-0.01-0.016-0.022-0.024-0.033c-12.497-16.717-25.532-29.555-38.5-39.377
	c-0.072-0.055-0.145-0.109-0.217-0.164c-0.368-0.278-0.736-0.538-1.104-0.81c-2.537-1.774-5.837-2.019-8.592-0.634l-14.38,7.13
	c10.675,8.985,21.324,20.1,31.608,33.857c10.961,14.661,29.298,55.617,43.609,89.569l0.83-0.186c2.536-0.57,4.667-2.279,5.773-4.633
	l10.518-22.383c1.052-2.237,1.066-4.823,0.04-7.072c-2.978-6.529-5.821-12.566-8.527-18.116c-0.105-0.215-0.211-0.433-0.315-0.649
	C439.516,201.066,439.036,200.096,438.557,199.13z"/>
<g>
</g>
<g>
</g>
<g>
</g>
<g>
</g>
<g>
</g>
<g>
</g>
<g>
</g>
<g>
</g>
<g>
</g>
<g>
</g>
<g>
</g>
<g>
</g>
<g>
</g>
<g>
</g>
<g>
</g>
</svg>
