<?xml version="1.0" encoding="iso-8859-1"?>
<!-- Generator: Adobe Illustrator 19.0.0, SVG Export Plug-In . SVG Version: 6.00 Build 0)  -->
<svg version="1.1" id="Layer_1" xmlns="http://www.w3.org/2000/svg" xmlns:xlink="http://www.w3.org/1999/xlink" x="0px" y="0px"
	 viewBox="0 0 512 512" style="enable-background:new 0 0 512 512;" xml:space="preserve">
<path style="fill:#A86B38;" d="M438.922,173.364c-14.817-9.007-30.214-17.035-45.759-23.862c-2.596-1.14-5.592-0.892-7.965,0.657
	c-2.374,1.55-3.805,4.194-3.805,7.03v338.108c0,4.636,3.759,8.395,8.395,8.395h44.774c4.636,0,8.395-3.759,8.395-8.395V180.538
	C442.957,177.605,441.428,174.886,438.922,173.364z"/>
<path style="fill:#8C4A14;" d="M438.922,173.364c-8.742-5.315-17.69-10.278-26.748-14.865v345.193h22.387
	c4.636,0,8.395-3.759,8.395-8.395V180.538C442.957,177.605,441.428,174.886,438.922,173.364z"/>
<path style="fill:#A86B38;" d="M125.804,146.832c-2.334-1.557-5.289-1.846-7.881-0.771c-15.416,6.402-30.818,14.06-45.776,22.762
	c-2.585,1.503-4.173,4.268-4.173,7.257v319.216c0,4.636,3.759,8.395,8.395,8.395h44.774c4.636,0,8.395-3.759,8.395-8.395V153.814
	C129.538,151.009,128.137,148.389,125.804,146.832z"/>
<path style="fill:#8C4A14;" d="M125.804,146.832c-2.334-1.557-5.289-1.846-7.881-0.771c-6.403,2.658-12.801,5.546-19.168,8.623
	v349.008h22.387c4.636,0,8.395-3.759,8.395-8.395V153.814C129.538,151.009,128.137,148.389,125.804,146.832z"/>
<path style="fill:#B99C80;" d="M508.516,94.682C430.165,38.176,341.383,8.309,251.765,8.309c-43.895,0-87.579,7.047-129.837,20.946
	C80.951,42.733,41.149,62.702,3.627,88.605c-3.273,2.259-4.512,6.506-2.966,10.17l41.156,97.589c0.982,2.328,2.96,4.09,5.385,4.798
	c2.426,0.707,5.042,0.284,7.119-1.151c61.539-42.483,127.968-64.024,197.443-64.024c71.19,0,141.859,23.829,204.369,68.911
	c1.445,1.042,3.167,1.586,4.912,1.586c0.737,0,1.476-0.096,2.202-0.294c2.445-0.665,4.458-2.398,5.48-4.716l42.559-96.598
	C512.884,101.25,511.729,97,508.516,94.682z"/>
<path style="fill:#A38166;" d="M508.516,94.682c-6.303-4.546-12.68-8.9-19.113-13.099l-48.689,112.75
	c5.189,3.385,10.335,6.897,15.42,10.566c1.445,1.042,3.167,1.586,4.912,1.586c0.737,0,1.476-0.096,2.202-0.294
	c2.445-0.665,4.458-2.398,5.48-4.716l42.559-96.598C512.884,101.25,511.729,97,508.516,94.682z"/>
<g>
	<path style="fill:#8C4A14;" d="M159.418,118.839c-2.741,0-5.352-1.345-6.933-3.664c-1.874-2.746-1.951-6.339-0.197-9.162
		l26.838-43.195l-26.932,4.597c-4.576,0.775-8.908-2.292-9.688-6.863c-0.78-4.57,2.292-8.908,6.863-9.688l45.319-7.736
		c3.256-0.554,6.536,0.85,8.379,3.591c1.842,2.741,1.907,6.309,0.163,9.115l-26.653,42.899l27.103-5.01
		c4.561-0.844,8.939,2.17,9.781,6.73c0.843,4.559-2.17,8.938-6.73,9.781l-45.788,8.463
		C160.435,118.792,159.924,118.839,159.418,118.839z"/>
	<path style="fill:#8C4A14;" d="M253.92,107.736c-20.042,0-36.348-16.306-36.348-36.348s16.306-36.348,36.348-36.348
		s36.348,16.306,36.348,36.348C290.267,91.431,273.962,107.736,253.92,107.736z M253.92,51.831
		c-10.784,0-19.557,8.773-19.557,19.557s8.773,19.557,19.557,19.557s19.557-8.773,19.557-19.557S264.704,51.831,253.92,51.831z"/>
	<path style="fill:#8C4A14;" d="M332.761,116.907c-20.042,0-36.348-16.306-36.348-36.348s16.306-36.348,36.348-36.348
		s36.348,16.306,36.348,36.348C369.109,100.601,352.803,116.907,332.761,116.907z M332.761,61.002
		c-10.784,0-19.557,8.773-19.557,19.557s8.773,19.557,19.557,19.557c10.784,0,19.557-8.773,19.557-19.557
		C352.319,69.776,343.545,61.002,332.761,61.002z"/>
</g>
<g>
</g>
<g>
</g>
<g>
</g>
<g>
</g>
<g>
</g>
<g>
</g>
<g>
</g>
<g>
</g>
<g>
</g>
<g>
</g>
<g>
</g>
<g>
</g>
<g>
</g>
<g>
</g>
<g>
</g>
</svg>
