<?xml version="1.0" encoding="iso-8859-1"?>
<!-- Generator: Adobe Illustrator 19.0.0, SVG Export Plug-In . SVG Version: 6.00 Build 0)  -->
<svg xmlns="http://www.w3.org/2000/svg" xmlns:xlink="http://www.w3.org/1999/xlink" version="1.1" id="Layer_1" x="0px" y="0px" viewBox="0 0 504.127 504.127" style="enable-background:new 0 0 504.127 504.127;" xml:space="preserve" width="512" height="512">
<g>
	<g>
		<g>
			<path style="fill:#58B741;" d="M7.492,199.638c34.993-24.236,118.908-13.401,165.395,7.86     c34.558,15.807,59.93,42.632,72.538,72.761c0.421,0.967,0.821,1.939,1.198,2.916c3.297,8.485,5.592,17.203,6.79,25.985     c0.141,1.049,0.275,2.104,0.388,3.149c-34.999,24.228-85.716,28.579-132.203,7.318c-25.858-11.839-56.851-34.535-80.046-59.64     C23.049,239.956,9.52,218.412,7.492,199.638z"/>
			<path style="fill:#70D65B;" d="M7.492,199.638c34.993-24.236,118.908-13.401,165.395,7.86     c34.558,15.807,59.93,42.632,72.538,72.761c0.421,0.967,0.821,1.939,1.198,2.916c3.297,8.485,5.592,17.203,6.79,25.985     C178.641,285.288,29.61,214.858,7.492,199.638z"/>
		</g>
		<g>
			<path style="fill:#58B741;" d="M111.657,45.792c42.48,2.71,101.56,63.28,124.82,108.8c17.29,33.84,20.54,70.62,11.73,102.07     c-0.27,1.02-0.56,2.03-0.87,3.03c-2.68,8.7-6.29,16.96-10.8,24.59c-0.54,0.91-1.09,1.82-1.65,2.71     c-42.48-2.72-84.95-30.78-108.21-76.3c-12.93-25.33-23.15-62.36-25.76-96.44C98.837,87.062,101.597,61.772,111.657,45.792z"/>
			<path style="fill:#70D65B;" d="M111.657,45.792c42.48,2.71,101.56,63.28,124.82,108.8c17.29,33.84,20.54,70.62,11.73,102.07     c-0.27,1.02-0.56,2.03-0.87,3.03c-2.68,8.7-6.29,16.96-10.8,24.59C192.717,219.162,119.557,71.452,111.657,45.792z"/>
		</g>
		<g>
			<path style="fill:#70D65B;" d="M485.245,69.249c-42.48,2.71-101.56,63.28-124.82,108.8c-17.29,33.84-20.54,70.62-11.73,102.07     c0.27,1.02,0.56,2.03,0.87,3.03c2.68,8.7,6.29,16.96,10.8,24.59c0.54,0.91,1.09,1.82,1.65,2.71     c42.48-2.72,84.95-30.78,108.21-76.3c12.93-25.33,23.15-62.36,25.76-96.44C498.065,110.519,495.305,85.229,485.245,69.249z"/>
			<path style="fill:#58B741;" d="M485.245,69.249c-42.48,2.71-101.56,63.28-124.82,108.8c-17.29,33.84-20.54,70.62-11.73,102.07     c0.27,1.02,0.56,2.03,0.87,3.03c2.68,8.7,6.29,16.96,10.8,24.59C404.185,242.619,477.345,94.909,485.245,69.249z"/>
		</g>
		<g>
			<path style="fill:#463068;" d="M371.301,240.579c0,35.75-23.4,66.02-55.71,76.35c-7.7,2.47-15.91,3.8-24.43,3.8     c-44.27,0-80.15-35.88-80.15-80.15c0-44.26,35.88-80.14,80.15-80.14c8.52,0,16.73,1.33,24.43,3.8     C347.901,174.569,371.301,204.839,371.301,240.579z"/>
			<path style="fill:#654B87;" d="M371.301,240.579c0,35.75-23.4,66.02-55.71,76.35c-32.31-10.33-55.71-40.6-55.71-76.35     c0-35.74,23.4-66.01,55.71-76.34C347.901,174.569,371.301,204.839,371.301,240.579z"/>
		</g>
		<g>
			<path style="fill:#463068;" d="M464.615,291.269c0,35.75-23.4,66.02-55.71,76.35c-7.7,2.47-15.91,3.8-24.43,3.8     c-44.27,0-80.15-35.88-80.15-80.15c0-44.26,35.88-80.14,80.15-80.14c8.52,0,16.73,1.33,24.43,3.8     C441.215,225.259,464.615,255.529,464.615,291.269z"/>
			<path style="fill:#654B87;" d="M464.615,291.269c0,35.75-23.4,66.02-55.71,76.35c-32.31-10.33-55.71-40.6-55.71-76.35     c0-35.74,23.4-66.01,55.71-76.34C441.215,225.259,464.615,255.529,464.615,291.269z"/>
		</g>
		<g>
			<path style="fill:#463068;" d="M256.781,331.814c0,35.75-23.4,66.02-55.71,76.35c-7.7,2.47-15.91,3.8-24.43,3.8     c-44.27,0-80.15-35.88-80.15-80.15c0-44.26,35.88-80.14,80.15-80.14c8.52,0,16.73,1.33,24.43,3.8     C233.381,265.804,256.781,296.074,256.781,331.814z"/>
			<path style="fill:#654B87;" d="M256.781,331.814c0,35.75-23.4,66.02-55.71,76.35c-32.31-10.33-55.71-40.6-55.71-76.35     c0-35.74,23.4-66.01,55.71-76.34C233.381,265.804,256.781,296.074,256.781,331.814z"/>
		</g>
		<g>
			<path style="fill:#463068;" d="M401.421,378.184c0,35.75-23.4,66.02-55.71,76.35c-7.7,2.47-15.91,3.8-24.43,3.8     c-44.27,0-80.15-35.88-80.15-80.15c0-44.26,35.88-80.14,80.15-80.14c8.52,0,16.73,1.33,24.43,3.8     C378.02,312.175,401.421,342.445,401.421,378.184z"/>
			<path style="fill:#654B87;" d="M401.421,378.184c0,35.75-23.4,66.02-55.71,76.35c-32.31-10.33-55.71-40.6-55.71-76.35     c0-35.74,23.4-66.01,55.71-76.34C378.02,312.175,401.421,342.445,401.421,378.184z"/>
		</g>
		<g>
			<circle style="fill:#3F3730;" cx="138.084" cy="331.494" r="14.661"/>
		</g>
		<g>
			<circle style="fill:#3F3730;" cx="362.554" cy="393.72" r="14.661"/>
		</g>
		<g>
			<circle style="fill:#3F3730;" cx="428.038" cy="282.951" r="14.661"/>
		</g>
	</g>
	<g>
		<path d="M117.2,245.874c-17.78-8.955-34.554-18.061-49.854-27.063c-3.571-2.101-8.168-0.91-10.268,2.661    c-2.101,3.57-0.909,8.167,2.66,10.267c15.581,9.167,32.644,18.431,50.714,27.532c1.083,0.545,2.233,0.803,3.368,0.803    c2.743,0,5.386-1.511,6.704-4.128C122.388,252.246,120.9,247.737,117.2,245.874z"/>
		<path d="M146.695,97.968c-1.496-3.862-5.838-5.779-9.703-4.285c-3.862,1.496-5.781,5.84-4.285,9.703    c13.086,33.785,30.159,70.576,50.745,109.351c1.347,2.538,3.944,3.984,6.631,3.984c1.186,0,2.39-0.282,3.51-0.877    c3.659-1.942,5.05-6.483,3.107-10.142C176.392,167.45,159.568,131.203,146.695,97.968z"/>
		<path d="M426.683,201.126c2.782,0,5.455-1.555,6.752-4.225c11.882-24.467,22.23-48.038,30.76-70.058    c1.496-3.862-0.423-8.206-4.285-9.702c-3.863-1.498-8.207,0.423-9.703,4.285c-8.38,21.637-18.563,44.826-30.264,68.923    c-1.81,3.726-0.256,8.213,3.47,10.023C424.468,200.883,425.584,201.126,426.683,201.126z"/>
		<path d="M491.584,65.254c-1.464-2.322-4.064-3.656-6.821-3.484c-13.545,0.864-42.201,8.21-81.937,47.699    c-2.938,2.92-2.952,7.668-0.032,10.606c2.92,2.938,7.669,2.952,10.606,0.033c24.461-24.309,48.815-39.651,67.738-42.831    c6.691,13.556,9.301,34.54,7.363,59.854c-2.487,32.475-12.051,68.34-24.96,93.601c-1.997,3.909-4.177,7.728-6.51,11.435    c-15.777-23.242-42.415-38.543-72.561-38.543c-4.54,0-9.001,0.347-13.357,1.016c-2.283-5.069-5.027-9.854-8.166-14.317    c1.292-3.001,2.678-5.97,4.151-8.857c6.78-13.27,16.665-27.811,28.588-42.052c2.659-3.176,2.239-7.906-0.937-10.565    c-3.177-2.66-7.906-2.24-10.565,0.936c-12.633,15.089-23.16,30.601-30.445,44.861c-0.524,1.027-1.035,2.064-1.539,3.106    c-16.051-15.54-37.821-24.818-61.04-24.818c-15.307,0-29.708,3.949-42.244,10.876c-1.736-4.262-3.644-8.489-5.757-12.629    C220.113,106.07,159.119,41.307,112.138,38.31c-2.739-0.177-5.361,1.164-6.824,3.489c-12.866,20.438-13.558,50.988-11.872,73.018    c1.68,21.931,6.444,45.374,13.25,66.465c-44.526-6.617-82.609-2.248-103.46,12.185c-2.259,1.564-3.482,4.238-3.188,6.969    c2.583,24.006,21.001,48.4,36,64.639c15.831,17.125,35.331,33.416,55.365,46.319c-1.57,6.555-2.407,13.391-2.407,20.42    c0,17.564,5.177,34.512,14.972,49.013c1.449,2.146,3.813,3.303,6.222,3.303c1.444,0,2.904-0.417,4.191-1.286    c3.433-2.318,4.335-6.98,2.017-10.413C108.288,360.42,104,346.375,104,331.815c0-40.054,32.587-72.64,72.641-72.64    c19.215,0,37.331,7.429,51.01,20.919c13.114,12.933,20.695,30.016,21.532,48.315c-9.561,13.805-15.262,30.472-15.534,48.435    c-13.733,17.337-34.861,27.621-57.007,27.621c-15.073,0-29.526-4.572-41.798-13.223c-3.387-2.387-8.064-1.577-10.451,1.809    c-2.387,3.385-1.577,8.064,1.809,10.451c14.813,10.443,32.256,15.963,50.44,15.963c21.886,0,42.944-8.326,58.95-22.829    c8.496,39.499,43.685,69.197,85.685,69.197c48.327,0,87.645-39.317,87.645-87.645c0-0.918-0.019-1.832-0.047-2.743    c37.005-10.717,63.238-45.113,63.238-84.181c0-12.139-2.482-23.709-6.964-34.231c4.348-6.179,8.295-12.709,11.753-19.476    c13.753-26.913,23.93-64.955,26.56-99.281C505.146,116.23,504.455,85.665,491.584,65.254z M96.351,296.702    c-17.741-11.827-35.357-26.734-49.291-41.806c-17.221-18.645-28.193-36.721-31.363-51.514    c19.822-10.889,55.973-13.16,96.788-5.967c2.355,5.901,4.869,11.499,7.517,16.681c6.791,13.295,15.211,25.339,25.103,35.952    C123.312,258.481,105.709,275.386,96.351,296.702z M161.643,245.464c-11.382-10.884-20.889-23.713-28.283-38.192    c-12.909-25.259-22.474-61.125-24.961-93.6c-1.937-25.298,0.675-46.284,7.368-59.857c16.996,2.837,38.229,15.393,60.431,35.839    c22.096,20.348,42.135,45.9,53.604,68.35c2.399,4.701,4.54,9.515,6.394,14.367c-19.913,16.081-32.674,40.683-32.674,68.213    c0,2.649,0.124,5.29,0.359,7.916c-8.687-2.831-17.85-4.326-27.239-4.326C171.528,244.174,166.518,244.619,161.643,245.464z     M220.102,255.695c-1.044-4.938-1.581-10.005-1.581-15.11c0-40.059,32.586-72.65,72.64-72.65    c27.706,0,52.931,15.926,65.087,40.353c-34.526,11.772-59.427,44.521-59.427,82.977c0,0.911,0.019,1.826,0.047,2.742    c-13,3.775-24.765,10.483-34.523,19.363c-3.533-16.579-11.824-31.79-24.161-43.956    C232.701,264.007,226.618,259.427,220.102,255.695z M321.276,450.833c-40.057,0-72.645-32.588-72.645-72.645    c0-40.056,32.588-72.645,72.645-72.645s72.645,32.588,72.645,72.645C393.92,418.245,361.332,450.833,321.276,450.833z     M407.083,360.302c-8.281-39.779-43.608-69.759-85.807-69.759c-3.193,0-6.344,0.176-9.45,0.511    c0.114-39.957,32.656-72.43,72.645-72.43c40.054,0,72.64,32.586,72.64,72.64C457.111,322.806,436.487,350.669,407.083,360.302z"/>
		<path d="M160.244,331.494c0-12.219-9.941-22.161-22.16-22.161s-22.16,9.941-22.16,22.161s9.941,22.16,22.16,22.16    S160.244,343.713,160.244,331.494z M130.924,331.494c0-3.948,3.212-7.161,7.16-7.161s7.16,3.212,7.16,7.161s-3.212,7.16-7.16,7.16    S130.924,335.442,130.924,331.494z"/>
		<path d="M340.394,393.72c0,12.219,9.941,22.161,22.16,22.161c12.22,0,22.161-9.941,22.161-22.161s-9.941-22.161-22.161-22.161    C350.335,371.559,340.394,381.501,340.394,393.72z M369.715,393.72c0,3.948-3.213,7.161-7.161,7.161s-7.16-3.212-7.16-7.161    s3.212-7.161,7.16-7.161S369.715,389.772,369.715,393.72z"/>
		<path d="M405.878,282.951c0,12.219,9.941,22.161,22.16,22.161s22.16-9.941,22.16-22.161s-9.941-22.161-22.16-22.161    S405.878,270.732,405.878,282.951z M435.198,282.951c0,3.948-3.212,7.161-7.16,7.161s-7.16-3.212-7.16-7.161    s3.212-7.161,7.16-7.161S435.198,279.003,435.198,282.951z"/>
	</g>
</g>















</svg>
