<?xml version="1.0" encoding="iso-8859-1"?>
<!-- Generator: Adobe Illustrator 19.0.0, SVG Export Plug-In . SVG Version: 6.00 Build 0)  -->
<svg xmlns="http://www.w3.org/2000/svg" xmlns:xlink="http://www.w3.org/1999/xlink" version="1.1" id="Layer_1" x="0px" y="0px" viewBox="0 0 505 505" style="enable-background:new 0 0 505 505;" xml:space="preserve" width="512" height="512">
<g>
	<g>
		<path style="fill:#58B741;" d="M234.377,343.997v31.982c0,10.015,8.109,18.134,18.124,18.134s18.124-8.119,18.124-18.134v-31.982    l37.786-81.629l36.423,79.607C297.653,370.532,296.295,497.5,296.295,497.5h-87.754c0,0-1.358-126.968-48.539-155.525    l51.98-104.367L234.377,343.997z"/>
		<path style="fill:#70D65B;" d="M430.501,273.559c1.46,5.15,2.26,10.58,2.26,16.2c0,32.82-26.6,59.42-59.42,59.42    c-24.06,0-44.77-14.32-54.11-34.9c-15.81,19.31-39.83,31.63-66.73,31.63c-22.99,0-43.87-9-59.33-23.68    c-2.63-2.48-5.1-5.14-7.4-7.95c-9.34,20.58-30.05,34.9-54.12,34.9c-32.81,0-59.41-26.6-59.41-59.42c0-5.62,0.8-11.05,2.25-16.2    c-31.75-15.57-53.61-48.2-53.61-85.95c0-52.84,42.83-95.67,95.66-95.67c14.41,0,28.07,3.19,40.32,8.89    c1.24-51.75,43.58-93.33,95.64-93.33c6.84,0,13.51,0.72,19.94,2.09c0.02,0,0.04,0.01,0.06,0.01c42.5,9.03,74.56,46.3,75.64,91.23    c12.25-5.7,25.91-8.89,40.31-8.89c52.84,0,95.67,42.83,95.67,95.67C484.121,225.359,462.261,257.989,430.501,273.559z"/>
		<path style="fill:#58B741;" d="M272.441,9.589c-53.95-10.39-87.79,79.48-53.92,128.98c0,0-86.01-6.091-86.01,51.249    s50.82,67.341,50.82,67.341s-33.1,31.31,2.44,57.12c-9.34,20.58-30.05,34.9-54.12,34.9c-32.81,0-59.41-26.6-59.41-59.42    c0-5.62,0.8-11.05,2.25-16.2c-31.75-15.57-53.61-48.2-53.61-85.95c0-52.84,42.83-95.67,95.66-95.67c14.41,0,28.07,3.19,40.32,8.89    c1.24-51.75,43.58-93.33,95.64-93.33C259.341,7.499,266.011,8.219,272.441,9.589z"/>
	</g>
	<path d="M456.255,109.846c-3.118-2.723-7.856-2.401-10.582,0.72c-2.723,3.121-2.4,7.859,0.721,10.583   c19.211,16.763,30.229,40.986,30.229,66.459c0,33.92-18.937,64.273-49.419,79.215c-3.255,1.595-4.903,5.29-3.916,8.777   c1.31,4.625,1.974,9.39,1.974,14.162c0,28.626-23.289,51.916-51.916,51.916c-20.317,0-38.879-11.97-47.287-30.495   c-1.071-2.361-3.286-4.001-5.856-4.337c-2.568-0.335-5.133,0.679-6.775,2.685c-15.032,18.356-37.239,28.884-60.926,28.884   c-23.688,0-45.895-10.528-60.926-28.884c-1.643-2.006-4.208-3.02-6.775-2.685c-2.57,0.336-4.785,1.976-5.856,4.337   c-8.408,18.525-26.97,30.495-47.288,30.495c-28.626,0-51.915-23.289-51.915-51.916c0-4.771,0.664-9.537,1.973-14.164   c0.986-3.487-0.661-7.181-3.916-8.776c-30.482-14.942-49.419-45.295-49.419-79.215c0-48.616,39.553-88.168,88.169-88.168   c12.973,0,25.472,2.756,37.149,8.191c2.293,1.066,4.971,0.907,7.121-0.428c2.149-1.334,3.481-3.663,3.542-6.192   c0.554-23.094,9.969-44.719,26.51-60.891C207.437,23.921,229.325,15,252.5,15s45.063,8.921,61.631,25.12   c16.541,16.172,25.956,37.797,26.51,60.891c0.061,2.529,1.393,4.857,3.542,6.192c2.149,1.335,4.829,1.495,7.12,0.428   c11.68-5.436,24.18-8.191,37.151-8.191c11.906,0,23.452,2.33,34.316,6.925c3.815,1.615,8.216-0.17,9.829-3.985   c1.614-3.815-0.171-8.216-3.985-9.83c-12.724-5.381-26.235-8.11-40.16-8.11c-11.583,0-22.847,1.88-33.612,5.601   c-2.91-22.991-13.427-44.223-30.225-60.646C305.231,10.439,279.619,0,252.5,0s-52.73,10.439-72.117,29.394   c-16.798,16.423-27.314,37.655-30.225,60.646c-10.766-3.72-22.03-5.601-33.612-5.601c-56.888,0-103.169,46.281-103.169,103.168   c0,19.67,5.559,38.8,16.075,55.321c9.15,14.376,21.665,26.23,36.426,34.563c-0.757,4.05-1.139,8.158-1.139,12.271   c0,36.897,30.018,66.916,66.915,66.916c9.741,0,19.167-2.137,27.725-6.046c13.709,10.471,24.8,33.198,32.211,66.159   c0.784,3.487,3.88,5.856,7.311,5.856c0.545,0,1.099-0.06,1.652-0.184c4.041-0.909,6.58-4.921,5.672-8.963   c-7.553-33.59-18.75-57.417-33.352-71.072c5.532-4.325,10.407-9.523,14.385-15.456c11.191,10.874,24.799,18.673,39.618,22.873   v26.136c0,14.135,11.495,25.634,25.624,25.634s25.624-11.5,25.624-25.634v-26.135c14.818-4.199,28.426-11.998,39.618-22.873   c3.957,5.899,8.8,11.073,14.294,15.385c-16.857,15.681-29.132,44.784-36.551,86.786c-4.542,25.719-6.007,49.304-6.475,60.858   h-73.188c-0.376-9.232-1.391-26.163-4.105-45.771c-0.567-4.104-4.352-6.965-8.457-6.401c-4.104,0.568-6.969,4.354-6.4,8.458   c3.883,28.054,4.179,51.067,4.181,51.296c0.046,4.11,3.391,7.418,7.5,7.418h87.754c4.111,0,7.456-3.309,7.5-7.42   c0.353-33.109,8.617-121.871,41.712-147c8.587,3.942,18.053,6.097,27.838,6.097c36.897,0,66.916-30.018,66.916-66.916   c0-4.114-0.382-8.221-1.139-12.271c14.761-8.333,27.275-20.186,36.426-34.562c10.516-16.521,16.074-35.651,16.074-55.321   C491.623,157.801,478.732,129.458,456.255,109.846z M263.125,375.979c0,5.864-4.766,10.634-10.624,10.634   s-10.624-4.771-10.624-10.634v-23.187c3.505,0.396,7.048,0.622,10.624,0.622s7.119-0.225,10.624-0.622V375.979z"/>
</g>















</svg>
