<?xml version="1.0" encoding="iso-8859-1"?>
<!-- Generator: Adobe Illustrator 19.0.0, SVG Export Plug-In . SVG Version: 6.00 Build 0)  -->
<svg xmlns="http://www.w3.org/2000/svg" xmlns:xlink="http://www.w3.org/1999/xlink" version="1.1" id="Layer_1" x="0px" y="0px" viewBox="0 0 504.995 504.995" style="enable-background:new 0 0 504.995 504.995;" xml:space="preserve" width="512" height="512">
<g>
	<g>
		<path style="fill:#70D65B;" d="M480.63,248.694c-42.48-2.71-101.56-63.28-124.82-108.8c-17.29-33.84-20.54-70.62-11.73-102.07    c0.27-1.02,0.56-2.03,0.87-3.03c2.68-8.7,6.29-16.96,10.8-24.59c0.54-0.91,1.09-1.82,1.65-2.71    c42.48,2.72,84.95,30.78,108.21,76.3c12.93,25.33,23.15,62.36,25.76,96.44C493.451,207.424,490.691,232.714,480.63,248.694z"/>
		<path style="fill:#58B741;" d="M480.63,248.694c-42.48-2.71-101.56-63.28-124.82-108.8c-17.29-33.84-20.54-70.62-11.73-102.07    c0.27-1.02,0.56-2.03,0.87-3.03c2.68-8.7,6.29-16.96,10.8-24.59C399.571,75.324,472.731,223.034,480.63,248.694z"/>
		<path style="fill:#FF3B6A;" d="M147.995,497.495c74.568,0,135.018-60.449,135.018-135.018s-60.449-141.677-135.018-99.503    c-74.568-42.174-135.018,24.935-135.018,99.503S73.427,497.495,147.995,497.495z"/>
		<path style="fill:#E21E56;" d="M147.997,497.497c-74.57,0-135.02-60.45-135.02-135.02c0-64.17,44.77-122.82,104.79-111.04    c-22.09,9.14-37.24,58.22-37.24,111.04C80.527,437.047,110.727,497.497,147.997,497.497z"/>
		<path style="fill:#FF3B6A;" d="M342.709,497.495c74.568,0,135.018-60.449,135.018-135.018s-60.449-141.677-135.018-99.503    c-74.568-42.174-135.018,24.935-135.018,99.503S268.141,497.495,342.709,497.495z"/>
		<path style="fill:#E21E56;" d="M342.712,497.497c-74.57,0-135.02-60.45-135.02-135.02c0-64.17,44.77-122.82,104.79-111.04    c-22.09,9.14-37.24,58.22-37.24,111.04C275.242,437.047,305.442,497.497,342.712,497.497z"/>
	</g>
	<path d="M498.845,179.666c-2.624-34.308-12.801-72.35-26.56-99.281c-23.8-46.586-67.638-77.384-114.406-80.375   c-0.034-0.002-0.067,0.002-0.101,0c-0.565-0.029-1.135,0.001-1.699,0.102c-51.278,9.15-94.565,28.698-128.658,58.101   c-27.328,23.569-48.77,53.427-63.729,88.744c-18.474,43.615-22.39,84.223-23.117,103.936c-19.083-8.342-38.376-10.572-56.409-6.403   c-19.588,4.529-37.282,16.336-51.17,34.146c-2.548,3.267-1.964,7.979,1.302,10.526c1.37,1.068,2.995,1.586,4.607,1.586   c2.231,0,4.44-0.992,5.919-2.888c11.749-15.067,26.522-25.011,42.721-28.756c18.074-4.179,37.168-0.681,56.753,10.397   c2.29,1.295,5.092,1.296,7.384,0c29.582-16.724,58.559-16.064,82.44,1.615c-21.137,22.513-33.93,55.847-33.93,91.36   c0,35.612,13.129,68.214,34.801,93.222c-23.668,22.165-54.3,34.294-87.002,34.294c-70.31,0-127.51-57.205-127.51-127.52   c0-16.998,3.366-34.058,9.735-49.338c1.594-3.823-0.214-8.215-4.037-9.808c-3.822-1.594-8.215,0.214-9.809,4.037   c-7.124,17.092-10.89,36.148-10.89,55.109c0,78.586,63.93,142.52,142.51,142.52c36.63,0,70.936-13.614,97.414-38.49   c25.491,23.859,59.719,38.491,97.305,38.491c7.381,0,14.794-0.57,22.032-1.694c4.094-0.635,6.896-4.469,6.261-8.562   c-0.636-4.093-4.468-6.899-8.562-6.26c-6.48,1.006-13.119,1.516-19.731,1.516c-70.313,0-127.518-57.204-127.518-127.518   c0-20.101,4.592-39.829,13.277-57.052c8.615-17.08,20.657-30.477,34.826-38.741c22.781-13.288,48.966-12.314,75.722,2.819   c2.291,1.295,5.094,1.295,7.385,0c26.754-15.132,52.938-16.107,75.722-2.819c14.169,8.265,26.211,21.661,34.826,38.741   c8.686,17.223,13.277,36.951,13.277,57.052c0,51.367-30.571,97.488-77.885,117.5c-3.814,1.614-5.6,6.014-3.985,9.829   c1.613,3.816,6.014,5.599,9.829,3.986c52.875-22.365,87.041-73.908,87.041-131.315c0-46.381-21.804-89.068-55.546-108.75   c-23.144-13.499-49.848-14.831-76.486-4.123c2.03-24.305-7.818-53.818-18.13-84.723c-10.173-30.486-20.691-62.01-19.857-89.052   c0.67-21.711,8.705-38.04,24.94-50.16c-0.845,2.269-1.637,4.568-2.356,6.903c-0.34,1.096-0.66,2.198-0.937,3.229   c-9.593,34.273-5.119,73.457,12.274,107.503c23.047,45.112,84.041,109.875,131.02,112.874c0.16,0.01,0.319,0.015,0.479,0.015   c2.564,0,4.967-1.314,6.345-3.503C499.844,232.256,500.533,201.7,498.845,179.666z M300.214,75.367   c-0.917,29.715,10.033,62.529,20.622,94.262c10.417,31.22,20.32,60.912,16.979,82.4c-28.474-13.262-57.314-12.746-82.077,1.698   c-3.606,2.104-7.067,4.485-10.388,7.09c-25.902-20.403-57.798-23.904-89.721-10.022c0.787-18.737,4.632-57.274,21.877-97.987   c14.053-33.179,34.144-61.184,59.713-83.236c22.885-19.737,50.291-34.763,81.8-44.899   C307.057,38.096,300.846,54.899,300.214,75.367z M476.522,240.673c-16.995-2.838-38.227-15.394-60.43-35.842   c-22.096-20.349-42.136-45.901-53.605-68.352c-15.698-30.728-19.775-65.951-11.166-96.712c0.248-0.922,0.514-1.838,0.802-2.765   c1.562-5.072,3.465-9.962,5.676-14.639c16.309,26.758,58.797,99.289,87.793,174.153c1.151,2.972,3.989,4.793,6.996,4.793   c0.9,0,1.816-0.163,2.707-0.508c3.862-1.496,5.781-5.84,4.285-9.702c-28.527-73.652-69.853-144.969-87.437-174.01   c35.665,7.595,68.02,33.389,86.785,70.119c12.914,25.278,22.478,61.144,24.96,93.602   C485.827,206.115,483.216,227.103,476.522,240.673z"/>
</g>















</svg>
