<?xml version="1.0" encoding="iso-8859-1"?>
<!-- Generator: Adobe Illustrator 19.0.0, SVG Export Plug-In . SVG Version: 6.00 Build 0)  -->
<svg version="1.1" id="Capa_1" xmlns="http://www.w3.org/2000/svg" xmlns:xlink="http://www.w3.org/1999/xlink" x="0px" y="0px"
	 viewBox="0 0 511.291 511.291" style="enable-background:new 0 0 511.291 511.291;" xml:space="preserve">
<g>
	<path style="fill:#7F5B53;" d="M264.548,259.76h-17.894c-4.69-0.002-8.533,3.722-8.678,8.409l-8.409,234.444h52.068l-8.418-234.444
		C273.072,263.485,269.235,259.763,264.548,259.76z"/>
	<g>
		<path style="fill:#805333;" d="M307.669,493.935H134.11c-4.793,0-8.678,3.885-8.678,8.678c0,4.793,3.885,8.678,8.678,8.678
			h173.559c4.793,0,8.678-3.885,8.678-8.678C316.347,497.821,312.462,493.935,307.669,493.935z"/>
		<path style="fill:#805333;" d="M377.093,493.935h-34.712c-4.793,0-8.678,3.885-8.678,8.678c0,4.793,3.885,8.678,8.678,8.678
			h34.712c4.793,0,8.678-3.885,8.678-8.678C385.771,497.821,381.886,493.935,377.093,493.935z"/>
	</g>
	<path style="fill:#4FBA6F;" d="M481.229,259.63c0.02,50.226-27.098,96.545-70.905,121.112
		c-43.808,24.568-97.47,23.551-140.316-2.658c-2.777-1.649-5.38-3.384-7.984-5.207c-2.169-1.562-4.339-3.211-6.422-4.86
		c-43.426,34.709-103.369,40.17-152.352,13.879S25.687,302.634,30.611,247.26s42.402-102.473,95.255-119.708
		C131.861,54.103,194.192-1.867,267.86,0.048s133.007,61.046,135.18,134.707C450.886,157.95,481.258,206.458,481.229,259.63z"/>
	<g>
		<circle style="fill:#C03A2B;" cx="108.076" cy="294.342" r="26.034"/>
		<circle style="fill:#C03A2B;" cx="155.805" cy="203.223" r="21.695"/>
		<circle style="fill:#C03A2B;" cx="220.89" cy="303.02" r="17.356"/>
		<circle style="fill:#C03A2B;" cx="403.127" cy="224.918" r="26.034"/>
		<circle style="fill:#C03A2B;" cx="359.737" cy="337.732" r="26.034"/>
		<circle style="fill:#C03A2B;" cx="255.601" cy="51.359" r="17.356"/>
		<circle style="fill:#C03A2B;" cx="290.313" cy="181.529" r="17.356"/>
	</g>
	<path style="fill:#4C8056;" d="M315.913,270.738c-6.248,51.807-39.485,94.156-53.89,102.14c-2.169-1.562-4.339-3.211-6.422-4.86
		c25.575-26.644,40.807-61.538,42.956-98.408c0.406-4.757,4.518-8.332,9.285-8.07c2.308,0.1,4.476,1.139,6,2.876
		C315.366,266.152,316.114,268.436,315.913,270.738z"/>
	<g>
		<path style="fill:#E64C3C;" d="M113.283,290.159c0.021,4.242-2.521,8.078-6.437,9.711c-3.915,1.633-8.429,0.741-11.429-2.259
			c-3-3-3.892-7.514-2.259-11.429c1.633-3.915,5.469-6.458,9.711-6.436C108.609,279.774,113.254,284.42,113.283,290.159z"/>
		<circle style="fill:#E64C3C;" cx="355.398" cy="332.265" r="10.457"/>
		<path style="fill:#E64C3C;" d="M409.792,218.957c0,5.78-4.686,10.466-10.466,10.466s-10.466-4.686-10.466-10.466
			s4.686-10.466,10.466-10.466S409.792,213.177,409.792,218.957z"/>
		<circle style="fill:#E64C3C;" cx="150.798" cy="198.763" r="9.459"/>
		<circle style="fill:#E64C3C;" cx="288.265" cy="178.457" r="8.678"/>
		<circle style="fill:#E64C3C;" cx="253.553" cy="48.287" r="8.678"/>
		<circle style="fill:#E64C3C;" cx="217.21" cy="299.948" r="8.678"/>
	</g>
</g>
<g>
</g>
<g>
</g>
<g>
</g>
<g>
</g>
<g>
</g>
<g>
</g>
<g>
</g>
<g>
</g>
<g>
</g>
<g>
</g>
<g>
</g>
<g>
</g>
<g>
</g>
<g>
</g>
<g>
</g>
</svg>
