<?xml version="1.0" encoding="iso-8859-1"?>
<!-- Generator: Adobe Illustrator 19.0.0, SVG Export Plug-In . SVG Version: 6.00 Build 0)  -->
<svg xmlns="http://www.w3.org/2000/svg" xmlns:xlink="http://www.w3.org/1999/xlink" version="1.1" id="Layer_1" x="0px" y="0px" viewBox="0 0 504.648 504.648" style="enable-background:new 0 0 504.648 504.648;" xml:space="preserve" width="512" height="512">
<g>
	<g>
		<path style="fill:#70D65B;" d="M374.448,48.358c-23.01,17.05-46.77,40.08-62.43,66.01l-11.52-15.87l-14.01-19.32    c13.64-27.24,33.61-51.37,58.86-70.08c3.86,5.21,7.73,10.42,11.59,15.64C362.778,32.608,368.608,40.478,374.448,48.358z"/>
		<path style="fill:#58B741;" d="M356.938,24.738c-16.25,10.71-44.67,34.28-56.44,73.76l-14.01-19.32    c13.64-27.24,33.61-51.37,58.86-70.08C349.208,14.308,353.078,19.518,356.938,24.738z"/>
		<path style="fill:#FF3B6A;" d="M468.234,265.596c0-107.177-86.884-156.572-194.061-156.572S80.113,158.42,80.113,265.596    s116.877,231.55,194.061,231.55C349.151,497.146,468.234,372.773,468.234,265.596z"/>
		<path style="fill:#E21E56;" d="M274.173,497.148c-77.19,0-194.06-124.38-194.06-231.55c0-107.18,86.88-156.57,194.06-156.57    c-50.33,0-91.13,49.39-91.13,156.57C183.043,372.768,237.923,497.148,274.173,497.148z"/>
		<path style="fill:#E21E56;" d="M200.602,380.228c-12.344-54.02-19.869-117.194,68.507-95.81l-2.846-78.959l-127.71-20.851"/>
		<path style="fill:#70D65B;" d="M326.208,174.508c0,45.44-22.57,85.61-57.1,109.91c-19.82-13.95-35.69-33.13-45.62-55.53    c-3.06,3.51-6.24,6.95-9.58,10.3c-47.5,47.49-113.08,65.89-174.58,55.2c-10.7-61.51,7.7-127.09,55.2-174.59    c3.34-3.34,6.78-6.52,10.29-9.57c-22.4-9.94-41.58-25.8-55.53-45.63c24.31-34.53,64.47-57.1,109.91-57.1    c39.41,0,74.86,16.98,99.42,44.02c3.76,4.13,7.27,8.5,10.49,13.08C303.638,88.908,326.208,129.068,326.208,174.508z"/>
		<path style="fill:#58B741;" d="M258.618,51.518v0.01c-26.24-11.57-53.33,13.04-53.33,44.96c0,0-42.53,0.22-42.53,51.99    c0,0-40.22,6.78-123.43,145.91c-10.7-61.51,7.7-127.09,55.2-174.59c3.34-3.34,6.78-6.52,10.29-9.57    c-22.4-9.94-41.58-25.8-55.53-45.63c24.31-34.53,64.47-57.1,109.91-57.1C198.608,7.498,234.058,24.478,258.618,51.518z"/>
		<g>
			<path style="fill:#FFE239;" d="M274.173,416.125c-8.786,3.833-14.929,12.592-14.929,22.79c0,0.425,0.011,0.847,0.032,1.267     c0.927,18.451,28.867,18.451,29.794,0c0.021-0.42,0.032-0.842,0.032-1.267C289.102,428.717,282.959,419.958,274.173,416.125z"/>
		</g>
		<g>
			<g>
				<path style="fill:#FFE239;" d="M325.949,277.8c-8.786,3.833-14.929,12.592-14.929,22.79c0,0.425,0.011,0.847,0.032,1.267      c0.927,18.451,28.867,18.451,29.794,0c0.021-0.42,0.032-0.842,0.032-1.267C340.878,290.392,334.735,281.633,325.949,277.8z"/>
			</g>
			<g>
				<path style="fill:#FFE239;" d="M222.398,276.497c-8.786,3.833-14.929,12.592-14.929,22.79c0,0.425,0.011,0.847,0.032,1.267      c0.927,18.451,28.867,18.451,29.794,0c0.021-0.42,0.032-0.842,0.032-1.267C237.326,289.089,231.183,280.33,222.398,276.497z"/>
			</g>
		</g>
		<g>
			<path style="fill:#FFE239;" d="M384.611,186.615c-8.786,3.833-14.929,12.592-14.929,22.79c0,0.425,0.011,0.847,0.032,1.267     c0.927,18.451,28.867,18.451,29.794,0c0.021-0.42,0.032-0.842,0.032-1.267C399.54,199.207,393.396,190.448,384.611,186.615z"/>
		</g>
		<g>
			<g>
				<path style="fill:#FFE239;" d="M179.696,350.99c-8.786,3.833-14.929,12.592-14.929,22.79c0,0.425,0.011,0.847,0.032,1.267      c0.927,18.451,28.867,18.451,29.794,0c0.021-0.42,0.032-0.842,0.032-1.267C194.624,363.582,188.481,354.823,179.696,350.99z"/>
			</g>
			<g>
				<path style="fill:#FFE239;" d="M368.651,350.99c-8.786,3.833-14.929,12.592-14.929,22.79c0,0.425,0.011,0.847,0.032,1.267      c0.927,18.451,28.867,18.451,29.794,0c0.021-0.42,0.032-0.842,0.032-1.267C383.58,363.582,377.437,354.823,368.651,350.99z"/>
			</g>
		</g>
	</g>
	<g>
		<path d="M428.004,150.976c-25.192-22.76-59.962-38.24-101.223-45.21c13.253-18.098,31.339-35.974,52.132-51.381    c1.599-1.184,2.661-2.955,2.953-4.923c0.293-1.968-0.208-3.971-1.393-5.569l-0.692-0.935    c-9.47-12.779-18.939-25.558-28.409-38.327c-2.468-3.327-7.163-4.023-10.489-1.558c-23.01,17.05-42.356,39.045-56.428,64.005    c-3.189-2.752-6.514-5.374-9.969-7.854C247.855,22.114,204.859,0,159.198,0C113.104,0,69.723,22.537,43.156,60.286    c-1.822,2.589-1.822,6.044,0,8.633c12.662,17.992,29.285,32.76,48.507,43.184c-0.828,0.799-1.643,1.599-2.44,2.396    c-7.698,7.699-14.822,16.035-21.173,24.778c-2.434,3.351-1.69,8.042,1.66,10.476c3.353,2.434,8.042,1.691,10.477-1.66    c5.89-8.108,12.499-15.843,19.643-22.987c3.07-3.07,6.406-6.172,9.914-9.221c1.936-1.683,2.878-4.238,2.497-6.775    s-2.032-4.703-4.377-5.742c-19.403-8.604-36.337-21.947-49.265-38.766C82.554,33.447,119.767,15,159.198,15    c39.121,0,76.049,18.167,100.024,48.881L227.242,95.86l-57.1-18.901c-3.933-1.302-8.175,0.831-9.477,4.763    c-1.302,3.932,0.831,8.175,4.764,9.477l49.942,16.532l-37.76,37.76l-42.556-14.087c-3.933-1.302-8.175,0.831-9.477,4.763    s0.831,8.175,4.764,9.477l35.398,11.717l-25.249,25.249c-2.929,2.929-2.929,7.677,0,10.606c1.465,1.465,3.385,2.197,5.304,2.197    s3.839-0.732,5.304-2.197l25.249-25.249l11.718,35.399c1.043,3.15,3.973,5.145,7.119,5.145c0.781,0,1.575-0.123,2.357-0.382    c3.933-1.302,6.065-5.545,4.764-9.477l-14.087-42.556l37.76-37.76l16.532,49.943c1.043,3.15,3.973,5.145,7.119,5.145    c0.781,0,1.575-0.123,2.357-0.382c3.933-1.302,6.065-5.545,4.764-9.477l-18.901-57.1l31.979-31.979    c30.714,23.974,48.881,60.902,48.881,100.024c0,39.43-18.446,76.644-49.602,100.6c-16.819-12.927-30.163-29.861-38.767-49.265    c-1.04-2.345-3.206-3.996-5.742-4.376c-2.534-0.381-5.092,0.561-6.775,2.497c-3.048,3.508-6.15,6.843-9.221,9.913    c-42.654,42.654-103.131,62.611-162.727,53.955c-5.666-39.112,0.98-79.622,18.903-114.651c1.887-3.688,0.427-8.206-3.261-10.093    c-3.686-1.886-8.205-0.427-10.093,3.26c-20.201,39.482-27.123,85.408-19.49,129.318c0.543,3.12,2.985,5.563,6.105,6.105    c11.757,2.044,23.566,3.046,35.304,3.046c1.294,0,2.587-0.023,3.88-0.048c10.442,45.882,38.287,94.57,77.144,134.553    c39.751,40.903,84.54,65.323,119.81,65.323c24.964,0,55.525-12.826,86.056-36.115c29.465-22.476,57.043-53.114,77.654-86.272    c2.188-3.518,1.108-8.142-2.409-10.329c-3.517-2.186-8.142-1.108-10.33,2.41c-19.674,31.65-45.959,60.865-74.013,82.264    c-27.932,21.307-55.263,33.041-76.958,33.041c-31.301,0-72.067-22.72-109.053-60.777c-36.287-37.338-62.441-82.422-72.704-124.947    c47.377-4.4,92.441-25.09,126.789-59.438c0.798-0.798,1.597-1.612,2.396-2.44c10.425,19.222,25.192,35.845,43.185,48.508    c2.59,1.822,6.045,1.822,8.633,0c37.749-26.568,60.285-69.949,60.285-116.043c0-18.838-3.773-37.219-10.801-54.188    c39.035,6.377,71.699,20.695,95.041,41.783c28.393,25.65,42.789,60.47,42.789,103.492c0,24.927-6.65,51.743-19.766,79.706    c-1.759,3.75-0.145,8.216,3.605,9.975c1.029,0.483,2.112,0.711,3.18,0.711c2.818,0,5.52-1.596,6.795-4.317    c14.058-29.971,21.186-58.931,21.186-86.076C475.738,218.154,459.678,179.59,428.004,150.976z M343.879,19.709    c6.712,9.053,13.423,18.108,20.135,27.166c-20.606,16.103-38.43,34.508-51.521,53.106c-4.867-7.879-10.511-15.294-16.868-22.126    C307.613,55.513,324.14,35.603,343.879,19.709z"/>
		<path d="M277.172,409.25c-1.912-0.834-4.086-0.834-5.998,0c-11.803,5.15-19.43,16.793-19.43,29.664    c0,0.548,0.014,1.093,0.041,1.643c0.69,13.762,11.785,20.963,22.388,20.963s21.697-7.201,22.389-20.973    c0.026-0.541,0.04-1.085,0.04-1.633C296.602,426.044,288.975,414.4,277.172,409.25z M281.581,439.805    c-0.321,6.391-6.227,6.715-7.407,6.715s-7.086-0.324-7.406-6.705c-0.015-0.298-0.022-0.599-0.022-0.901    c0-5.742,2.832-11.03,7.429-14.237c4.597,3.207,7.429,8.495,7.429,14.237C281.602,439.216,281.594,439.517,281.581,439.805z"/>
		<path d="M328.949,270.926c-1.912-0.834-4.086-0.834-5.998,0c-11.804,5.149-19.431,16.793-19.431,29.664    c0,0.553,0.014,1.104,0.042,1.643c0.69,13.762,11.785,20.963,22.387,20.963c10.603,0,21.697-7.201,22.388-20.955    c0.028-0.547,0.042-1.097,0.042-1.65C348.378,287.719,340.751,276.076,328.949,270.926z M333.356,301.48    c-0.321,6.391-6.227,6.715-7.407,6.715c-1.18,0-7.085-0.324-7.406-6.722c-0.015-0.292-0.022-0.587-0.022-0.883    c0-5.743,2.831-11.03,7.43-14.237c4.598,3.207,7.429,8.495,7.429,14.237C333.378,300.886,333.371,301.181,333.356,301.48z"/>
		<path d="M222.398,321.892c10.602,0,21.696-7.2,22.387-20.955c0.028-0.547,0.042-1.097,0.042-1.651    c0-12.87-7.627-24.514-19.43-29.664c-1.912-0.834-4.086-0.834-5.998,0c-11.804,5.149-19.431,16.793-19.431,29.664    c0,0.554,0.014,1.104,0.042,1.643C200.701,314.692,211.795,321.892,222.398,321.892z M222.398,285.049    c4.598,3.207,7.429,8.495,7.429,14.237c0,0.296-0.008,0.591-0.022,0.891c-0.321,6.391-6.227,6.715-7.406,6.715    c-1.181,0-7.086-0.324-7.407-6.722c-0.015-0.292-0.022-0.587-0.022-0.884C214.968,293.544,217.799,288.256,222.398,285.049z"/>
		<path d="M406.999,211.037c0.026-0.541,0.04-1.085,0.04-1.633c0-12.87-7.627-24.514-19.43-29.664c-1.912-0.834-4.086-0.834-5.998,0    c-11.803,5.15-19.43,16.793-19.43,29.664c0,0.548,0.014,1.092,0.041,1.643c0.69,13.762,11.785,20.963,22.388,20.963    S406.308,224.81,406.999,211.037z M392.018,210.295c-0.321,6.391-6.227,6.715-7.407,6.715s-7.086-0.324-7.406-6.705    c-0.015-0.299-0.022-0.599-0.022-0.901c0-5.742,2.832-11.03,7.429-14.237c4.597,3.207,7.429,8.495,7.429,14.237    C392.039,209.707,392.032,210.007,392.018,210.295z"/>
		<path d="M182.695,344.115c-1.912-0.834-4.086-0.834-5.998,0c-11.803,5.15-19.43,16.793-19.43,29.664    c0,0.548,0.014,1.092,0.041,1.643c0.69,13.762,11.786,20.963,22.389,20.962c10.602,0,21.695-7.201,22.386-20.955    c0.028-0.547,0.042-1.097,0.042-1.651C202.124,360.909,194.497,349.265,182.695,344.115z M187.102,374.671    c-0.321,6.39-6.226,6.714-7.406,6.714s-7.086-0.324-7.406-6.705c-0.015-0.299-0.022-0.599-0.022-0.901    c0-5.742,2.832-11.03,7.429-14.237c4.597,3.207,7.429,8.495,7.429,14.237C187.124,374.076,187.117,374.37,187.102,374.671z"/>
		<path d="M368.652,396.385c10.602,0,21.696-7.2,22.387-20.955c0.028-0.547,0.041-1.097,0.041-1.651    c0-12.871-7.627-24.515-19.43-29.664c-1.912-0.834-4.086-0.834-5.998,0c-11.803,5.15-19.43,16.793-19.43,29.664    c0,0.554,0.014,1.104,0.042,1.643C346.955,389.185,358.049,396.385,368.652,396.385z M368.651,359.542    c4.598,3.207,7.429,8.495,7.429,14.237c0,0.296-0.007,0.591-0.021,0.891c-0.321,6.391-6.227,6.715-7.406,6.715    c-1.181,0-7.086-0.324-7.407-6.722c-0.015-0.292-0.022-0.587-0.022-0.884C361.222,368.037,364.053,362.749,368.651,359.542z"/>
	</g>
</g>















</svg>
